<svg xmlns="http://www.w3.org/2000/svg" xmlns:xlink="http://www.w3.org/1999/xlink" width="100" zoomAndPan="magnify" viewBox="0 0 75 74.999997" height="100" preserveAspectRatio="xMidYMid meet" version="1.0"><defs><clipPath id="af3600f7f7"><path d="M 0 48 L 23 48 L 23 70.6875 L 0 70.6875 Z M 0 48 " clip-rule="nonzero"/></clipPath><clipPath id="0d6cb27a5c"><path d="M 57 4.6875 L 70 4.6875 L 70 26 L 57 26 Z M 57 4.6875 " clip-rule="nonzero"/></clipPath><clipPath id="9a079cfdbd"><path d="M 0 47 L 23 47 L 23 70.6875 L 0 70.6875 Z M 0 47 " clip-rule="nonzero"/></clipPath></defs><path fill="#c2d5ec" d="M 66.980469 36.71875 C 67.003906 37.652344 66.976562 38.585938 66.90625 39.515625 C 66.832031 40.445312 66.714844 41.371094 66.546875 42.292969 C 66.382812 43.210938 66.167969 44.121094 65.910156 45.019531 C 65.652344 45.921875 65.347656 46.808594 65 47.679688 C 64.652344 48.550781 64.261719 49.402344 63.824219 50.234375 C 63.390625 51.070312 62.914062 51.882812 62.398438 52.671875 C 61.878906 53.460938 61.324219 54.222656 60.726562 54.960938 C 60.132812 55.695312 59.503906 56.402344 58.835938 57.078125 C 58.167969 57.753906 57.46875 58.398438 56.738281 59.007812 C 56.007812 59.621094 55.246094 60.195312 54.457031 60.730469 C 53.664062 61.269531 52.847656 61.769531 52.007812 62.230469 C 51.167969 62.691406 50.304688 63.109375 49.421875 63.488281 C 48.539062 63.871094 47.640625 64.207031 46.722656 64.5 C 45.804688 64.792969 44.875 65.042969 43.933594 65.246094 C 42.988281 65.453125 42.039062 65.613281 41.082031 65.726562 C 40.121094 65.84375 39.160156 65.914062 38.195312 65.9375 C 37.230469 65.960938 36.265625 65.9375 35.300781 65.871094 C 34.339844 65.804688 33.382812 65.691406 32.429688 65.53125 C 31.480469 65.371094 30.539062 65.167969 29.609375 64.921875 C 28.675781 64.671875 27.761719 64.382812 26.859375 64.046875 C 25.960938 63.710938 25.078125 63.332031 24.214844 62.914062 C 23.355469 62.496094 22.515625 62.039062 21.699219 61.539062 C 20.886719 61.039062 20.097656 60.503906 19.335938 59.929688 C 18.574219 59.355469 17.847656 58.75 17.148438 58.105469 C 16.449219 57.460938 15.785156 56.789062 15.152344 56.082031 C 14.523438 55.375 13.929688 54.640625 13.375 53.878906 C 12.820312 53.117188 12.304688 52.328125 11.832031 51.515625 C 11.355469 50.703125 10.921875 49.871094 10.53125 49.019531 C 10.140625 48.167969 9.796875 47.296875 9.492188 46.410156 C 9.191406 45.523438 8.933594 44.625 8.722656 43.714844 C 8.511719 42.804688 8.347656 41.886719 8.230469 40.960938 C 8.113281 40.035156 8.046875 39.105469 8.023438 38.171875 C 8 37.238281 8.023438 36.308594 8.097656 35.375 C 8.167969 34.445312 8.289062 33.519531 8.453125 32.597656 C 8.621094 31.679688 8.832031 30.769531 9.089844 29.871094 C 9.347656 28.96875 9.652344 28.085938 10 27.214844 C 10.347656 26.34375 10.742188 25.488281 11.175781 24.65625 C 11.609375 23.820312 12.085938 23.007812 12.605469 22.21875 C 13.121094 21.429688 13.679688 20.667969 14.273438 19.933594 C 14.867188 19.195312 15.5 18.488281 16.164062 17.8125 C 16.832031 17.136719 17.53125 16.492188 18.261719 15.882812 C 18.996094 15.273438 19.757812 14.699219 20.546875 14.160156 C 21.335938 13.621094 22.152344 13.121094 22.992188 12.660156 C 23.832031 12.199219 24.695312 11.78125 25.578125 11.402344 C 26.460938 11.023438 27.363281 10.6875 28.28125 10.390625 C 29.195312 10.097656 30.125 9.847656 31.070312 9.644531 C 32.011719 9.4375 32.960938 9.277344 33.921875 9.164062 C 34.878906 9.046875 35.839844 8.976562 36.808594 8.953125 C 37.773438 8.929688 38.738281 8.953125 39.699219 9.019531 C 40.664062 9.089844 41.621094 9.203125 42.570312 9.359375 C 43.523438 9.519531 44.464844 9.722656 45.394531 9.96875 C 46.324219 10.21875 47.238281 10.511719 48.140625 10.84375 C 49.042969 11.179688 49.921875 11.558594 50.785156 11.976562 C 51.648438 12.394531 52.484375 12.855469 53.300781 13.351562 C 54.117188 13.851562 54.90625 14.386719 55.664062 14.960938 C 56.425781 15.535156 57.15625 16.144531 57.855469 16.785156 C 58.554688 17.429688 59.21875 18.105469 59.847656 18.808594 C 60.476562 19.515625 61.070312 20.25 61.625 21.011719 C 62.179688 21.777344 62.695312 22.5625 63.171875 23.375 C 63.648438 24.1875 64.078125 25.019531 64.46875 25.871094 C 64.859375 26.726562 65.207031 27.59375 65.507812 28.480469 C 65.8125 29.367188 66.066406 30.265625 66.277344 31.175781 C 66.488281 32.085938 66.652344 33.003906 66.769531 33.929688 C 66.886719 34.855469 66.957031 35.785156 66.980469 36.71875 Z M 66.980469 36.71875 " fill-opacity="1" fill-rule="nonzero"/><path fill="#3f4d80" d="M 9.019531 30.105469 C 10.3125 30.652344 11.730469 30.957031 13.21875 30.957031 C 19.230469 30.957031 24.097656 26.039062 24.097656 19.96875 C 24.097656 17.460938 23.257812 15.160156 21.859375 13.308594 C 19.769531 14.578125 17.8125 16.121094 16.042969 17.9375 C 12.578125 21.5 10.242188 25.695312 9.019531 30.105469 Z M 9.019531 30.105469 " fill-opacity="1" fill-rule="nonzero"/><path fill="#3f4d80" d="M 13.265625 49.898438 C 12.511719 49.898438 11.777344 49.976562 11.0625 50.125 C 12.578125 53.082031 14.648438 55.832031 17.28125 58.222656 C 19.332031 60.085938 21.589844 61.605469 23.972656 62.792969 C 24.082031 62.171875 24.148438 61.535156 24.148438 60.886719 C 24.144531 54.816406 19.277344 49.898438 13.265625 49.898438 Z M 13.265625 49.898438 " fill-opacity="1" fill-rule="nonzero"/><path fill="#3f4d80" d="M 65.679688 29 C 64.230469 24.4375 61.578125 20.167969 57.726562 16.664062 C 56.84375 15.863281 55.921875 15.132812 54.972656 14.460938 C 54.589844 15.582031 54.371094 16.78125 54.371094 18.039062 C 54.371094 24.105469 59.242188 29.023438 65.25 29.023438 C 65.394531 29.023438 65.535156 29.007812 65.679688 29 Z M 65.679688 29 " fill-opacity="1" fill-rule="nonzero"/><path fill="#3f4d80" d="M 48.941406 29.011719 L 46.726562 29.011719 L 46.726562 28.21875 C 46.726562 27.421875 46.085938 26.773438 45.292969 26.773438 L 29.574219 26.773438 C 28.785156 26.773438 28.144531 27.421875 28.144531 28.21875 L 28.144531 48.480469 C 28.144531 49.277344 28.785156 49.925781 29.574219 49.925781 L 30.359375 49.925781 L 30.359375 50.71875 C 30.359375 51.515625 31 52.164062 31.792969 52.164062 L 46.402344 52.164062 C 46.824219 52.164062 47.226562 51.996094 47.527344 51.691406 L 49.90625 49.289062 C 50.207031 48.988281 50.371094 48.578125 50.371094 48.152344 L 50.371094 30.457031 C 50.375 29.660156 49.734375 29.011719 48.941406 29.011719 Z M 48.941406 29.011719 " fill-opacity="1" fill-rule="nonzero"/><path fill="#e9eaeb" d="M 10.613281 15.148438 L 16.832031 21.429688 C 16.832031 21.429688 19.484375 18.75 22.136719 16.070312 C 21.15625 11.019531 16.753906 7.210938 11.464844 7.210938 C 5.457031 7.210938 0.585938 12.128906 0.585938 18.195312 C 0.585938 20.226562 1.128906 22.132812 2.082031 23.761719 Z M 10.613281 15.148438 " fill-opacity="1" fill-rule="nonzero"/><path fill="#7184af" d="M 16.832031 21.429688 L 10.613281 15.148438 L 2.082031 23.761719 C 3.972656 27.007812 7.464844 29.183594 11.464844 29.183594 C 17.472656 29.183594 22.34375 24.265625 22.34375 18.195312 C 22.34375 17.46875 22.269531 16.757812 22.136719 16.070312 C 19.484375 18.746094 16.832031 21.429688 16.832031 21.429688 Z M 16.832031 21.429688 " fill-opacity="1" fill-rule="nonzero"/><path fill="#f79559" d="M 12.382812 15.148438 C 12.382812 15.382812 12.335938 15.613281 12.246094 15.832031 C 12.15625 16.050781 12.027344 16.242188 11.863281 16.410156 C 11.695312 16.578125 11.503906 16.707031 11.289062 16.796875 C 11.070312 16.890625 10.847656 16.933594 10.613281 16.933594 C 10.375 16.933594 10.152344 16.890625 9.933594 16.796875 C 9.71875 16.707031 9.527344 16.578125 9.359375 16.410156 C 9.195312 16.242188 9.066406 16.050781 8.976562 15.832031 C 8.886719 15.613281 8.839844 15.382812 8.839844 15.148438 C 8.839844 14.910156 8.886719 14.683594 8.976562 14.464844 C 9.066406 14.246094 9.195312 14.050781 9.359375 13.882812 C 9.527344 13.714844 9.71875 13.585938 9.933594 13.496094 C 10.152344 13.40625 10.375 13.359375 10.613281 13.359375 C 10.847656 13.359375 11.070312 13.40625 11.289062 13.496094 C 11.503906 13.585938 11.695312 13.714844 11.863281 13.882812 C 12.027344 14.050781 12.15625 14.246094 12.246094 14.464844 C 12.335938 14.683594 12.382812 14.910156 12.382812 15.148438 Z M 12.382812 15.148438 " fill-opacity="1" fill-rule="nonzero"/><path fill="#f79559" d="M 18.601562 21.429688 C 18.601562 21.664062 18.554688 21.894531 18.464844 22.113281 C 18.375 22.332031 18.25 22.523438 18.082031 22.691406 C 17.917969 22.859375 17.726562 22.988281 17.507812 23.078125 C 17.292969 23.167969 17.066406 23.214844 16.832031 23.214844 C 16.597656 23.214844 16.371094 23.167969 16.152344 23.078125 C 15.9375 22.988281 15.746094 22.859375 15.578125 22.691406 C 15.414062 22.523438 15.285156 22.332031 15.195312 22.113281 C 15.105469 21.894531 15.0625 21.664062 15.0625 21.429688 C 15.0625 21.191406 15.105469 20.964844 15.195312 20.742188 C 15.285156 20.523438 15.414062 20.332031 15.578125 20.164062 C 15.746094 19.996094 15.9375 19.867188 16.152344 19.777344 C 16.371094 19.6875 16.597656 19.640625 16.832031 19.640625 C 17.066406 19.640625 17.292969 19.6875 17.507812 19.777344 C 17.726562 19.867188 17.917969 19.996094 18.082031 20.164062 C 18.25 20.332031 18.375 20.523438 18.464844 20.742188 C 18.554688 20.964844 18.601562 21.191406 18.601562 21.429688 Z M 18.601562 21.429688 " fill-opacity="1" fill-rule="nonzero"/><path fill="#7184af" d="M 28.605469 28.6875 C 28.605469 27.886719 29.246094 27.242188 30.035156 27.242188 L 44.96875 27.242188 L 44.96875 26.445312 C 44.96875 25.648438 44.328125 25 43.539062 25 L 27.820312 25 C 27.027344 25 26.386719 25.648438 26.386719 26.445312 L 26.386719 46.707031 C 26.386719 47.503906 27.027344 48.152344 27.820312 48.152344 L 28.605469 48.152344 Z M 28.605469 28.6875 " fill-opacity="1" fill-rule="nonzero"/><path fill="#e9eaeb" d="M 45.304688 50.390625 L 30.035156 50.390625 C 29.246094 50.390625 28.605469 49.742188 28.605469 48.945312 L 28.605469 28.6875 C 28.605469 27.886719 29.246094 27.242188 30.035156 27.242188 L 47.1875 27.242188 C 47.976562 27.242188 48.617188 27.886719 48.617188 28.6875 L 48.617188 47.046875 Z M 45.304688 50.390625 " fill-opacity="1" fill-rule="nonzero"/><path fill="#f8f8f8" d="M 48.617188 28.683594 L 48.617188 29.183594 L 31.078125 29.183594 C 30.832031 29.183594 30.632812 29.382812 30.632812 29.636719 L 30.632812 50.394531 L 30.035156 50.394531 C 29.246094 50.394531 28.605469 49.742188 28.605469 48.945312 L 28.605469 28.683594 C 28.605469 27.886719 29.246094 27.242188 30.035156 27.242188 L 47.1875 27.242188 C 47.980469 27.242188 48.617188 27.886719 48.617188 28.683594 Z M 48.617188 28.683594 " fill-opacity="1" fill-rule="nonzero"/><path fill="#3f4d80" d="M 45.304688 47.046875 L 48.617188 47.046875 L 45.304688 50.390625 Z M 45.304688 47.046875 " fill-opacity="1" fill-rule="nonzero"/><path fill="#3f4d80" d="M 65.394531 31.976562 C 65.394531 32.234375 65.347656 32.476562 65.25 32.714844 C 65.152344 32.949219 65.015625 33.15625 64.839844 33.335938 C 64.660156 33.515625 64.453125 33.65625 64.222656 33.75 C 63.988281 33.847656 63.746094 33.898438 63.492188 33.898438 C 63.242188 33.898438 63 33.847656 62.765625 33.75 C 62.535156 33.65625 62.328125 33.515625 62.148438 33.335938 C 61.972656 33.15625 61.835938 32.949219 61.738281 32.714844 C 61.640625 32.476562 61.59375 32.234375 61.59375 31.976562 C 61.59375 31.722656 61.640625 31.480469 61.738281 31.242188 C 61.835938 31.007812 61.972656 30.800781 62.148438 30.621094 C 62.328125 30.441406 62.535156 30.300781 62.765625 30.207031 C 63 30.109375 63.242188 30.058594 63.492188 30.058594 C 63.746094 30.058594 63.988281 30.109375 64.222656 30.207031 C 64.453125 30.300781 64.660156 30.441406 64.839844 30.621094 C 65.015625 30.800781 65.152344 31.007812 65.25 31.242188 C 65.347656 31.480469 65.394531 31.722656 65.394531 31.976562 Z M 65.394531 31.976562 " fill-opacity="1" fill-rule="nonzero"/><path fill="#3f4d80" d="M 13.414062 42.910156 C 13.414062 43.164062 13.363281 43.410156 13.269531 43.644531 C 13.171875 43.878906 13.035156 44.085938 12.855469 44.265625 C 12.679688 44.445312 12.472656 44.585938 12.238281 44.683594 C 12.007812 44.78125 11.765625 44.828125 11.511719 44.828125 C 11.261719 44.828125 11.015625 44.78125 10.785156 44.683594 C 10.550781 44.585938 10.347656 44.445312 10.167969 44.265625 C 9.988281 44.085938 9.851562 43.878906 9.753906 43.644531 C 9.660156 43.410156 9.609375 43.164062 9.609375 42.910156 C 9.609375 42.65625 9.660156 42.410156 9.753906 42.175781 C 9.851562 41.941406 9.988281 41.734375 10.167969 41.550781 C 10.347656 41.371094 10.550781 41.234375 10.785156 41.136719 C 11.015625 41.039062 11.261719 40.992188 11.511719 40.992188 C 11.765625 40.992188 12.007812 41.039062 12.238281 41.136719 C 12.472656 41.234375 12.679688 41.371094 12.855469 41.550781 C 13.035156 41.734375 13.171875 41.941406 13.269531 42.175781 C 13.363281 42.410156 13.414062 42.65625 13.414062 42.910156 Z M 13.414062 42.910156 " fill-opacity="1" fill-rule="nonzero"/><path fill="#3f4d80" d="M 28.925781 18.195312 C 28.925781 18.453125 28.878906 18.695312 28.78125 18.929688 C 28.6875 19.167969 28.546875 19.375 28.371094 19.554688 C 28.191406 19.734375 27.988281 19.871094 27.753906 19.96875 C 27.519531 20.066406 27.277344 20.117188 27.027344 20.117188 C 26.773438 20.117188 26.53125 20.066406 26.300781 19.96875 C 26.066406 19.871094 25.859375 19.734375 25.683594 19.554688 C 25.503906 19.375 25.367188 19.167969 25.269531 18.929688 C 25.171875 18.695312 25.125 18.453125 25.125 18.195312 C 25.125 17.941406 25.171875 17.699219 25.269531 17.460938 C 25.367188 17.226562 25.503906 17.019531 25.683594 16.839844 C 25.859375 16.660156 26.066406 16.519531 26.300781 16.421875 C 26.53125 16.328125 26.773438 16.277344 27.027344 16.277344 C 27.277344 16.277344 27.519531 16.328125 27.753906 16.421875 C 27.988281 16.519531 28.191406 16.660156 28.371094 16.839844 C 28.546875 17.019531 28.6875 17.226562 28.78125 17.460938 C 28.878906 17.699219 28.925781 17.941406 28.925781 18.195312 Z M 28.925781 18.195312 " fill-opacity="1" fill-rule="nonzero"/><path fill="#3f4d80" d="M 50.417969 56.691406 C 50.417969 56.945312 50.371094 57.191406 50.273438 57.425781 C 50.175781 57.660156 50.039062 57.867188 49.863281 58.050781 C 49.683594 58.230469 49.476562 58.367188 49.246094 58.464844 C 49.011719 58.5625 48.769531 58.609375 48.519531 58.609375 C 48.265625 58.609375 48.023438 58.5625 47.789062 58.464844 C 47.558594 58.367188 47.351562 58.230469 47.175781 58.050781 C 46.996094 57.867188 46.859375 57.660156 46.761719 57.425781 C 46.664062 57.191406 46.617188 56.945312 46.617188 56.691406 C 46.617188 56.4375 46.664062 56.191406 46.761719 55.957031 C 46.859375 55.722656 46.996094 55.515625 47.175781 55.335938 C 47.351562 55.15625 47.558594 55.015625 47.789062 54.917969 C 48.023438 54.820312 48.265625 54.773438 48.519531 54.773438 C 48.769531 54.773438 49.011719 54.820312 49.246094 54.917969 C 49.476562 55.015625 49.683594 55.15625 49.863281 55.335938 C 50.039062 55.515625 50.175781 55.722656 50.273438 55.957031 C 50.371094 56.191406 50.417969 56.4375 50.417969 56.691406 Z M 50.417969 56.691406 " fill-opacity="1" fill-rule="nonzero"/><path fill="#7184af" d="M 74.414062 56.695312 C 74.414062 57.417969 74.34375 58.132812 74.203125 58.839844 C 74.066406 59.546875 73.859375 60.234375 73.585938 60.902344 C 73.3125 61.570312 72.976562 62.203125 72.578125 62.804688 C 72.183594 63.402344 71.730469 63.957031 71.226562 64.46875 C 70.722656 64.980469 70.171875 65.433594 69.578125 65.835938 C 68.984375 66.238281 68.355469 66.574219 67.695312 66.851562 C 67.035156 67.128906 66.355469 67.335938 65.652344 67.476562 C 64.953125 67.617188 64.246094 67.6875 63.53125 67.6875 C 62.816406 67.6875 62.105469 67.617188 61.40625 67.476562 C 60.707031 67.335938 60.023438 67.128906 59.363281 66.851562 C 58.703125 66.574219 58.078125 66.238281 57.484375 65.835938 C 56.886719 65.433594 56.339844 64.980469 55.832031 64.46875 C 55.328125 63.957031 54.875 63.402344 54.480469 62.804688 C 54.082031 62.203125 53.746094 61.570312 53.472656 60.902344 C 53.199219 60.234375 52.992188 59.546875 52.855469 58.839844 C 52.714844 58.132812 52.644531 57.417969 52.644531 56.695312 C 52.644531 55.976562 52.714844 55.261719 52.855469 54.550781 C 52.992188 53.84375 53.199219 53.15625 53.472656 52.492188 C 53.746094 51.824219 54.082031 51.191406 54.480469 50.589844 C 54.875 49.988281 55.328125 49.433594 55.832031 48.925781 C 56.339844 48.414062 56.886719 47.957031 57.484375 47.558594 C 58.078125 47.15625 58.703125 46.816406 59.363281 46.542969 C 60.023438 46.265625 60.707031 46.058594 61.40625 45.917969 C 62.105469 45.777344 62.816406 45.707031 63.53125 45.707031 C 64.246094 45.707031 64.953125 45.777344 65.652344 45.917969 C 66.355469 46.058594 67.035156 46.265625 67.695312 46.542969 C 68.355469 46.816406 68.984375 47.15625 69.578125 47.558594 C 70.171875 47.957031 70.722656 48.414062 71.226562 48.925781 C 71.730469 49.433594 72.183594 49.988281 72.578125 50.589844 C 72.976562 51.191406 73.3125 51.824219 73.585938 52.492188 C 73.859375 53.15625 74.066406 53.84375 74.203125 54.550781 C 74.34375 55.261719 74.414062 55.976562 74.414062 56.695312 Z M 74.414062 56.695312 " fill-opacity="1" fill-rule="nonzero"/><path fill="#f8f8f8" d="M 63.453125 53.0625 C 62.75 53.0625 62.179688 53.640625 62.179688 54.347656 C 62.179688 54.5 62.152344 54.640625 62.105469 54.777344 C 61.910156 54.105469 61.300781 53.613281 60.570312 53.613281 C 59.738281 53.613281 59.0625 54.257812 58.980469 55.078125 L 58.980469 55.398438 C 58.992188 55.742188 59.035156 56.082031 59.125 56.402344 C 59.136719 56.433594 59.144531 56.464844 59.152344 56.496094 C 59.699219 58.292969 60.066406 60.144531 60.066406 62.023438 L 62.925781 64.910156 L 63.222656 61.707031 L 63.222656 60.546875 C 63.75 60.824219 64.371094 60.945312 65.027344 60.839844 C 66.457031 60.613281 67.480469 59.316406 67.480469 57.855469 L 67.480469 54.035156 C 67.480469 53.695312 67.421875 53.371094 67.324219 53.0625 Z M 63.453125 53.0625 " fill-opacity="1" fill-rule="nonzero"/><path fill="#ffa85a" d="M 64.507812 62.96875 L 63.222656 61.707031 L 62.925781 64.910156 L 60.066406 62.023438 L 59.011719 62.933594 C 59.011719 62.933594 57.433594 63.535156 56.25 64.855469 C 58.179688 66.613281 60.726562 67.6875 63.527344 67.6875 C 65.289062 67.6875 66.949219 67.265625 68.417969 66.519531 C 67.15625 63.445312 64.507812 62.96875 64.507812 62.96875 Z M 64.507812 62.96875 " fill-opacity="1" fill-rule="nonzero"/><path fill="#3f4d80" d="M 68.953125 49.097656 L 61.851562 49.097656 C 60.257812 49.097656 58.964844 50.402344 58.964844 52.011719 L 58.964844 55.238281 C 58.964844 54.339844 59.683594 53.613281 60.570312 53.613281 C 61.300781 53.613281 61.90625 54.105469 62.105469 54.777344 C 62.152344 54.644531 62.179688 54.5 62.179688 54.347656 C 62.179688 53.640625 62.75 53.0625 63.453125 53.0625 L 67.320312 53.0625 C 67.320312 50.628906 68.953125 49.097656 68.953125 49.097656 Z M 68.953125 49.097656 " fill-opacity="1" fill-rule="nonzero"/><path fill="#ffa85a" d="M 68.832031 6.699219 L 68.832031 22.542969 C 67.398438 23.789062 65.535156 24.546875 63.492188 24.546875 C 61.453125 24.546875 59.589844 23.789062 58.152344 22.542969 L 58.152344 6.699219 C 54.847656 8.582031 52.613281 12.15625 52.613281 16.261719 C 52.613281 22.332031 57.484375 27.25 63.492188 27.25 C 69.5 27.25 74.371094 22.332031 74.371094 16.261719 C 74.371094 12.15625 72.136719 8.582031 68.832031 6.699219 Z M 68.832031 6.699219 " fill-opacity="1" fill-rule="nonzero"/><path fill="#7184af" d="M 58.152344 9.984375 C 56.402344 11.503906 55.289062 13.75 55.289062 16.261719 C 55.289062 18.777344 56.402344 21.023438 58.152344 22.542969 Z M 58.152344 9.984375 " fill-opacity="1" fill-rule="nonzero"/><path fill="#7184af" d="M 68.832031 9.984375 L 68.832031 22.542969 C 68.675781 22.679688 68.511719 22.808594 68.34375 22.933594 C 70.375 21.425781 71.695312 19.003906 71.695312 16.261719 C 71.695312 13.75 70.585938 11.503906 68.832031 9.984375 Z M 68.832031 9.984375 " fill-opacity="1" fill-rule="nonzero"/><path fill="#e9eaeb" d="M 67.664062 5.277344 L 59.324219 5.277344 C 58.679688 5.277344 58.152344 5.804688 58.152344 6.457031 L 58.152344 22.542969 C 59.589844 23.789062 61.453125 24.546875 63.492188 24.546875 C 65.535156 24.546875 67.398438 23.789062 68.835938 22.542969 L 68.835938 6.457031 C 68.832031 5.804688 68.308594 5.277344 67.664062 5.277344 Z M 67.664062 5.277344 " fill-opacity="1" fill-rule="nonzero"/><g clip-path="url(#af3600f7f7)"><path fill="#61e1ff" d="M 18.519531 50.710938 L 18.519531 63.851562 C 17.660156 65.144531 16.457031 66.1875 15.042969 66.84375 L 15.042969 48.71875 C 13.9375 48.335938 12.75 48.125 11.511719 48.125 C 5.503906 48.125 0.632812 53.042969 0.632812 59.113281 C 0.632812 65.179688 5.503906 70.097656 11.511719 70.097656 C 17.519531 70.097656 22.390625 65.179688 22.390625 59.113281 C 22.390625 55.742188 20.886719 52.726562 18.519531 50.710938 Z M 18.519531 50.710938 " fill-opacity="1" fill-rule="nonzero"/></g><path fill="#f8f8f8" d="M 15.042969 51.378906 C 13.96875 50.875 12.773438 50.59375 11.511719 50.59375 C 6.851562 50.59375 3.078125 54.40625 3.078125 59.113281 C 3.078125 63.816406 6.855469 67.628906 11.511719 67.628906 C 12.773438 67.628906 13.96875 67.347656 15.042969 66.84375 Z M 15.042969 51.378906 " fill-opacity="1" fill-rule="nonzero"/><path fill="#f8f8f8" d="M 18.519531 63.851562 C 19.417969 62.496094 19.945312 60.867188 19.945312 59.113281 C 19.945312 57.355469 19.417969 55.726562 18.519531 54.371094 Z M 18.519531 63.851562 " fill-opacity="1" fill-rule="nonzero"/><path fill="#ffa85a" d="M 18.519531 63.851562 L 18.519531 47.304688 L 15.042969 47.304688 L 15.042969 66.84375 C 16.457031 66.1875 17.660156 65.144531 18.519531 63.851562 Z M 18.519531 63.851562 " fill-opacity="1" fill-rule="nonzero"/><path fill="#ffa85a" d="M 7.980469 66.84375 L 7.980469 59.113281 L 4.503906 59.113281 L 4.503906 63.851562 C 5.363281 65.144531 6.566406 66.1875 7.980469 66.84375 Z M 7.980469 66.84375 " fill-opacity="1" fill-rule="nonzero"/><path fill="#ffa85a" d="M 11.511719 67.628906 C 12.109375 67.628906 12.6875 67.566406 13.25 67.445312 L 13.25 55.023438 L 9.773438 55.023438 L 9.773438 67.445312 C 10.335938 67.566406 10.917969 67.628906 11.511719 67.628906 Z M 11.511719 67.628906 " fill-opacity="1" fill-rule="nonzero"/><path fill="#3f4d80" d="M 41.65625 47.632812 L 32.253906 47.632812 C 31.929688 47.632812 31.667969 47.371094 31.667969 47.046875 C 31.667969 46.71875 31.929688 46.457031 32.253906 46.457031 L 41.65625 46.457031 C 41.980469 46.457031 42.242188 46.71875 42.242188 47.046875 C 42.242188 47.371094 41.980469 47.632812 41.65625 47.632812 Z M 41.65625 47.632812 " fill-opacity="1" fill-rule="nonzero"/><path fill="#3f4d80" d="M 44.96875 44.433594 L 32.253906 44.433594 C 31.929688 44.433594 31.667969 44.171875 31.667969 43.84375 C 31.667969 43.519531 31.929688 43.253906 32.253906 43.253906 L 44.96875 43.253906 C 45.292969 43.253906 45.554688 43.519531 45.554688 43.84375 C 45.554688 44.171875 45.292969 44.433594 44.96875 44.433594 Z M 44.96875 44.433594 " fill-opacity="1" fill-rule="nonzero"/><path fill="#3f4d80" d="M 44.96875 34.832031 L 32.253906 34.832031 C 31.929688 34.832031 31.667969 34.570312 31.667969 34.242188 C 31.667969 33.917969 31.929688 33.65625 32.253906 33.65625 L 44.96875 33.65625 C 45.292969 33.65625 45.554688 33.917969 45.554688 34.242188 C 45.554688 34.570312 45.292969 34.832031 44.96875 34.832031 Z M 44.96875 34.832031 " fill-opacity="1" fill-rule="nonzero"/><path fill="#3f4d80" d="M 44.96875 31.632812 L 32.253906 31.632812 C 31.929688 31.632812 31.667969 31.371094 31.667969 31.042969 C 31.667969 30.71875 31.929688 30.453125 32.253906 30.453125 L 44.96875 30.453125 C 45.292969 30.453125 45.554688 30.71875 45.554688 31.042969 C 45.554688 31.371094 45.292969 31.632812 44.96875 31.632812 Z M 44.96875 31.632812 " fill-opacity="1" fill-rule="nonzero"/><path fill="#3f4d80" d="M 44.96875 38.035156 L 32.253906 38.035156 C 31.929688 38.035156 31.667969 37.769531 31.667969 37.445312 C 31.667969 37.117188 31.929688 36.855469 32.253906 36.855469 L 44.96875 36.855469 C 45.292969 36.855469 45.554688 37.117188 45.554688 37.445312 C 45.554688 37.769531 45.292969 38.035156 44.96875 38.035156 Z M 44.96875 38.035156 " fill-opacity="1" fill-rule="nonzero"/><path fill="#3f4d80" d="M 44.96875 41.234375 L 32.253906 41.234375 C 31.929688 41.234375 31.667969 40.972656 31.667969 40.644531 C 31.667969 40.320312 31.929688 40.054688 32.253906 40.054688 L 44.96875 40.054688 C 45.292969 40.054688 45.554688 40.320312 45.554688 40.644531 C 45.554688 40.972656 45.292969 41.234375 44.96875 41.234375 Z M 44.96875 41.234375 " fill-opacity="1" fill-rule="nonzero"/><path fill="#3f4d80" d="M 28.605469 48.742188 L 27.816406 48.742188 C 26.707031 48.742188 25.800781 47.828125 25.800781 46.707031 L 25.800781 26.445312 C 25.800781 25.324219 26.707031 24.410156 27.816406 24.410156 L 43.539062 24.410156 C 44.648438 24.410156 45.554688 25.324219 45.554688 26.445312 L 45.554688 27.242188 C 45.554688 27.566406 45.292969 27.828125 44.96875 27.828125 L 30.035156 27.828125 C 29.570312 27.828125 29.191406 28.214844 29.191406 28.6875 L 29.191406 48.152344 C 29.191406 48.476562 28.929688 48.742188 28.605469 48.742188 Z M 27.820312 25.589844 C 27.351562 25.589844 26.972656 25.972656 26.972656 26.445312 L 26.972656 46.707031 C 26.972656 47.179688 27.351562 47.5625 27.820312 47.5625 L 28.019531 47.5625 L 28.019531 28.6875 C 28.019531 27.5625 28.925781 26.652344 30.035156 26.652344 L 44.382812 26.652344 L 44.382812 26.445312 C 44.382812 25.972656 44.003906 25.589844 43.539062 25.589844 Z M 27.820312 25.589844 " fill-opacity="1" fill-rule="nonzero"/><path fill="#3f4d80" d="M 45.304688 50.980469 L 30.035156 50.980469 C 28.925781 50.980469 28.019531 50.066406 28.019531 48.945312 L 28.019531 28.6875 C 28.019531 27.5625 28.925781 26.652344 30.035156 26.652344 L 47.1875 26.652344 C 48.300781 26.652344 49.203125 27.5625 49.203125 28.6875 L 49.203125 47.046875 C 49.203125 47.203125 49.144531 47.351562 49.035156 47.460938 L 45.722656 50.808594 C 45.609375 50.917969 45.460938 50.980469 45.304688 50.980469 Z M 30.035156 27.828125 C 29.570312 27.828125 29.191406 28.214844 29.191406 28.683594 L 29.191406 48.945312 C 29.191406 49.417969 29.570312 49.800781 30.035156 49.800781 L 45.0625 49.800781 L 48.03125 46.800781 L 48.03125 28.6875 C 48.03125 28.214844 47.652344 27.828125 47.1875 27.828125 Z M 30.035156 27.828125 " fill-opacity="1" fill-rule="nonzero"/><path fill="#3f4d80" d="M 45.304688 50.980469 C 45.230469 50.980469 45.152344 50.964844 45.082031 50.9375 C 44.863281 50.84375 44.71875 50.628906 44.71875 50.390625 L 44.71875 47.046875 C 44.71875 46.71875 44.980469 46.457031 45.304688 46.457031 L 48.617188 46.457031 C 48.855469 46.457031 49.066406 46.597656 49.160156 46.820312 C 49.25 47.039062 49.199219 47.292969 49.03125 47.460938 L 45.71875 50.808594 C 45.609375 50.917969 45.457031 50.980469 45.304688 50.980469 Z M 45.890625 47.632812 L 45.890625 48.964844 L 47.207031 47.632812 Z M 45.890625 47.632812 " fill-opacity="1" fill-rule="nonzero"/><path fill="#3f4d80" d="M 38.160156 22.332031 C 37.835938 22.332031 37.574219 22.070312 37.574219 21.742188 L 37.574219 18.785156 L 28.925781 18.785156 C 28.601562 18.785156 28.339844 18.523438 28.339844 18.195312 C 28.339844 17.871094 28.601562 17.605469 28.925781 17.605469 L 38.160156 17.605469 C 38.484375 17.605469 38.746094 17.871094 38.746094 18.195312 L 38.746094 21.742188 C 38.746094 22.070312 38.484375 22.332031 38.160156 22.332031 Z M 38.160156 22.332031 " fill-opacity="1" fill-rule="nonzero"/><path fill="#3f4d80" d="M 38.160156 22.332031 C 37.835938 22.332031 37.574219 22.070312 37.574219 21.742188 L 37.574219 18.785156 L 28.925781 18.785156 C 28.601562 18.785156 28.339844 18.523438 28.339844 18.195312 C 28.339844 17.871094 28.601562 17.605469 28.925781 17.605469 L 38.160156 17.605469 C 38.484375 17.605469 38.746094 17.871094 38.746094 18.195312 L 38.746094 21.742188 C 38.746094 22.070312 38.484375 22.332031 38.160156 22.332031 Z M 38.160156 22.332031 " fill-opacity="1" fill-rule="nonzero"/><path fill="#3f4d80" d="M 46.617188 57.28125 L 38.160156 57.28125 C 37.835938 57.28125 37.574219 57.019531 37.574219 56.691406 L 37.574219 53.144531 C 37.574219 52.820312 37.835938 52.554688 38.160156 52.554688 C 38.484375 52.554688 38.746094 52.820312 38.746094 53.144531 L 38.746094 56.101562 L 46.617188 56.101562 C 46.941406 56.101562 47.203125 56.367188 47.203125 56.691406 C 47.203125 57.019531 46.941406 57.28125 46.617188 57.28125 Z M 46.617188 57.28125 " fill-opacity="1" fill-rule="nonzero"/><path fill="#3f4d80" d="M 11.511719 41.578125 C 11.1875 41.578125 10.925781 41.316406 10.925781 40.988281 L 10.925781 37.445312 C 10.925781 37.117188 11.1875 36.855469 11.511719 36.855469 L 22.613281 36.855469 C 22.933594 36.855469 23.199219 37.117188 23.199219 37.445312 C 23.199219 37.769531 22.933594 38.03125 22.613281 38.03125 L 12.097656 38.03125 L 12.097656 40.988281 C 12.097656 41.316406 11.835938 41.578125 11.511719 41.578125 Z M 11.511719 41.578125 " fill-opacity="1" fill-rule="nonzero"/><path fill="#3f4d80" d="M 11.511719 41.578125 C 11.1875 41.578125 10.925781 41.316406 10.925781 40.988281 L 10.925781 37.445312 C 10.925781 37.117188 11.1875 36.855469 11.511719 36.855469 L 22.613281 36.855469 C 22.933594 36.855469 23.199219 37.117188 23.199219 37.445312 C 23.199219 37.769531 22.933594 38.03125 22.613281 38.03125 L 12.097656 38.03125 L 12.097656 40.988281 C 12.097656 41.316406 11.835938 41.578125 11.511719 41.578125 Z M 11.511719 41.578125 " fill-opacity="1" fill-rule="nonzero"/><path fill="#3f4d80" d="M 63.492188 38.035156 L 53.707031 38.035156 C 53.382812 38.035156 53.121094 37.769531 53.121094 37.445312 C 53.121094 37.117188 53.382812 36.855469 53.707031 36.855469 L 62.90625 36.855469 L 62.90625 33.898438 C 62.90625 33.570312 63.171875 33.308594 63.492188 33.308594 C 63.816406 33.308594 64.078125 33.570312 64.078125 33.898438 L 64.078125 37.445312 C 64.078125 37.769531 63.816406 38.035156 63.492188 38.035156 Z M 63.492188 38.035156 " fill-opacity="1" fill-rule="nonzero"/><path fill="#3f4d80" d="M 62.925781 65.5 C 62.773438 65.5 62.621094 65.4375 62.511719 65.328125 L 59.648438 62.4375 C 59.539062 62.328125 59.480469 62.179688 59.480469 62.023438 C 59.480469 60.378906 59.1875 58.628906 58.589844 56.667969 L 58.570312 56.601562 C 58.566406 56.589844 58.5625 56.574219 58.558594 56.5625 C 58.464844 56.21875 58.410156 55.84375 58.394531 55.417969 L 58.394531 55.078125 C 58.507812 53.882812 59.445312 53.027344 60.570312 53.027344 C 61.039062 53.027344 61.476562 53.171875 61.835938 53.429688 C 62.152344 52.859375 62.761719 52.476562 63.453125 52.476562 L 67.324219 52.476562 C 67.578125 52.476562 67.800781 52.640625 67.878906 52.882812 C 68.003906 53.257812 68.0625 53.648438 68.0625 54.035156 L 68.0625 57.855469 C 68.0625 59.621094 66.796875 61.15625 65.121094 61.421875 C 64.675781 61.496094 64.234375 61.480469 63.808594 61.386719 L 63.808594 61.707031 L 63.511719 64.964844 C 63.488281 65.195312 63.339844 65.390625 63.125 65.46875 C 63.058594 65.488281 62.992188 65.5 62.925781 65.5 Z M 60.648438 61.777344 L 62.457031 63.605469 L 62.636719 61.652344 L 62.636719 60.546875 C 62.636719 60.339844 62.742188 60.152344 62.917969 60.042969 C 63.09375 59.9375 63.3125 59.929688 63.492188 60.027344 C 63.9375 60.257812 64.433594 60.339844 64.933594 60.257812 C 66.050781 60.082031 66.890625 59.046875 66.890625 57.855469 L 66.890625 54.035156 C 66.890625 53.90625 66.882812 53.78125 66.863281 53.652344 L 63.453125 53.652344 C 63.074219 53.652344 62.765625 53.964844 62.765625 54.347656 C 62.765625 54.558594 62.730469 54.769531 62.65625 54.976562 C 62.574219 55.214844 62.363281 55.363281 62.089844 55.367188 C 61.835938 55.363281 61.613281 55.191406 61.542969 54.945312 C 61.410156 54.503906 61.019531 54.203125 60.570312 54.203125 C 60.046875 54.203125 59.613281 54.605469 59.5625 55.136719 L 59.566406 55.398438 C 59.574219 55.691406 59.613281 55.960938 59.675781 56.203125 C 59.679688 56.21875 59.683594 56.230469 59.6875 56.246094 L 59.710938 56.324219 C 60.316406 58.300781 60.621094 60.085938 60.648438 61.777344 Z M 60.648438 61.777344 " fill-opacity="1" fill-rule="nonzero"/><path fill="#3f4d80" d="M 63.21875 61.136719 C 63.125 61.136719 63.027344 61.113281 62.9375 61.0625 C 62.433594 60.78125 62 60.367188 61.683594 59.871094 C 61.507812 59.59375 61.589844 59.230469 61.863281 59.054688 C 62.132812 58.882812 62.496094 58.960938 62.671875 59.234375 C 62.882812 59.570312 63.171875 59.847656 63.507812 60.03125 C 63.789062 60.191406 63.890625 60.550781 63.734375 60.835938 C 63.625 61.027344 63.425781 61.136719 63.21875 61.136719 Z M 63.21875 61.136719 " fill-opacity="1" fill-rule="nonzero"/><path fill="#3f4d80" d="M 63.53125 68.277344 C 60.695312 68.277344 57.972656 67.21875 55.855469 65.292969 C 55.617188 65.074219 55.597656 64.703125 55.816406 64.460938 C 56.917969 63.230469 58.316406 62.585938 58.703125 62.421875 L 59.683594 61.574219 C 59.917969 61.375 60.261719 61.386719 60.480469 61.605469 L 62.457031 63.605469 L 62.636719 61.652344 C 62.660156 61.425781 62.808594 61.230469 63.019531 61.152344 C 63.230469 61.074219 63.46875 61.125 63.628906 61.285156 L 64.800781 62.433594 C 65.480469 62.613281 67.777344 63.410156 68.960938 66.292969 C 69.078125 66.578125 68.957031 66.90625 68.683594 67.042969 C 67.074219 67.863281 65.339844 68.277344 63.53125 68.277344 Z M 57.113281 64.824219 C 58.9375 66.292969 61.191406 67.097656 63.53125 67.097656 C 64.964844 67.097656 66.347656 66.808594 67.644531 66.234375 C 66.457031 63.945312 64.429688 63.554688 64.40625 63.550781 C 64.289062 63.53125 64.183594 63.472656 64.101562 63.390625 L 63.691406 62.992188 L 63.507812 64.964844 C 63.488281 65.191406 63.339844 65.386719 63.125 65.464844 C 62.910156 65.539062 62.671875 65.488281 62.511719 65.328125 L 60.035156 62.828125 L 59.394531 63.378906 C 59.34375 63.421875 59.285156 63.457031 59.222656 63.484375 C 59.210938 63.488281 58.105469 63.921875 57.113281 64.824219 Z M 57.113281 64.824219 " fill-opacity="1" fill-rule="nonzero"/><path fill="#3f4d80" d="M 58.964844 55.828125 C 58.640625 55.828125 58.378906 55.5625 58.378906 55.238281 L 58.378906 52.011719 C 58.378906 50.078125 59.933594 48.507812 61.851562 48.507812 L 68.953125 48.507812 C 69.191406 48.507812 69.410156 48.65625 69.5 48.878906 C 69.585938 49.105469 69.527344 49.359375 69.355469 49.527344 C 69.324219 49.554688 67.910156 50.941406 67.910156 53.0625 C 67.910156 53.390625 67.648438 53.652344 67.324219 53.652344 L 63.453125 53.652344 C 63.074219 53.652344 62.765625 53.964844 62.765625 54.347656 C 62.765625 54.558594 62.730469 54.769531 62.65625 54.976562 C 62.574219 55.214844 62.363281 55.363281 62.089844 55.367188 C 61.835938 55.363281 61.613281 55.191406 61.542969 54.945312 C 61.410156 54.503906 61.019531 54.203125 60.570312 54.203125 C 60.007812 54.203125 59.550781 54.667969 59.550781 55.238281 C 59.550781 55.5625 59.289062 55.828125 58.964844 55.828125 Z M 60.570312 53.027344 C 61.039062 53.027344 61.476562 53.171875 61.832031 53.429688 C 62.152344 52.859375 62.757812 52.476562 63.453125 52.476562 L 66.765625 52.476562 C 66.878906 51.292969 67.324219 50.34375 67.742188 49.6875 L 61.847656 49.6875 C 60.582031 49.6875 59.550781 50.730469 59.550781 52.011719 L 59.550781 53.28125 C 59.855469 53.117188 60.203125 53.027344 60.570312 53.027344 Z M 60.570312 53.027344 " fill-opacity="1" fill-rule="nonzero"/><path fill="#3f4d80" d="M 63.53125 68.269531 C 57.207031 68.269531 52.066406 63.074219 52.066406 56.691406 C 52.066406 50.308594 57.207031 45.117188 63.53125 45.117188 C 69.851562 45.117188 74.996094 50.308594 74.996094 56.691406 C 74.996094 63.074219 69.851562 68.269531 63.53125 68.269531 Z M 63.53125 46.292969 C 57.855469 46.292969 53.238281 50.957031 53.238281 56.691406 C 53.238281 62.425781 57.855469 67.089844 63.53125 67.089844 C 69.207031 67.089844 73.824219 62.425781 73.824219 56.691406 C 73.824219 50.957031 69.207031 46.292969 63.53125 46.292969 Z M 63.53125 46.292969 " fill-opacity="1" fill-rule="nonzero"/><path fill="#3f4d80" d="M 63.492188 27.839844 C 57.171875 27.839844 52.027344 22.648438 52.027344 16.261719 C 52.027344 12.101562 54.265625 8.238281 57.863281 6.183594 C 58.046875 6.082031 58.269531 6.082031 58.449219 6.1875 C 58.628906 6.292969 58.738281 6.488281 58.738281 6.695312 L 58.738281 22.269531 C 60.089844 23.359375 61.765625 23.957031 63.492188 23.957031 C 65.21875 23.957031 66.898438 23.359375 68.246094 22.269531 L 68.246094 6.699219 C 68.246094 6.488281 68.359375 6.292969 68.539062 6.1875 C 68.71875 6.082031 68.941406 6.082031 69.121094 6.183594 C 72.722656 8.238281 74.957031 12.101562 74.957031 16.265625 C 74.960938 22.648438 69.816406 27.839844 63.492188 27.839844 Z M 57.566406 7.769531 C 54.851562 9.707031 53.199219 12.875 53.199219 16.261719 C 53.199219 21.996094 57.820312 26.660156 63.492188 26.660156 C 69.167969 26.660156 73.785156 21.996094 73.785156 16.261719 C 73.785156 12.875 72.136719 9.707031 69.417969 7.769531 L 69.417969 22.542969 C 69.417969 22.714844 69.34375 22.878906 69.214844 22.988281 C 67.621094 24.375 65.589844 25.136719 63.492188 25.136719 C 61.398438 25.136719 59.367188 24.375 57.769531 22.988281 C 57.640625 22.878906 57.566406 22.714844 57.566406 22.542969 Z M 68.835938 22.542969 L 68.839844 22.542969 Z M 68.835938 22.542969 " fill-opacity="1" fill-rule="nonzero"/><path fill="#3f4d80" d="M 58.152344 23.132812 C 58.015625 23.132812 57.878906 23.085938 57.769531 22.988281 C 55.824219 21.300781 54.707031 18.847656 54.707031 16.265625 C 54.707031 13.679688 55.824219 11.226562 57.769531 9.539062 C 57.945312 9.386719 58.191406 9.351562 58.398438 9.449219 C 58.605469 9.542969 58.738281 9.753906 58.738281 9.984375 L 58.738281 22.542969 C 58.738281 22.773438 58.605469 22.984375 58.398438 23.078125 C 58.320312 23.113281 58.238281 23.132812 58.152344 23.132812 Z M 57.566406 11.4375 C 56.480469 12.796875 55.875 14.496094 55.875 16.261719 C 55.875 18.03125 56.480469 19.730469 57.566406 21.089844 Z M 57.566406 11.4375 " fill-opacity="1" fill-rule="nonzero"/><path fill="#3f4d80" d="M 68.34375 23.523438 C 68.164062 23.523438 67.984375 23.441406 67.871094 23.285156 C 67.679688 23.023438 67.734375 22.652344 67.996094 22.460938 C 67.996094 22.457031 68 22.457031 68.003906 22.453125 C 68.085938 22.394531 68.167969 22.328125 68.25 22.265625 L 68.25 9.984375 C 68.25 9.75 68.382812 9.542969 68.589844 9.445312 C 68.796875 9.351562 69.042969 9.386719 69.214844 9.535156 C 71.164062 11.226562 72.28125 13.679688 72.28125 16.261719 C 72.28125 18.820312 71.164062 21.265625 69.261719 22.945312 C 69.25 22.960938 69.234375 22.976562 69.214844 22.988281 C 69.046875 23.136719 68.871094 23.273438 68.695312 23.40625 C 68.691406 23.40625 68.691406 23.40625 68.691406 23.410156 C 68.585938 23.484375 68.464844 23.523438 68.34375 23.523438 Z M 69.421875 11.4375 L 69.421875 21.09375 C 70.511719 19.742188 71.109375 18.058594 71.109375 16.265625 C 71.109375 14.496094 70.507812 12.796875 69.421875 11.4375 Z M 69.421875 11.4375 " fill-opacity="1" fill-rule="nonzero"/><g clip-path="url(#0d6cb27a5c)"><path fill="#3f4d80" d="M 63.492188 25.136719 C 61.398438 25.136719 59.367188 24.375 57.769531 22.988281 C 57.640625 22.878906 57.566406 22.714844 57.566406 22.542969 L 57.566406 6.457031 C 57.566406 5.484375 58.355469 4.6875 59.324219 4.6875 L 67.664062 4.6875 C 68.632812 4.6875 69.417969 5.484375 69.417969 6.457031 L 69.417969 22.542969 C 69.417969 22.714844 69.34375 22.878906 69.214844 22.988281 C 67.621094 24.375 65.589844 25.136719 63.492188 25.136719 Z M 58.738281 22.269531 C 60.089844 23.359375 61.765625 23.957031 63.492188 23.957031 C 65.21875 23.957031 66.898438 23.359375 68.246094 22.269531 L 68.246094 6.457031 C 68.246094 6.132812 67.984375 5.867188 67.664062 5.867188 L 59.324219 5.867188 C 59 5.867188 58.738281 6.132812 58.738281 6.457031 Z M 68.835938 22.542969 L 68.839844 22.542969 Z M 68.835938 22.542969 " fill-opacity="1" fill-rule="nonzero"/></g><path fill="#3f4d80" d="M 66.597656 19.511719 L 60.390625 19.511719 C 60.066406 19.511719 59.804688 19.246094 59.804688 18.921875 C 59.804688 18.59375 60.066406 18.332031 60.390625 18.332031 L 66.597656 18.332031 C 66.917969 18.332031 67.183594 18.59375 67.183594 18.921875 C 67.183594 19.246094 66.917969 19.511719 66.597656 19.511719 Z M 66.597656 19.511719 " fill-opacity="1" fill-rule="nonzero"/><path fill="#3f4d80" d="M 64.78125 22.234375 L 60.390625 22.234375 C 60.066406 22.234375 59.804688 21.96875 59.804688 21.644531 C 59.804688 21.316406 60.066406 21.054688 60.390625 21.054688 L 64.78125 21.054688 C 65.105469 21.054688 65.367188 21.316406 65.367188 21.644531 C 65.367188 21.96875 65.105469 22.234375 64.78125 22.234375 Z M 64.78125 22.234375 " fill-opacity="1" fill-rule="nonzero"/><path fill="#3f4d80" d="M 66.597656 8.230469 L 60.390625 8.230469 C 60.066406 8.230469 59.804688 7.96875 59.804688 7.640625 C 59.804688 7.316406 60.066406 7.050781 60.390625 7.050781 L 66.597656 7.050781 C 66.917969 7.050781 67.183594 7.316406 67.183594 7.640625 C 67.183594 7.96875 66.917969 8.230469 66.597656 8.230469 Z M 66.597656 8.230469 " fill-opacity="1" fill-rule="nonzero"/><path fill="#3f4d80" d="M 64.78125 10.953125 L 60.390625 10.953125 C 60.066406 10.953125 59.804688 10.691406 59.804688 10.363281 C 59.804688 10.039062 60.066406 9.773438 60.390625 9.773438 L 64.78125 9.773438 C 65.105469 9.773438 65.367188 10.039062 65.367188 10.363281 C 65.367188 10.691406 65.105469 10.953125 64.78125 10.953125 Z M 64.78125 10.953125 " fill-opacity="1" fill-rule="nonzero"/><path fill="#3f4d80" d="M 66.597656 13.871094 L 60.390625 13.871094 C 60.066406 13.871094 59.804688 13.605469 59.804688 13.28125 C 59.804688 12.957031 60.066406 12.691406 60.390625 12.691406 L 66.597656 12.691406 C 66.917969 12.691406 67.183594 12.957031 67.183594 13.28125 C 67.183594 13.605469 66.917969 13.871094 66.597656 13.871094 Z M 66.597656 13.871094 " fill-opacity="1" fill-rule="nonzero"/><path fill="#3f4d80" d="M 64.78125 16.59375 L 60.390625 16.59375 C 60.066406 16.59375 59.804688 16.328125 59.804688 16.003906 C 59.804688 15.675781 60.066406 15.414062 60.390625 15.414062 L 64.78125 15.414062 C 65.105469 15.414062 65.367188 15.675781 65.367188 16.003906 C 65.367188 16.328125 65.105469 16.59375 64.78125 16.59375 Z M 64.78125 16.59375 " fill-opacity="1" fill-rule="nonzero"/><g clip-path="url(#9a079cfdbd)"><path fill="#3f4d80" d="M 11.511719 70.6875 C 5.191406 70.6875 0.046875 65.496094 0.046875 59.109375 C 0.046875 52.726562 5.191406 47.535156 11.511719 47.535156 C 12.78125 47.535156 14.035156 47.746094 15.234375 48.164062 C 15.472656 48.246094 15.628906 48.46875 15.628906 48.71875 L 15.628906 65.859375 C 16.535156 65.292969 17.320312 64.550781 17.933594 63.667969 L 17.933594 50.710938 C 17.933594 50.480469 18.066406 50.273438 18.273438 50.175781 C 18.480469 50.078125 18.722656 50.113281 18.898438 50.261719 C 21.488281 52.46875 22.976562 55.695312 22.976562 59.113281 C 22.976562 65.496094 17.832031 70.6875 11.511719 70.6875 Z M 11.511719 48.714844 C 5.835938 48.714844 1.21875 53.378906 1.21875 59.113281 C 1.21875 64.84375 5.835938 69.507812 11.511719 69.507812 C 17.1875 69.507812 21.804688 64.84375 21.804688 59.109375 C 21.804688 56.492188 20.835938 54 19.105469 52.09375 L 19.105469 63.851562 C 19.105469 63.96875 19.070312 64.082031 19.007812 64.179688 C 18.082031 65.570312 16.796875 66.675781 15.289062 67.378906 C 15.109375 67.464844 14.898438 67.449219 14.730469 67.34375 C 14.558594 67.234375 14.457031 67.046875 14.457031 66.84375 L 14.457031 49.148438 C 13.503906 48.859375 12.511719 48.714844 11.511719 48.714844 Z M 18.519531 63.851562 L 18.527344 63.851562 Z M 18.519531 63.851562 " fill-opacity="1" fill-rule="nonzero"/></g><path fill="#3f4d80" d="M 11.511719 68.21875 C 6.539062 68.21875 2.492188 64.132812 2.492188 59.113281 C 2.492188 54.089844 6.539062 50.003906 11.511719 50.003906 C 12.828125 50.003906 14.097656 50.289062 15.289062 50.84375 C 15.5 50.941406 15.628906 51.148438 15.628906 51.378906 L 15.628906 66.84375 C 15.628906 67.074219 15.496094 67.28125 15.289062 67.378906 C 14.097656 67.9375 12.828125 68.21875 11.511719 68.21875 Z M 11.511719 51.183594 C 7.183594 51.183594 3.664062 54.738281 3.664062 59.109375 C 3.664062 63.484375 7.183594 67.039062 11.511719 67.039062 C 12.53125 67.039062 13.523438 66.84375 14.457031 66.460938 L 14.457031 51.761719 C 13.519531 51.378906 12.53125 51.183594 11.511719 51.183594 Z M 11.511719 51.183594 " fill-opacity="1" fill-rule="nonzero"/><path fill="#3f4d80" d="M 18.519531 64.441406 C 18.464844 64.441406 18.40625 64.429688 18.351562 64.414062 C 18.101562 64.339844 17.933594 64.109375 17.933594 63.851562 L 17.933594 54.371094 C 17.933594 54.113281 18.101562 53.882812 18.351562 53.808594 C 18.597656 53.730469 18.863281 53.828125 19.007812 54.042969 C 20.003906 55.546875 20.53125 57.296875 20.53125 59.109375 C 20.53125 60.925781 20.003906 62.675781 19.007812 64.179688 C 18.898438 64.34375 18.710938 64.441406 18.519531 64.441406 Z M 19.105469 57.105469 L 19.105469 61.117188 C 19.273438 60.46875 19.359375 59.792969 19.359375 59.109375 C 19.359375 58.425781 19.273438 57.753906 19.105469 57.105469 Z M 19.105469 57.105469 " fill-opacity="1" fill-rule="nonzero"/><path fill="#3f4d80" d="M 15.042969 67.433594 C 14.933594 67.433594 14.824219 67.402344 14.730469 67.339844 C 14.5625 67.234375 14.457031 67.046875 14.457031 66.84375 L 14.457031 47.304688 C 14.457031 46.980469 14.71875 46.714844 15.042969 46.714844 L 18.519531 46.714844 C 18.84375 46.714844 19.105469 46.980469 19.105469 47.304688 L 19.105469 63.851562 C 19.105469 63.96875 19.070312 64.082031 19.007812 64.179688 C 18.082031 65.570312 16.796875 66.675781 15.292969 67.378906 C 15.210938 67.417969 15.128906 67.433594 15.042969 67.433594 Z M 15.628906 47.894531 L 15.628906 65.859375 C 16.535156 65.296875 17.320312 64.550781 17.933594 63.667969 L 17.933594 47.894531 Z M 18.519531 63.851562 L 18.527344 63.851562 Z M 18.519531 63.851562 " fill-opacity="1" fill-rule="nonzero"/><path fill="#3f4d80" d="M 7.980469 67.433594 C 7.894531 67.433594 7.8125 67.417969 7.730469 67.378906 C 6.226562 66.675781 4.941406 65.570312 4.015625 64.175781 C 3.953125 64.082031 3.917969 63.96875 3.917969 63.851562 L 3.917969 59.109375 C 3.917969 58.785156 4.179688 58.519531 4.503906 58.519531 L 7.980469 58.519531 C 8.304688 58.519531 8.566406 58.785156 8.566406 59.109375 L 8.566406 66.84375 C 8.566406 67.046875 8.460938 67.234375 8.292969 67.339844 C 8.199219 67.402344 8.089844 67.433594 7.980469 67.433594 Z M 5.089844 63.667969 C 5.703125 64.550781 6.488281 65.296875 7.394531 65.859375 L 7.394531 59.699219 L 5.089844 59.699219 Z M 5.089844 63.667969 " fill-opacity="1" fill-rule="nonzero"/><path fill="#3f4d80" d="M 11.511719 68.21875 C 10.890625 68.21875 10.261719 68.152344 9.652344 68.023438 C 9.382812 67.964844 9.1875 67.726562 9.1875 67.445312 L 9.1875 55.023438 C 9.1875 54.699219 9.449219 54.433594 9.773438 54.433594 L 13.25 54.433594 C 13.574219 54.433594 13.835938 54.699219 13.835938 55.023438 L 13.835938 67.445312 C 13.835938 67.726562 13.640625 67.964844 13.371094 68.023438 C 12.757812 68.152344 12.132812 68.21875 11.511719 68.21875 Z M 10.359375 66.953125 C 11.125 67.066406 11.902344 67.066406 12.664062 66.953125 L 12.664062 55.613281 L 10.359375 55.613281 Z M 10.359375 66.953125 " fill-opacity="1" fill-rule="nonzero"/><path fill="#3f4d80" d="M 18.082031 20.753906 C 17.933594 20.753906 17.785156 20.695312 17.667969 20.582031 C 17.441406 20.351562 17.4375 19.980469 17.667969 19.75 L 21.726562 15.652344 C 21.953125 15.421875 22.324219 15.417969 22.554688 15.648438 C 22.78125 15.878906 22.785156 16.25 22.554688 16.484375 L 18.5 20.582031 C 18.382812 20.695312 18.234375 20.753906 18.082031 20.753906 Z M 18.082031 20.753906 " fill-opacity="1" fill-rule="nonzero"/><path fill="#3f4d80" d="M 15.578125 20.753906 C 15.429688 20.753906 15.277344 20.695312 15.164062 20.582031 L 11.449219 16.828125 C 11.21875 16.597656 11.21875 16.222656 11.449219 15.992188 C 11.679688 15.761719 12.046875 15.765625 12.277344 15.996094 L 15.996094 19.75 C 16.222656 19.980469 16.222656 20.351562 15.992188 20.582031 C 15.878906 20.695312 15.730469 20.753906 15.578125 20.753906 Z M 15.578125 20.753906 " fill-opacity="1" fill-rule="nonzero"/><path fill="#3f4d80" d="M 2.082031 24.351562 C 1.929688 24.351562 1.78125 24.292969 1.667969 24.179688 C 1.4375 23.949219 1.4375 23.578125 1.664062 23.347656 L 8.945312 15.996094 C 9.171875 15.765625 9.542969 15.761719 9.773438 15.992188 C 10.003906 16.222656 10.003906 16.597656 9.773438 16.828125 L 2.496094 24.179688 C 2.382812 24.292969 2.230469 24.351562 2.082031 24.351562 Z M 2.082031 24.351562 " fill-opacity="1" fill-rule="nonzero"/><path fill="#3f4d80" d="M 11.464844 29.773438 C 5.144531 29.773438 0 24.578125 0 18.195312 C 0 11.8125 5.144531 6.621094 11.464844 6.621094 C 17.785156 6.621094 22.929688 11.8125 22.929688 18.195312 C 22.929688 24.582031 17.785156 29.773438 11.464844 29.773438 Z M 11.464844 7.800781 C 5.789062 7.800781 1.171875 12.464844 1.171875 18.195312 C 1.171875 23.929688 5.789062 28.59375 11.464844 28.59375 C 17.140625 28.59375 21.757812 23.929688 21.757812 18.195312 C 21.757812 12.464844 17.140625 7.800781 11.464844 7.800781 Z M 11.464844 7.800781 " fill-opacity="1" fill-rule="nonzero"/><path fill="#3f4d80" d="M 10.613281 17.523438 C 9.980469 17.523438 9.390625 17.277344 8.945312 16.828125 C 8.027344 15.902344 8.027344 14.394531 8.945312 13.464844 C 9.390625 13.015625 9.980469 12.769531 10.613281 12.769531 C 11.242188 12.769531 11.832031 13.015625 12.277344 13.464844 C 13.195312 14.394531 13.195312 15.902344 12.277344 16.828125 C 11.832031 17.277344 11.242188 17.523438 10.613281 17.523438 Z M 10.613281 13.949219 C 10.296875 13.949219 9.996094 14.074219 9.773438 14.300781 C 9.3125 14.765625 9.3125 15.527344 9.773438 15.996094 C 10.21875 16.449219 11 16.449219 11.445312 15.996094 C 11.910156 15.527344 11.910156 14.765625 11.445312 14.300781 C 11.222656 14.074219 10.925781 13.949219 10.613281 13.949219 Z M 10.613281 13.949219 " fill-opacity="1" fill-rule="nonzero"/><path fill="#3f4d80" d="M 16.832031 23.804688 C 16.203125 23.804688 15.609375 23.558594 15.164062 23.109375 C 14.246094 22.179688 14.246094 20.675781 15.164062 19.746094 C 15.609375 19.296875 16.203125 19.050781 16.832031 19.050781 C 17.460938 19.050781 18.054688 19.296875 18.5 19.746094 C 19.414062 20.675781 19.414062 22.179688 18.5 23.109375 C 18.050781 23.558594 17.460938 23.804688 16.832031 23.804688 Z M 15.996094 22.277344 C 16.441406 22.726562 17.21875 22.726562 17.667969 22.277344 C 18.128906 21.808594 18.128906 21.046875 17.667969 20.582031 C 17.222656 20.128906 16.441406 20.128906 15.996094 20.582031 C 15.53125 21.046875 15.53125 21.808594 15.996094 22.277344 Z M 15.996094 22.277344 " fill-opacity="1" fill-rule="nonzero"/></svg>