<svg xmlns="http://www.w3.org/2000/svg" xmlns:xlink="http://www.w3.org/1999/xlink" width="100" zoomAndPan="magnify" viewBox="0 0 75 74.999997" height="100" preserveAspectRatio="xMidYMid meet" version="1.0"><defs><clipPath id="90a0e127d4"><path d="M 0.84375 15 L 35 15 L 35 53 L 0.84375 53 Z M 0.84375 15 " clip-rule="nonzero"/></clipPath></defs><path fill="#ffeee9" d="M 1.015625 24.042969 L 23.675781 15.492188 L 34.238281 43.410156 L 11.578125 51.960938 Z M 1.015625 24.042969 " fill-opacity="1" fill-rule="nonzero"/><g clip-path="url(#90a0e127d4)"><path fill="#271700" d="M 11.601562 52.101562 C 11.539062 52.101562 11.476562 52.066406 11.457031 52.003906 L 0.878906 24.089844 C 0.863281 24.054688 0.863281 24.007812 0.878906 23.96875 C 0.894531 23.933594 0.925781 23.902344 0.96875 23.886719 L 23.621094 15.324219 C 23.65625 15.308594 23.703125 15.308594 23.742188 15.324219 C 23.777344 15.339844 23.808594 15.371094 23.824219 15.410156 L 34.398438 43.324219 C 34.429688 43.402344 34.386719 43.496094 34.3125 43.527344 L 11.65625 52.089844 C 11.640625 52.097656 11.621094 52.101562 11.601562 52.101562 Z M 1.222656 24.125 L 11.6875 51.75 L 34.050781 43.292969 L 23.585938 15.667969 Z M 1.222656 24.125 " fill-opacity="1" fill-rule="nonzero"/></g><path fill="#ffad00" d="M 3.96875 25.15625 L 12.324219 22.003906 L 15.890625 31.429688 L 7.53125 34.582031 Z M 3.96875 25.15625 " fill-opacity="1" fill-rule="nonzero"/><path fill="#ffeee9" d="M 9.558594 27.300781 C 11.21875 26.675781 13.082031 27.515625 13.710938 29.175781 L 14.390625 30.972656 L 8.359375 33.246094 L 7.679688 31.449219 C 7.054688 29.789062 7.894531 27.929688 9.558594 27.300781 Z M 9.558594 27.300781 " fill-opacity="1" fill-rule="nonzero"/><path fill="#ffeee9" d="M 10.941406 26.144531 C 10.941406 26.382812 10.898438 26.613281 10.804688 26.832031 C 10.714844 27.054688 10.582031 27.25 10.414062 27.417969 C 10.246094 27.585938 10.050781 27.714844 9.828125 27.808594 C 9.609375 27.898438 9.378906 27.945312 9.140625 27.945312 C 8.898438 27.945312 8.671875 27.898438 8.449219 27.808594 C 8.226562 27.714844 8.03125 27.585938 7.863281 27.417969 C 7.695312 27.25 7.566406 27.054688 7.472656 26.832031 C 7.382812 26.613281 7.335938 26.382812 7.335938 26.144531 C 7.335938 25.90625 7.382812 25.675781 7.472656 25.453125 C 7.566406 25.234375 7.695312 25.039062 7.863281 24.871094 C 8.03125 24.703125 8.226562 24.570312 8.449219 24.480469 C 8.671875 24.386719 8.898438 24.34375 9.140625 24.34375 C 9.378906 24.34375 9.609375 24.386719 9.828125 24.480469 C 10.050781 24.570312 10.246094 24.703125 10.414062 24.871094 C 10.582031 25.039062 10.714844 25.234375 10.804688 25.453125 C 10.898438 25.675781 10.941406 25.90625 10.941406 26.144531 Z M 10.941406 26.144531 " fill-opacity="1" fill-rule="nonzero"/><path fill="#0089e2" d="M 14.03125 21.355469 L 22.203125 18.273438 L 22.492188 19.035156 L 14.320312 22.121094 Z M 14.03125 21.355469 " fill-opacity="1" fill-rule="nonzero"/><path fill="#0089e2" d="M 14.664062 23.023438 L 22.835938 19.9375 L 23.125 20.703125 L 14.953125 23.789062 Z M 14.664062 23.023438 " fill-opacity="1" fill-rule="nonzero"/><path fill="#0089e2" d="M 8.21875 36.097656 L 16.390625 33.011719 L 16.679688 33.777344 L 8.507812 36.859375 Z M 8.21875 36.097656 " fill-opacity="1" fill-rule="nonzero"/><path fill="#0089e2" d="M 8.847656 37.761719 L 17.019531 34.679688 L 17.3125 35.445312 L 9.136719 38.527344 Z M 8.847656 37.761719 " fill-opacity="1" fill-rule="nonzero"/><path fill="#0089e2" d="M 9.480469 39.425781 L 17.652344 36.339844 L 17.941406 37.105469 L 9.769531 40.191406 Z M 9.480469 39.425781 " fill-opacity="1" fill-rule="nonzero"/><path fill="#0089e2" d="M 12.117188 46.414062 L 20.289062 43.332031 L 20.578125 44.09375 L 12.40625 47.179688 Z M 12.117188 46.414062 " fill-opacity="1" fill-rule="nonzero"/><path fill="#0089e2" d="M 12.746094 48.074219 L 20.921875 44.992188 L 21.210938 45.757812 L 13.039062 48.839844 Z M 12.746094 48.074219 " fill-opacity="1" fill-rule="nonzero"/><path fill="#0089e2" d="M 10.105469 41.09375 L 18.277344 38.011719 L 19.953125 42.433594 L 11.78125 45.519531 Z M 10.105469 41.09375 " fill-opacity="1" fill-rule="nonzero"/><path fill="#0089e2" d="M 15.304688 24.699219 L 23.476562 21.613281 L 31.1875 41.992188 L 23.015625 45.078125 Z M 15.304688 24.699219 " fill-opacity="1" fill-rule="nonzero"/><path fill="#271700" d="M 5.332031 25.78125 C 5.046875 25.78125 4.800781 25.574219 4.65625 25.1875 L 3.933594 23.277344 C 3.902344 23.199219 3.941406 23.105469 4.019531 23.074219 C 4.101562 23.042969 4.191406 23.085938 4.222656 23.164062 L 4.949219 25.074219 C 5.132812 25.5625 5.382812 25.472656 5.460938 25.441406 L 5.640625 25.371094 C 5.785156 25.320312 5.816406 25.238281 5.828125 25.171875 C 5.84375 25.074219 5.824219 24.9375 5.761719 24.765625 L 4.902344 22.496094 C 4.796875 22.226562 4.496094 22.085938 4.222656 22.191406 L 4.175781 22.207031 C 3.90625 22.308594 3.765625 22.609375 3.871094 22.882812 L 3.890625 22.929688 C 3.921875 23.007812 3.878906 23.101562 3.800781 23.132812 C 3.71875 23.164062 3.632812 23.121094 3.601562 23.042969 L 3.578125 22.996094 C 3.417969 22.566406 3.636719 22.085938 4.066406 21.921875 L 4.113281 21.90625 C 4.542969 21.746094 5.023438 21.960938 5.191406 22.390625 L 6.050781 24.664062 C 6.132812 24.886719 6.164062 25.074219 6.132812 25.226562 C 6.097656 25.433594 5.96875 25.585938 5.75 25.667969 L 5.570312 25.734375 C 5.484375 25.765625 5.402344 25.78125 5.324219 25.78125 Z M 5.332031 25.78125 " fill-opacity="1" fill-rule="nonzero"/><path fill="#ffeee9" d="M 52.25 16.992188 L 74.691406 26.09375 L 63.449219 53.742188 L 41.007812 44.640625 Z M 52.25 16.992188 " fill-opacity="1" fill-rule="nonzero"/><path fill="#271700" d="M 63.460938 53.886719 C 63.441406 53.886719 63.421875 53.886719 63.40625 53.875 L 40.957031 44.777344 C 40.878906 44.746094 40.839844 44.65625 40.871094 44.578125 L 52.109375 16.921875 C 52.125 16.886719 52.15625 16.855469 52.191406 16.839844 C 52.226562 16.824219 52.273438 16.824219 52.3125 16.839844 L 74.757812 25.9375 C 74.792969 25.953125 74.824219 25.984375 74.839844 26.019531 C 74.855469 26.054688 74.855469 26.101562 74.839844 26.136719 L 63.601562 53.792969 C 63.574219 53.855469 63.519531 53.890625 63.457031 53.890625 Z M 41.21875 44.550781 L 63.375 53.535156 L 74.492188 26.167969 L 52.335938 17.1875 Z M 41.21875 44.550781 " fill-opacity="1" fill-rule="nonzero"/><path fill="#ffad00" d="M 53.664062 19.808594 L 61.941406 23.164062 L 58.144531 32.5 L 49.867188 29.144531 Z M 53.664062 19.808594 " fill-opacity="1" fill-rule="nonzero"/><path fill="#ffeee9" d="M 56.304688 25.171875 C 57.953125 25.839844 58.746094 27.71875 58.078125 29.363281 L 57.355469 31.144531 L 51.382812 28.722656 L 52.105469 26.941406 C 52.773438 25.296875 54.65625 24.503906 56.304688 25.171875 Z M 56.304688 25.171875 " fill-opacity="1" fill-rule="nonzero"/><path fill="#ffeee9" d="M 58.574219 24.039062 C 58.574219 24.277344 58.53125 24.507812 58.4375 24.726562 C 58.347656 24.945312 58.214844 25.140625 58.046875 25.3125 C 57.878906 25.480469 57.683594 25.609375 57.460938 25.703125 C 57.242188 25.792969 57.011719 25.839844 56.773438 25.839844 C 56.53125 25.839844 56.304688 25.792969 56.082031 25.703125 C 55.859375 25.609375 55.667969 25.480469 55.496094 25.3125 C 55.328125 25.140625 55.199219 24.945312 55.105469 24.726562 C 55.015625 24.507812 54.96875 24.277344 54.96875 24.039062 C 54.96875 23.796875 55.015625 23.570312 55.105469 23.347656 C 55.199219 23.128906 55.328125 22.933594 55.496094 22.765625 C 55.667969 22.59375 55.859375 22.464844 56.082031 22.375 C 56.304688 22.28125 56.53125 22.238281 56.773438 22.238281 C 57.011719 22.238281 57.242188 22.28125 57.460938 22.375 C 57.683594 22.464844 57.878906 22.59375 58.046875 22.765625 C 58.214844 22.933594 58.347656 23.128906 58.4375 23.347656 C 58.53125 23.570312 58.574219 23.796875 58.574219 24.039062 Z M 58.574219 24.039062 " fill-opacity="1" fill-rule="nonzero"/><path fill="#0089e2" d="M 63.632812 23.855469 L 71.726562 27.136719 L 71.417969 27.894531 L 63.324219 24.613281 Z M 63.632812 23.855469 " fill-opacity="1" fill-rule="nonzero"/><path fill="#0089e2" d="M 62.957031 25.5 L 71.050781 28.78125 L 70.742188 29.539062 L 62.648438 26.257812 Z M 62.957031 25.5 " fill-opacity="1" fill-rule="nonzero"/><path fill="#0089e2" d="M 49.332031 30.71875 L 57.425781 34.003906 L 57.121094 34.761719 L 49.027344 31.476562 Z M 49.332031 30.71875 " fill-opacity="1" fill-rule="nonzero"/><path fill="#0089e2" d="M 48.667969 32.367188 L 56.761719 35.648438 L 56.457031 36.40625 L 48.363281 33.125 Z M 48.667969 32.367188 " fill-opacity="1" fill-rule="nonzero"/><path fill="#0089e2" d="M 48 34.019531 L 56.09375 37.300781 L 55.785156 38.058594 L 47.691406 34.773438 Z M 48 34.019531 " fill-opacity="1" fill-rule="nonzero"/><path fill="#0089e2" d="M 45.183594 40.933594 L 53.277344 44.214844 L 52.96875 44.972656 L 44.875 41.691406 Z M 45.183594 40.933594 " fill-opacity="1" fill-rule="nonzero"/><path fill="#0089e2" d="M 44.515625 42.578125 L 52.609375 45.863281 L 52.300781 46.621094 L 44.207031 43.335938 Z M 44.515625 42.578125 " fill-opacity="1" fill-rule="nonzero"/><path fill="#0089e2" d="M 47.328125 35.664062 L 55.421875 38.949219 L 53.640625 43.328125 L 45.546875 40.046875 Z M 47.328125 35.664062 " fill-opacity="1" fill-rule="nonzero"/><path fill="#0089e2" d="M 62.289062 27.164062 L 70.382812 30.445312 L 62.175781 50.628906 L 54.082031 47.347656 Z M 62.289062 27.164062 " fill-opacity="1" fill-rule="nonzero"/><path fill="#271700" d="M 54.859375 21.441406 C 54.78125 21.441406 54.695312 21.425781 54.613281 21.386719 L 54.433594 21.316406 C 54.222656 21.226562 54.09375 21.078125 54.050781 20.871094 C 54.019531 20.703125 54.050781 20.511719 54.136719 20.296875 L 54.90625 18.402344 C 54.9375 18.324219 55.03125 18.28125 55.109375 18.3125 C 55.1875 18.34375 55.226562 18.4375 55.195312 18.515625 L 54.425781 20.410156 C 54.363281 20.566406 54.335938 20.703125 54.359375 20.808594 C 54.378906 20.910156 54.441406 20.980469 54.554688 21.027344 L 54.730469 21.097656 C 54.871094 21.15625 54.953125 21.117188 55.003906 21.078125 C 55.082031 21.015625 55.160156 20.902344 55.226562 20.734375 L 56.144531 18.484375 C 56.253906 18.214844 56.125 17.910156 55.855469 17.800781 L 55.808594 17.785156 C 55.539062 17.675781 55.234375 17.808594 55.125 18.074219 L 55.105469 18.121094 C 55.074219 18.199219 54.980469 18.242188 54.902344 18.210938 C 54.824219 18.179688 54.78125 18.085938 54.8125 18.007812 L 54.835938 17.960938 C 55.003906 17.539062 55.496094 17.332031 55.921875 17.5 L 55.96875 17.515625 C 56.394531 17.6875 56.601562 18.179688 56.429688 18.605469 L 55.511719 20.855469 C 55.425781 21.078125 55.316406 21.234375 55.191406 21.324219 C 55.09375 21.402344 54.980469 21.441406 54.859375 21.441406 Z M 54.859375 21.441406 " fill-opacity="1" fill-rule="nonzero"/><path fill="#ff8782" d="M 67.226562 48.898438 C 67.226562 48.898438 68.582031 48.019531 68.25 46.09375 C 67.917969 44.171875 67.664062 42.644531 67.664062 42.644531 C 67.664062 42.644531 68.210938 41.183594 68.152344 40.199219 C 68.082031 39.214844 67.183594 39.007812 66.378906 39.207031 C 66.378906 39.207031 65.601562 37.519531 64.105469 38.875 C 64.105469 38.875 62.988281 37.191406 61.683594 39.128906 C 61.683594 39.128906 60.664062 37.195312 60.0625 34.976562 C 59.460938 32.757812 58.285156 32.46875 57.632812 33.269531 C 56.980469 34.070312 59.175781 40.390625 59.175781 40.390625 C 59.175781 40.390625 58.421875 42.828125 59.011719 44.386719 C 59.605469 45.941406 62.828125 50.125 62.828125 50.125 L 65.238281 57.707031 L 70.273438 56.277344 C 70.273438 56.277344 68.621094 52.820312 67.238281 48.902344 Z M 67.226562 48.898438 " fill-opacity="1" fill-rule="nonzero"/><path fill="#271700" d="M 64.152344 45.351562 C 64.089844 45.351562 64.027344 45.3125 64.011719 45.246094 C 63.265625 42.242188 61.300781 41.761719 61.28125 41.757812 C 61.238281 41.746094 61.207031 41.71875 61.1875 41.683594 C 61.167969 41.648438 61.167969 41.605469 61.183594 41.566406 C 61.742188 40.164062 61.554688 39.582031 61.390625 39.359375 C 61.222656 39.128906 60.953125 39.097656 60.757812 39.113281 C 60.15625 39.152344 59.652344 40.117188 59.511719 40.484375 C 59.488281 40.554688 59.40625 40.59375 59.332031 40.566406 C 59.257812 40.539062 59.222656 40.457031 59.25 40.386719 C 59.273438 40.324219 59.828125 38.894531 60.734375 38.832031 C 61.121094 38.808594 61.425781 38.9375 61.617188 39.199219 C 61.949219 39.648438 61.90625 40.457031 61.496094 41.535156 C 62.011719 41.710938 63.613281 42.476562 64.285156 45.183594 C 64.304688 45.261719 64.257812 45.335938 64.183594 45.351562 C 64.171875 45.351562 64.160156 45.351562 64.144531 45.351562 Z M 64.152344 45.351562 " fill-opacity="1" fill-rule="nonzero"/><path fill="#271700" d="M 65.332031 42.171875 C 65.320312 42.171875 65.3125 42.171875 65.304688 42.171875 C 64.683594 42.15625 64.367188 41.410156 64.351562 41.378906 C 64.320312 41.304688 64.351562 41.222656 64.429688 41.191406 C 64.503906 41.160156 64.585938 41.191406 64.617188 41.269531 C 64.617188 41.273438 64.875 41.875 65.316406 41.886719 C 65.320312 41.886719 65.332031 41.886719 65.335938 41.886719 C 65.804688 41.886719 66.304688 41.539062 66.390625 40.871094 C 66.441406 40.441406 66.152344 39.46875 66.152344 39.464844 C 66.128906 39.386719 66.171875 39.308594 66.242188 39.289062 C 66.316406 39.265625 66.398438 39.308594 66.421875 39.382812 C 66.429688 39.421875 66.730469 40.417969 66.667969 40.90625 C 66.566406 41.742188 65.929688 42.171875 65.335938 42.171875 Z M 65.332031 42.171875 " fill-opacity="1" fill-rule="nonzero"/><path fill="#271700" d="M 63.253906 42.015625 C 63.050781 42.015625 62.867188 41.96875 62.734375 41.871094 C 62.269531 41.527344 62.105469 40.710938 62.09375 40.675781 C 62.078125 40.597656 62.128906 40.523438 62.207031 40.507812 C 62.285156 40.492188 62.359375 40.546875 62.375 40.625 C 62.375 40.628906 62.523438 41.367188 62.902344 41.648438 C 63.074219 41.773438 63.429688 41.765625 63.746094 41.632812 C 63.902344 41.566406 64.265625 41.367188 64.3125 40.992188 C 64.398438 40.292969 64.003906 39.117188 64 39.105469 C 63.972656 39.035156 64.015625 38.953125 64.089844 38.925781 C 64.160156 38.898438 64.242188 38.941406 64.269531 39.011719 C 64.285156 39.066406 64.691406 40.261719 64.589844 41.027344 C 64.542969 41.398438 64.273438 41.714844 63.855469 41.894531 C 63.652344 41.984375 63.441406 42.027344 63.25 42.027344 Z M 63.253906 42.015625 " fill-opacity="1" fill-rule="nonzero"/><path fill="#271700" d="M 66.957031 42.398438 C 66.945312 42.398438 66.933594 42.398438 66.917969 42.398438 C 66.296875 42.367188 66.121094 41.757812 66.113281 41.730469 C 66.09375 41.652344 66.136719 41.574219 66.210938 41.554688 C 66.289062 41.535156 66.367188 41.574219 66.390625 41.652344 C 66.394531 41.671875 66.523438 42.09375 66.933594 42.113281 C 67.363281 42.132812 67.617188 41.632812 67.617188 41.628906 C 67.652344 41.554688 67.734375 41.527344 67.808594 41.566406 C 67.882812 41.601562 67.90625 41.683594 67.871094 41.757812 C 67.855469 41.78125 67.542969 42.398438 66.957031 42.398438 Z M 66.957031 42.398438 " fill-opacity="1" fill-rule="nonzero"/><path fill="#271700" d="M 31.972656 16.058594 C 31.972656 16.058594 38.035156 11.457031 44.402344 16.21875 C 50.566406 20.820312 48.613281 30.828125 50.378906 35.535156 C 52.144531 40.246094 53.164062 44.3125 49.414062 46.457031 C 45.664062 48.597656 30.773438 50.125 26.269531 44.476562 C 23.75 41.320312 26.699219 32.441406 26.699219 27.226562 C 26.699219 22.007812 26.910156 17.15625 31.972656 16.0625 Z M 31.972656 16.058594 " fill-opacity="1" fill-rule="nonzero"/><path fill="#ffeee9" d="M 32.664062 45.082031 C 32.664062 45.082031 34.238281 46.855469 45.109375 45.464844 C 49.210938 44.945312 39.570312 61.148438 39.570312 61.148438 L 29.996094 59.542969 L 32.664062 45.089844 Z M 32.664062 45.082031 " fill-opacity="1" fill-rule="nonzero"/><path fill="#ff8782" d="M 58.078125 56.378906 L 54.539062 57.949219 C 54.027344 59.730469 53.257812 60.976562 52.28125 60.886719 C 50.667969 60.738281 49.367188 60.648438 48.234375 60.601562 C 45.226562 60.691406 42.164062 60.734375 39.941406 60.757812 C 39.890625 60.757812 39.84375 60.757812 39.792969 60.765625 C 39.714844 60.765625 39.632812 60.769531 39.554688 60.773438 C 39.445312 60.773438 38.917969 60.773438 38.097656 60.773438 C 37.910156 60.773438 37.742188 60.773438 37.585938 60.773438 C 37.496094 60.773438 37.414062 60.773438 37.335938 60.773438 C 36.953125 60.773438 36.710938 60.773438 36.640625 60.773438 C 36.507812 60.773438 36.382812 60.765625 36.253906 60.757812 C 34.03125 60.738281 30.972656 60.691406 27.964844 60.601562 C 26.828125 60.648438 25.527344 60.742188 23.917969 60.886719 C 22.941406 60.976562 22.171875 59.730469 21.65625 57.949219 L 18.109375 56.375 C 18.605469 53.792969 19.148438 51.460938 19.695312 49.910156 C 20.457031 48.507812 21.417969 47.496094 22.554688 46.925781 C 23.570312 46.414062 24.792969 46.125 26.046875 45.863281 C 26.496094 45.773438 26.949219 45.683594 27.398438 45.589844 C 27.957031 45.476562 28.519531 45.359375 29.050781 45.21875 C 29.289062 45.15625 29.523438 45.089844 29.75 45.015625 C 30.324219 44.835938 30.871094 44.617188 31.351562 44.34375 C 31.460938 44.28125 31.566406 44.21875 31.667969 44.152344 C 32.316406 43.710938 32.761719 43.074219 33.066406 42.382812 C 33.074219 42.367188 33.082031 42.351562 33.085938 42.335938 C 33.265625 41.9375 33.386719 41.523438 33.488281 41.121094 C 33.640625 40.457031 33.714844 39.816406 33.742188 39.304688 C 33.777344 38.671875 33.742188 38.242188 33.742188 38.242188 L 33.773438 38.242188 C 33.773438 38.230469 33.773438 38.222656 33.773438 38.222656 L 36.847656 38.363281 L 37.28125 38.378906 L 38.101562 38.40625 L 38.472656 38.394531 L 39.351562 38.355469 L 42.429688 38.214844 C 42.429688 38.214844 42.429688 38.226562 42.429688 38.238281 L 42.460938 38.238281 C 42.460938 38.238281 42.441406 38.515625 42.449219 38.960938 C 42.464844 39.503906 42.523438 40.292969 42.714844 41.109375 C 42.808594 41.503906 42.933594 41.910156 43.097656 42.300781 C 43.109375 42.324219 43.117188 42.351562 43.128906 42.371094 C 43.433594 43.066406 43.878906 43.703125 44.527344 44.140625 C 44.625 44.210938 44.734375 44.269531 44.84375 44.332031 C 45.3125 44.597656 45.835938 44.808594 46.386719 44.992188 C 46.636719 45.066406 46.886719 45.140625 47.144531 45.207031 C 48.109375 45.460938 49.140625 45.644531 50.148438 45.851562 C 50.1875 45.855469 50.21875 45.863281 50.253906 45.871094 C 51.472656 46.125 52.65625 46.414062 53.648438 46.910156 C 54.761719 47.46875 55.710938 48.457031 56.464844 49.824219 C 57.019531 51.371094 57.570312 53.742188 58.078125 56.363281 Z M 58.078125 56.378906 " fill-opacity="1" fill-rule="nonzero"/><path fill="#ff8782" d="M 47.003906 26.398438 C 47.003906 26.253906 47.003906 26.109375 47.003906 25.960938 C 46.894531 20.796875 42.714844 16.75 37.664062 16.925781 C 32.609375 17.097656 28.605469 21.425781 28.714844 26.589844 C 28.714844 26.738281 28.726562 26.894531 28.734375 27.042969 C 26.308594 26.734375 25.0625 28.277344 26.011719 30.914062 C 26.953125 33.539062 28.695312 34.769531 29.96875 33.972656 C 31.058594 37.425781 34.386719 40.914062 38.109375 40.917969 C 41.824219 40.664062 45 36.953125 45.941406 33.433594 C 47.25 34.128906 48.925781 32.777344 49.75 30.101562 C 50.574219 27.453125 49.328125 26.003906 47 26.402344 Z M 47.003906 26.398438 " fill-opacity="1" fill-rule="nonzero"/><path fill="#271700" d="M 38.109375 41.0625 C 36.710938 41.0625 35.269531 40.570312 33.941406 39.644531 C 33.871094 39.59375 33.855469 39.5 33.90625 39.425781 C 33.953125 39.355469 34.050781 39.339844 34.125 39.390625 C 35.398438 40.28125 36.773438 40.753906 38.101562 40.753906 C 39.488281 40.652344 40.890625 40.054688 42.160156 39.007812 C 42.226562 38.953125 42.328125 38.960938 42.378906 39.027344 C 42.433594 39.097656 42.425781 39.195312 42.359375 39.246094 C 41.03125 40.332031 39.570312 40.960938 38.117188 41.0625 C 38.117188 41.0625 38.113281 41.0625 38.109375 41.0625 Z M 38.109375 41.0625 " fill-opacity="1" fill-rule="nonzero"/><path fill="#271700" d="M 38.820312 32.300781 C 38.820312 32.300781 37.980469 32.753906 37.175781 32.398438 C 36.371094 32.046875 36.746094 33.351562 37.75 33.410156 C 38.757812 33.464844 39.257812 32.355469 38.820312 32.296875 Z M 38.820312 32.300781 " fill-opacity="1" fill-rule="nonzero"/><path fill="#271700" d="M 31.511719 26.78125 C 31.511719 26.78125 32.433594 26.507812 33.542969 26.65625 C 34.621094 26.800781 34.078125 25.476562 32.832031 25.410156 C 31.589844 25.339844 30.96875 26.714844 31.511719 26.78125 Z M 31.511719 26.78125 " fill-opacity="1" fill-rule="nonzero"/><path fill="#271700" d="M 43.527344 26.78125 C 43.527344 26.78125 42.605469 26.507812 41.496094 26.65625 C 40.417969 26.800781 40.964844 25.476562 42.207031 25.410156 C 43.449219 25.339844 44.074219 26.714844 43.527344 26.78125 Z M 43.527344 26.78125 " fill-opacity="1" fill-rule="nonzero"/><path fill="#271700" d="M 38.425781 38.128906 C 38.425781 38.128906 37.953125 38.382812 37.503906 38.1875 C 37.050781 37.988281 37.257812 38.722656 37.828125 38.753906 C 38.394531 38.785156 38.679688 38.160156 38.429688 38.128906 Z M 38.425781 38.128906 " fill-opacity="1" fill-rule="nonzero"/><path fill="#271700" d="M 35.382812 34.859375 C 36.402344 35.320312 38.191406 35.765625 40.34375 34.761719 C 40.519531 34.675781 40.6875 34.867188 40.554688 34.996094 C 39.585938 35.945312 37.527344 37.320312 35.175781 35.101562 C 35.042969 34.976562 35.207031 34.78125 35.378906 34.859375 Z M 35.382812 34.859375 " fill-opacity="1" fill-rule="nonzero"/><path fill="#271700" d="M 32.804688 28.363281 C 33.410156 28.40625 33.859375 29.015625 33.8125 29.730469 C 33.765625 30.445312 33.234375 30.988281 32.625 30.945312 C 32.019531 30.90625 31.570312 30.292969 31.617188 29.578125 C 31.664062 28.867188 32.195312 28.324219 32.804688 28.363281 Z M 32.804688 28.363281 " fill-opacity="1" fill-rule="nonzero"/><path fill="#271700" d="M 46.351562 30.667969 C 46.335938 30.667969 46.328125 30.667969 46.3125 30.660156 C 46.226562 30.640625 46.179688 30.550781 46.203125 30.46875 C 46.21875 30.417969 46.574219 29.140625 47.488281 28.621094 C 47.886719 28.394531 48.328125 28.347656 48.796875 28.476562 C 48.882812 28.5 48.925781 28.585938 48.90625 28.667969 C 48.886719 28.75 48.796875 28.796875 48.714844 28.777344 C 48.328125 28.667969 47.964844 28.710938 47.640625 28.890625 C 46.839844 29.347656 46.507812 30.542969 46.503906 30.550781 C 46.480469 30.621094 46.417969 30.667969 46.351562 30.667969 Z M 46.351562 30.667969 " fill-opacity="1" fill-rule="nonzero"/><path fill="#271700" d="M 47.855469 30.460938 C 47.773438 30.460938 47.703125 30.398438 47.699219 30.316406 C 47.636719 29.367188 47.109375 29.253906 47.105469 29.253906 C 47.019531 29.238281 46.964844 29.15625 46.980469 29.074219 C 46.996094 28.988281 47.078125 28.933594 47.160156 28.949219 C 47.191406 28.953125 47.925781 29.109375 48.011719 30.292969 C 48.015625 30.382812 47.953125 30.453125 47.867188 30.460938 C 47.867188 30.460938 47.859375 30.460938 47.855469 30.460938 Z M 47.855469 30.460938 " fill-opacity="1" fill-rule="nonzero"/><path fill="#271700" d="M 29.082031 31.25 C 29.015625 31.25 28.953125 31.203125 28.933594 31.136719 C 28.933594 31.121094 28.589844 29.933594 27.792969 29.476562 C 27.472656 29.296875 27.109375 29.253906 26.71875 29.363281 C 26.636719 29.382812 26.554688 29.335938 26.527344 29.253906 C 26.507812 29.171875 26.554688 29.089844 26.636719 29.0625 C 27.109375 28.933594 27.550781 28.980469 27.949219 29.207031 C 28.859375 29.730469 29.21875 31.003906 29.234375 31.054688 C 29.253906 31.136719 29.207031 31.21875 29.125 31.246094 C 29.109375 31.246094 29.097656 31.25 29.082031 31.25 Z M 29.082031 31.25 " fill-opacity="1" fill-rule="nonzero"/><path fill="#271700" d="M 27.578125 31.042969 C 27.578125 31.042969 27.574219 31.042969 27.570312 31.042969 C 27.480469 31.039062 27.417969 30.964844 27.425781 30.878906 C 27.507812 29.695312 28.242188 29.539062 28.273438 29.535156 C 28.355469 29.519531 28.441406 29.570312 28.457031 29.65625 C 28.472656 29.738281 28.417969 29.824219 28.335938 29.839844 C 28.308594 29.84375 27.804688 29.972656 27.734375 30.898438 C 27.730469 30.980469 27.664062 31.042969 27.578125 31.042969 Z M 27.578125 31.042969 " fill-opacity="1" fill-rule="nonzero"/><path fill="#271700" d="M 30.304688 22.386719 C 30.304688 22.386719 31.679688 25.53125 34.8125 26.371094 C 36.96875 26.945312 36 25.082031 36.097656 25.238281 C 36.195312 25.394531 38.074219 26.078125 39.667969 25.75 C 41.402344 25.398438 41.402344 24.796875 41.402344 24.796875 C 41.402344 24.796875 43.535156 27.171875 46.359375 26.773438 C 47.296875 26.640625 47.242188 25.636719 47.242188 25.636719 C 47.242188 25.636719 47.617188 19.535156 42.851562 17.609375 C 38.082031 15.683594 29.0625 15.882812 30.3125 22.386719 Z M 30.304688 22.386719 " fill-opacity="1" fill-rule="nonzero"/><path fill="#271700" d="M 28.734375 27.039062 C 28.734375 27.039062 29.308594 29.1875 29.972656 29.1875 C 30.636719 29.1875 31.050781 20.082031 31.050781 20.082031 L 30.042969 19.449219 C 30.042969 19.449219 26.855469 23.257812 28.734375 27.039062 Z M 28.734375 27.039062 " fill-opacity="1" fill-rule="nonzero"/><path fill="#271700" d="M 43.96875 29.527344 C 43.757812 29.492188 43.535156 29.472656 43.304688 29.460938 C 42.363281 29.425781 41.492188 29.65625 40.804688 30.066406 L 40.804688 30.023438 C 40.820312 29.015625 41.554688 28.222656 42.457031 28.253906 C 43.160156 28.28125 43.757812 28.808594 43.96875 29.527344 Z M 43.96875 29.527344 " fill-opacity="1" fill-rule="nonzero"/><path fill="#ffeee9" d="M 32.714844 45.867188 C 32.714844 45.867188 36.601562 48.59375 43.164062 45.867188 C 49.730469 43.136719 38.097656 60.769531 38.097656 60.769531 C 38.097656 60.769531 34.679688 53.269531 32.714844 45.867188 Z M 32.714844 45.867188 " fill-opacity="1" fill-rule="nonzero"/><path fill="#ffad00" d="M 61.765625 72.03125 L 15.894531 72.03125 C 15.757812 72.03125 16.777344 63.308594 18.113281 56.375 C 18.609375 53.792969 19.15625 51.460938 19.699219 49.910156 C 19.9375 49.246094 20.171875 48.722656 20.402344 48.390625 C 21.539062 46.78125 23.761719 45.457031 26.210938 44.402344 C 28.539062 43.402344 31.078125 42.644531 33.082031 42.128906 C 33.082031 42.195312 33.082031 42.261719 33.09375 42.335938 C 33.140625 43.167969 33.335938 44.277344 33.636719 45.539062 C 33.828125 46.347656 34.058594 47.214844 34.3125 48.109375 C 35.570312 52.535156 37.433594 57.652344 38.097656 59.433594 C 38.75 57.667969 40.589844 52.632812 41.851562 48.242188 C 42.097656 47.375 42.320312 46.539062 42.511719 45.757812 C 42.84375 44.390625 43.066406 43.191406 43.109375 42.308594 C 43.109375 42.246094 43.113281 42.191406 43.113281 42.128906 C 45.460938 42.734375 48.535156 43.660156 51.148438 44.933594 C 53.125 45.890625 54.839844 47.039062 55.792969 48.390625 C 56.015625 48.707031 56.242188 49.203125 56.472656 49.839844 C 57.027344 51.386719 58.125 54.457031 58.632812 57.078125 C 59.96875 64.011719 61.914062 72.03125 61.777344 72.03125 Z M 61.765625 72.03125 " fill-opacity="1" fill-rule="nonzero"/><path fill="#271700" d="M 37.09375 71.777344 C 37.003906 71.777344 36.9375 71.707031 36.9375 71.621094 L 36.9375 61.90625 C 36.9375 61.890625 36.9375 61.871094 36.949219 61.855469 C 37.03125 61.628906 37.171875 61.316406 37.425781 60.757812 C 37.511719 60.574219 37.609375 60.351562 37.726562 60.097656 C 37.761719 60.019531 37.855469 59.980469 37.933594 60.019531 C 38.011719 60.054688 38.046875 60.148438 38.011719 60.226562 C 37.894531 60.480469 37.796875 60.695312 37.710938 60.886719 C 37.464844 61.421875 37.332031 61.722656 37.253906 61.933594 L 37.253906 71.621094 C 37.253906 71.707031 37.1875 71.777344 37.097656 71.777344 Z M 37.09375 71.777344 " fill-opacity="1" fill-rule="nonzero"/><path fill="#271700" d="M 39.203125 62.1875 C 39.203125 62.34375 39.144531 62.480469 39.035156 62.59375 C 38.921875 62.707031 38.785156 62.761719 38.625 62.761719 C 38.46875 62.761719 38.332031 62.707031 38.21875 62.59375 C 38.109375 62.480469 38.050781 62.34375 38.050781 62.1875 C 38.050781 62.027344 38.109375 61.894531 38.21875 61.78125 C 38.332031 61.667969 38.46875 61.613281 38.625 61.613281 C 38.785156 61.613281 38.921875 61.667969 39.035156 61.78125 C 39.144531 61.894531 39.203125 62.027344 39.203125 62.1875 Z M 39.203125 62.1875 " fill-opacity="1" fill-rule="nonzero"/><path fill="#271700" d="M 39.203125 68.648438 C 39.203125 68.808594 39.144531 68.945312 39.035156 69.054688 C 38.921875 69.167969 38.785156 69.226562 38.625 69.226562 C 38.46875 69.226562 38.332031 69.167969 38.21875 69.054688 C 38.109375 68.945312 38.050781 68.808594 38.050781 68.648438 C 38.050781 68.492188 38.109375 68.355469 38.21875 68.246094 C 38.332031 68.132812 38.46875 68.074219 38.625 68.074219 C 38.785156 68.074219 38.921875 68.132812 39.035156 68.246094 C 39.144531 68.355469 39.203125 68.492188 39.203125 68.648438 Z M 39.203125 68.648438 " fill-opacity="1" fill-rule="nonzero"/><path fill="#271700" d="M 37.480469 60.019531 C 37.433594 60.019531 37.394531 59.996094 37.363281 59.960938 C 37.339844 59.9375 35.3125 57.453125 33.335938 54.894531 C 29.296875 49.660156 29.433594 49.230469 29.492188 49.042969 C 29.832031 47.949219 30.652344 47.144531 31.027344 46.816406 C 30.621094 46.585938 29.765625 45.996094 29.617188 45.097656 C 29.503906 44.425781 29.804688 43.726562 30.523438 43.035156 C 30.585938 42.972656 30.683594 42.976562 30.742188 43.035156 C 30.804688 43.097656 30.796875 43.195312 30.742188 43.25 C 30.101562 43.871094 29.828125 44.472656 29.925781 45.042969 C 30.097656 46.042969 31.363281 46.640625 31.378906 46.648438 C 31.429688 46.667969 31.460938 46.71875 31.464844 46.769531 C 31.472656 46.824219 31.449219 46.878906 31.402344 46.910156 C 31.394531 46.921875 30.203125 47.832031 29.792969 49.128906 C 29.773438 49.253906 29.988281 50.035156 33.625 54.75 C 35.585938 57.285156 37.589844 59.734375 37.605469 59.761719 C 37.65625 59.828125 37.652344 59.925781 37.585938 59.976562 C 37.554688 60.003906 37.523438 60.011719 37.488281 60.011719 Z M 37.480469 60.019531 " fill-opacity="1" fill-rule="nonzero"/><path fill="#271700" d="M 38.664062 60.019531 C 38.625 60.019531 38.597656 60.007812 38.566406 59.980469 C 38.496094 59.929688 38.488281 59.832031 38.542969 59.765625 C 38.566406 59.738281 40.570312 57.292969 42.523438 54.753906 C 46.160156 50.042969 46.378906 49.261719 46.359375 49.128906 C 45.953125 47.832031 44.761719 46.921875 44.746094 46.914062 C 44.703125 46.882812 44.679688 46.828125 44.683594 46.777344 C 44.6875 46.722656 44.726562 46.671875 44.773438 46.652344 C 44.78125 46.648438 46.050781 46.046875 46.222656 45.046875 C 46.320312 44.476562 46.046875 43.878906 45.410156 43.257812 C 45.347656 43.195312 45.347656 43.097656 45.410156 43.039062 C 45.472656 42.976562 45.570312 42.976562 45.625 43.039062 C 46.34375 43.738281 46.648438 44.433594 46.535156 45.105469 C 46.378906 46 45.527344 46.589844 45.125 46.824219 C 45.496094 47.144531 46.320312 47.957031 46.65625 49.046875 C 46.714844 49.234375 46.851562 49.664062 42.8125 54.902344 C 40.839844 57.457031 38.808594 59.941406 38.789062 59.96875 C 38.757812 60.003906 38.710938 60.023438 38.667969 60.023438 Z M 38.664062 60.019531 " fill-opacity="1" fill-rule="nonzero"/><path fill="#271700" d="M 24.394531 71.925781 C 24.320312 71.925781 24.253906 71.875 24.242188 71.800781 C 24.21875 71.675781 21.773438 59.460938 21.773438 50.332031 C 21.773438 41.203125 21.839844 50.175781 21.925781 50.175781 C 22.015625 50.175781 22.082031 50.242188 22.082031 50.332031 C 22.082031 59.429688 24.523438 71.621094 24.546875 71.738281 C 24.5625 71.824219 24.511719 71.90625 24.429688 71.921875 C 24.417969 71.921875 24.410156 71.921875 24.398438 71.921875 Z M 24.394531 71.925781 " fill-opacity="1" fill-rule="nonzero"/><path fill="#271700" d="M 51.582031 71.925781 C 51.570312 71.925781 51.558594 71.925781 51.550781 71.925781 C 51.464844 71.910156 51.410156 71.828125 51.429688 71.746094 C 51.457031 71.621094 53.898438 59.433594 53.898438 50.335938 C 53.898438 41.238281 53.964844 50.179688 54.050781 50.179688 C 54.140625 50.179688 54.207031 50.25 54.207031 50.335938 C 54.207031 59.464844 51.757812 71.683594 51.734375 71.808594 C 51.71875 71.878906 51.65625 71.929688 51.585938 71.929688 Z M 51.582031 71.925781 " fill-opacity="1" fill-rule="nonzero"/><path fill="#ff8782" d="M 25.289062 44.25 C 25.289062 44.25 24.039062 47.847656 19.449219 49.773438 C 17.757812 52.882812 16.324219 56.1875 16.324219 56.1875 L 12.082031 52.820312 L 15.855469 47.175781 C 15.855469 47.175781 14.949219 44.679688 15.078125 43.675781 C 15.082031 43.636719 15.085938 43.597656 15.097656 43.5625 C 15.304688 42.703125 16.449219 43.023438 16.449219 43.023438 C 16.449219 43.023438 16.050781 41.789062 16.640625 41.28125 C 17.238281 40.773438 18.238281 41.296875 18.238281 41.296875 C 18.238281 41.296875 17.839844 39.484375 18.621094 39.132812 C 19.402344 38.777344 19.941406 39.34375 19.941406 39.34375 C 19.941406 39.34375 19.847656 37.855469 20.921875 37.757812 C 21.253906 37.726562 21.640625 38.085938 22.019531 38.605469 C 22.863281 39.753906 23.664062 41.664062 23.664062 41.664062 C 23.664062 41.664062 24.207031 41.480469 25.109375 40.546875 C 26.015625 39.609375 27.910156 41.089844 25.289062 44.246094 Z M 25.289062 44.25 " fill-opacity="1" fill-rule="nonzero"/><path fill="#ffad00" d="M 23.085938 37.964844 L 24.726562 39.183594 L 17.007812 49.566406 L 15.363281 48.347656 Z M 23.085938 37.964844 " fill-opacity="1" fill-rule="nonzero"/><path fill="#ffad00" d="M 26.144531 36.660156 L 24.445312 38.945312 L 23.441406 38.203125 L 25.140625 35.914062 C 25.347656 35.632812 25.734375 35.578125 26.015625 35.785156 C 26.15625 35.886719 26.238281 36.039062 26.265625 36.191406 C 26.289062 36.355469 26.25 36.519531 26.148438 36.660156 Z M 26.144531 36.660156 " fill-opacity="1" fill-rule="nonzero"/><path fill="#271700" d="M 17.050781 49.683594 C 17.023438 49.683594 17.003906 49.675781 16.984375 49.664062 L 15.339844 48.449219 C 15.289062 48.410156 15.277344 48.339844 15.316406 48.285156 L 23.027344 37.902344 C 23.039062 37.875 23.070312 37.859375 23.097656 37.855469 C 23.128906 37.855469 23.160156 37.855469 23.179688 37.875 L 24.824219 39.089844 C 24.875 39.128906 24.886719 39.199219 24.847656 39.25 L 17.140625 49.636719 C 17.125 49.664062 17.09375 49.679688 17.066406 49.683594 C 17.0625 49.683594 17.054688 49.683594 17.050781 49.683594 Z M 15.570312 48.328125 L 17.03125 49.410156 L 24.605469 39.207031 L 23.144531 38.125 Z M 15.570312 48.328125 " fill-opacity="1" fill-rule="nonzero"/><path fill="#271700" d="M 24.445312 39.039062 C 24.425781 39.039062 24.402344 39.035156 24.386719 39.019531 L 23.382812 38.273438 C 23.363281 38.257812 23.351562 38.238281 23.347656 38.210938 C 23.347656 38.1875 23.347656 38.160156 23.363281 38.140625 L 25.0625 35.851562 C 25.175781 35.695312 25.347656 35.597656 25.535156 35.566406 C 25.726562 35.542969 25.910156 35.585938 26.066406 35.703125 C 26.222656 35.816406 26.320312 35.980469 26.351562 36.171875 C 26.378906 36.363281 26.332031 36.550781 26.21875 36.707031 L 24.519531 38.992188 C 24.496094 39.019531 24.472656 39.027344 24.441406 39.027344 Z M 23.574219 38.1875 L 24.429688 38.816406 L 26.070312 36.605469 C 26.15625 36.492188 26.191406 36.355469 26.171875 36.214844 C 26.148438 36.074219 26.078125 35.949219 25.964844 35.867188 C 25.847656 35.785156 25.710938 35.75 25.570312 35.769531 C 25.429688 35.789062 25.304688 35.863281 25.222656 35.976562 L 23.578125 38.1875 Z M 26.144531 36.660156 Z M 26.144531 36.660156 " fill-opacity="1" fill-rule="nonzero"/><path fill="#ffad00" d="M 29.621094 23.777344 C 25.609375 23.582031 22.195312 26.671875 22 30.675781 C 21.800781 34.683594 24.894531 38.09375 28.90625 38.289062 C 32.917969 38.484375 36.328125 35.394531 36.523438 31.390625 C 36.71875 27.386719 33.625 23.980469 29.617188 23.785156 Z M 28.984375 36.742188 C 25.828125 36.585938 23.394531 33.90625 23.546875 30.753906 C 23.703125 27.601562 26.386719 25.171875 29.542969 25.324219 C 32.699219 25.480469 35.132812 28.160156 34.980469 31.3125 C 34.824219 34.464844 32.140625 36.898438 28.984375 36.742188 Z M 28.984375 36.742188 " fill-opacity="1" fill-rule="nonzero"/><path fill="#271700" d="M 29.273438 38.449219 C 29.148438 38.449219 29.027344 38.449219 28.902344 38.4375 C 24.8125 38.238281 21.648438 34.753906 21.847656 30.667969 C 21.949219 28.691406 22.808594 26.867188 24.28125 25.53125 C 25.75 24.199219 27.648438 23.523438 29.632812 23.617188 C 31.609375 23.714844 33.433594 24.574219 34.773438 26.046875 C 36.101562 27.515625 36.78125 29.410156 36.6875 31.390625 C 36.59375 33.371094 35.730469 35.195312 34.257812 36.523438 C 32.878906 37.773438 31.125 38.445312 29.28125 38.445312 Z M 29.253906 23.921875 C 27.480469 23.921875 25.800781 24.570312 24.480469 25.765625 C 23.070312 27.039062 22.25 28.789062 22.15625 30.6875 C 21.964844 34.605469 24.996094 37.941406 28.917969 38.132812 C 30.816406 38.226562 32.636719 37.574219 34.046875 36.300781 C 35.457031 35.027344 36.28125 33.28125 36.371094 31.378906 C 36.464844 29.480469 35.8125 27.664062 34.539062 26.257812 C 33.265625 24.851562 31.511719 24.027344 29.609375 23.933594 C 29.492188 23.929688 29.371094 23.921875 29.253906 23.921875 Z M 29.269531 36.902344 C 29.171875 36.902344 29.078125 36.902344 28.980469 36.898438 C 25.742188 36.738281 23.238281 33.976562 23.398438 30.75 C 23.476562 29.179688 24.160156 27.742188 25.320312 26.6875 C 26.480469 25.632812 27.988281 25.097656 29.554688 25.171875 C 32.792969 25.332031 35.296875 28.089844 35.132812 31.320312 C 34.980469 34.453125 32.378906 36.902344 29.269531 36.902344 Z M 28.988281 36.585938 C 32.058594 36.738281 34.671875 34.367188 34.824219 31.304688 C 34.972656 28.238281 32.601562 25.625 29.535156 25.476562 C 28.046875 25.402344 26.621094 25.910156 25.519531 26.910156 C 24.414062 27.910156 23.765625 29.273438 23.695312 30.757812 C 23.542969 33.824219 25.917969 36.4375 28.984375 36.585938 Z M 28.988281 36.585938 " fill-opacity="1" fill-rule="nonzero"/><path fill="#271700" d="M 29.269531 36.902344 C 29.171875 36.902344 29.070312 36.902344 28.972656 36.898438 C 27.402344 36.820312 25.964844 36.136719 24.90625 34.976562 C 23.855469 33.816406 23.316406 32.3125 23.386719 30.75 C 23.546875 27.515625 26.308594 25.015625 29.542969 25.175781 C 32.78125 25.335938 35.285156 28.09375 35.125 31.324219 C 35.046875 32.890625 34.363281 34.332031 33.203125 35.386719 C 32.113281 36.375 30.726562 36.90625 29.265625 36.90625 Z M 29.257812 25.472656 C 26.308594 25.472656 23.84375 27.789062 23.699219 30.757812 C 23.625 32.246094 24.132812 33.667969 25.132812 34.765625 C 26.132812 35.867188 27.503906 36.515625 28.988281 36.585938 C 30.476562 36.660156 31.902344 36.152344 33 35.152344 C 34.101562 34.15625 34.75 32.789062 34.824219 31.304688 C 34.972656 28.238281 32.601562 25.625 29.535156 25.476562 C 29.441406 25.476562 29.347656 25.472656 29.257812 25.472656 Z M 29.257812 25.472656 " fill-opacity="1" fill-rule="nonzero"/><path fill="#ffeee9" d="M 27.101562 26.796875 C 27.046875 26.796875 26.988281 26.765625 26.964844 26.707031 C 26.925781 26.628906 26.957031 26.535156 27.035156 26.5 C 27.28125 26.382812 27.539062 26.277344 27.796875 26.199219 C 27.878906 26.175781 27.96875 26.222656 27.988281 26.304688 C 28.015625 26.386719 27.96875 26.476562 27.886719 26.496094 C 27.640625 26.566406 27.398438 26.667969 27.171875 26.78125 C 27.148438 26.789062 27.125 26.796875 27.101562 26.796875 Z M 27.101562 26.796875 " fill-opacity="1" fill-rule="nonzero"/><path fill="#ffeee9" d="M 24.703125 29.394531 C 24.683594 29.394531 24.667969 29.394531 24.648438 29.382812 C 24.570312 29.351562 24.527344 29.257812 24.558594 29.179688 C 24.863281 28.410156 25.363281 27.722656 25.996094 27.183594 C 26.0625 27.125 26.160156 27.136719 26.210938 27.199219 C 26.269531 27.265625 26.257812 27.363281 26.195312 27.417969 C 25.601562 27.921875 25.132812 28.570312 24.847656 29.289062 C 24.824219 29.351562 24.765625 29.386719 24.703125 29.386719 Z M 24.703125 29.394531 " fill-opacity="1" fill-rule="nonzero"/><path fill="#ffeee9" d="M 32.507812 34.859375 C 32.464844 34.859375 32.417969 34.84375 32.394531 34.804688 C 32.335938 34.746094 32.339844 34.644531 32.410156 34.589844 C 32.832031 34.214844 33.179688 33.777344 33.449219 33.28125 C 33.492188 33.203125 33.585938 33.175781 33.664062 33.21875 C 33.742188 33.257812 33.765625 33.351562 33.726562 33.429688 C 33.441406 33.957031 33.066406 34.429688 32.617188 34.828125 C 32.585938 34.851562 32.550781 34.867188 32.511719 34.867188 Z M 32.507812 34.859375 " fill-opacity="1" fill-rule="nonzero"/><path fill="#ff8782" d="M 23.289062 42.46875 C 22.648438 43.414062 21.78125 42.847656 21.78125 42.847656 C 21.78125 42.847656 22.839844 44.386719 21.871094 44.886719 C 20.925781 45.378906 20.355469 44.386719 20.332031 44.339844 C 20.347656 44.390625 20.632812 45.601562 19.964844 45.964844 C 19.277344 46.335938 18.503906 45.554688 18.503906 45.554688 C 18.503906 45.554688 18.84375 46.402344 17.855469 46.464844 C 16.859375 46.527344 15.320312 44.007812 15.320312 44.007812 C 15.238281 43.886719 15.164062 43.734375 15.09375 43.5625 C 15.300781 42.703125 16.445312 43.023438 16.445312 43.023438 C 16.445312 43.023438 16.046875 41.789062 16.636719 41.28125 C 17.234375 40.773438 18.234375 41.296875 18.234375 41.296875 C 18.234375 41.296875 17.832031 39.484375 18.617188 39.132812 C 19.398438 38.777344 19.9375 39.34375 19.9375 39.34375 C 19.9375 39.34375 19.84375 37.855469 20.917969 37.757812 C 21.25 37.726562 21.636719 38.085938 22.015625 38.605469 C 22.648438 39.6875 23.75 41.78125 23.285156 42.464844 Z M 23.289062 42.46875 " fill-opacity="1" fill-rule="nonzero"/><path fill="#271700" d="M 17.824219 46.589844 C 16.792969 46.589844 15.386719 44.347656 15.222656 44.074219 C 15.1875 44.019531 15.148438 43.960938 15.113281 43.894531 C 15.082031 43.835938 15.101562 43.757812 15.164062 43.726562 C 15.222656 43.695312 15.300781 43.71875 15.332031 43.78125 C 15.363281 43.84375 15.394531 43.894531 15.429688 43.941406 C 15.847656 44.625 17.097656 46.386719 17.855469 46.339844 C 18.117188 46.324219 18.300781 46.25 18.382812 46.113281 C 18.515625 45.902344 18.398438 45.601562 18.398438 45.597656 C 18.378906 45.542969 18.398438 45.480469 18.445312 45.453125 C 18.492188 45.421875 18.558594 45.425781 18.59375 45.464844 C 18.601562 45.472656 19.316406 46.175781 19.910156 45.855469 C 20.492188 45.539062 20.226562 44.410156 20.21875 44.363281 C 20.203125 44.308594 20.234375 44.246094 20.289062 44.226562 C 20.347656 44.203125 20.410156 44.226562 20.441406 44.277344 C 20.460938 44.3125 20.972656 45.21875 21.8125 44.777344 C 21.984375 44.691406 22.085938 44.5625 22.132812 44.386719 C 22.28125 43.796875 21.6875 42.921875 21.683594 42.914062 C 21.652344 42.867188 21.65625 42.800781 21.699219 42.761719 C 21.742188 42.71875 21.800781 42.714844 21.855469 42.746094 C 21.886719 42.765625 22.632812 43.226562 23.195312 42.398438 C 23.59375 41.8125 22.410156 39.785156 21.839844 38.8125 L 21.734375 38.636719 C 21.699219 38.578125 21.71875 38.5 21.777344 38.46875 C 21.832031 38.433594 21.910156 38.453125 21.941406 38.511719 L 22.046875 38.6875 C 22.972656 40.269531 23.84375 41.875 23.398438 42.53125 C 22.964844 43.167969 22.425781 43.175781 22.078125 43.085938 C 22.257812 43.429688 22.492188 43.988281 22.378906 44.4375 C 22.316406 44.679688 22.171875 44.867188 21.9375 44.984375 C 21.292969 45.320312 20.8125 45.042969 20.53125 44.761719 C 20.5625 45.191406 20.511719 45.804688 20.035156 46.0625 C 19.53125 46.335938 19.003906 46.066406 18.695312 45.851562 C 18.695312 45.972656 18.671875 46.109375 18.59375 46.238281 C 18.464844 46.445312 18.222656 46.558594 17.875 46.578125 C 17.859375 46.578125 17.847656 46.578125 17.832031 46.578125 Z M 17.824219 46.589844 " fill-opacity="1" fill-rule="nonzero"/><path fill="#271700" d="M 18.507812 45.679688 C 18.472656 45.679688 18.433594 45.664062 18.410156 45.632812 L 16.667969 43.375 C 16.625 43.324219 16.636719 43.246094 16.6875 43.207031 C 16.742188 43.164062 16.816406 43.175781 16.859375 43.226562 L 18.601562 45.480469 C 18.640625 45.535156 18.632812 45.613281 18.578125 45.652344 C 18.558594 45.667969 18.53125 45.679688 18.507812 45.679688 Z M 18.507812 45.679688 " fill-opacity="1" fill-rule="nonzero"/><path fill="#271700" d="M 20.335938 44.460938 C 20.300781 44.460938 20.257812 44.441406 20.238281 44.410156 L 18.226562 41.457031 C 18.191406 41.398438 18.207031 41.328125 18.257812 41.285156 C 18.316406 41.25 18.386719 41.265625 18.429688 41.316406 L 20.441406 44.269531 C 20.476562 44.328125 20.460938 44.402344 20.410156 44.441406 C 20.386719 44.457031 20.363281 44.460938 20.339844 44.460938 Z M 20.335938 44.460938 " fill-opacity="1" fill-rule="nonzero"/><path fill="#271700" d="M 21.78125 42.972656 C 21.742188 42.972656 21.699219 42.953125 21.671875 42.910156 L 19.9375 39.738281 C 19.90625 39.679688 19.925781 39.605469 19.984375 39.574219 C 20.039062 39.542969 20.117188 39.5625 20.148438 39.617188 L 21.886719 42.792969 C 21.917969 42.847656 21.894531 42.925781 21.839844 42.957031 C 21.816406 42.96875 21.800781 42.972656 21.78125 42.972656 Z M 21.78125 42.972656 " fill-opacity="1" fill-rule="nonzero"/><path fill="#271700" d="M 19.8125 46.921875 C 19.792969 46.921875 19.769531 46.921875 19.757812 46.90625 C 19.699219 46.875 19.679688 46.800781 19.710938 46.738281 L 20.734375 44.886719 C 20.765625 44.832031 20.84375 44.808594 20.902344 44.839844 C 20.957031 44.871094 20.980469 44.945312 20.949219 45.007812 L 19.921875 46.859375 C 19.902344 46.898438 19.859375 46.921875 19.8125 46.921875 Z M 19.8125 46.921875 " fill-opacity="1" fill-rule="nonzero"/><path fill="#ffad00" d="M 20.917969 54.25 L 20.324219 72.035156 L 9.351562 72.035156 C 5.300781 67.324219 9.226562 56.664062 9.351562 56.328125 C 9.351562 56.324219 9.351562 56.320312 9.351562 56.320312 C 11.246094 51.867188 12.832031 48.628906 12.832031 48.628906 C 15.863281 49.695312 18.941406 51.820312 18.941406 51.820312 L 19.695312 49.902344 L 20.910156 54.242188 Z M 20.917969 54.25 " fill-opacity="1" fill-rule="nonzero"/><path fill="#271700" d="M 19.253906 71.9375 C 19.175781 71.9375 19.109375 71.875 19.109375 71.796875 C 18.957031 63.164062 20.066406 53.941406 20.1875 52.980469 L 18.859375 51.949219 C 18.796875 51.90625 18.785156 51.8125 18.832031 51.75 C 18.878906 51.6875 18.972656 51.675781 19.035156 51.722656 L 20.425781 52.804688 C 20.464844 52.835938 20.488281 52.886719 20.480469 52.9375 C 20.472656 53.039062 19.238281 62.742188 19.398438 71.796875 C 19.398438 71.875 19.335938 71.941406 19.257812 71.941406 Z M 19.253906 71.9375 " fill-opacity="1" fill-rule="nonzero"/><path fill="#271700" d="M 44.757812 26.242188 C 44.757812 26.328125 45.015625 29.1875 45.652344 29.160156 C 46.160156 29.140625 46.550781 26.09375 46.550781 26.09375 Z M 44.757812 26.242188 " fill-opacity="1" fill-rule="nonzero"/><path fill="#ffad00" d="M 58.621094 61.605469 C 58.621094 61.605469 62.234375 60.160156 61.765625 50.84375 C 61.765625 50.84375 67.011719 48.117188 70.265625 48.761719 C 70.265625 48.761719 75.074219 62.269531 70.265625 68.636719 C 65.457031 75 53.304688 70.464844 53.304688 70.464844 Z M 58.621094 61.605469 " fill-opacity="1" fill-rule="nonzero"/><path fill="#271700" d="M 58.535156 63.5625 C 58.511719 63.5625 58.488281 63.5625 58.464844 63.546875 C 58.390625 63.511719 58.359375 63.417969 58.394531 63.339844 L 59.503906 60.980469 C 59.539062 60.902344 59.632812 60.871094 59.710938 60.910156 C 59.789062 60.945312 59.820312 61.039062 59.78125 61.117188 L 58.675781 63.476562 C 58.648438 63.53125 58.589844 63.5625 58.535156 63.5625 Z M 58.535156 63.5625 " fill-opacity="1" fill-rule="nonzero"/><path fill="#271700" d="M 60.082031 63.5625 C 59.996094 63.5625 59.929688 63.496094 59.929688 63.40625 L 59.929688 61.820312 C 59.929688 61.730469 59.996094 61.664062 60.082031 61.664062 C 60.171875 61.664062 60.238281 61.730469 60.238281 61.820312 L 60.238281 63.40625 C 60.238281 63.496094 60.171875 63.5625 60.082031 63.5625 Z M 60.082031 63.5625 " fill-opacity="1" fill-rule="nonzero"/><path fill="#ffeee9" d="M 52.867188 0.15625 C 49.191406 0.15625 46.210938 3.128906 46.210938 6.800781 C 46.210938 10.46875 46.671875 9.574219 47.449219 10.664062 L 45.621094 13.289062 L 49.460938 12.511719 C 50.457031 13.109375 51.621094 13.449219 52.867188 13.449219 C 56.539062 13.449219 59.519531 10.472656 59.519531 6.804688 C 59.519531 3.136719 56.539062 0.160156 52.867188 0.160156 Z M 52.867188 0.15625 " fill-opacity="1" fill-rule="nonzero"/><path fill="#271700" d="M 52.867188 13.605469 C 51.65625 13.605469 50.472656 13.285156 49.429688 12.679688 L 45.652344 13.4375 C 45.589844 13.449219 45.527344 13.421875 45.492188 13.371094 C 45.457031 13.320312 45.457031 13.246094 45.492188 13.195312 L 47.257812 10.664062 C 46.472656 9.527344 46.050781 8.191406 46.050781 6.800781 C 46.050781 3.046875 49.109375 0 52.859375 0 C 56.613281 0 59.667969 3.054688 59.667969 6.800781 C 59.667969 10.546875 56.613281 13.601562 52.859375 13.601562 Z M 49.457031 12.359375 C 49.480469 12.359375 49.511719 12.363281 49.535156 12.378906 C 50.539062 12.980469 51.6875 13.292969 52.859375 13.292969 C 56.445312 13.292969 59.359375 10.382812 59.359375 6.804688 C 59.359375 3.230469 56.441406 0.316406 52.859375 0.316406 C 49.28125 0.316406 46.363281 3.230469 46.363281 6.804688 C 46.363281 10.382812 46.78125 9.476562 47.574219 10.578125 C 47.613281 10.628906 47.613281 10.703125 47.574219 10.757812 L 45.96875 13.0625 L 49.425781 12.363281 C 49.433594 12.363281 49.445312 12.363281 49.457031 12.363281 Z M 49.457031 12.359375 " fill-opacity="1" fill-rule="nonzero"/><path fill="#ffad00" d="M 54.542969 4.425781 C 54.539062 3.429688 53.726562 2.628906 52.730469 2.632812 C 51.734375 2.640625 50.933594 3.453125 50.9375 4.445312 C 50.9375 5.019531 51.210938 5.527344 51.632812 5.851562 C 50.402344 6.3125 49.535156 7.5 49.539062 8.886719 L 49.550781 10.183594 L 55.996094 10.148438 L 55.984375 8.847656 C 55.972656 7.460938 55.089844 6.28125 53.855469 5.835938 C 54.269531 5.507812 54.539062 4.992188 54.535156 4.417969 Z M 54.542969 4.425781 " fill-opacity="1" fill-rule="nonzero"/><path fill="#0089e2" d="M 68.96875 11.375 L 68.480469 10.886719 C 68.273438 10.679688 67.9375 10.679688 67.730469 10.886719 L 64.710938 13.90625 L 63.289062 12.488281 C 63.082031 12.28125 62.746094 12.28125 62.539062 12.488281 L 62.050781 12.972656 C 61.84375 13.179688 61.84375 13.515625 62.050781 13.722656 L 63.796875 15.46875 C 63.8125 15.488281 63.828125 15.503906 63.84375 15.519531 L 64.332031 16.007812 C 64.539062 16.214844 64.875 16.214844 65.082031 16.007812 L 68.96875 12.125 C 69.175781 11.917969 69.175781 11.582031 68.96875 11.375 Z M 68.96875 11.375 " fill-opacity="1" fill-rule="nonzero"/><path fill="#ffeee9" d="M 5.445312 52.152344 L 7.464844 52.152344 C 7.667969 52.152344 7.84375 52.222656 7.984375 52.367188 C 8.128906 52.511719 8.203125 52.683594 8.203125 52.886719 C 8.203125 53.085938 8.128906 53.261719 7.984375 53.402344 C 7.84375 53.546875 7.667969 53.617188 7.464844 53.617188 L 5.445312 53.617188 C 5.242188 53.617188 5.066406 53.546875 4.925781 53.402344 C 4.78125 53.261719 4.710938 53.085938 4.710938 52.886719 C 4.710938 52.683594 4.78125 52.511719 4.925781 52.367188 C 5.066406 52.222656 5.242188 52.152344 5.445312 52.152344 Z M 5.445312 52.152344 " fill-opacity="1" fill-rule="nonzero"/><path fill="#ffeee9" d="M 4.511719 49.390625 L 6.53125 49.390625 C 6.734375 49.390625 6.910156 49.460938 7.054688 49.605469 C 7.195312 49.746094 7.269531 49.917969 7.269531 50.121094 C 7.269531 50.324219 7.195312 50.496094 7.054688 50.640625 C 6.910156 50.78125 6.734375 50.855469 6.53125 50.855469 L 4.511719 50.855469 C 4.308594 50.855469 4.136719 50.78125 3.992188 50.640625 C 3.847656 50.496094 3.777344 50.324219 3.777344 50.121094 C 3.777344 49.917969 3.847656 49.746094 3.992188 49.605469 C 4.136719 49.460938 4.308594 49.390625 4.511719 49.390625 Z M 4.511719 49.390625 " fill-opacity="1" fill-rule="nonzero"/><path fill="#271700" d="M 7.464844 53.773438 L 5.441406 53.773438 C 4.949219 53.773438 4.546875 53.375 4.546875 52.882812 C 4.546875 52.390625 4.949219 51.992188 5.441406 51.992188 L 7.464844 51.992188 C 7.957031 51.992188 8.355469 52.390625 8.355469 52.882812 C 8.355469 53.375 7.957031 53.773438 7.464844 53.773438 Z M 5.441406 52.308594 C 5.117188 52.308594 4.859375 52.566406 4.859375 52.886719 C 4.859375 53.207031 5.117188 53.46875 5.441406 53.46875 L 7.464844 53.46875 C 7.785156 53.46875 8.046875 53.207031 8.046875 52.886719 C 8.046875 52.566406 7.785156 52.308594 7.464844 52.308594 Z M 5.441406 52.308594 " fill-opacity="1" fill-rule="nonzero"/><path fill="#271700" d="M 6.53125 51.007812 L 4.507812 51.007812 C 4.015625 51.007812 3.617188 50.609375 3.617188 50.117188 C 3.617188 49.628906 4.015625 49.230469 4.507812 49.230469 L 6.53125 49.230469 C 7.023438 49.230469 7.425781 49.628906 7.425781 50.117188 C 7.425781 50.609375 7.023438 51.007812 6.53125 51.007812 Z M 4.507812 49.542969 C 4.1875 49.542969 3.925781 49.804688 3.925781 50.125 C 3.925781 50.445312 4.1875 50.703125 4.507812 50.703125 L 6.53125 50.703125 C 6.855469 50.703125 7.113281 50.445312 7.113281 50.125 C 7.113281 49.804688 6.855469 49.542969 6.53125 49.542969 Z M 4.507812 49.542969 " fill-opacity="1" fill-rule="nonzero"/></svg>