<svg xmlns="http://www.w3.org/2000/svg" xmlns:xlink="http://www.w3.org/1999/xlink" width="150" zoomAndPan="magnify" viewBox="0 0 112.5 112.499997" height="150" preserveAspectRatio="xMidYMid meet" version="1.0"><defs><clipPath id="322e06fe73"><path d="M 9 1 L 103.4375 1 L 103.4375 112 L 9 112 Z M 9 1 " clip-rule="nonzero"/></clipPath></defs><path fill="#ffffff" d="M 75.042969 48.25 C 74.921875 48.152344 74.863281 48 74.871094 47.847656 C 75.164062 44.453125 73.679688 41.078125 70.894531 38.808594 C 68.117188 36.550781 64.515625 35.785156 61.25 36.753906 C 61.222656 36.761719 61.183594 36.769531 61.152344 36.769531 C 61.03125 36.777344 60.894531 36.738281 60.804688 36.664062 L 57.730469 34.160156 C 57.730469 34.160156 57.730469 34.152344 57.722656 34.152344 C 57.511719 34.40625 57.292969 34.648438 57.09375 34.898438 L 19.910156 80.539062 L 23.007812 83.058594 C 23.144531 83.164062 23.203125 83.339844 23.171875 83.511719 C 22.878906 86.878906 24.355469 90.246094 27.140625 92.507812 C 29.925781 94.773438 33.542969 95.539062 36.816406 94.554688 C 36.964844 94.507812 37.125 94.539062 37.246094 94.636719 L 40.335938 97.148438 L 77.570312 51.445312 C 77.753906 51.222656 77.933594 50.980469 78.109375 50.746094 C 78.109375 50.746094 78.101562 50.746094 78.101562 50.738281 Z M 39.234375 80.246094 C 39.835938 81.449219 39.828125 83.203125 38.027344 85.015625 C 36.679688 86.371094 34.570312 86.644531 32.984375 85.355469 C 31.398438 84.066406 31.320312 81.859375 32.390625 80.289062 C 33.765625 78.28125 35.410156 77.855469 36.714844 78.195312 L 39.289062 75.035156 L 41.808594 77.082031 Z M 62.691406 58.109375 L 51.761719 71.53125 C 51.238281 72.175781 50.457031 72.507812 49.660156 72.507812 C 48.992188 72.507812 48.308594 72.28125 47.738281 71.820312 L 43.25 68.164062 C 42.640625 67.671875 42.246094 66.988281 42.140625 66.238281 C 42.035156 65.480469 42.230469 64.746094 42.710938 64.167969 L 53.648438 50.746094 C 54.121094 50.167969 54.804688 49.820312 55.570312 49.769531 C 56.320312 49.714844 57.078125 49.957031 57.6875 50.449219 L 62.167969 54.105469 C 62.777344 54.597656 63.171875 55.289062 63.269531 56.039062 C 63.367188 56.796875 63.171875 57.53125 62.691406 58.109375 Z M 62.691406 58.109375 " fill-opacity="1" fill-rule="nonzero"/><path fill="#f49a9a" d="M 14.894531 107.550781 C 12.257812 105.40625 10.5625 102.433594 10.125 99.195312 C 9.667969 95.964844 10.511719 92.839844 12.507812 90.398438 L 19.691406 81.578125 L 22.234375 83.640625 C 21.988281 87.265625 23.597656 90.835938 26.558594 93.25 C 29.515625 95.652344 33.347656 96.503906 36.851562 95.539062 L 39.386719 97.59375 L 32.203125 106.414062 C 28.082031 111.457031 20.320312 111.972656 14.894531 107.550781 Z M 101.953125 12.359375 C 101.484375 9.320312 99.839844 6.65625 97.335938 4.859375 C 92.789062 1.601562 85.6875 1.015625 81.667969 5.6875 C 76.546875 11.632812 69.773438 20.058594 64.824219 26.207031 C 62.0625 29.640625 59.824219 32.425781 58.703125 33.746094 L 61.214844 35.792969 C 64.710938 34.820312 68.535156 35.671875 71.488281 38.082031 C 74.445312 40.484375 76.054688 44.066406 75.820312 47.683594 L 78.316406 49.714844 C 80.550781 46.742188 92.578125 30.613281 99.832031 20.890625 C 101.675781 18.417969 102.425781 15.394531 101.953125 12.359375 Z M 61.964844 57.519531 C 62.269531 57.144531 62.398438 56.660156 62.335938 56.160156 C 62.269531 55.644531 61.996094 55.175781 61.578125 54.832031 L 57.085938 51.179688 C 56.699219 50.867188 56.238281 50.699219 55.765625 50.699219 C 55.722656 50.699219 55.675781 50.699219 55.628906 50.707031 C 55.128906 50.746094 54.679688 50.964844 54.378906 51.34375 L 43.4375 64.765625 C 43.132812 65.140625 43.003906 65.617188 43.074219 66.117188 C 43.140625 66.625 43.414062 67.09375 43.839844 67.445312 L 48.332031 71.097656 C 49.1875 71.796875 50.402344 71.726562 51.03125 70.949219 Z M 61.964844 57.519531 " fill-opacity="1" fill-rule="nonzero"/><g clip-path="url(#322e06fe73)"><path fill="#d36a6a" d="M 102.878906 12.214844 C 102.371094 8.925781 100.597656 6.035156 97.882812 4.09375 C 92.996094 0.589844 85.324219 0 80.953125 5.082031 C 75.824219 11.035156 69.042969 19.464844 64.089844 25.628906 C 61.039062 29.421875 58.632812 32.410156 57.679688 33.507812 C 57.59375 33.609375 57.550781 33.730469 57.566406 33.859375 C 57.570312 33.980469 57.632812 34.09375 57.730469 34.175781 C 57.730469 34.175781 57.730469 34.183594 57.738281 34.183594 L 60.8125 36.6875 C 60.902344 36.761719 61.039062 36.800781 61.160156 36.792969 C 61.191406 36.792969 61.230469 36.785156 61.257812 36.777344 C 64.523438 35.800781 68.117188 36.566406 70.902344 38.832031 C 73.6875 41.101562 75.171875 44.476562 74.878906 47.871094 C 74.863281 48.023438 74.929688 48.175781 75.050781 48.273438 L 78.117188 50.769531 C 78.117188 50.769531 78.125 50.769531 78.125 50.777344 C 78.207031 50.835938 78.308594 50.875 78.414062 50.875 C 78.429688 50.875 78.449219 50.875 78.464844 50.875 C 78.59375 50.859375 78.710938 50.792969 78.785156 50.691406 C 79.871094 49.265625 92.917969 31.773438 100.597656 21.476562 C 102.578125 18.777344 103.398438 15.5 102.878906 12.214844 Z M 75.824219 47.683594 C 76.0625 44.066406 74.453125 40.492188 71.492188 38.082031 C 68.535156 35.679688 64.710938 34.828125 61.222656 35.792969 L 58.710938 33.746094 C 59.832031 32.425781 62.070312 29.640625 64.832031 26.207031 C 69.78125 20.058594 76.554688 11.625 81.675781 5.6875 C 85.695312 1.015625 92.796875 1.601562 97.34375 4.851562 C 99.847656 6.648438 101.484375 9.3125 101.960938 12.351562 C 102.433594 15.386719 101.683594 18.417969 99.847656 20.882812 C 92.601562 30.605469 80.566406 46.734375 78.328125 49.707031 Z M 37.246094 94.652344 C 37.125 94.554688 36.964844 94.523438 36.816406 94.570312 C 33.542969 95.554688 29.925781 94.789062 27.140625 92.519531 C 24.363281 90.261719 22.878906 86.894531 23.171875 83.527344 C 23.203125 83.359375 23.144531 83.1875 23.007812 83.074219 L 19.910156 80.554688 C 19.707031 80.386719 19.417969 80.417969 19.25 80.625 L 11.769531 89.804688 C 9.617188 92.453125 8.699219 95.835938 9.183594 99.324219 C 9.652344 102.804688 11.46875 105.988281 14.289062 108.285156 C 16.9375 110.441406 20.117188 111.5 23.203125 111.5 C 26.90625 111.5 30.496094 109.976562 32.90625 107.011719 L 40.386719 97.828125 C 40.464844 97.730469 40.5 97.609375 40.496094 97.488281 C 40.480469 97.367188 40.417969 97.253906 40.328125 97.167969 Z M 14.894531 107.550781 C 12.257812 105.40625 10.5625 102.433594 10.125 99.195312 C 9.667969 95.964844 10.511719 92.839844 12.507812 90.398438 L 19.691406 81.578125 L 22.234375 83.640625 C 21.988281 87.265625 23.597656 90.835938 26.558594 93.25 C 29.515625 95.652344 33.347656 96.503906 36.851562 95.539062 L 39.386719 97.59375 L 32.203125 106.414062 C 28.082031 111.457031 20.320312 111.972656 14.894531 107.550781 Z M 62.167969 54.105469 L 57.679688 50.449219 C 57.070312 49.957031 56.320312 49.707031 55.5625 49.769531 C 54.796875 49.820312 54.113281 50.167969 53.640625 50.746094 L 42.703125 64.167969 C 42.230469 64.746094 42.027344 65.480469 42.132812 66.238281 C 42.238281 66.980469 42.625 67.664062 43.242188 68.164062 L 47.730469 71.820312 C 48.300781 72.28125 48.984375 72.507812 49.652344 72.507812 C 50.457031 72.507812 51.230469 72.175781 51.753906 71.53125 L 62.6875 58.109375 C 63.15625 57.53125 63.359375 56.796875 63.253906 56.03125 C 63.164062 55.289062 62.777344 54.597656 62.167969 54.105469 Z M 48.332031 71.089844 L 43.839844 67.4375 C 43.414062 67.09375 43.140625 66.625 43.074219 66.109375 C 43.003906 65.609375 43.132812 65.132812 43.4375 64.757812 L 54.378906 51.335938 C 54.679688 50.964844 55.128906 50.738281 55.628906 50.699219 C 55.675781 50.699219 55.722656 50.691406 55.765625 50.691406 C 56.238281 50.691406 56.699219 50.859375 57.085938 51.171875 L 61.578125 54.824219 C 62.003906 55.167969 62.269531 55.636719 62.335938 56.152344 C 62.40625 56.652344 62.277344 57.132812 61.964844 57.511719 L 51.023438 70.933594 C 50.394531 71.722656 49.179688 71.789062 48.332031 71.089844 Z M 48.332031 71.089844 " fill-opacity="1" fill-rule="nonzero"/></g><path fill="#dddbdb" d="M 39.296875 75.035156 L 41.8125 77.082031 L 39.242188 80.246094 C 39.839844 81.449219 39.835938 83.203125 38.035156 85.015625 C 36.6875 86.371094 34.578125 86.644531 32.992188 85.355469 C 31.40625 84.066406 31.328125 81.859375 32.398438 80.289062 C 33.773438 78.28125 35.417969 77.855469 36.722656 78.195312 Z M 39.296875 75.035156 " fill-opacity="1" fill-rule="nonzero"/><path fill="#f25a5a" d="M 52.746094 66.988281 L 51.5625 68.453125 L 46.023438 63.972656 L 47.207031 62.507812 Z M 52.746094 66.988281 " fill-opacity="1" fill-rule="nonzero"/></svg>