<svg xmlns="http://www.w3.org/2000/svg" xmlns:xlink="http://www.w3.org/1999/xlink" width="150" zoomAndPan="magnify" viewBox="0 0 112.5 112.499997" height="150" preserveAspectRatio="xMidYMid meet" version="1.0"><defs><clipPath id="6d9437386f"><path d="M 1.414062 2 L 109 2 L 109 109 L 1.414062 109 Z M 1.414062 2 " clip-rule="nonzero"/></clipPath><clipPath id="163097d20a"><path d="M 8 10 L 110.429688 10 L 110.429688 110 L 8 110 Z M 8 10 " clip-rule="nonzero"/></clipPath><clipPath id="0165847eb0"><path d="M 1.414062 1.8125 L 109 1.8125 L 109 109 L 1.414062 109 Z M 1.414062 1.8125 " clip-rule="nonzero"/></clipPath></defs><path fill="#000000" d="M 96.75 72.621094 L 93.890625 74.398438 L 90.734375 75.554688 L 87.769531 76.320312 L 84.722656 76.558594 L 81.667969 76.6875 L 78.605469 76.71875 L 75.546875 76.765625 L 72.488281 76.570312 L 69.425781 76.621094 L 66.371094 76.898438 L 63.449219 77.492188 L 60.511719 77.996094 L 57.558594 78.402344 L 54.585938 78.199219 L 51.675781 77.761719 L 48.960938 76.574219 L 46.785156 74.558594 L 45.550781 71.886719 L 45.53125 68.859375 L 46.441406 65.945312 L 47.871094 63.25 L 49.519531 59.269531 L 49.523438 55.691406 L 49.167969 52.101562 L 49.484375 48.539062 L 51.414062 46.441406 L 53.253906 44.265625 L 54.296875 40.640625 L 54.976562 36.886719 L 55.90625 33.238281 L 58.679688 30.863281 L 62.957031 30.375 L 65.429688 28.878906 L 67.746094 27.164062 L 70.808594 26.230469 L 73.933594 26.886719 L 76.574219 28.652344 L 76.925781 29.269531 L 79.667969 29.492188 L 82.171875 30.628906 L 84.441406 32.234375 L 85.988281 34.558594 L 87.378906 36.96875 L 88.632812 39.46875 L 89.722656 42.035156 L 90.773438 44.625 L 92.246094 46.996094 L 94.175781 49.476562 L 95.773438 52.15625 L 96.203125 55.574219 L 96.289062 59.03125 L 97.390625 61.507812 L 98.421875 64.015625 L 99.117188 66.585938 L 98.796875 69.917969 Z M 96.75 72.621094 " fill-opacity="1" fill-rule="nonzero"/><path fill="#ff96c4" d="M 102.410156 102.28125 L 101.480469 102.957031 L 100.511719 103.53125 L 99.453125 103.914062 L 98.378906 104.199219 L 97.300781 104.484375 L 96.21875 104.761719 L 95.183594 104.945312 L 94.199219 105.398438 L 93.144531 105.484375 L 92.082031 105.511719 L 91.042969 105.648438 L 90.070312 106.21875 L 89.007812 106.246094 L 87.945312 106.246094 L 86.9375 106.628906 L 85.871094 106.570312 L 84.8125 106.582031 L 83.777344 106.75 L 82.746094 107 L 81.683594 106.953125 L 80.636719 107.007812 L 79.597656 107.214844 L 78.539062 107.15625 L 77.503906 107.460938 L 76.457031 107.609375 L 75.398438 107.367188 L 74.34375 107.296875 L 73.296875 107.613281 L 72.246094 107.644531 L 71.195312 107.476562 L 70.148438 107.289062 L 69.09375 107.421875 L 68.046875 107.375 L 66.984375 107.542969 L 65.9375 107.410156 L 64.898438 107.226562 L 63.875 106.925781 L 62.828125 106.855469 L 61.765625 106.90625 L 60.738281 106.652344 L 59.691406 106.589844 L 58.628906 106.628906 L 57.617188 106.261719 L 56.589844 106.019531 L 55.503906 106.257812 L 54.511719 105.742188 L 53.464844 105.621094 L 52.394531 105.75 L 51.34375 105.707031 L 50.308594 105.523438 L 49.261719 105.488281 L 48.21875 105.339844 L 47.164062 105.5 L 46.125 105.09375 L 45.074219 105.304688 L 44.027344 105.429688 L 43 105.433594 L 41.972656 105.273438 L 40.988281 104.960938 L 40.019531 104.738281 L 39.019531 104.507812 L 38.242188 103.84375 L 37.484375 103.050781 L 37.3125 101.953125 L 37.023438 100.933594 L 36.8125 99.949219 L 36.675781 98.953125 L 36.496094 97.953125 L 36.722656 96.9375 L 36.425781 95.929688 L 36.652344 94.917969 L 36.367188 93.914062 L 36.484375 92.898438 L 36.417969 91.886719 L 36.199219 90.796875 L 36.070312 89.695312 L 35.710938 88.640625 L 35.441406 87.5625 L 35.40625 86.433594 L 35.050781 85.375 L 34.695312 84.308594 L 34.601562 83.191406 L 34.644531 82.089844 L 34.554688 80.992188 L 34.515625 79.882812 L 34.902344 78.824219 L 35.074219 77.746094 L 35.457031 76.722656 L 35.769531 75.679688 L 36.058594 74.617188 L 36.660156 73.699219 L 37.195312 72.753906 L 37.59375 71.714844 L 38.273438 70.855469 L 38.984375 70.027344 L 39.800781 69.296875 L 40.539062 68.578125 L 41.308594 67.890625 L 42.0625 67.175781 L 43.035156 66.757812 L 43.667969 65.847656 L 44.625 65.414062 L 45.457031 64.78125 L 46.453125 64.421875 L 47.386719 63.964844 L 48.15625 63.214844 L 49.128906 62.828125 L 50.148438 62.542969 L 51.023438 61.972656 L 52.003906 61.625 L 52.886719 61.046875 L 53.9375 60.890625 L 54.824219 60.265625 L 55.851562 60.058594 L 56.890625 59.925781 L 57.875 59.550781 L 58.921875 59.480469 L 59.953125 59.378906 L 61.007812 59.222656 L 62.070312 59.394531 L 63.128906 59.210938 L 64.179688 59.46875 L 65.242188 59.332031 L 66.304688 59.285156 L 67.371094 59.464844 L 68.433594 59.644531 L 69.519531 59.488281 L 70.585938 59.621094 L 71.636719 59.941406 L 72.734375 59.738281 L 73.78125 60.046875 L 74.859375 60.066406 L 75.917969 60.25 L 76.960938 60.535156 L 78.035156 60.59375 L 79.113281 60.625 L 80.171875 60.820312 L 81.222656 61.046875 L 82.296875 61.132812 L 83.355469 61.296875 L 84.398438 61.574219 L 85.492188 61.535156 L 86.539062 61.796875 L 87.578125 62.082031 L 88.625 62.316406 L 89.652344 62.632812 L 90.742188 62.898438 L 91.90625 62.855469 L 92.976562 63.21875 L 93.960938 63.828125 L 95.003906 64.222656 L 96.195312 64.304688 L 97.058594 65.085938 L 98.050781 65.519531 L 98.8125 66.285156 L 99.746094 66.851562 L 100.21875 67.871094 L 101.089844 68.535156 L 101.609375 69.476562 L 102.101562 70.421875 L 102.679688 71.316406 L 103.25 72.234375 L 103.453125 73.300781 L 103.992188 74.25 L 104.363281 75.261719 L 104.308594 76.375 L 104.613281 77.398438 L 104.671875 78.46875 L 104.9375 79.511719 L 104.855469 80.585938 L 104.882812 81.648438 L 105.050781 82.71875 L 104.914062 83.785156 L 104.960938 84.859375 L 104.78125 85.917969 L 104.597656 86.972656 L 104.496094 88.035156 L 104.328125 89.089844 L 104.449219 90.191406 L 104.09375 91.21875 L 103.820312 92.257812 L 103.652344 93.316406 L 103.507812 94.375 L 103.5 95.460938 L 103.128906 96.484375 L 103.089844 97.5625 L 103.117188 98.644531 L 102.65625 99.664062 L 102.578125 100.734375 " fill-opacity="1" fill-rule="nonzero"/><path fill="#ffc299" d="M 89.3125 61.171875 L 89.078125 62.117188 L 88.226562 63.089844 L 87.339844 63.699219 L 86.648438 64.53125 L 85.800781 65.1875 L 84.980469 65.875 L 84.351562 66.761719 L 83.667969 67.585938 L 82.921875 68.347656 L 82.078125 69.125 L 81.53125 70.128906 L 81.019531 71.039062 L 80.871094 72.078125 L 80.769531 73.125 L 81.089844 74.132812 L 81.199219 75.171875 L 81.554688 76.152344 L 81.738281 77.199219 L 82.34375 78.082031 L 82.546875 79.140625 L 83.074219 80.066406 L 83.257812 81.128906 L 83.886719 82.019531 L 84.304688 82.988281 L 84.445312 84.074219 L 84.90625 84.585938 L 84.601562 85.234375 L 84.046875 86.160156 L 83.484375 87.078125 L 82.707031 87.820312 L 81.976562 88.664062 L 80.871094 88.886719 L 79.875 89.292969 L 78.800781 89.328125 L 77.722656 89.351562 L 76.785156 88.808594 L 75.789062 88.441406 L 75.144531 87.851562 L 74.65625 87.152344 L 74.089844 86.4375 L 73.734375 85.589844 L 73.507812 84.597656 L 73.253906 83.613281 L 73.246094 82.5625 L 73.019531 81.574219 L 72.527344 80.640625 L 72.375 79.628906 L 72.261719 78.5 L 71.738281 79.546875 L 71.019531 80.3125 L 70.328125 81.097656 L 69.78125 81.859375 L 69.15625 81.105469 L 68.65625 80.148438 L 68.113281 79.226562 L 67.449219 78.375 L 66.933594 77.433594 L 66.472656 76.460938 L 66.007812 75.492188 L 65.277344 74.667969 L 64.78125 73.714844 L 64.5 72.65625 L 64.019531 71.699219 L 63.390625 70.800781 L 62.96875 69.808594 L 62.804688 68.726562 L 62.539062 67.6875 L 62.265625 66.65625 L 62.0625 65.605469 L 61.636719 64.597656 L 61.707031 63.507812 L 61.402344 62.460938 L 61.300781 61.574219 L 61.199219 60.691406 L 60.46875 59.632812 L 60.039062 58.636719 L 59.46875 57.714844 L 59.140625 56.683594 L 58.769531 55.664062 L 58.675781 54.582031 L 58.496094 53.519531 L 58.246094 52.460938 L 58.152344 51.386719 L 58.371094 50.292969 L 58.082031 49.230469 L 58.128906 48.246094 L 58.246094 47.265625 L 58.109375 46.285156 L 58.074219 45.304688 L 58.351562 44.347656 L 58.328125 43.285156 L 58.613281 42.277344 L 59.132812 41.359375 L 59.28125 40.285156 L 59.800781 39.367188 L 60.570312 38.621094 L 61.066406 37.691406 L 61.859375 37.007812 L 62.464844 36.117188 L 63.355469 35.550781 L 64.308594 35.109375 L 65.183594 34.53125 L 66.226562 34.355469 L 67.125 34.011719 L 68.074219 33.84375 L 69.035156 33.792969 L 70 33.625 L 71.027344 33.722656 L 72.058594 33.835938 L 73.023438 34.214844 L 74.023438 34.464844 L 75.019531 34.753906 L 75.824219 35.445312 L 76.742188 35.902344 L 77.546875 36.539062 L 78.394531 37.125 L 79.128906 37.851562 L 79.796875 38.640625 L 80.5 39.410156 L 80.945312 40.355469 L 81.460938 41.269531 L 81.59375 42.328125 L 81.96875 43.292969 L 82.292969 44.285156 L 82.335938 45.328125 L 82.503906 46.351562 L 82.636719 47.390625 L 82.535156 48.429688 L 82.554688 49.476562 L 82.207031 50.484375 L 82.210938 51.539062 L 81.8125 52.539062 L 82.167969 52.90625 L 83.074219 53.570312 L 83.644531 54.542969 L 84.410156 55.238281 L 84.582031 54.390625 L 84.339844 53.425781 L 84.433594 52.46875 L 84.480469 51.515625 L 84.890625 50.558594 L 85.777344 50.773438 L 86.128906 51.667969 L 86.527344 52.730469 L 87.03125 53.753906 L 87.101562 54.917969 L 87.59375 55.945312 L 87.9375 57.023438 L 88.359375 58.074219 L 88.578125 59.191406 L 88.886719 60.277344 Z M 89.3125 61.171875 " fill-opacity="1" fill-rule="nonzero"/><path fill="#000000" d="M 89.058594 49.292969 C 88.800781 50.75 88.429688 52.203125 87.75 53.515625 C 87.066406 54.828125 86.054688 56 84.734375 56.667969 C 83.417969 57.339844 81.78125 57.453125 80.464844 56.78125 C 79.148438 56.109375 78.253906 54.589844 78.496094 53.132812 C 78.675781 52.042969 79.40625 51.140625 80.042969 50.238281 C 80.679688 49.335938 81.269531 48.277344 81.097656 47.183594 C 80.953125 46.265625 80.292969 45.511719 79.5625 44.941406 C 78.832031 44.367188 78.007812 43.914062 77.328125 43.28125 C 76.101562 42.144531 75.421875 40.441406 75.535156 38.769531 C 75.472656 39.789062 75.328125 40.808594 75.105469 41.808594 C 75.042969 42.101562 74.910156 42.453125 74.613281 42.496094 C 74.273438 42.546875 74.046875 42.167969 73.941406 41.839844 C 73.65625 40.945312 73.558594 39.988281 73.65625 39.050781 C 73.496094 39.886719 73.289062 40.710938 73.042969 41.523438 C 73.003906 41.65625 72.945312 41.808594 72.820312 41.863281 C 72.585938 41.96875 72.367188 41.683594 72.273438 41.441406 C 71.945312 40.546875 71.855469 39.5625 72.027344 38.625 C 71.878906 39.410156 71.730469 40.195312 71.582031 40.980469 C 71.519531 41.328125 71.308594 41.773438 70.96875 41.683594 C 70.800781 41.640625 70.699219 41.476562 70.621094 41.320312 C 70.195312 40.480469 69.996094 39.527344 70.046875 38.585938 C 69.941406 39.417969 69.839844 40.257812 69.734375 41.089844 C 69.714844 41.246094 69.679688 41.421875 69.546875 41.496094 C 69.300781 41.632812 69.058594 41.308594 68.96875 41.042969 C 68.691406 40.195312 68.5625 39.300781 68.582031 38.410156 C 68.441406 39.417969 68.273438 40.425781 68.070312 41.421875 C 68.03125 41.621094 67.9375 41.867188 67.734375 41.875 C 67.628906 41.875 67.535156 41.804688 67.460938 41.730469 C 66.867188 41.15625 66.675781 40.289062 66.609375 39.464844 C 66.457031 37.484375 66.894531 35.46875 67.828125 33.71875 C 66.675781 35.371094 65.738281 37.171875 65.0625 39.070312 C 64.734375 39.988281 64.445312 40.964844 63.742188 41.640625 C 63.558594 41.820312 63.257812 41.976562 63.058594 41.816406 C 62.898438 41.691406 62.90625 41.449219 62.941406 41.25 C 63.019531 40.71875 63.144531 40.1875 63.3125 39.679688 C 62.78125 40.71875 62.210938 41.800781 61.25 42.457031 C 60.996094 41.957031 60.972656 41.347656 61.167969 40.824219 C 60.636719 41.957031 60.015625 43.105469 58.9375 43.710938 C 58.628906 43.886719 58.253906 44.011719 57.917969 43.886719 C 57.617188 43.777344 57.414062 43.480469 57.332031 43.167969 C 57.25 42.855469 57.277344 42.527344 57.3125 42.207031 C 57.433594 41.203125 57.667969 40.214844 58.007812 39.261719 L 63.074219 31.226562 L 68.730469 32.296875 C 68.832031 32.160156 68.941406 32.03125 69.050781 31.898438 L 81.707031 34.355469 Z M 73.722656 46.273438 C 73.171875 46.15625 72.59375 46.675781 72.433594 47.4375 C 72.273438 48.195312 72.589844 48.90625 73.140625 49.023438 C 73.691406 49.140625 74.269531 48.621094 74.429688 47.859375 C 74.59375 47.101562 74.273438 46.390625 73.722656 46.273438 Z M 64.9375 45.546875 C 64.386719 45.429688 63.808594 45.953125 63.648438 46.710938 C 63.488281 47.472656 63.800781 48.183594 64.355469 48.300781 C 64.90625 48.417969 65.484375 47.894531 65.644531 47.136719 C 65.804688 46.375 65.488281 45.664062 64.9375 45.546875 Z M 64.9375 45.546875 " fill-opacity="1" fill-rule="nonzero"/><path fill="#ffc299" d="M 62.203125 95.984375 L 62.203125 97.066406 L 61.710938 98.003906 L 60.808594 98.574219 L 59.757812 98.484375 L 59.921875 99.742188 L 59.222656 100.789062 L 58.085938 101.28125 L 56.882812 101.03125 L 57.0625 102.035156 L 56.507812 102.917969 L 55.539062 103.269531 L 54.585938 102.957031 L 54.6875 103.898438 L 54.203125 104.769531 L 53.386719 105.320312 L 52.382812 105.476562 L 51.375 105.273438 L 50.472656 104.769531 L 49.453125 104.402344 L 48.460938 103.960938 L 47.570312 103.34375 L 46.742188 102.632812 L 46.164062 101.710938 L 45.789062 100.6875 L 45.695312 99.574219 L 46.078125 98.53125 L 46.699219 97.640625 L 47.628906 97.082031 L 47.328125 95.890625 L 47.511719 94.675781 L 48.332031 93.804688 L 49.480469 93.605469 L 49.285156 92.6875 L 49.34375 91.734375 L 49.757812 90.878906 L 50.542969 90.367188 L 51.480469 90.199219 L 52.308594 90.695312 L 52.265625 89.734375 L 52.617188 88.859375 L 53.308594 88.246094 L 54.183594 87.988281 L 55.578125 88.597656 L 56.414062 89.386719 L 57.148438 90.273438 L 57.894531 91.144531 L 58.703125 91.964844 L 59.535156 92.664062 L 60.371094 93.359375 L 61.183594 94.082031 L 61.808594 94.972656 Z M 65.304688 94.203125 L 64.808594 94.015625 L 63.878906 94.636719 L 63.410156 95.683594 L 63.320312 96.628906 L 63.441406 97.574219 L 63.761719 98.464844 L 64.492188 99.058594 L 64.867188 98.917969 L 65.59375 98.179688 L 66.058594 97.25 L 66.226562 96.226562 L 66.066406 95.203125 Z M 86.957031 53.941406 L 86.527344 52.851562 L 86.007812 51.800781 L 85.324219 50.851562 L 85.03125 50.640625 L 84.757812 50.84375 L 84.5 51.621094 L 84.523438 52.460938 L 84.71875 53.777344 L 84.886719 55.117188 L 84.164062 54.347656 L 83.507812 53.546875 L 82.796875 52.796875 L 81.691406 52.417969 L 81.390625 52.996094 L 81.429688 53.910156 L 81.710938 54.785156 L 82.125 55.597656 L 81.234375 54.582031 L 80.234375 53.878906 L 79.171875 54.246094 L 79.207031 55.21875 L 79.601562 56.371094 L 79.972656 57.53125 L 80.382812 58.679688 L 86.183594 60.785156 L 86.378906 59.632812 L 86.605469 58.484375 L 86.855469 57.34375 L 87.082031 56.199219 L 87.328125 55.054688 Z M 86.957031 53.941406 " fill-opacity="1" fill-rule="nonzero"/><path fill="#ffffff" d="M 54.867188 54.726562 L 54.894531 55.496094 L 54.386719 55.644531 L 54.082031 54.859375 L 54.023438 54.464844 L 53.941406 54.902344 L 53.289062 54.90625 L 53.253906 55.074219 L 52.507812 55.175781 L 52.5 55.074219 L 52.492188 55.074219 L 52.496094 55.042969 L 52.4375 54.332031 L 52.265625 55.523438 L 51.570312 55.429688 L 51.539062 55.4375 L 51.554688 55.300781 L 51.394531 52.972656 L 52.023438 50.660156 L 52.046875 50.675781 L 52.5 50.925781 L 52.441406 52.035156 L 53.023438 52.28125 L 53.039062 52.488281 L 53.070312 52.34375 L 53.070312 52.328125 L 53.078125 52.328125 L 53.121094 52.128906 L 53.855469 52.328125 L 53.863281 52.546875 L 53.957031 52.398438 L 53.957031 52.367188 L 53.972656 52.378906 L 54.226562 51.984375 L 54.71875 52.359375 L 54.753906 53.941406 Z M 86.339844 43.902344 L 86.339844 43.882812 L 86.261719 41.691406 L 86.667969 43.308594 L 87.292969 43.171875 L 87.175781 41.292969 L 87.175781 41.277344 L 87.738281 43.226562 L 88.398438 43.078125 L 88.382812 42.804688 L 89.019531 44.304688 L 89.453125 44.214844 L 88.246094 40.792969 L 87.757812 40.902344 L 87.285156 39.3125 L 86.941406 39.117188 L 86.792969 39.609375 L 86.679688 39.539062 L 86.746094 39.773438 L 86.554688 40.410156 L 86.191406 39.527344 L 86.1875 39.363281 L 86.136719 39.394531 L 86.003906 39.066406 L 85.492188 39.410156 L 85.5 39.644531 L 85.363281 39.28125 L 84.847656 39.261719 L 84.6875 39.734375 L 84.53125 39.175781 L 83.714844 38.390625 L 83.320312 38.746094 L 83.449219 39.976562 L 82.667969 38.449219 L 82.058594 38.753906 L 82.289062 40.484375 L 81.300781 39.140625 L 81.109375 39.527344 L 81.085938 39.5625 L 82.128906 41.335938 L 82.742188 43.953125 L 83.367188 44 L 83.359375 43.910156 L 83.417969 43.914062 L 83.308594 43.488281 L 83.074219 41.609375 L 83.859375 43.878906 L 83.863281 43.902344 L 84.386719 43.867188 L 84.523438 43.855469 L 84.136719 40.296875 L 84.40625 41.335938 L 84.832031 43.761719 L 84.863281 44.160156 L 85.476562 44.109375 L 85.558594 44.105469 L 85.457031 42.644531 L 85.675781 43.917969 L 85.679688 43.953125 L 85.824219 43.945312 Z M 62.789062 33.984375 L 61.546875 35.148438 L 62.382812 33.292969 L 61.917969 32.886719 L 60.664062 34.136719 L 61.195312 32.96875 L 60.664062 32.628906 L 60.507812 32.835938 L 60.488281 32.828125 L 60.453125 32.914062 L 59.5 34.199219 L 60.125 32.441406 L 59.503906 32.136719 L 59.144531 32.785156 L 59.25 32.457031 L 58.609375 32.144531 L 58.527344 32.3125 L 58.503906 32.300781 L 58.472656 32.398438 L 57.820312 32.066406 L 56.394531 34.707031 L 56.199219 37.71875 L 56.9375 37.675781 L 57.347656 36.207031 L 57.398438 36.21875 L 57.429688 36.117188 L 57.523438 35.929688 L 58.09375 36.125 L 58.105469 36.089844 L 58.753906 36.402344 L 59.15625 35.839844 L 59.105469 35.945312 L 59.082031 35.976562 L 59.089844 35.980469 L 59.054688 36.0625 L 59.613281 36.417969 L 60.929688 34.863281 L 60.972656 34.8125 L 60.253906 36.355469 L 60.234375 36.375 L 60.789062 36.832031 L 60.796875 36.8125 L 61.859375 35.78125 L 61.144531 37.222656 L 61.609375 37.597656 L 61.625 37.617188 L 61.683594 37.5 L 63.261719 35.449219 L 62.890625 35.269531 L 62.882812 35.269531 L 62.710938 35.460938 L 63.214844 34.464844 L 63.230469 34.449219 L 63.226562 34.445312 L 63.300781 34.296875 Z M 88.359375 49.621094 L 88.347656 49.625 L 89.320312 51.863281 L 89.199219 51.714844 L 87.953125 50.605469 L 87.59375 50.941406 L 87.8125 51.554688 L 87.621094 51.355469 L 87.59375 51.289062 L 87.578125 51.3125 L 87.363281 51.089844 L 87.035156 51.488281 L 87.855469 53.789062 L 87.667969 53.886719 L 88.207031 55.179688 L 88.628906 55.035156 L 88.507812 54.574219 L 88.742188 54.453125 L 88.339844 53.34375 L 88.574219 53.707031 L 89.09375 53.433594 L 88.496094 51.8125 L 88.886719 52.175781 L 90.023438 53.492188 L 90.429688 53.195312 L 88.816406 49.464844 Z M 100.960938 78.386719 L 100.613281 76.367188 L 100.179688 74.367188 L 99.585938 72.414062 L 99.171875 72.539062 L 99.167969 72.542969 L 99.5 73.847656 L 99.324219 73.382812 L 98.628906 71.734375 L 97.707031 70.472656 L 97.703125 70.433594 L 97.683594 70.441406 L 97.574219 70.292969 L 97.214844 70.523438 L 97.21875 70.582031 L 97.179688 70.59375 L 97.226562 70.683594 L 97.347656 72.304688 L 96.785156 71.550781 L 96.007812 70.132812 L 95.320312 68.707031 L 94.441406 68.179688 L 94.441406 68.171875 L 94.4375 68.175781 L 94.003906 67.914062 L 93.738281 68.210938 L 94.171875 70.992188 L 94.304688 72.628906 L 93.800781 71.039062 L 92.519531 68.847656 L 92.140625 68.953125 L 91.960938 70.929688 L 91.792969 72.910156 L 91.605469 74.882812 L 91.472656 76.859375 L 91.730469 76.882812 L 92.003906 74.957031 L 92.183594 73.019531 L 92.449219 71.050781 L 92.542969 69.832031 L 93.238281 71.28125 L 94.023438 73.6875 L 94.351562 73.871094 L 94.464844 73.417969 L 94.578125 73.503906 L 94.5 73.269531 L 94.886719 71.746094 L 94.601562 69.96875 L 94.496094 68.816406 L 94.761719 69.0625 L 95.085938 69.738281 L 95.738281 71.039062 L 97.472656 73.246094 L 97.925781 72.984375 L 97.816406 71.765625 L 98.023438 72.144531 L 98.710938 73.75 L 99.265625 75.410156 L 99.632812 77.128906 L 100.058594 78.832031 L 100.304688 80.570312 L 100.980469 80.445312 Z M 47.671875 70.539062 L 47.738281 70.554688 Z M 47.242188 72.261719 L 46.957031 74.011719 L 46.601562 75.753906 L 46.582031 76.242188 L 45.878906 74.898438 L 45.117188 72.597656 L 45.136719 72.492188 L 45.085938 72.5 L 45.003906 72.25 L 44.375 72.328125 L 44.15625 74.039062 L 44.027344 75.753906 L 44.140625 77.46875 L 44.304688 79.164062 L 44.707031 80.8125 L 45.371094 82.367188 L 45.761719 82.210938 L 45.367188 80.617188 L 45.007812 79.019531 L 44.808594 77.390625 L 44.765625 75.753906 L 44.847656 74.121094 L 44.875 73.953125 L 45.011719 74.398438 L 45.503906 76.234375 L 46.613281 77.738281 L 47.160156 77.5 L 47.429688 75.789062 L 47.660156 74.082031 L 47.871094 72.367188 L 48.308594 70.695312 L 47.730469 70.554688 Z M 40.679688 83.160156 L 40.261719 81.214844 L 40 79.246094 L 39.992188 77.253906 L 39.332031 77.257812 L 39.316406 77.257812 L 39.324219 79.292969 L 39.515625 81.3125 L 39.859375 83.316406 L 40.128906 84.367188 L 39.625 83.421875 L 38.917969 81.675781 L 38.921875 81.648438 L 38.90625 81.648438 L 38.871094 81.566406 L 38.203125 81.679688 L 38.203125 81.769531 L 38.191406 81.773438 L 38.199219 81.796875 L 38.167969 83.714844 L 38.269531 85.746094 L 38.414062 87.746094 L 38.832031 89.644531 L 39.25 89.582031 L 39.054688 87.605469 L 38.878906 85.675781 L 38.769531 83.671875 L 38.796875 83.300781 L 38.945312 83.691406 L 39.761719 85.597656 L 40.753906 87.152344 L 40.78125 87.285156 L 40.824219 87.265625 L 40.878906 87.351562 L 41.566406 87.042969 L 41.195312 85.085938 Z M 71.996094 94.351562 L 71.578125 94.375 L 71.511719 94.625 L 71.503906 94.636719 L 71.664062 94.761719 L 71.605469 96.507812 L 71.578125 97.46875 L 71.542969 98.460938 L 72.117188 98.527344 L 72.273438 97.445312 L 72.289062 96.488281 L 72.199219 94.535156 Z M 72.769531 97.257812 L 72.75 97.257812 L 72.695312 99.449219 L 72.703125 101.574219 L 72.914062 101.597656 L 73.261719 99.480469 L 73.140625 97.246094 Z M 86.238281 95.410156 L 85.871094 95.648438 L 85.875 95.648438 L 86.488281 96.726562 L 87.003906 97.855469 L 87.222656 97.949219 L 87.210938 97.957031 L 87.378906 97.871094 L 87.390625 97.882812 L 87.425781 97.644531 L 86.890625 96.484375 Z M 85.800781 97.074219 L 86.238281 98.199219 L 86.296875 98.167969 L 85.9375 97.050781 Z M 85.792969 97.074219 L 85.800781 97.074219 Z M 85.792969 97.074219 " fill-opacity="1" fill-rule="nonzero"/><path fill="#c1272d" d="M 70.191406 57.15625 L 70.132812 57.699219 L 69.914062 58.203125 L 69.578125 58.640625 L 69.148438 58.984375 L 68.636719 59.183594 L 68.09375 59.269531 L 67.546875 59.199219 L 67.042969 58.976562 L 66.613281 58.640625 L 66.273438 58.210938 L 66.070312 57.699219 L 65.992188 57.15625 L 66.058594 56.609375 L 66.273438 56.101562 L 66.605469 55.664062 L 67.039062 55.328125 L 67.550781 55.132812 L 68.089844 55.046875 L 68.632812 55.125 L 69.136719 55.339844 L 69.570312 55.671875 L 69.917969 56.097656 L 70.128906 56.605469 Z M 64.152344 97.769531 L 63.859375 96.78125 L 63.527344 95.808594 L 63.1875 94.835938 L 62.890625 93.808594 L 62.417969 92.847656 L 61.992188 91.871094 L 61.601562 90.878906 L 61.273438 89.859375 L 60.867188 88.875 L 60.445312 87.894531 L 60.148438 86.863281 L 59.746094 85.875 L 59.390625 84.871094 L 58.898438 83.917969 L 58.5625 82.90625 L 58.15625 81.917969 L 57.753906 80.929688 L 57.441406 79.90625 L 57.066406 78.910156 L 56.667969 77.921875 L 56.269531 76.929688 L 55.855469 75.949219 L 55.554688 75.40625 L 54.695312 75.261719 L 54.222656 76.007812 L 54.511719 77.207031 L 54.980469 78.195312 L 55.414062 79.195312 L 55.789062 80.21875 L 56.167969 81.242188 L 56.597656 82.246094 L 57.042969 83.242188 L 57.414062 84.265625 L 57.742188 85.308594 L 58.179688 86.308594 L 58.601562 87.3125 L 59.046875 88.304688 L 59.339844 89.316406 L 59.847656 90.242188 L 60.21875 91.21875 L 60.609375 92.1875 L 60.957031 93.175781 L 61.3125 94.15625 L 61.683594 95.136719 L 62.042969 96.253906 L 62.535156 97.316406 L 63.046875 98.367188 L 63.726562 99.3125 L 64.542969 100.144531 L 64.546875 99.789062 L 64.429688 98.761719 Z M 64.152344 97.769531 " fill-opacity="1" fill-rule="nonzero"/><g clip-path="url(#6d9437386f)"><path fill="#ffffff" d="M 44.0625 50.796875 C 44.0625 52.570312 42.625 54.011719 40.851562 54.011719 C 39.078125 54.011719 37.640625 52.570312 37.640625 50.796875 C 37.640625 49.023438 39.078125 47.582031 40.851562 47.582031 C 42.625 47.582031 44.0625 49.023438 44.0625 50.796875 Z M 44.738281 52.375 C 44.738281 53.390625 45.5625 54.222656 46.582031 54.222656 C 47.601562 54.222656 48.429688 53.394531 48.429688 52.375 C 48.429688 51.355469 47.601562 50.527344 46.582031 50.527344 C 45.5625 50.527344 44.738281 51.355469 44.738281 52.375 Z M 32.269531 48.949219 L 34.03125 49.234375 L 35.757812 48.789062 L 37.3125 48.011719 L 38.710938 46.988281 L 39.816406 45.5625 L 41.070312 45.847656 L 42.277344 46.066406 L 43.792969 45.960938 L 45.269531 45.5625 L 46.558594 44.734375 L 47.5625 43.59375 L 48.652344 42.527344 L 49.265625 41.128906 L 49.957031 39.777344 L 50.480469 38.296875 L 50.480469 36.726562 L 50.542969 35.148438 L 49.929688 33.6875 L 49.351562 32.234375 L 48.277344 31.097656 L 47.1875 30.011719 L 48.324219 28.980469 L 49.453125 27.910156 L 50.457031 26.695312 L 51.027344 25.226562 L 51.519531 23.75 L 51.6875 22.203125 L 51.914062 20.640625 L 51.480469 19.121094 L 50.792969 17.738281 L 50.007812 16.425781 L 49.027344 15.234375 L 47.855469 14.210938 L 46.445312 13.550781 L 44.953125 13.160156 L 43.433594 13.007812 L 42 12.957031 L 42.351562 11.453125 L 42.546875 9.820312 L 42.371094 8.152344 L 41.519531 6.703125 L 40.53125 5.382812 L 39.257812 4.335938 L 37.972656 3.257812 L 36.4375 2.585938 L 34.859375 2.429688 L 33.335938 2.136719 L 31.777344 2.125 L 30.273438 2.539062 L 28.917969 3.269531 L 27.527344 4.027344 L 26.644531 5.335938 L 26.097656 6.804688 L 25.410156 5.449219 L 24.144531 4.605469 L 22.777344 3.890625 L 21.109375 3.632812 L 19.433594 3.589844 L 17.773438 3.746094 L 16.144531 4.0625 L 14.5625 4.613281 L 13.203125 5.585938 L 12.003906 6.734375 L 11.136719 8.15625 L 10.683594 9.746094 L 10.433594 11.375 L 10.699219 12.996094 L 11.222656 14.511719 L 9.496094 14.386719 L 7.789062 14.890625 L 6.285156 15.8125 L 4.863281 16.863281 L 3.792969 18.007812 L 2.816406 19.253906 L 2.21875 20.714844 L 1.882812 22.238281 L 1.5625 23.777344 L 1.753906 25.339844 L 2.386719 26.777344 L 3.332031 28.007812 L 4.484375 29.023438 L 5.796875 29.710938 L 4.917969 30.863281 L 4.097656 32.132812 L 3.394531 33.507812 L 3.242188 35.050781 L 3.425781 36.566406 L 3.628906 38.042969 L 4.484375 39.316406 L 5.402344 40.515625 L 6.496094 41.597656 L 7.929688 42.160156 L 9.382812 42.554688 L 10.800781 42.828125 L 11.078125 44.273438 L 11.429688 45.75 L 12.039062 47.152344 L 12.917969 48.402344 L 14.027344 49.449219 L 15.238281 50.367188 L 16.515625 51.261719 L 18.039062 51.582031 L 19.582031 51.648438 L 21.136719 51.613281 L 22.578125 51.03125 L 24.027344 50.484375 L 25.335938 49.644531 L 26.367188 48.484375 L 27.375 47.316406 L 28.054688 45.871094 L 29.136719 47.332031 L 30.683594 48.195312 Z M 107.527344 107.425781 L 106.65625 106.226562 L 105.730469 105.066406 L 104.9375 103.8125 L 104.003906 102.65625 L 102.652344 101.125 L 101.164062 100.90625 L 99.628906 100.582031 L 98.082031 100.289062 L 96.519531 100.074219 L 94.941406 100.378906 L 93.378906 100.332031 L 91.804688 100.175781 L 90.234375 100.210938 L 88.6875 100.523438 L 87.097656 100.457031 L 85.574219 100.886719 L 83.980469 100.914062 L 82.496094 101.488281 L 81.007812 101.996094 L 79.40625 102.09375 L 77.898438 102.554688 L 76.464844 103.21875 L 75.0625 103.945312 L 73.496094 104.269531 L 72.214844 105.234375 L 70.824219 105.953125 L 69.371094 106.5625 L 68.042969 107.46875 L 66.65625 106.632812 L 65.253906 105.902344 L 63.824219 105.222656 L 62.34375 104.664062 L 60.855469 104.132812 L 59.484375 103.285156 L 57.882812 103.078125 L 56.421875 102.453125 L 54.875 102.125 L 53.394531 101.492188 L 51.785156 101.46875 L 50.257812 101.007812 L 48.667969 100.949219 L 47.09375 100.773438 L 45.527344 100.476562 L 43.9375 100.707031 L 42.359375 100.828125 L 40.765625 100.496094 L 39.191406 100.710938 L 37.605469 100.8125 L 36.058594 101.183594 L 34.746094 101.273438 L 33.488281 101.75 L 32.515625 103.011719 L 31.570312 104.234375 L 31.113281 105.71875 L 30.5625 107.160156 L 30.246094 108.59375 L 31.746094 108.519531 L 33.328125 108.488281 L 34.914062 108.832031 L 36.496094 108.613281 L 38.078125 108.84375 L 39.660156 108.5 L 41.246094 108.777344 L 42.828125 108.601562 L 44.410156 108.5625 L 45.992188 108.636719 L 47.578125 108.882812 L 49.160156 108.648438 L 50.742188 108.515625 L 52.324219 108.691406 L 53.90625 108.574219 L 55.488281 108.699219 L 57.070312 108.859375 L 58.652344 108.835938 L 60.246094 108.785156 L 61.835938 108.472656 L 63.429688 108.75 L 65.65625 108.671875 L 67.121094 108.753906 L 68.585938 108.648438 L 70.050781 108.820312 L 71.515625 108.679688 L 72.980469 108.84375 L 74.542969 108.796875 L 76.101562 108.574219 L 77.664062 108.53125 L 79.222656 108.550781 L 80.785156 108.523438 L 82.34375 108.703125 L 83.90625 108.574219 L 85.46875 108.550781 L 87.101562 108.703125 L 88.738281 108.558594 L 90.375 108.539062 L 92.007812 108.507812 L 93.644531 108.539062 L 95.28125 108.675781 L 96.914062 108.769531 L 98.550781 108.820312 L 100.1875 108.417969 L 101.820312 108.71875 L 103.457031 108.535156 L 105.089844 108.523438 L 106.726562 108.660156 L 108.496094 108.703125 Z M 107.527344 107.425781 " fill-opacity="1" fill-rule="nonzero"/></g><path fill="#ff96c4" d="M 42.269531 46.082031 L 41.664062 46.039062 L 41.050781 45.957031 L 40.457031 45.789062 L 39.875 45.746094 L 39.472656 46.109375 L 39.164062 46.609375 L 38.722656 47 L 38.320312 47.425781 L 37.890625 47.828125 L 37.363281 48.097656 L 36.917969 48.519531 L 36.34375 48.6875 L 35.765625 48.820312 L 35.207031 49.027344 L 34.613281 49.042969 L 34.03125 49.1875 L 33.4375 49.136719 L 32.847656 49.085938 L 32.257812 49.011719 L 31.707031 48.769531 L 31.117188 48.648438 L 30.617188 48.3125 L 30.148438 47.953125 L 29.664062 47.621094 L 29.128906 47.335938 L 28.75 46.875 L 28.332031 46.453125 L 28.039062 45.824219 L 27.867188 46.492188 L 27.519531 46.972656 L 27.1875 47.457031 L 26.953125 48.019531 L 26.558594 48.464844 L 26.105469 48.847656 L 25.628906 49.199219 L 25.199219 49.59375 L 24.722656 49.9375 L 24.226562 50.25 L 23.75 50.601562 L 23.191406 50.792969 L 22.6875 51.113281 L 22.078125 51.15625 L 21.527344 51.355469 L 20.964844 51.527344 L 20.386719 51.628906 L 19.800781 51.710938 L 19.207031 51.683594 L 18.625 51.597656 L 18.050781 51.496094 L 17.46875 51.414062 L 16.9375 51.152344 L 16.351562 51.050781 L 15.824219 50.792969 L 15.355469 50.433594 L 14.835938 50.171875 L 14.402344 49.78125 L 13.898438 49.476562 L 13.40625 49.140625 L 13.085938 48.636719 L 12.753906 48.152344 L 12.410156 47.683594 L 12.015625 47.242188 L 11.773438 46.707031 L 11.40625 46.226562 L 11.234375 45.65625 L 11.179688 45.058594 L 10.992188 44.503906 L 10.925781 43.917969 L 10.960938 43.332031 L 10.925781 42.695312 L 10.265625 42.730469 L 9.660156 42.671875 L 9.066406 42.546875 L 8.441406 42.503906 L 7.867188 42.285156 L 7.351562 41.941406 L 6.835938 41.617188 L 6.304688 41.320312 L 5.855469 40.90625 L 5.347656 40.558594 L 4.980469 40.070312 L 4.589844 39.601562 L 4.3125 39.058594 L 4.019531 38.53125 L 3.695312 38.011719 L 3.582031 37.277344 L 3.308594 36.558594 L 3.84375 36.378906 L 4.390625 36.351562 L 4.871094 36.109375 L 5.402344 36.03125 L 5.953125 35.773438 L 6.496094 35.476562 L 7.101562 35.394531 L 7.679688 35.210938 L 8.828125 34.835938 L 9.394531 34.617188 L 9.96875 34.429688 L 10.542969 34.234375 L 11.152344 34.167969 L 11.703125 33.894531 L 12.328125 33.867188 L 12.894531 33.652344 L 13.449219 33.40625 L 14.019531 33.207031 L 14.628906 33.132812 L 15.183594 32.878906 L 15.765625 32.71875 L 16.367188 32.617188 L 16.910156 32.320312 L 17.46875 32.085938 L 18.039062 31.882812 L 18.664062 31.847656 L 19.242188 31.671875 L 19.777344 31.355469 L 20.402344 31.335938 L 20.984375 31.175781 L 21.550781 30.953125 L 22.136719 30.800781 L 22.664062 30.472656 L 23.242188 30.289062 L 23.820312 30.121094 L 24.414062 29.988281 L 25.023438 29.910156 L 25.601562 29.730469 L 26.140625 29.4375 L 26.707031 29.214844 L 27.300781 29.089844 L 27.878906 28.910156 L 28.425781 28.640625 L 29.003906 28.46875 L 29.628906 28.433594 L 30.183594 28.175781 L 30.769531 28.023438 L 31.289062 27.761719 L 31.855469 27.65625 L 32.429688 27.570312 L 32.984375 27.796875 L 33.546875 27.84375 L 34.007812 28.164062 L 34.417969 28.546875 L 34.730469 29.011719 L 34.960938 29.523438 L 35.132812 30.058594 L 35.351562 30.625 L 35.75 31.109375 L 35.949219 31.679688 L 36.207031 32.230469 L 36.402344 32.804688 L 36.757812 33.308594 L 36.988281 33.867188 L 37.230469 34.421875 L 37.296875 35.054688 L 37.691406 35.542969 L 37.785156 36.160156 L 38.058594 36.703125 L 38.3125 37.253906 L 38.589844 37.792969 L 38.761719 38.378906 L 39.03125 38.921875 L 39.398438 39.421875 L 39.550781 40.015625 L 39.886719 40.527344 L 40.152344 41.074219 L 40.289062 41.671875 L 40.597656 42.199219 L 40.75 42.792969 L 41.015625 43.335938 L 41.242188 43.898438 L 41.5 44.445312 L 41.855469 44.949219 L 41.960938 45.566406 Z M 42.269531 46.082031 " fill-opacity="1" fill-rule="nonzero"/><g clip-path="url(#163097d20a)"><path fill="#c1272d" d="M 31.648438 30.886719 L 32.308594 30.988281 L 32.855469 31.386719 L 32.851562 31.382812 L 32.929688 31.914062 L 32.398438 32.035156 L 31.847656 31.863281 L 31.269531 31.886719 L 30.734375 32.117188 L 30.304688 32.503906 L 30.054688 32.914062 L 30.039062 32.957031 L 30.039062 32.996094 L 30.035156 33.015625 L 30.042969 33.015625 L 30.046875 32.980469 L 30.160156 32.980469 L 30.515625 32.972656 L 31.1875 32.914062 L 31.886719 32.914062 L 32.566406 33.0625 L 33.082031 33.4375 L 33.445312 33.960938 L 33.445312 34.523438 L 33.25 35.042969 L 32.851562 35.433594 L 32.371094 35.703125 L 31.859375 35.914062 L 31.175781 36.097656 L 30.464844 36.09375 L 29.824219 35.898438 L 29.667969 35.835938 L 29.601562 35.679688 L 29.546875 35.644531 L 29.476562 35.539062 L 29.542969 35.308594 L 29.679688 35.265625 L 29.761719 35.183594 L 30.152344 35.144531 L 30.890625 35.042969 L 31.511719 34.925781 L 32.089844 34.679688 L 32.367188 34.363281 L 32.417969 34.339844 L 32.425781 34.21875 L 32.359375 34.152344 L 32.265625 34.113281 L 32.226562 34.113281 L 32.054688 33.988281 L 31.511719 33.96875 L 30.808594 34.039062 L 30.105469 34.0625 L 29.421875 33.855469 L 29.042969 33.25 L 29.042969 32.59375 L 29.328125 31.992188 L 29.808594 31.53125 L 30.359375 31.160156 L 30.976562 30.894531 Z M 26.039062 35.613281 L 26.304688 35.417969 L 26.117188 35.027344 L 26.121094 35.027344 L 25.796875 35.113281 L 25.945312 35.113281 L 25.621094 35.117188 L 25.386719 35.171875 L 25.277344 35.214844 L 25.257812 35.226562 L 25.171875 35.25 L 24.933594 35.292969 L 24.480469 35.425781 L 24.007812 35.597656 L 23.863281 35.285156 L 23.769531 35.058594 L 24.246094 34.890625 L 24.808594 34.65625 L 25.074219 34.53125 L 25.292969 34.410156 L 25.359375 34.382812 L 25.929688 34.105469 L 26.164062 33.628906 L 25.703125 33.371094 L 25.695312 33.367188 L 25.101562 33.589844 L 24.523438 33.777344 L 23.953125 33.992188 L 23.65625 34.101562 L 23.316406 34.289062 L 23.234375 34.507812 L 22.980469 34.578125 L 22.953125 34.574219 L 22.917969 35.050781 L 23.035156 35.523438 L 23.203125 35.964844 L 23.449219 36.367188 L 23.660156 36.890625 L 23.867188 37.414062 L 24.039062 37.949219 L 24.601562 38.246094 L 24.90625 37.683594 L 24.730469 37.101562 L 24.484375 36.542969 L 24.414062 36.414062 L 24.765625 36.308594 L 25.277344 36.078125 L 25.703125 35.851562 L 25.898438 35.742188 L 26.128906 35.503906 Z M 19.585938 39.496094 L 19.382812 39.074219 L 19.183594 38.65625 L 18.996094 38.15625 L 18.761719 37.679688 L 18.496094 37.222656 L 18.417969 37.109375 L 18.660156 36.980469 L 19.226562 36.660156 L 19.785156 36.328125 L 19.917969 35.882812 L 19.484375 35.6875 L 19.484375 35.664062 L 18.902344 35.945312 L 18.300781 36.183594 L 17.703125 36.429688 L 17.226562 36.613281 L 16.761719 36.820312 L 16.316406 37.042969 L 15.882812 37.277344 L 15.652344 37.917969 L 16.273438 38.183594 L 16.75 37.992188 L 17.199219 37.738281 L 17.648438 37.523438 L 17.757812 37.460938 L 17.824219 37.667969 L 18.066406 38.277344 L 18.351562 38.871094 L 18.535156 39.320312 L 18.722656 39.769531 L 18.949219 40.246094 L 19.1875 40.710938 L 19.746094 40.898438 L 19.988281 40.351562 L 19.816406 39.910156 Z M 26.496094 27.457031 L 26.472656 27.445312 L 26.765625 26.976562 L 27.101562 26.542969 L 27.527344 26.195312 L 28.003906 25.921875 L 28.539062 25.804688 L 29.078125 25.84375 L 29.601562 25.972656 L 30.074219 26.226562 L 30.496094 26.574219 L 30.785156 27.042969 L 30.964844 27.5625 L 30.996094 28.109375 L 30.886719 28.6875 L 30.613281 29.214844 L 30.203125 29.734375 L 29.824219 30.304688 L 30.257812 30.683594 L 30.808594 30.335938 L 31.210938 29.824219 L 31.53125 29.285156 L 31.75 28.695312 L 31.832031 28.117188 L 31.8125 27.535156 L 31.648438 26.976562 L 31.425781 26.4375 L 31.089844 25.972656 L 30.65625 25.605469 L 30.171875 25.296875 L 29.636719 25.109375 L 29.074219 25.007812 L 28.5 24.992188 L 27.941406 25.117188 L 27.402344 25.308594 L 26.867188 25.644531 L 26.425781 26.097656 L 26.082031 26.625 L 25.863281 27.214844 L 26.085938 27.589844 Z M 23.800781 28.472656 L 24.289062 28.882812 L 24.621094 29.429688 L 24.761719 30.0625 L 24.691406 30.53125 L 24.53125 30.980469 L 24.136719 31.472656 L 23.859375 32.042969 L 24.289062 32.441406 L 24.773438 32.050781 L 25.152344 31.554688 L 25.390625 31.070312 L 25.515625 30.550781 L 25.558594 30.019531 L 25.484375 29.488281 L 25.300781 28.988281 L 25.054688 28.511719 L 24.667969 28.074219 L 24.179688 27.753906 L 23.644531 27.53125 L 23.074219 27.386719 L 22.492188 27.433594 L 21.917969 27.53125 L 21.398438 27.804688 L 20.988281 28.175781 L 20.621094 28.597656 L 20.394531 29.109375 L 20.238281 29.648438 L 20.714844 29.769531 L 20.691406 29.746094 L 21.023438 29.191406 L 21.449219 28.722656 L 21.984375 28.367188 L 22.597656 28.199219 L 23.226562 28.230469 Z M 16.414062 30.609375 L 17.042969 30.457031 L 17.675781 30.570312 L 18.210938 30.917969 L 18.550781 31.316406 L 18.726562 31.808594 L 18.765625 32.335938 L 18.601562 32.859375 L 18.355469 33.347656 L 18.050781 33.761719 L 17.769531 34.207031 L 18.109375 34.730469 L 18.621094 34.472656 L 18.96875 34.019531 L 19.230469 33.5625 L 19.445312 33.082031 L 19.582031 32.4375 L 19.589844 31.78125 L 19.40625 31.144531 L 19.074219 30.632812 L 18.65625 30.179688 L 18.125 29.859375 L 17.527344 29.695312 L 16.914062 29.710938 L 16.316406 29.855469 L 15.75 30.203125 L 15.28125 30.675781 L 14.988281 31.285156 L 15.457031 31.445312 L 15.867188 30.957031 Z M 15.453125 31.441406 L 15.472656 31.445312 L 15.457031 31.4375 Z M 9.109375 33.082031 L 9.433594 32.746094 L 9.824219 32.484375 L 10.332031 32.375 L 10.851562 32.40625 L 11.394531 32.613281 L 11.882812 32.9375 L 12.226562 33.410156 L 12.367188 34.035156 L 12.269531 34.671875 L 12.015625 35.261719 L 11.714844 35.644531 L 11.332031 35.949219 L 10.894531 36.058594 L 10.402344 36.316406 L 10.378906 36.695312 L 10.890625 36.976562 L 11.480469 36.9375 L 12.007812 36.671875 L 12.4375 36.269531 L 12.824219 35.808594 L 13.070312 35.261719 L 13.246094 34.683594 L 13.339844 34.085938 L 13.269531 33.460938 L 13.035156 32.878906 L 12.664062 32.371094 L 12.199219 31.949219 L 11.648438 31.640625 L 11.035156 31.480469 L 10.410156 31.464844 L 9.8125 31.621094 L 9.265625 31.914062 L 8.867188 32.394531 L 8.835938 33.015625 L 9.117188 33.113281 Z M 14.621094 41.054688 L 14.492188 40.371094 L 14.429688 39.886719 L 14.308594 39.410156 L 14.199219 38.882812 L 13.933594 38.4375 L 13.429688 38.5 L 13.355469 38.972656 L 13.421875 39.476562 L 13.539062 39.96875 L 13.621094 40.464844 L 13.722656 41.125 L 13.722656 41.128906 L 13.433594 40.855469 L 13.101562 40.535156 L 12.75 40.238281 L 11.949219 39.933594 L 11.65625 40.304688 L 11.597656 40.773438 L 11.601562 41.234375 L 11.640625 41.691406 L 11.652344 42.027344 L 11.621094 41.988281 L 11.257812 41.582031 L 10.925781 41.179688 L 10.550781 40.828125 L 10.105469 40.386719 L 9.554688 40.085938 L 9.085938 40.542969 L 9.117188 40.542969 L 9.417969 40.972656 L 9.773438 41.359375 L 10.136719 41.761719 L 10.507812 42.15625 L 10.949219 42.691406 L 11.347656 43.257812 L 11.757812 43.820312 L 12.292969 44.019531 L 12.628906 43.5625 L 12.605469 43.054688 L 12.59375 42.535156 L 12.589844 42.019531 L 12.585938 41.347656 L 13.011719 41.707031 L 13.546875 42.214844 L 14.019531 42.789062 L 14.542969 42.875 L 14.835938 42.429688 L 14.714844 41.742188 Z M 106.234375 107.992188 L 102.050781 107.988281 L 97.925781 107.894531 L 93.796875 107.613281 L 89.632812 107.871094 L 85.46875 108.015625 L 81.300781 107.820312 L 77.136719 107.949219 L 73.128906 107.816406 L 69.058594 107.304688 L 67.109375 107.378906 L 65.148438 107.746094 L 61.25 108.039062 L 57.101562 107.613281 L 52.9375 107.628906 L 48.777344 107.511719 L 44.617188 107.636719 L 40.882812 107.496094 L 37.15625 107.726562 L 33.417969 107.65625 L 29.6875 107.859375 L 25.972656 108.292969 L 26.027344 109.988281 L 29.703125 109.832031 L 33.378906 109.652344 L 37.0625 109.730469 L 40.738281 109.503906 L 44.414062 109.421875 L 48.097656 109.566406 L 51.777344 109.421875 L 55.457031 109.449219 L 59.140625 109.496094 L 63.320312 109.667969 L 65.230469 109.800781 L 67.226562 109.589844 L 71.023438 109.808594 L 75.179688 109.496094 L 79.308594 109.800781 L 83.433594 109.566406 L 87.558594 109.511719 L 91.6875 109.613281 L 96.316406 109.675781 L 100.949219 109.441406 L 105.664062 109.375 L 110.34375 108.871094 L 110.425781 108.285156 L 110.433594 108.175781 Z M 29.84375 20.214844 L 30.0625 20.203125 L 29.996094 20.804688 L 29.824219 21.378906 L 29.5625 21.921875 L 29.207031 22.40625 L 28.75 22.804688 L 28.222656 23.097656 L 27.644531 23.269531 L 27.109375 23.328125 L 26.574219 23.269531 L 26.054688 23.128906 L 25.570312 22.90625 L 25.132812 22.601562 L 24.78125 22.199219 L 24.542969 21.738281 L 24.457031 21.222656 L 24.515625 21.195312 L 24.433594 20.914062 L 24.3125 20.296875 L 24.269531 19.671875 L 24.332031 19.046875 L 24.355469 18.417969 L 24.421875 17.796875 L 24.578125 17.1875 L 24.632812 16.578125 L 24.78125 15.988281 L 24.890625 15.386719 L 25.089844 14.808594 L 25.1875 14.207031 L 25.375 13.625 L 25.558594 13.046875 L 25.746094 12.46875 L 25.882812 11.875 L 26.105469 11.3125 L 26.324219 10.742188 L 26.511719 10.152344 L 26.570312 10.1875 L 26.878906 10.675781 L 27.113281 11.203125 L 27.613281 12.242188 L 27.851562 12.769531 L 28.140625 13.324219 L 28.371094 13.820312 L 28.207031 13.316406 L 28.003906 12.761719 L 27.789062 12.214844 L 27.546875 11.675781 L 27.550781 11.671875 L 27.886719 11.515625 L 28.148438 12.066406 L 28.398438 12.625 L 28.609375 13.195312 L 28.800781 13.777344 L 28.984375 14.363281 L 29.121094 14.859375 L 29.214844 15.367188 L 29.3125 15.878906 L 29.320312 15.925781 L 29.429688 16.175781 L 29.589844 16.785156 L 29.757812 17.386719 L 29.890625 18 L 29.9375 18.628906 L 29.972656 19.25 L 29.9375 19.878906 Z M 39.375 18.351562 L 39.316406 18.9375 L 39.257812 19.519531 L 39.125 20.089844 L 38.949219 20.664062 L 38.671875 21.195312 L 38.46875 21.40625 L 38.347656 21.621094 L 37.988281 22.132812 L 37.519531 22.539062 L 36.984375 22.855469 L 36.390625 23.023438 L 35.773438 23.09375 L 35.15625 23.011719 L 34.601562 22.71875 L 34.109375 22.335938 L 33.957031 22.082031 L 33.828125 22.136719 L 33.359375 21.65625 L 33.152344 20.984375 L 32.953125 20.292969 L 32.847656 19.582031 L 32.828125 19.015625 L 32.8125 18.445312 L 32.859375 17.882812 L 32.941406 17.320312 L 33.050781 16.761719 L 33.488281 16.863281 L 33.390625 17.523438 L 33.394531 18.1875 L 33.417969 18.671875 L 33.449219 18.421875 L 33.523438 17.800781 L 33.640625 17.1875 L 33.75 16.589844 L 33.839844 15.988281 L 34.015625 15.402344 L 34.109375 14.796875 L 34.3125 14.222656 L 34.433594 13.625 L 34.628906 13.050781 L 34.792969 12.464844 L 34.996094 11.890625 L 35.21875 11.324219 L 35.378906 10.734375 L 35.625 10.179688 L 35.675781 10.171875 L 35.914062 10.699219 L 36.210938 11.195312 L 36.433594 11.730469 L 36.664062 12.257812 L 36.671875 12.269531 L 37.011719 12.039062 L 37.332031 12.585938 L 37.675781 13.109375 L 38 13.644531 L 38.289062 14.203125 L 38.570312 14.765625 L 38.761719 15.359375 L 38.988281 15.945312 L 39.140625 16.558594 L 39.273438 17.171875 L 39.34375 17.757812 Z M 37.777344 14.445312 L 37.996094 15.035156 L 38.085938 15.210938 L 37.964844 14.828125 L 37.75 14.296875 L 37.550781 13.753906 L 37.253906 13.257812 L 36.96875 12.761719 L 36.738281 12.382812 L 36.953125 12.757812 L 37.203125 13.332031 L 37.488281 13.890625 Z M 15.742188 14.4375 L 15.746094 14.441406 Z M 14.960938 20.539062 L 14.925781 19.863281 L 14.972656 19.1875 L 15.039062 18.511719 L 15.113281 17.933594 L 15.179688 17.355469 L 15.324219 16.792969 L 15.464844 16.226562 L 15.597656 15.660156 L 15.773438 15.105469 L 15.972656 14.554688 L 15.746094 14.441406 L 15.535156 15.042969 L 15.339844 15.644531 L 15.160156 16.257812 L 15.039062 16.878906 L 14.890625 17.496094 L 14.785156 18.125 L 14.710938 18.753906 L 14.644531 19.441406 L 14.585938 20.128906 L 14.5625 20.820312 L 14.609375 21.371094 L 14.816406 21.882812 L 15.1875 22.277344 L 15.316406 22.160156 L 15.066406 21.410156 Z M 33.046875 16.761719 L 33.054688 16.761719 Z M 20.714844 16.699219 L 20.589844 16.191406 L 20.421875 15.6875 L 20.222656 15.199219 L 20.003906 14.71875 L 19.777344 14.238281 L 19.433594 14.414062 L 19.71875 15.027344 L 19.960938 15.660156 L 20.160156 16.308594 L 20.277344 16.804688 L 20.304688 16.96875 L 20.167969 16.546875 L 20.003906 15.9375 L 19.769531 15.355469 L 19.5 14.789062 L 19.207031 14.238281 L 18.957031 13.660156 L 18.691406 13.09375 L 18.429688 12.578125 L 18.140625 12.078125 L 17.894531 11.554688 L 17.660156 11.03125 L 17.359375 10.542969 L 17.355469 10.535156 L 17.09375 11.078125 L 16.910156 11.660156 L 16.730469 12.242188 L 16.53125 12.816406 L 16.320312 13.386719 L 16.132812 13.96875 L 15.980469 14.554688 L 15.8125 15.140625 L 15.703125 15.742188 L 15.601562 16.339844 L 15.472656 16.9375 L 15.355469 17.53125 L 15.222656 18.144531 L 15.175781 18.773438 L 15.113281 19.394531 L 15.070312 20.019531 L 15.101562 20.648438 L 15.246094 21.257812 L 15.378906 21.757812 L 15.550781 22.246094 L 15.820312 22.695312 L 16.320312 23.066406 L 16.882812 23.324219 L 17.492188 23.441406 L 18.109375 23.382812 L 18.722656 23.25 L 19.257812 22.914062 L 19.71875 22.488281 L 20.109375 22 L 20.378906 21.433594 L 20.578125 20.84375 L 20.746094 20.238281 L 20.765625 19.609375 L 20.765625 18.980469 L 20.675781 18.355469 L 20.644531 18.191406 L 20.789062 18.1875 L 20.859375 17.75 L 20.8125 17.210938 Z M 19.417969 14.421875 L 19.433594 14.414062 Z M 19.417969 14.421875 " fill-opacity="1" fill-rule="nonzero"/></g><g clip-path="url(#0165847eb0)"><path fill="#000000" d="M 17.53125 48.195312 L 17.734375 48.644531 L 17.417969 49.097656 L 16.953125 48.726562 L 16.671875 48.105469 L 16.347656 47.316406 L 16.042969 47.476562 L 14.484375 48.386719 L 13.84375 48.035156 L 13.738281 46.503906 L 13.730469 45.722656 L 13.832031 44.96875 L 13.847656 44.976562 L 14.25 44.972656 L 14.507812 46.527344 L 14.597656 47.328125 L 15.59375 46.707031 L 16.03125 46.484375 L 15.324219 44.433594 L 15.332031 44.429688 L 15.996094 44.238281 L 16.71875 46.183594 L 16.914062 46.117188 L 17.375 46.140625 L 17.519531 46.429688 L 17.222656 46.796875 L 17.011719 46.933594 L 17.304688 47.640625 Z M 19.828125 44.585938 L 19.644531 43.804688 L 19.5 43.308594 L 19.464844 43.242188 L 19.835938 43.117188 L 20.605469 42.792969 L 22.148438 41.976562 L 21.914062 41.488281 L 21.910156 41.476562 L 20.347656 42.09375 L 19.574219 42.382812 L 18.746094 42.730469 L 18.824219 42.972656 L 18.789062 43.410156 L 18.878906 43.988281 L 19.066406 45.0625 L 19.851562 45.144531 L 21.941406 44.640625 L 21.984375 45.78125 L 21.554688 46.511719 L 21.304688 46.796875 L 21.050781 47.175781 L 21.46875 47.667969 L 21.917969 47.347656 L 22.242188 46.929688 L 22.816406 46 L 22.488281 43.996094 Z M 28.585938 41.445312 L 29.117188 42.667969 L 28.433594 43.945312 L 27.1875 44.683594 L 25.949219 44.15625 L 25.527344 42.761719 L 26.527344 39.953125 L 26.523438 39.949219 L 27.019531 40.289062 L 26.292969 42.613281 L 26.652344 43.25 L 26.597656 43.003906 L 27.273438 41.730469 Z M 28.316406 42.644531 L 28.238281 42.128906 L 27.628906 42.519531 L 27.347656 43.246094 L 27.382812 43.585938 Z M 33.917969 36.46875 L 32.210938 37.472656 L 31.371094 37.933594 L 30.984375 38.195312 L 30.679688 38.28125 L 30.542969 38.566406 L 30.574219 38.558594 L 30.5625 38.597656 L 30.75 38.917969 L 31.574219 38.785156 L 32.515625 38.25 L 33.71875 37.539062 L 33.628906 39.835938 L 33.632812 41.378906 L 33.882812 42.96875 L 34.257812 42.984375 L 34.449219 39.960938 L 34.566406 36.898438 Z M 66.613281 51.070312 L 66.511719 52.300781 L 66.558594 53.546875 L 66.242188 53.664062 L 65.886719 52.554688 L 65.914062 51.375 L 66.222656 50.230469 L 66.773438 49.179688 L 67.398438 48.105469 L 67.820312 46.9375 L 67.773438 45.734375 L 67.460938 44.578125 L 67.484375 44.558594 L 67.773438 44.441406 L 68.222656 45.503906 L 68.296875 46.652344 L 68.0625 47.753906 L 67.613281 48.796875 L 66.992188 49.882812 Z M 79.316406 63.558594 L 78.792969 64.515625 L 78.425781 65.539062 L 78.59375 65.628906 L 79.382812 64.808594 L 80.023438 63.863281 L 80.578125 62.863281 L 81 62 L 81.238281 61.074219 L 81.246094 60.109375 L 80.941406 59.152344 L 80.59375 58.214844 L 80.183594 57.304688 L 79.753906 56.382812 L 79.390625 55.433594 L 79 54.496094 L 78.886719 54.46875 L 78.878906 54.488281 L 78.929688 55.617188 L 79.238281 56.703125 L 79.648438 57.757812 L 80.113281 58.792969 L 80.445312 59.871094 L 80.527344 61.367188 L 79.90625 62.636719 Z M 82.121094 57.023438 L 82.425781 57.859375 L 82.714844 58.707031 L 83.386719 59.835938 L 83.929688 61.023438 L 84.007812 62.304688 L 83.5625 63.515625 L 82.859375 64.636719 L 82.355469 65.90625 L 82.671875 66.035156 L 83.550781 64.984375 L 84.28125 63.734375 L 84.578125 62.886719 L 84.714844 62.007812 L 84.632812 61.128906 L 84.347656 60.265625 L 83.925781 59.453125 L 83.476562 58.652344 L 83.023438 57.796875 L 82.605469 56.925781 L 82.347656 55.980469 L 81.828125 56.152344 L 81.828125 56.179688 Z M 85.246094 56.722656 L 85.613281 57.5 L 86.046875 58.246094 L 86.382812 59.023438 L 86.546875 59.855469 L 86.597656 60.660156 L 86.507812 61.457031 L 86.878906 61.574219 L 87.226562 60.496094 L 87.140625 59.355469 L 86.785156 58.257812 L 86.359375 57.40625 L 85.863281 56.589844 L 85.394531 55.816406 L 84.855469 55.03125 L 84.667969 55.140625 L 84.640625 55.140625 L 84.871094 56.027344 Z M 76.710938 66.21875 L 75.742188 66.960938 L 74.910156 67.851562 L 74.324219 68.644531 L 73.832031 69.496094 L 73.394531 70.375 L 73.101562 71.3125 L 72.929688 72.347656 L 73.144531 73.375 L 73.65625 73.644531 L 73.796875 72.917969 L 73.753906 71.902344 L 73.980469 70.902344 L 74.371094 69.960938 L 74.867188 69.066406 L 75.425781 68.128906 L 76.140625 67.300781 L 76.984375 66.605469 L 77.910156 66.042969 L 77.777344 65.6875 L 77.78125 65.640625 Z M 71.152344 64.324219 L 71.890625 64.070312 L 71.585938 64.492188 L 70.960938 65.386719 L 70.5 66.375 L 70.039062 67.355469 L 69.664062 68.375 L 69.46875 69.453125 L 69.488281 70.515625 L 69.753906 71.539062 L 70.089844 72.539062 L 70.59375 73.472656 L 70.933594 74.476562 L 71.289062 75.472656 L 71.453125 76.445312 L 71.578125 77.417969 L 71.789062 78.382812 L 72.164062 79.277344 L 72.28125 79.261719 L 72.320312 78.15625 L 72.144531 77.054688 L 71.902344 75.972656 L 71.65625 74.984375 L 71.339844 74.015625 L 70.875 73.105469 L 70.574219 72.113281 L 70.226562 71.140625 L 70.113281 70.109375 L 70.265625 69.058594 L 70.425781 68.003906 L 70.917969 67.054688 L 71.414062 65.964844 L 72 64.925781 L 72.683594 63.941406 L 72.507812 63.800781 L 73.308594 63.324219 L 74.367188 62.773438 L 75.296875 62.019531 L 76.179688 61.441406 L 77 60.769531 L 77.734375 60.007812 L 78.492188 59.265625 L 79.109375 58.394531 L 78.933594 58.210938 L 78.886719 58.226562 L 77.992188 58.890625 L 77.164062 59.644531 L 76.34375 60.402344 L 75.472656 61.101562 L 74.527344 61.699219 L 73.589844 62.304688 L 72.628906 62.867188 L 71.621094 63.34375 L 70.492188 63.703125 L 69.359375 64.074219 L 68.171875 64.171875 L 67.007812 63.914062 L 66.015625 63.519531 L 65.070312 63.023438 L 64.066406 62.625 L 63.160156 62.039062 L 62.238281 61.226562 L 61.351562 60.382812 L 60.5625 59.570312 L 59.855469 58.699219 L 59.425781 58.941406 L 59.886719 59.921875 L 60.636719 60.742188 L 61.429688 61.511719 L 62.277344 62.226562 L 63.210938 62.839844 L 64.136719 63.460938 L 65.144531 63.941406 L 66.140625 64.449219 L 67.367188 64.757812 L 68.625 64.871094 L 69.914062 64.707031 Z M 55.949219 95.429688 L 56.609375 95.941406 L 57.226562 96.507812 L 57.824219 97.089844 L 58.402344 97.695312 L 58.960938 98.332031 L 59.542969 98.890625 L 59.78125 98.734375 L 59.777344 98.734375 L 59.480469 97.949219 L 58.984375 97.207031 L 58.398438 96.542969 L 57.792969 95.894531 L 57.128906 95.320312 L 56.433594 94.785156 L 55.691406 94.316406 L 54.828125 94.023438 L 54.636719 94.390625 L 55.242188 94.945312 Z M 51.660156 96.25 L 51.492188 96.480469 L 52.027344 97.132812 L 52.710938 97.710938 L 53.40625 98.28125 L 54.089844 98.863281 L 54.996094 99.648438 L 55.847656 100.496094 L 56.703125 101.332031 L 57.28125 100.890625 L 57.273438 100.878906 L 56.457031 99.953125 L 55.613281 99.054688 L 54.710938 98.214844 L 54.023438 97.613281 L 53.304688 97.054688 L 52.519531 96.535156 L 52.132812 96.355469 Z M 50.171875 100.230469 L 50.15625 100.175781 L 50.113281 100.125 Z M 51.0625 100.996094 L 51.546875 101.308594 L 51.847656 101.480469 L 51.867188 101.496094 L 51.980469 101.53125 L 52.117188 101.558594 L 52.375 101.226562 L 52.375 101.222656 L 52.324219 101.09375 L 52.199219 100.953125 L 51.984375 100.75 L 51.464844 100.351562 L 50.972656 100.015625 L 50.335938 99.847656 L 50.074219 99.90625 L 50.15625 100.179688 L 50.582031 100.679688 Z M 50.277344 99.832031 L 50.335938 99.847656 L 50.398438 99.832031 Z M 65.058594 79.914062 L 64.378906 79.34375 L 63.734375 78.734375 L 62.707031 78.085938 L 61.753906 77.324219 L 61 76.9375 L 61.222656 76.359375 L 61.675781 75.464844 L 62.050781 74.527344 L 62.492188 73.597656 L 62 73.003906 L 60.9375 72.902344 L 59.886719 72.839844 L 58.84375 72.6875 L 57.859375 72.28125 L 56.832031 72.058594 L 55.816406 71.792969 L 54.832031 71.433594 L 54.191406 71.199219 L 54.398438 70.542969 L 54.890625 69.492188 L 55.460938 68.476562 L 55.875 67.394531 L 56.277344 66.308594 L 56.753906 65.25 L 57.117188 64.148438 L 57.523438 63.0625 L 57.941406 61.980469 L 58.320312 60.863281 L 57.808594 60.667969 L 57.832031 60.695312 L 57.332031 61.726562 L 57 62.832031 L 56.542969 63.882812 L 56.007812 64.898438 L 55.589844 65.964844 L 55.054688 66.988281 L 54.710938 68.089844 L 54.238281 69.136719 L 53.761719 70.183594 L 53.316406 71.242188 L 53.464844 71.746094 L 54.492188 72.136719 L 55.535156 72.496094 L 56.570312 72.898438 L 57.628906 73.214844 L 58.726562 73.382812 L 59.800781 73.65625 L 60.910156 73.691406 L 61.476562 73.800781 L 61.339844 74.300781 L 60.980469 75.191406 L 60.515625 76.027344 L 60.132812 76.914062 L 60.242188 77.503906 L 61.238281 78.136719 L 62.296875 78.640625 L 63.183594 79.402344 L 63.871094 79.914062 L 64.492188 80.5 L 65.160156 80.988281 L 65.957031 81.515625 L 66.214844 81.296875 L 65.734375 80.539062 Z M 86.964844 72.128906 L 85.886719 72.570312 L 84.839844 72.980469 L 83.742188 73.226562 L 82.625 73.292969 L 82.507812 73.941406 L 82.550781 73.9375 L 82.886719 74.296875 L 83.246094 74.613281 L 84.011719 75.285156 L 84.777344 75.90625 L 85.183594 76.203125 L 85.675781 76.390625 L 85.894531 76.148438 L 85.613281 75.714844 L 85.234375 75.375 L 84.433594 74.75 L 83.621094 74.191406 L 83.234375 73.921875 L 83.664062 73.90625 L 84.808594 73.699219 L 85.902344 73.308594 L 86.769531 72.949219 L 87.644531 72.605469 L 88.523438 72.285156 L 89.386719 71.921875 L 89.5 71.421875 L 88.949219 70.429688 L 88.359375 69.453125 L 87.835938 68.445312 L 87.269531 67.457031 L 86.761719 66.445312 L 86.398438 66.5625 L 86.394531 66.574219 L 86.75 67.488281 L 87.121094 68.398438 L 87.5625 69.269531 L 88.003906 70.132812 L 88.496094 70.972656 L 88.769531 71.457031 L 88.0625 71.730469 Z M 92.308594 87.207031 L 92.492188 86.15625 L 92.703125 85.105469 L 93.019531 84.082031 L 93.253906 83.019531 L 93.660156 82.011719 L 94.050781 80.992188 L 94.53125 80.109375 L 94.9375 79.195312 L 95.515625 78.371094 L 96.183594 77.519531 L 96.851562 76.660156 L 97.6875 75.976562 L 97.480469 75.722656 L 97.46875 75.652344 L 96.695312 76.304688 L 95.980469 77.015625 L 95.320312 77.78125 L 94.753906 78.621094 L 94.285156 79.515625 L 93.867188 80.433594 L 93.414062 81.46875 L 92.949219 82.5 L 92.632812 83.585938 L 92.175781 84.632812 L 91.871094 85.726562 L 91.601562 86.832031 L 91.421875 87.785156 L 91.269531 88.742188 L 91.226562 89.191406 L 90.953125 88.84375 L 90.273438 87.933594 L 89.613281 87 L 89.148438 85.957031 L 88.746094 84.902344 L 88.363281 83.835938 L 87.953125 82.777344 L 87.242188 81.90625 L 86.515625 81.269531 L 85.644531 80.820312 L 84.664062 80.835938 L 83.816406 81.277344 L 84.09375 81.621094 L 84.078125 81.65625 L 85.1875 81.28125 L 86.253906 81.785156 L 87.148438 82.558594 L 87.578125 83.546875 L 87.9375 84.558594 L 88.210938 85.605469 L 88.617188 86.601562 L 89.089844 87.582031 L 89.394531 88.09375 L 89.308594 88.089844 L 88.992188 89.085938 L 88.5 90.019531 L 87.9375 90.910156 L 87.269531 91.726562 L 86.550781 92.507812 L 85.730469 93.1875 L 84.722656 93.722656 L 83.753906 94.324219 L 82.664062 94.667969 L 81.582031 95.011719 L 80.464844 95.199219 L 79.332031 95.28125 L 78.421875 95.253906 L 77.515625 95.121094 L 76.59375 94.828125 L 75.640625 94.59375 L 75.597656 94.660156 L 75.332031 94.074219 L 74.886719 93.121094 L 74.382812 92.195312 L 73.914062 91.253906 L 73.542969 90.265625 L 73.371094 89.226562 L 73.21875 88.117188 L 73.171875 86.996094 L 73.402344 85.890625 L 73.21875 85.800781 L 73.203125 85.816406 L 72.789062 86.71875 L 72.550781 87.679688 L 72.5 88.675781 L 72.628906 89.667969 L 72.90625 90.625 L 73.289062 91.542969 L 73.746094 92.546875 L 74.207031 93.550781 L 74.785156 94.492188 L 75.164062 95.539062 L 75.613281 96.542969 L 76.082031 97.542969 L 76.355469 98.484375 L 76.5625 99.4375 L 76.796875 100.351562 L 77.113281 101.242188 L 77.613281 101.164062 L 77.390625 99.621094 L 77.121094 98.84375 L 76.921875 98.046875 L 76.628906 97.007812 L 76.257812 95.992188 L 76.125 95.726562 L 76.890625 96.105469 L 77.832031 96.261719 L 78.773438 96.363281 L 79.734375 96.292969 L 80.695312 96.289062 L 81.636719 96.101562 L 82.546875 95.792969 L 83.535156 95.449219 L 84.480469 95.003906 L 85.394531 94.5 L 86.226562 93.871094 L 87.058594 93.246094 L 87.804688 92.515625 L 88.445312 91.691406 L 88.945312 90.863281 L 89.375 89.992188 L 89.613281 89.050781 L 89.675781 88.566406 L 90.226562 89.429688 L 90.960938 90.238281 L 91.644531 90.96875 L 92.414062 91.601562 L 93.160156 92.261719 L 93.917969 92.910156 L 94.660156 93.738281 L 95.40625 94.566406 L 96.199219 95.347656 L 96.992188 96.109375 L 97.378906 95.933594 L 96.921875 94.96875 L 96.273438 94.140625 L 95.558594 93.371094 L 94.816406 92.621094 L 94.066406 91.851562 L 93.179688 91.238281 L 92.671875 90.667969 L 93.429688 90.035156 L 94.34375 89.210938 L 95.234375 88.421875 L 96.1875 87.710938 L 97.113281 87.011719 L 98.0625 86.34375 L 99.097656 85.699219 L 100.0625 85.015625 L 99.664062 84.449219 L 98.59375 84.992188 L 97.566406 85.640625 L 96.5625 86.277344 L 95.613281 87 L 94.710938 87.765625 L 93.832031 88.5625 L 92.972656 89.34375 L 92.546875 89.816406 L 92.292969 90.277344 L 92.046875 90.066406 L 92.054688 89.929688 L 92.039062 89.933594 L 92.070312 89.617188 L 92.0625 88.824219 L 92.183594 88.015625 Z M 46.832031 89.300781 L 47.089844 90.332031 L 47.246094 91.367188 L 47.5 92.402344 L 48.214844 92.339844 L 48.003906 91.304688 L 47.894531 90.269531 L 47.734375 89.21875 L 47.484375 88.1875 L 47.285156 87.203125 L 47 86.242188 L 46.738281 85.289062 L 46.351562 84.375 L 45.863281 83.359375 L 45.394531 82.328125 L 45 81.273438 L 44.574219 80.226562 L 44.339844 79.117188 L 44 78.039062 L 43.929688 76.886719 L 43.195312 76.957031 L 43.199219 76.984375 L 43.300781 77.957031 L 43.496094 78.917969 L 43.75 79.859375 L 43.960938 80.8125 L 44.246094 81.753906 L 44.609375 82.667969 L 44.980469 83.578125 L 45.449219 84.445312 L 45.804688 85.367188 L 46.195312 86.277344 L 46.429688 87.265625 L 46.664062 88.25 Z M 74.234375 42.957031 L 73.230469 42.996094 L 72.273438 43.320312 L 71.445312 43.898438 L 71.800781 44.320312 L 71.808594 44.320312 L 72.972656 43.824219 L 74.226562 43.699219 L 75.378906 43.972656 L 76.503906 44.535156 L 76.785156 44.191406 L 75.703125 43.277344 Z M 66.464844 43.421875 L 66.472656 43.390625 L 65.699219 42.828125 L 64.828125 42.433594 L 63.886719 42.25 L 62.433594 42.386719 L 61.730469 42.710938 L 61.28125 43.25 L 61.429688 43.449219 L 62.007812 43.355469 L 62.601562 43.117188 L 63.84375 42.953125 L 65.019531 43.25 L 66.046875 43.894531 Z M 79.953125 88.902344 L 78.960938 88.941406 L 77.992188 88.765625 L 77.050781 88.472656 L 75.960938 87.726562 L 74.855469 86.789062 L 74.550781 86.941406 L 75.203125 88.09375 L 76.351562 88.941406 L 77.21875 89.300781 L 78.125 89.53125 L 79.058594 89.6875 L 80.207031 89.59375 L 81.304688 89.253906 L 82.3125 88.707031 L 83.242188 88.03125 L 83.996094 87.164062 L 84.554688 86.226562 L 84.949219 85.214844 L 85.136719 84.136719 L 84.738281 84.078125 L 84.710938 84.097656 L 84.363281 85.0625 L 83.917969 85.992188 L 83.316406 86.828125 L 82.589844 87.546875 L 81.792969 88.195312 L 80.910156 88.640625 Z M 30.953125 2.996094 L 31.878906 2.824219 L 32.84375 2.703125 L 33.8125 2.605469 L 35.046875 2.726562 L 36.261719 2.96875 L 37.433594 3.363281 L 38.429688 3.867188 L 39.332031 4.519531 L 40.109375 5.316406 L 40.734375 6.234375 L 41.308594 7.1875 L 41.652344 8.25 L 41.847656 9.375 L 41.925781 10.515625 L 41.753906 11.640625 L 41.59375 12.765625 L 41.984375 12.941406 L 42.003906 12.914062 L 42.304688 11.9375 L 42.472656 10.925781 L 42.53125 9.90625 L 42.472656 8.882812 L 42.292969 7.875 L 41.9375 6.910156 L 41.515625 5.980469 L 40.957031 5.113281 L 40.222656 4.335938 L 39.398438 3.660156 L 38.53125 3.039062 L 37.527344 2.675781 L 36.554688 2.25 L 35.507812 2.039062 L 34.453125 1.917969 L 33.269531 1.90625 L 32.089844 2.046875 L 30.902344 2.246094 L 30.363281 2.441406 L 29.863281 2.871094 L 29.957031 3.144531 Z M 27.628906 3.675781 L 27.695312 3.753906 L 27.703125 3.75 Z M 26.859375 4.371094 L 26.257812 5.226562 L 25.953125 5.75 L 25.519531 5.285156 L 24.699219 4.605469 L 23.859375 3.941406 L 22.878906 3.507812 L 21.882812 3.121094 L 20.839844 2.894531 L 19.785156 2.699219 L 18.714844 2.820312 L 17.65625 2.902344 L 16.621094 3.15625 L 15.644531 3.570312 L 14.839844 3.859375 L 14.125 4.324219 L 13.574219 4.910156 L 12.851562 5.476562 L 13.304688 5.851562 L 13.726562 5.394531 L 14.402344 4.96875 L 15.578125 4.324219 L 16.472656 4.035156 L 17.34375 3.691406 L 18.269531 3.542969 L 19.335938 3.523438 L 20.40625 3.546875 L 21.46875 3.714844 L 22.480469 4.09375 L 23.433594 4.589844 L 24.3125 5.125 L 25.125 5.761719 L 25.769531 6.574219 L 26.332031 6.453125 L 26.742188 5.578125 L 27.332031 4.804688 L 27.957031 4.082031 L 27.695312 3.753906 Z M 4.183594 18.726562 L 4.835938 17.699219 L 5.625 16.726562 L 6.589844 15.933594 L 7.363281 15.316406 L 8.222656 14.824219 L 9.167969 14.507812 L 10.15625 14.449219 L 11.097656 14.699219 L 11.632812 14.117188 L 11.210938 13.046875 L 10.875 11.957031 L 10.726562 10.820312 L 10.871094 9.660156 L 11.167969 8.527344 L 11.628906 7.453125 L 11.394531 7.296875 L 10.839844 8.035156 L 10.554688 8.886719 L 10.234375 9.816406 L 10.164062 10.792969 L 10.15625 11.765625 L 10.316406 12.726562 L 10.542969 13.675781 L 10.558594 13.710938 L 10.398438 13.671875 L 9.253906 13.601562 L 8.152344 13.941406 L 7.109375 14.429688 L 6.171875 15.101562 L 5.484375 15.714844 L 4.808594 16.34375 L 4.273438 17.09375 L 3.527344 18.253906 L 3.03125 19.597656 L 3.507812 19.769531 Z M 11.378906 7.277344 L 11.394531 7.289062 L 11.402344 7.277344 Z M 11.523438 41.929688 L 10.703125 41.703125 L 9.78125 41.761719 L 8.980469 41.496094 L 8.164062 41.328125 L 7.078125 40.890625 L 6.125 40.207031 L 5.246094 39.433594 L 4.566406 38.496094 L 4.144531 37.429688 L 3.730469 36.363281 L 3.683594 35.214844 L 3.644531 34.066406 L 3.957031 32.960938 L 4.296875 32.046875 L 4.710938 31.160156 L 5.339844 30.40625 L 6.054688 29.710938 L 5.71875 28.847656 L 4.625 28.425781 L 3.710938 27.675781 L 2.964844 26.742188 L 2.503906 25.789062 L 2.136719 24.789062 L 2.027344 23.691406 L 1.855469 22.613281 L 1.519531 22.59375 L 1.542969 22.621094 L 1.414062 23.816406 L 1.542969 25.015625 L 1.761719 26.210938 L 2.1875 27.359375 L 2.75 28.285156 L 3.625 28.921875 L 4.527344 29.46875 L 4.753906 29.558594 L 4.5 29.839844 L 3.8125 30.734375 L 3.261719 31.722656 L 2.84375 32.78125 L 2.695312 33.910156 L 2.613281 35.035156 L 2.640625 36.171875 L 2.992188 37.242188 L 3.382812 38.285156 L 3.894531 39.289062 L 4.691406 40.082031 L 5.429688 40.921875 L 6.324219 41.605469 L 7.378906 42 L 8.390625 42.464844 L 9.484375 42.699219 L 10.566406 42.695312 L 11.585938 42.3125 Z M 40.777344 45.101562 L 40.039062 45.28125 L 40.035156 45.796875 L 40.558594 46.132812 L 41.242188 46.242188 L 42.621094 46.238281 L 43.511719 46.144531 L 44.390625 45.953125 L 45.238281 45.660156 L 46.164062 45.203125 L 47.035156 44.640625 L 47.863281 44.027344 L 48.605469 43.3125 L 49.253906 42.507812 L 49.824219 41.574219 L 50.273438 40.574219 L 50.703125 39.558594 L 50.875 38.464844 L 50.988281 37.371094 L 50.960938 36.265625 L 50.710938 35.191406 L 50.457031 34.125 L 50.042969 33.109375 L 49.667969 32.214844 L 49.152344 31.390625 L 48.582031 30.609375 L 47.894531 30.003906 L 47.332031 29.269531 L 46.511719 28.894531 L 46.1875 29.265625 L 46.21875 29.265625 L 46.917969 30.214844 L 47.777344 31.011719 L 48.425781 31.949219 L 48.910156 32.980469 L 49.316406 34.003906 L 49.726562 35.035156 L 49.972656 36.125 L 50.019531 37.238281 L 49.84375 38.355469 L 49.644531 39.460938 L 49.273438 40.527344 L 48.691406 41.496094 L 47.996094 42.378906 L 47.242188 43.214844 L 46.3125 43.84375 L 45.351562 44.421875 L 44.511719 44.753906 L 43.652344 45.039062 L 42.75 45.144531 L 41.433594 45.285156 Z M 39.273438 46.566406 L 39.0625 46.414062 L 39.046875 46.410156 L 38.410156 46.945312 L 37.734375 47.472656 L 36.367188 48.230469 L 35.382812 48.496094 L 34.375 48.597656 L 33.363281 48.542969 L 32.390625 48.371094 L 31.453125 48.050781 L 30.609375 47.542969 L 29.492188 46.582031 L 28.984375 46 L 28.671875 45.695312 L 28.503906 45.597656 L 28.429688 45.597656 L 28.054688 45.761719 L 28.0625 46.375 L 28.441406 46.921875 L 29.4375 47.863281 L 30.132812 48.4375 L 30.960938 48.800781 L 31.769531 49.199219 L 32.851562 49.429688 L 33.953125 49.457031 L 35.054688 49.375 L 36.101562 49.023438 L 37.121094 48.601562 L 38.335938 47.777344 Z M 27.109375 46.65625 L 26.53125 47.554688 L 25.785156 48.316406 L 25.042969 49.082031 L 24.160156 49.675781 L 23.261719 50.25 L 22.222656 50.636719 L 21.15625 50.925781 L 20.054688 51.085938 L 18.945312 51.046875 L 17.867188 50.796875 L 16.402344 50.320312 L 15.640625 49.980469 L 14.828125 49.734375 L 14.558594 50.265625 L 15.773438 51.191406 L 16.488281 51.554688 L 17.25 51.839844 L 18.296875 51.957031 L 19.332031 52.125 L 20.382812 52.058594 L 21.375 51.949219 L 22.324219 51.648438 L 23.246094 51.273438 L 24.144531 50.84375 L 24.917969 50.214844 L 25.667969 49.566406 L 26.414062 48.765625 L 26.953125 47.808594 L 27.410156 46.816406 L 27.085938 46.625 Z M 48.0625 14.667969 L 48.824219 15.332031 L 49.375 16.179688 L 50.011719 16.960938 L 50.492188 17.851562 L 50.816406 18.835938 L 51.027344 19.84375 L 51.167969 20.867188 L 51.078125 21.898438 L 50.941406 22.910156 L 50.722656 23.910156 L 50.300781 24.996094 L 49.855469 26.082031 L 49.253906 27.078125 L 49.371094 27.589844 L 49.953125 27.570312 L 50.660156 26.648438 L 51.320312 25.695312 L 51.757812 24.617188 L 52.078125 23.484375 L 52.160156 22.308594 L 52.234375 21.140625 L 52.125 20.046875 L 51.832031 18.984375 L 51.449219 17.957031 L 50.992188 16.960938 L 50.347656 16.074219 L 49.691406 15.191406 L 48.765625 14.363281 L 47.738281 13.664062 L 46.59375 13.207031 L 46.472656 13.414062 L 46.449219 13.480469 L 47.277344 14.042969 Z M 12 46.617188 L 11.664062 45.628906 L 11.355469 44.636719 L 11.179688 43.609375 L 10.824219 43.613281 L 10.8125 43.617188 L 10.796875 44.652344 L 10.898438 45.679688 L 11.144531 46.683594 L 11.726562 48.125 L 12.148438 48.765625 L 12.75 49.347656 L 13.171875 49.234375 L 12.757812 47.96875 Z M 38.125 51.367188 L 38.359375 50.625 L 38.515625 49.804688 L 38.914062 49.070312 L 39.503906 48.484375 L 40.5625 48.050781 L 41.703125 48.046875 L 42.769531 48.46875 L 42.980469 48.152344 L 42.113281 47.597656 L 41.105469 47.382812 L 40.078125 47.480469 L 39.128906 47.898438 L 38.398438 48.628906 L 37.882812 49.523438 L 37.675781 50.527344 L 37.96875 51.417969 Z M 42.992188 48.136719 L 42.980469 48.144531 L 42.984375 48.148438 Z M 42.773438 52.5625 L 41.59375 53.210938 L 40.910156 53.371094 L 40.578125 53.367188 L 40.175781 53.390625 L 39.898438 53.863281 L 40.765625 54.347656 L 41.785156 54.199219 L 42.613281 53.761719 L 43.339844 53.164062 L 43.894531 52.371094 L 44.214844 51.460938 L 44.234375 50.484375 L 44 49.539062 L 43.660156 49.632812 L 43.660156 49.644531 L 43.722656 50.464844 L 43.558594 51.277344 Z M 44.957031 52.019531 L 45.109375 51.675781 L 45.613281 51.035156 L 46.332031 50.671875 L 47.132812 50.664062 L 47.269531 50.320312 L 47.261719 50.3125 L 46.253906 50.199219 L 45.347656 50.609375 L 44.695312 51.367188 L 44.484375 51.828125 L 44.511719 52.359375 L 44.714844 52.398438 Z M 48.539062 52.210938 L 48.472656 51.714844 L 48.253906 51.230469 L 47.9375 51.394531 L 47.933594 51.386719 L 47.976562 51.78125 L 48.003906 52.167969 L 47.742188 52.921875 L 47.292969 53.402344 L 47 53.550781 L 46.683594 53.820312 L 46.726562 54.070312 L 47.203125 54.097656 L 47.628906 53.878906 L 48.25 53.183594 Z M 33.113281 101.859375 L 32.402344 102.765625 L 31.84375 103.773438 L 31.300781 104.785156 L 30.859375 105.847656 L 30.34375 106.875 L 29.847656 107.921875 L 30.496094 108.359375 L 30.925781 107.613281 L 31.261719 106.824219 L 31.523438 106.019531 L 31.882812 105.246094 L 32.351562 104.167969 L 32.871094 103.109375 L 33.371094 102.042969 L 33.113281 101.871094 Z M 64.214844 107.367188 L 64.207031 107.386719 L 64.230469 107.402344 Z M 62.816406 106.316406 L 61.980469 105.871094 L 61.054688 105.660156 L 60.121094 105.265625 L 59.171875 104.914062 L 58.21875 104.570312 L 57.207031 104.460938 L 56.234375 104.117188 L 55.214844 104 L 54.226562 103.707031 L 53.210938 103.578125 L 52.203125 103.398438 L 51.1875 103.253906 L 50.167969 103.171875 L 49.148438 103.078125 L 48.011719 102.871094 L 46.859375 102.933594 L 45.714844 102.773438 L 44.597656 103.042969 L 44.566406 103.378906 L 45.550781 103.5625 L 46.539062 103.65625 L 47.527344 103.707031 L 48.519531 103.710938 L 49.53125 103.746094 L 50.539062 103.875 L 51.550781 103.964844 L 52.539062 104.191406 L 53.664062 104.332031 L 54.78125 104.542969 L 55.859375 104.914062 L 56.988281 105.078125 L 58.089844 105.351562 L 59.152344 105.757812 L 60.253906 106.035156 L 61.265625 106.261719 L 62.21875 106.683594 L 63.171875 107.113281 L 64.054688 107.691406 L 64.210938 107.386719 L 63.609375 106.796875 Z M 55.574219 106.429688 L 55.558594 106.554688 L 55.582031 106.5625 Z M 53.308594 105.902344 L 52.152344 105.640625 L 50.996094 105.613281 L 49.855469 105.441406 L 48.722656 105.199219 L 47.699219 105.234375 L 46.683594 105.253906 L 45.667969 105.148438 L 44.652344 105.160156 L 43.636719 105.203125 L 42.621094 105.253906 L 41.609375 105.332031 L 40.640625 105.394531 L 39.691406 105.589844 L 38.738281 105.757812 L 37.78125 105.96875 L 37.855469 106.226562 L 38.640625 106.394531 L 39.445312 106.300781 L 40.332031 106.210938 L 41.214844 106.109375 L 42.355469 105.996094 L 43.496094 105.921875 L 44.640625 105.820312 L 45.632812 105.808594 L 46.625 105.84375 L 47.613281 105.867188 L 48.597656 106.015625 L 49.585938 106.050781 L 50.582031 106.078125 L 51.554688 106.304688 L 52.550781 106.398438 L 53.554688 106.449219 L 54.535156 106.648438 L 55.535156 106.75 L 55.558594 106.550781 L 54.4375 106.246094 Z M 82.964844 103.980469 L 84.019531 103.8125 L 85.050781 103.546875 L 86.085938 103.320312 L 87.152344 103.195312 L 88.152344 102.773438 L 89.207031 102.582031 L 90.273438 102.480469 L 91.34375 102.507812 L 92.394531 102.265625 L 93.464844 102.230469 L 94.535156 102.308594 L 95.597656 102.195312 L 96.601562 102.117188 L 97.609375 102.15625 L 98.621094 102.121094 L 100.0625 102.230469 L 101.617188 102.125 L 101.59375 102.027344 L 101.636719 101.996094 L 100.738281 101.886719 L 99.847656 101.730469 L 98.953125 101.585938 L 97.625 101.550781 L 96.292969 101.640625 L 95.207031 101.488281 L 94.121094 101.601562 L 93.042969 101.703125 L 91.957031 101.75 L 90.867188 101.785156 L 89.808594 101.953125 L 88.738281 102.035156 L 87.6875 102.261719 L 86.613281 102.363281 L 85.585938 102.667969 L 84.53125 102.863281 L 83.46875 103.054688 L 82.484375 103.511719 L 81.402344 103.628906 L 80.394531 104.007812 L 79.425781 104.300781 L 78.515625 104.730469 L 77.5625 105.058594 L 76.140625 105.707031 L 74.9375 106.472656 L 74.988281 106.625 L 76.210938 106.28125 L 77.425781 105.835938 L 78.667969 105.363281 L 79.953125 105.011719 L 80.933594 104.597656 L 81.96875 104.332031 Z M 94.855469 104.339844 L 95.882812 104.300781 L 96.914062 104.253906 L 97.9375 104.167969 L 99.09375 104.078125 L 100.253906 103.984375 L 101.414062 104.03125 L 102.578125 104.097656 L 102.59375 103.722656 L 101.558594 103.714844 L 100.53125 103.605469 L 99.507812 103.46875 L 98.46875 103.496094 L 97.421875 103.570312 L 96.371094 103.621094 L 95.316406 103.574219 L 94.269531 103.671875 L 93.253906 103.851562 L 92.222656 103.894531 L 91.214844 104.125 L 90.195312 104.265625 L 89.179688 104.449219 L 88.136719 104.472656 L 87.136719 104.746094 L 86.128906 104.964844 L 85.011719 105.335938 L 83.886719 105.660156 L 82.753906 105.96875 L 81.675781 106.445312 L 81.777344 106.75 L 82.753906 106.449219 L 83.785156 106.410156 L 84.738281 106.039062 L 85.71875 105.769531 L 86.722656 105.542969 L 87.730469 105.328125 L 88.757812 105.203125 L 89.761719 104.988281 L 90.765625 104.753906 L 91.796875 104.683594 L 92.808594 104.507812 L 93.824219 104.300781 Z M 102.59375 103.710938 L 102.59375 103.722656 L 102.597656 103.722656 Z M 102.1875 105.515625 L 100.871094 105.53125 L 99.976562 105.53125 L 99.082031 105.578125 L 98.183594 105.621094 L 96.878906 105.75 L 95.574219 105.890625 L 94.324219 106.074219 L 93.082031 106.386719 L 93.128906 106.722656 L 94.351562 106.648438 L 95.65625 106.480469 L 96.96875 106.402344 L 98.28125 106.347656 L 99.554688 106.1875 L 100.835938 106.152344 L 101.730469 106.0625 L 103.519531 105.90625 L 103.53125 105.621094 L 103.507812 105.582031 Z M 103.28125 101.84375 L 103.285156 101.835938 L 103.273438 101.824219 Z M 107.683594 106.761719 L 107.082031 105.945312 L 106.539062 105.121094 L 105.898438 104.367188 L 105.367188 103.589844 L 104.773438 102.867188 L 104.128906 102.230469 L 103.457031 101.625 L 103.285156 101.835938 L 103.800781 102.566406 L 104.316406 103.3125 L 104.851562 104.117188 L 105.378906 104.929688 L 105.929688 105.707031 L 106.507812 106.46875 L 107.089844 107.222656 L 107.644531 107.980469 L 108.027344 108.039062 L 108.074219 108.03125 L 108.203125 107.433594 Z M 76.65625 103.546875 L 77.648438 103.195312 L 78.628906 102.800781 L 79.648438 102.53125 L 80.675781 102.273438 L 80.539062 101.859375 L 80.53125 101.886719 L 79.476562 102.128906 L 78.453125 102.46875 L 77.421875 102.792969 L 76.402344 103.152344 L 74.386719 103.949219 L 73.4375 104.410156 L 72.496094 104.882812 L 71.570312 105.390625 L 70.867188 105.777344 L 70.152344 106.144531 L 68.882812 107.039062 L 69.167969 107.359375 L 70.535156 106.625 L 71.207031 106.179688 L 71.933594 105.835938 L 72.839844 105.300781 L 73.777344 104.828125 L 74.726562 104.382812 L 75.6875 103.949219 Z M 57.566406 103 L 57.570312 102.992188 L 57.566406 102.992188 Z M 64.03125 105.214844 L 63 104.734375 L 61.949219 104.3125 L 60.914062 103.914062 L 59.894531 103.476562 L 58.78125 103.109375 L 57.65625 102.796875 L 57.574219 102.988281 L 58.566406 103.460938 L 59.601562 103.855469 L 60.628906 104.351562 L 61.667969 104.828125 L 62.671875 105.34375 L 63.679688 105.859375 L 64.683594 106.375 L 65.667969 106.910156 L 65.667969 106.859375 L 65.753906 106.988281 L 66.023438 106.285156 L 65.035156 105.742188 Z M 55.246094 35.519531 L 55.4375 34.3125 L 55.574219 33.097656 L 56.285156 32.105469 L 57.117188 31.226562 L 58.128906 30.710938 L 59.214844 30.417969 L 60.335938 30.3125 L 61.429688 30.011719 L 62.566406 29.992188 L 63.457031 29.644531 L 64.320312 29.253906 L 65.085938 28.699219 L 65.90625 28.136719 L 66.765625 27.648438 L 67.613281 27.128906 L 68.6875 26.667969 L 69.824219 26.382812 L 70.992188 26.425781 L 72.152344 26.351562 L 73.296875 26.582031 L 74.128906 26.992188 L 74.894531 27.496094 L 75.699219 27.972656 L 76.210938 28.765625 L 76.703125 29.550781 L 77.046875 30.433594 L 77.316406 30.367188 L 77.351562 30.355469 L 77.136719 29.347656 L 76.5625 28.5 L 76.046875 27.605469 L 75.207031 27.011719 L 74.40625 26.347656 L 73.429688 26.132812 L 72.472656 25.9375 L 71.515625 25.660156 L 70.523438 25.730469 L 69.554688 25.917969 L 68.601562 26.15625 L 67.582031 26.476562 L 66.617188 26.945312 L 65.738281 27.550781 L 64.84375 28.167969 L 63.847656 28.605469 L 62.863281 29.054688 L 61.886719 29.382812 L 60.863281 29.460938 L 59.84375 29.5625 L 58.828125 29.714844 L 57.859375 30.046875 L 56.929688 30.464844 L 56.175781 31.101562 L 55.53125 31.839844 L 55.066406 32.699219 L 54.683594 33.617188 L 54.496094 34.601562 L 54.785156 35.535156 Z M 87.613281 37.195312 L 87.890625 38.273438 L 88.308594 39.292969 L 88.761719 40.296875 L 89.175781 41.320312 L 89.585938 42.335938 L 89.921875 43.390625 L 90.496094 44.335938 L 90.992188 45.316406 L 91.445312 46.324219 L 92.03125 47.148438 L 92.742188 47.867188 L 93.453125 48.582031 L 94.109375 49.367188 L 94.734375 50.175781 L 95.441406 50.917969 L 96.035156 51.792969 L 96.5 52.746094 L 96.933594 53.726562 L 96.9375 54.902344 L 96.902344 56.0625 L 96.617188 57.183594 L 96.304688 58.367188 L 96.257812 59.59375 L 96.058594 60.796875 L 96.128906 61.867188 L 96.433594 62.898438 L 97.074219 63.761719 L 97.433594 63.402344 L 97.136719 62.472656 L 96.910156 61.523438 L 96.8125 60.558594 L 96.855469 59.472656 L 97.117188 58.421875 L 97.378906 57.382812 L 97.636719 56.257812 L 97.648438 55.113281 L 97.664062 53.96875 L 97.449219 52.921875 L 97.039062 51.933594 L 96.351562 51.117188 L 95.898438 50.199219 L 95.203125 49.449219 L 94.445312 48.769531 L 93.808594 47.96875 L 93.070312 47.269531 L 92.542969 46.386719 L 91.890625 45.613281 L 91.488281 44.695312 L 91.042969 43.800781 L 90.691406 42.867188 L 90.148438 42.015625 L 89.914062 41.023438 L 89.3125 40.070312 L 88.882812 39.039062 L 88.273438 38.097656 L 87.773438 37.101562 L 87.21875 36.136719 L 86.546875 35.253906 L 86.488281 35.261719 L 86.421875 35.332031 L 86.980469 36.28125 Z M 76.558594 41.378906 L 76.265625 40.308594 L 75.925781 39.25 L 75.722656 38.167969 L 75.390625 38.152344 L 75.390625 38.1875 L 75.464844 39.285156 L 75.664062 40.359375 L 75.90625 41.425781 L 76.261719 42.460938 L 76.765625 43.429688 L 77.234375 44.207031 L 77.796875 44.925781 L 78.488281 45.519531 L 79.265625 46.023438 L 79.996094 46.59375 L 80.496094 47.347656 L 80.664062 48.164062 L 80.488281 48.996094 L 80.085938 49.777344 L 79.6875 50.566406 L 79.910156 50.808594 L 80.714844 50.179688 L 81.167969 49.277344 L 81.375 48.300781 L 81.292969 47.328125 L 80.816406 46.476562 L 80.152344 45.753906 L 79.359375 45.191406 L 78.621094 44.558594 L 77.957031 43.851562 L 77.386719 43.089844 L 76.960938 42.238281 Z M 69.34375 101.105469 L 69.519531 102.296875 L 69.527344 103.488281 L 69.574219 104.609375 L 69.8125 105.753906 L 69.988281 105.738281 L 70.246094 104.777344 L 70.25 103.714844 L 70.164062 102.65625 L 70.152344 101.589844 L 70.199219 100.542969 L 70.125 99.496094 L 70.171875 98.449219 L 70.125 97.40625 L 70.125 95.296875 L 70.066406 94.246094 L 69.957031 93.195312 L 69.929688 92.140625 L 69.96875 91.085938 L 69.847656 90.035156 L 69.9375 88.980469 L 69.910156 87.785156 L 69.804688 86.597656 L 69.941406 85.398438 L 69.730469 84.230469 L 69.320312 84.230469 L 69.335938 84.25 L 69.347656 85.308594 L 69.257812 86.363281 L 69.253906 87.414062 L 69.285156 88.464844 L 69.292969 89.523438 L 69.347656 90.578125 L 69.226562 91.628906 L 69.28125 92.683594 L 69.253906 93.734375 L 69.253906 94.789062 L 69.386719 95.84375 L 69.289062 96.894531 L 69.386719 97.945312 L 69.464844 98.996094 L 69.359375 100.050781 Z M 89.296875 88.085938 L 89.304688 88.085938 L 89.3125 88.0625 Z M 46.632812 94.210938 L 46.628906 94.199219 L 46.003906 93.460938 L 45.347656 92.757812 L 44.613281 92.128906 L 43.859375 91.527344 L 43.050781 91.03125 L 42.222656 90.5625 L 41.375 90.140625 L 40.453125 89.992188 L 40.355469 90.269531 L 41.089844 90.667969 L 41.917969 91.113281 L 42.742188 91.527344 L 43.53125 92.011719 L 44.542969 92.722656 L 45.511719 93.496094 L 46.386719 94.367188 Z M 39.976562 97.324219 L 41.292969 96.503906 L 42.683594 95.875 L 43.660156 95.550781 L 44.667969 95.367188 L 45.695312 95.296875 L 45.671875 94.875 L 45.65625 94.886719 L 44.574219 94.949219 L 43.492188 95.070312 L 42.460938 95.414062 L 41.023438 96.035156 L 40.335938 96.492188 L 39.738281 97.058594 Z M 39.976562 97.324219 " fill-opacity="1" fill-rule="nonzero"/></g><path fill="#ff96c4" d="M 106.683594 84.582031 L 106.675781 85.519531 L 106.636719 86.457031 L 106.515625 87.390625 L 106.410156 88.324219 L 106.277344 89.429688 L 106.128906 90.535156 L 105.988281 91.640625 L 105.800781 92.742188 L 105.527344 93.828125 L 105.199219 94.894531 L 104.933594 95.960938 L 104.554688 96.996094 L 104.199219 98.039062 L 103.917969 98.851562 L 103.613281 99.65625 L 102.84375 101.023438 L 102.402344 100.777344 L 102.574219 99.890625 L 102.824219 99.21875 L 102.535156 99.132812 L 102.714844 98.332031 L 102.867188 97.546875 L 103.117188 96.757812 L 103.390625 95.976562 L 103.617188 94.9375 L 103.921875 93.921875 L 104.152344 92.882812 L 104.300781 91.835938 L 104.496094 90.796875 L 104.738281 89.765625 L 104.855469 88.710938 L 104.953125 87.660156 L 105.109375 86.613281 L 105.082031 85.546875 L 105.226562 84.496094 L 105.140625 83.4375 L 105.070312 82.382812 L 105.078125 81.328125 L 105.027344 80.273438 L 104.933594 79.21875 L 104.699219 78.1875 L 104.671875 77.117188 L 104.429688 76.085938 L 104.050781 75.09375 L 103.730469 74.089844 L 103.527344 73.042969 L 103.058594 72.085938 L 102.625 71.125 L 102.664062 71.109375 L 103.128906 70.945312 L 103.535156 71.894531 L 104.050781 72.792969 L 104.335938 73.789062 L 104.753906 74.738281 L 104.914062 75.765625 L 105.195312 76.753906 L 105.480469 77.835938 L 105.570312 78.953125 L 105.800781 80.050781 L 105.910156 81.164062 L 105.953125 82.285156 L 105.972656 83.402344 L 105.878906 84.519531 L 105.785156 85.632812 L 105.769531 86.753906 L 105.726562 87.871094 L 105.59375 88.851562 L 105.464844 89.828125 L 105.347656 90.808594 L 105.160156 91.777344 L 104.878906 92.730469 L 104.671875 93.695312 L 104.59375 94.046875 L 104.890625 93.226562 L 105.082031 92.148438 L 105.382812 91.097656 L 105.621094 90.03125 L 105.753906 88.949219 L 105.980469 87.878906 L 106.039062 86.789062 L 106.175781 85.707031 L 106.296875 84.621094 L 106.257812 84.617188 Z M 37.511719 97.550781 L 37.324219 96.53125 L 37.121094 95.527344 L 36.90625 94.527344 L 36.613281 93.542969 L 36.4375 92.53125 L 36.101562 91.558594 L 35.960938 90.539062 L 35.707031 89.546875 L 35.605469 88.523438 L 35.375 87.523438 L 35.242188 86.507812 L 35.234375 85.480469 L 35.097656 84.464844 L 35.136719 83.3125 L 35.191406 82.164062 L 35.292969 81.019531 L 35.523438 79.890625 L 35.054688 79.777344 L 35.046875 79.78125 L 34.820312 80.855469 L 34.695312 81.941406 L 34.582031 83.03125 L 34.546875 84.128906 L 34.59375 85.222656 L 34.664062 86.320312 L 34.855469 87.402344 L 34.902344 88.5 L 35.128906 89.570312 L 35.355469 90.644531 L 35.578125 91.71875 L 35.738281 92.800781 L 35.976562 93.871094 L 36.261719 94.929688 L 36.453125 96.011719 L 36.703125 97.175781 L 36.878906 98.359375 L 37.15625 99.453125 L 37.515625 100.429688 L 37.839844 100.394531 L 37.882812 99.621094 L 37.765625 98.5625 Z M 36.890625 98.902344 L 36.984375 99.699219 L 36.90625 100.480469 L 36.144531 100.621094 L 36.34375 100.140625 L 36.097656 100.527344 L 35.945312 98.925781 L 35.664062 97.402344 L 35.398438 96.390625 L 35.152344 95.371094 L 34.867188 94.367188 L 34.636719 93.3125 L 34.398438 92.261719 L 34.136719 91.21875 L 33.851562 90.179688 L 33.554688 89.144531 L 33.320312 88.09375 L 33.34375 88.089844 L 34 87.890625 L 34.261719 88.957031 L 34.605469 90 L 34.898438 91.058594 L 35.210938 92.113281 L 35.515625 93.167969 L 35.804688 94.226562 L 36.09375 95.253906 L 36.339844 96.292969 L 36.625 97.324219 L 36.792969 98.109375 Z M 36.476562 99.976562 L 36.460938 99.980469 L 36.523438 100.039062 Z M 35.90625 31.574219 L 35.933594 31.5625 Z M 41.503906 41.871094 L 41.191406 41.109375 L 40.851562 40.355469 L 40.441406 39.316406 L 39.988281 38.296875 L 39.507812 37.285156 L 39.03125 36.269531 L 38.542969 35.261719 L 38.09375 34.230469 L 37.558594 33.242188 L 37.054688 32.242188 L 36.527344 31.246094 L 35.933594 31.5625 L 36.4375 32.558594 L 36.910156 33.566406 L 37.398438 34.570312 L 37.882812 35.574219 L 38.378906 36.574219 L 38.820312 37.597656 L 39.289062 38.589844 L 39.726562 39.59375 L 40.167969 40.601562 L 40.421875 41.382812 L 40.761719 42.128906 L 41.066406 42.949219 L 41.449219 43.722656 L 42.128906 43.503906 L 41.863281 42.671875 Z M 37.214844 15.285156 C 37.179688 15.375 37.136719 15.445312 37.046875 15.484375 C 36.964844 15.523438 36.855469 15.53125 36.777344 15.476562 C 36.660156 15.398438 36.613281 15.3125 36.554688 15.191406 C 36.503906 15.101562 36.453125 15.011719 36.417969 14.910156 C 36.363281 14.75 36.308594 14.589844 36.25 14.429688 C 36.132812 14.101562 36.003906 13.777344 35.867188 13.449219 C 35.785156 13.253906 35.9375 13.046875 36.113281 12.980469 C 36.320312 12.90625 36.503906 13.046875 36.582031 13.226562 C 36.71875 13.542969 36.851562 13.863281 36.972656 14.1875 C 37.035156 14.351562 37.097656 14.515625 37.15625 14.679688 C 37.171875 14.738281 37.199219 14.789062 37.195312 14.851562 C 37.203125 14.894531 37.199219 14.898438 37.1875 14.859375 C 37.195312 14.882812 37.199219 14.90625 37.203125 14.933594 C 37.222656 15.050781 37.257812 15.171875 37.214844 15.285156 Z M 28.152344 14.84375 C 28.148438 14.773438 28.140625 14.707031 28.113281 14.636719 C 28.085938 14.566406 28.0625 14.496094 28.035156 14.429688 C 27.976562 14.269531 27.921875 14.101562 27.847656 13.953125 C 27.8125 13.886719 27.78125 13.824219 27.746094 13.757812 C 27.738281 13.75 27.71875 13.707031 27.710938 13.699219 C 27.699219 13.675781 27.6875 13.644531 27.675781 13.617188 C 27.617188 13.480469 27.558594 13.347656 27.5 13.210938 C 27.429688 13.050781 27.269531 12.921875 27.082031 12.984375 C 26.910156 13.046875 26.800781 13.222656 26.855469 13.402344 C 26.898438 13.558594 26.941406 13.707031 26.984375 13.863281 C 27.03125 14.019531 27.050781 14.179688 27.097656 14.332031 C 27.144531 14.484375 27.203125 14.636719 27.253906 14.789062 C 27.285156 14.882812 27.3125 14.980469 27.359375 15.066406 C 27.382812 15.109375 27.410156 15.148438 27.445312 15.179688 C 27.4375 15.171875 27.429688 15.160156 27.421875 15.152344 C 27.445312 15.195312 27.46875 15.234375 27.496094 15.277344 C 27.585938 15.441406 27.804688 15.492188 27.96875 15.417969 C 28.152344 15.332031 28.207031 15.152344 28.171875 14.964844 C 28.164062 14.925781 28.15625 14.882812 28.152344 14.84375 Z M 18.875 14.890625 C 18.8125 14.703125 18.746094 14.511719 18.671875 14.328125 C 18.601562 14.144531 18.523438 13.960938 18.445312 13.773438 C 18.363281 13.566406 18.257812 13.371094 18.167969 13.167969 C 18.101562 13.019531 17.894531 12.972656 17.757812 13.03125 C 17.609375 13.097656 17.527344 13.253906 17.566406 13.417969 C 17.589844 13.519531 17.617188 13.617188 17.640625 13.71875 C 17.660156 13.808594 17.667969 13.902344 17.699219 14.023438 C 17.75 14.214844 17.800781 14.410156 17.859375 14.597656 C 17.917969 14.789062 17.96875 14.984375 18.042969 15.167969 C 18.085938 15.285156 18.121094 15.410156 18.179688 15.519531 C 18.246094 15.644531 18.351562 15.710938 18.460938 15.792969 C 18.628906 15.921875 18.882812 15.777344 18.9375 15.597656 C 18.976562 15.457031 19.003906 15.335938 18.96875 15.1875 C 18.9375 15.089844 18.90625 14.992188 18.875 14.890625 Z M 18.875 14.890625 " fill-opacity="1" fill-rule="nonzero"/></svg>