<svg xmlns="http://www.w3.org/2000/svg" xmlns:xlink="http://www.w3.org/1999/xlink" width="100" zoomAndPan="magnify" viewBox="0 0 75 74.999997" height="100" preserveAspectRatio="xMidYMid meet" version="1.0"><defs><clipPath id="74c02fc780"><path d="M 4 33 L 39 33 L 39 74.996094 L 4 74.996094 Z M 4 33 " clip-rule="nonzero"/></clipPath><clipPath id="8ab447ee0b"><path d="M 4 0.00390625 L 39 0.00390625 L 39 38 L 4 38 Z M 4 0.00390625 " clip-rule="nonzero"/></clipPath><clipPath id="eb34028c1c"><path d="M 20 1 L 39 1 L 39 74.996094 L 20 74.996094 Z M 20 1 " clip-rule="nonzero"/></clipPath><clipPath id="cc9a672b6b"><path d="M 14 0.00390625 L 39 0.00390625 L 39 16 L 14 16 Z M 14 0.00390625 " clip-rule="nonzero"/></clipPath><clipPath id="7257cbd500"><path d="M 65 34 L 73.359375 34 L 73.359375 43 L 65 43 Z M 65 34 " clip-rule="nonzero"/></clipPath></defs><g clip-path="url(#74c02fc780)"><path fill="#fd8db6" d="M 38.132812 58.734375 L 38.132812 66.90625 C 38.132812 68.90625 37.339844 70.824219 35.921875 72.234375 C 34.507812 73.640625 32.589844 74.425781 30.597656 74.410156 C 26.472656 74.386719 22.035156 73.238281 21.203125 68.59375 C 21.203125 68.59375 6.566406 68.867188 12.394531 54.84375 C 12.394531 54.84375 -0.78125 51.410156 7.667969 37.945312 C 7.667969 37.945312 13.71875 30.789062 22.792969 34.554688 C 22.765625 34.652344 22.742188 34.75 22.71875 34.851562 L 18.128906 35.496094 C 17.84375 37.445312 17.84375 39.425781 18.128906 41.375 L 22.71875 42.023438 C 23.113281 43.730469 23.785156 45.359375 24.707031 46.84375 L 21.917969 50.558594 C 22.121094 50.828125 22.328125 51.097656 22.539062 51.355469 C 23.574219 52.613281 24.753906 53.742188 26.058594 54.714844 L 29.761719 51.914062 C 31.242188 52.84375 32.863281 53.515625 34.5625 53.910156 L 35.207031 58.519531 C 36.175781 58.664062 37.15625 58.734375 38.132812 58.734375 Z M 38.132812 58.734375 " fill-opacity="1" fill-rule="evenodd"/></g><path fill="#f4b0ae" d="M 16.644531 35.0625 C 16.460938 36.917969 16.503906 38.789062 16.769531 40.636719 C 16.929688 41.730469 17.789062 42.585938 18.878906 42.742188 L 21.871094 43.164062 C 22.140625 43.976562 22.46875 44.773438 22.851562 45.539062 C 22.851562 45.539062 21.542969 47.285156 21.542969 47.285156 L 21.035156 47.960938 C 20.371094 48.84375 20.367188 50.0625 21.023438 50.945312 C 21.25 51.25 21.484375 51.550781 21.722656 51.839844 C 22.882812 53.253906 24.210938 54.519531 25.671875 55.613281 C 26.554688 56.273438 27.769531 56.269531 28.644531 55.605469 L 31.058594 53.78125 C 31.824219 54.164062 32.613281 54.492188 33.425781 54.765625 C 33.425781 54.765625 33.847656 57.765625 33.847656 57.765625 C 34 58.863281 34.855469 59.722656 35.945312 59.882812 C 36.210938 59.925781 36.480469 59.957031 36.75 59.988281 L 36.75 65.804688 C 36.75 67.140625 36.21875 68.421875 35.273438 69.367188 C 34.328125 70.308594 33.046875 70.828125 31.714844 70.820312 C 31.710938 70.820312 31.707031 70.820312 31.707031 70.820312 C 28.75 70.804688 25.335938 70.382812 24.742188 67.054688 C 24.527344 65.851562 23.472656 64.984375 22.253906 65.003906 C 22.253906 65.003906 20.140625 65.039062 18.039062 64.234375 C 16.878906 63.789062 15.675781 63.089844 15.050781 61.804688 C 14.285156 60.230469 14.421875 57.976562 15.78125 54.703125 C 16.058594 54.039062 16.035156 53.285156 15.714844 52.636719 C 15.394531 51.992188 14.8125 51.515625 14.113281 51.335938 C 14.113281 51.335938 10.484375 50.441406 8.988281 47.484375 C 7.957031 45.441406 8.164062 42.539062 10.753906 38.347656 C 11.226562 37.839844 13.363281 35.726562 16.644531 35.0625 Z M 16.644531 35.0625 " fill-opacity="1" fill-rule="evenodd"/><path fill="#3cd689" d="M 52.542969 28.71875 L 57.835938 28.71875 L 59.871094 26.675781 L 59.871094 19.003906 C 60.253906 19.164062 60.671875 19.253906 61.113281 19.253906 C 61.5625 19.253906 61.988281 19.160156 62.375 18.992188 L 62.375 27.195312 C 62.375 27.53125 62.242188 27.847656 62.007812 28.085938 L 59.238281 30.867188 C 59.003906 31.101562 58.683594 31.234375 58.351562 31.234375 L 52.238281 31.234375 C 52.03125 30.824219 51.804688 30.421875 51.5625 30.03125 Z M 52.542969 28.71875 " fill-opacity="1" fill-rule="evenodd"/><path fill="#4def9e" d="M 53.488281 29.089844 L 58.339844 29.089844 C 58.574219 29.089844 58.792969 28.996094 58.960938 28.832031 L 60.996094 26.789062 C 61.160156 26.625 61.253906 26.398438 61.253906 26.167969 L 61.253906 19.609375 C 61.371094 19.621094 61.496094 19.625 61.617188 19.625 C 61.75 19.625 61.878906 19.621094 62.003906 19.605469 C 62.003906 19.605469 62.003906 26.6875 62.003906 26.6875 C 62.003906 26.789062 61.964844 26.882812 61.894531 26.953125 L 59.125 29.734375 C 59.054688 29.808594 58.960938 29.847656 58.859375 29.847656 L 53.269531 29.847656 C 53.222656 29.757812 53.171875 29.667969 53.121094 29.578125 C 53.121094 29.578125 53.488281 29.089844 53.488281 29.089844 Z M 53.488281 29.089844 " fill-opacity="1" fill-rule="evenodd"/><path fill="#0078e2" d="M 66.640625 37.179688 C 67.125 36.035156 68.257812 35.230469 69.578125 35.230469 C 71.339844 35.230469 72.773438 36.667969 72.773438 38.4375 C 72.773438 40.207031 71.339844 41.644531 69.578125 41.644531 C 68.257812 41.644531 67.125 40.839844 66.640625 39.695312 C 66.472656 39.308594 66.382812 38.882812 66.382812 38.4375 C 66.382812 37.992188 66.472656 37.566406 66.640625 37.179688 Z M 66.640625 37.179688 " fill-opacity="1" fill-rule="evenodd"/><path fill="#01d0fb" d="M 68.59375 37.140625 C 68.859375 36.515625 69.472656 36.078125 70.191406 36.078125 C 71.148438 36.078125 71.925781 36.859375 71.925781 37.820312 C 71.925781 38.78125 71.148438 39.5625 70.191406 39.5625 C 69.472656 39.5625 68.859375 39.128906 68.59375 38.503906 C 68.503906 38.292969 68.457031 38.0625 68.457031 37.820312 C 68.457031 37.578125 68.503906 37.347656 68.59375 37.140625 Z M 68.59375 37.140625 " fill-opacity="1" fill-rule="evenodd"/><path fill="#243942" d="M 38.132812 18.140625 C 39.113281 18.140625 40.09375 18.210938 41.0625 18.355469 L 41.707031 22.960938 C 41.949219 23.019531 42.191406 23.082031 42.429688 23.148438 C 43.289062 23.390625 44.125 23.707031 44.933594 24.09375 C 45.472656 24.351562 46 24.640625 46.507812 24.957031 L 50.210938 22.15625 C 51.785156 23.332031 53.179688 24.734375 54.351562 26.3125 L 51.5625 30.03125 C 51.804688 30.421875 52.03125 30.824219 52.238281 31.234375 C 52.820312 32.378906 53.257812 33.59375 53.550781 34.851562 L 58.140625 35.496094 C 58.222656 36.054688 58.28125 36.617188 58.316406 37.179688 C 58.367188 38.015625 58.367188 38.855469 58.316406 39.695312 C 58.28125 40.257812 58.222656 40.816406 58.140625 41.375 L 53.550781 42.023438 C 53.277344 43.199219 52.875 44.335938 52.347656 45.414062 C 52.109375 45.902344 51.847656 46.378906 51.5625 46.84375 L 54.351562 50.558594 C 53.179688 52.140625 51.785156 53.539062 50.210938 54.714844 L 46.507812 51.914062 C 46 52.234375 45.472656 52.523438 44.933594 52.78125 C 44.125 53.167969 43.289062 53.484375 42.429688 53.726562 C 42.191406 53.792969 41.949219 53.855469 41.707031 53.910156 L 41.0625 58.519531 C 40.09375 58.664062 39.113281 58.734375 38.132812 58.734375 C 37.15625 58.734375 36.175781 58.664062 35.207031 58.519531 L 34.5625 53.910156 C 32.863281 53.515625 31.242188 52.84375 29.761719 51.914062 L 26.058594 54.714844 C 24.753906 53.742188 23.574219 52.613281 22.539062 51.355469 C 22.328125 51.097656 22.121094 50.828125 21.917969 50.558594 L 24.707031 46.84375 C 23.785156 45.359375 23.113281 43.730469 22.71875 42.023438 L 18.128906 41.375 C 17.84375 39.425781 17.84375 37.445312 18.128906 35.496094 L 22.71875 34.851562 C 22.742188 34.75 22.765625 34.652344 22.792969 34.554688 C 23.191406 32.957031 23.839844 31.429688 24.707031 30.03125 L 21.917969 26.3125 C 23.089844 24.734375 24.484375 23.332031 26.058594 22.15625 L 29.761719 24.957031 C 31.242188 24.03125 32.863281 23.355469 34.5625 22.960938 L 35.207031 18.355469 C 36.175781 18.210938 37.15625 18.140625 38.132812 18.140625 Z M 38.132812 28.667969 C 43.507812 28.667969 47.867188 33.042969 47.867188 38.4375 C 47.867188 43.828125 43.507812 48.207031 38.132812 48.207031 C 32.761719 48.207031 28.402344 43.828125 28.402344 38.4375 C 28.402344 33.042969 32.761719 28.667969 38.132812 28.667969 Z M 38.132812 28.667969 " fill-opacity="1" fill-rule="evenodd"/><path fill="#3e5560" d="M 26.171875 49.390625 L 27.785156 47.242188 C 28.402344 46.417969 28.449219 45.300781 27.910156 44.425781 C 27.128906 43.171875 26.566406 41.800781 26.230469 40.363281 C 26 39.359375 25.175781 38.601562 24.160156 38.457031 L 21.507812 38.082031 C 21.488281 37.585938 21.488281 37.089844 21.507812 36.589844 C 21.507812 36.589844 24.160156 36.214844 24.160156 36.214844 C 25.175781 36.070312 26 35.316406 26.230469 34.3125 C 26.25 34.230469 26.269531 34.144531 26.292969 34.0625 C 26.628906 32.714844 27.175781 31.429688 27.910156 30.25 C 28.449219 29.375 28.402344 28.253906 27.785156 27.433594 L 26.171875 25.285156 C 26.507812 24.917969 26.859375 24.566406 27.226562 24.230469 C 27.226562 24.230469 29.363281 25.847656 29.363281 25.847656 C 30.183594 26.464844 31.300781 26.515625 32.167969 25.972656 C 33.417969 25.191406 34.785156 24.621094 36.21875 24.289062 C 37.214844 24.054688 37.96875 23.226562 38.113281 22.207031 L 38.488281 19.546875 C 38.734375 19.535156 38.984375 19.53125 39.230469 19.53125 C 39.476562 19.53125 39.726562 19.535156 39.972656 19.546875 C 39.972656 19.546875 40.347656 22.207031 40.347656 22.207031 C 40.492188 23.226562 41.242188 24.054688 42.242188 24.289062 C 42.445312 24.335938 42.648438 24.386719 42.851562 24.445312 C 43.574219 24.648438 44.285156 24.914062 44.964844 25.242188 C 45.417969 25.460938 45.863281 25.703125 46.292969 25.972656 C 47.164062 26.515625 48.277344 26.464844 49.097656 25.847656 L 51.234375 24.230469 C 51.601562 24.566406 51.953125 24.917969 52.289062 25.285156 C 52.289062 25.285156 51.660156 26.121094 51.660156 26.121094 L 50.675781 27.433594 C 50.058594 28.253906 50.007812 29.375 50.550781 30.25 C 50.757812 30.578125 50.949219 30.917969 51.125 31.261719 C 51.613281 32.230469 51.984375 33.253906 52.230469 34.3125 C 52.460938 35.316406 53.285156 36.070312 54.300781 36.214844 L 56.953125 36.589844 C 56.972656 37.089844 56.972656 37.585938 56.953125 38.082031 L 54.300781 38.457031 C 53.285156 38.601562 52.460938 39.359375 52.230469 40.363281 C 52 41.351562 51.660156 42.3125 51.214844 43.222656 C 51.015625 43.632812 50.796875 44.035156 50.550781 44.425781 C 50.007812 45.300781 50.058594 46.417969 50.675781 47.242188 L 52.289062 49.390625 C 51.953125 49.757812 51.601562 50.109375 51.234375 50.445312 C 51.234375 50.445312 49.097656 48.828125 49.097656 48.828125 C 48.277344 48.207031 47.164062 48.160156 46.292969 48.703125 C 45.863281 48.972656 45.417969 49.214844 44.964844 49.433594 C 44.285156 49.757812 43.574219 50.023438 42.851562 50.230469 C 42.648438 50.285156 42.445312 50.339844 42.242188 50.386719 C 41.242188 50.617188 40.492188 51.445312 40.347656 52.464844 L 39.972656 55.128906 C 39.726562 55.140625 39.476562 55.144531 39.230469 55.144531 C 38.984375 55.144531 38.734375 55.140625 38.488281 55.128906 C 38.488281 55.128906 38.113281 52.464844 38.113281 52.464844 C 37.96875 51.445312 37.214844 50.617188 36.21875 50.386719 C 34.785156 50.050781 33.417969 49.484375 32.167969 48.703125 C 31.300781 48.160156 30.183594 48.207031 29.363281 48.828125 L 27.226562 50.445312 C 26.859375 50.109375 26.507812 49.757812 26.171875 49.390625 Z M 39.230469 25.078125 C 32.492188 25.078125 27.019531 30.570312 27.019531 37.335938 C 27.019531 44.101562 32.492188 49.597656 39.230469 49.597656 C 45.96875 49.597656 51.441406 44.101562 51.441406 37.335938 C 51.441406 30.570312 45.96875 25.078125 39.230469 25.078125 Z M 39.230469 25.078125 " fill-opacity="1" fill-rule="evenodd"/><path fill="#e6c231" d="M 38.132812 28.667969 C 43.507812 28.667969 47.867188 33.042969 47.867188 38.4375 C 47.867188 43.828125 43.507812 48.207031 38.132812 48.207031 C 32.761719 48.207031 28.402344 43.828125 28.402344 38.4375 C 28.402344 33.042969 32.761719 28.667969 38.132812 28.667969 Z M 30.917969 39.035156 C 30.589844 38.707031 30.589844 38.167969 30.917969 37.839844 L 33.550781 35.195312 C 33.882812 34.863281 34.414062 34.863281 34.746094 35.195312 C 35.074219 35.523438 35.074219 36.0625 34.746094 36.390625 L 32.707031 38.4375 L 34.746094 40.480469 C 35.074219 40.8125 35.074219 41.347656 34.746094 41.679688 C 34.414062 42.007812 33.882812 42.007812 33.550781 41.679688 Z M 43.5625 38.4375 L 41.523438 36.390625 C 41.195312 36.0625 41.195312 35.523438 41.523438 35.195312 C 41.855469 34.863281 42.386719 34.863281 42.71875 35.195312 L 45.351562 37.839844 C 45.679688 38.167969 45.679688 38.707031 45.351562 39.035156 L 42.71875 41.679688 C 42.386719 42.007812 41.855469 42.007812 41.523438 41.679688 C 41.195312 41.347656 41.195312 40.8125 41.523438 40.480469 Z M 38 35.753906 C 38.121094 35.300781 38.585938 35.035156 39.035156 35.15625 C 39.484375 35.273438 39.753906 35.742188 39.632812 36.191406 L 38.269531 41.300781 C 38.148438 41.75 37.683594 42.019531 37.234375 41.898438 C 36.785156 41.777344 36.515625 41.3125 36.636719 40.863281 Z M 38 35.753906 " fill-opacity="1" fill-rule="evenodd"/><path fill="#ffd15b" d="M 46.820312 39.628906 C 46 43.34375 42.695312 46.125 38.746094 46.125 C 34.800781 46.125 31.496094 43.34375 30.671875 39.628906 L 33.132812 42.101562 C 34.03125 43.003906 35.492188 43.003906 36.390625 42.101562 C 36.394531 42.089844 36.40625 42.082031 36.414062 42.074219 C 36.695312 42.367188 37.054688 42.585938 37.46875 42.699219 C 38.695312 43.027344 39.960938 42.296875 40.289062 41.0625 L 40.433594 40.527344 C 40.449219 41.097656 40.671875 41.664062 41.105469 42.101562 C 42.003906 43.003906 43.464844 43.003906 44.363281 42.101562 Z M 30.671875 36.011719 C 31.496094 32.296875 34.800781 29.519531 38.746094 29.519531 C 42.695312 29.519531 46 32.296875 46.820312 36.011719 L 44.363281 33.542969 C 43.464844 32.640625 42.003906 32.640625 41.105469 33.542969 C 41.066406 33.582031 41.03125 33.621094 40.996094 33.664062 C 40.726562 33.414062 40.398438 33.226562 40.023438 33.125 C 38.796875 32.792969 37.535156 33.527344 37.203125 34.757812 L 37.058594 35.304688 C 37.09375 34.671875 36.871094 34.027344 36.390625 33.542969 C 35.492188 32.640625 34.03125 32.640625 33.132812 33.542969 Z M 36.175781 38.617188 L 35.382812 37.820312 L 36.390625 36.8125 C 36.566406 36.632812 36.707031 36.433594 36.8125 36.222656 Z M 40.773438 39.253906 L 41.355469 37.0625 L 42.109375 37.820312 L 41.105469 38.832031 C 40.976562 38.960938 40.867188 39.105469 40.773438 39.253906 Z M 40.773438 39.253906 " fill-opacity="1" fill-rule="evenodd"/><path fill="#01d0fb" d="M 30.917969 39.035156 C 30.589844 38.707031 30.589844 38.167969 30.917969 37.839844 L 33.550781 35.195312 C 33.882812 34.863281 34.414062 34.863281 34.746094 35.195312 C 35.074219 35.523438 35.074219 36.0625 34.746094 36.390625 L 32.707031 38.4375 L 34.746094 40.480469 C 35.074219 40.8125 35.074219 41.347656 34.746094 41.679688 C 34.414062 42.007812 33.882812 42.007812 33.550781 41.679688 Z M 30.917969 39.035156 " fill-opacity="1" fill-rule="evenodd"/><path fill="#01d0fb" d="M 43.5625 38.4375 L 41.523438 36.390625 C 41.195312 36.0625 41.195312 35.523438 41.523438 35.195312 C 41.855469 34.863281 42.386719 34.863281 42.71875 35.195312 L 45.351562 37.839844 C 45.679688 38.167969 45.679688 38.707031 45.351562 39.035156 L 42.71875 41.679688 C 42.386719 42.007812 41.855469 42.007812 41.523438 41.679688 C 41.195312 41.347656 41.195312 40.8125 41.523438 40.480469 Z M 43.5625 38.4375 " fill-opacity="1" fill-rule="evenodd"/><path fill="#01d0fb" d="M 38 35.753906 C 38.121094 35.300781 38.585938 35.035156 39.035156 35.15625 C 39.484375 35.273438 39.753906 35.742188 39.632812 36.191406 L 38.269531 41.300781 C 38.148438 41.75 37.683594 42.019531 37.234375 41.898438 C 36.785156 41.777344 36.515625 41.3125 36.636719 40.863281 Z M 38 35.753906 " fill-opacity="1" fill-rule="evenodd"/><path fill="#3cd689" d="M 52.347656 45.414062 L 58.351562 45.414062 C 58.683594 45.414062 59.003906 45.546875 59.238281 45.785156 L 62.007812 48.5625 C 62.242188 48.800781 62.375 49.121094 62.375 49.453125 L 62.375 57.347656 C 61.988281 57.179688 61.5625 57.089844 61.113281 57.089844 C 60.671875 57.089844 60.253906 57.179688 59.871094 57.339844 L 59.871094 49.972656 L 57.835938 47.929688 L 52.375 47.929688 L 51.5625 46.84375 C 51.847656 46.378906 52.109375 45.902344 52.347656 45.414062 Z M 52.347656 45.414062 " fill-opacity="1" fill-rule="evenodd"/><path fill="#4def9e" d="M 53.390625 45.785156 L 58.859375 45.785156 C 58.960938 45.785156 59.054688 45.824219 59.125 45.898438 L 61.894531 48.679688 C 61.964844 48.75 62.003906 48.84375 62.003906 48.945312 L 62.003906 55.71875 C 61.878906 55.707031 61.75 55.703125 61.617188 55.703125 C 61.496094 55.703125 61.371094 55.707031 61.253906 55.71875 C 61.253906 55.71875 61.253906 49.464844 61.253906 49.464844 C 61.253906 49.234375 61.160156 49.007812 60.996094 48.84375 L 58.960938 46.800781 C 58.792969 46.636719 58.574219 46.542969 58.339844 46.542969 L 53.320312 46.542969 L 53.121094 46.277344 C 53.214844 46.113281 53.304688 45.949219 53.390625 45.785156 Z M 53.390625 45.785156 " fill-opacity="1" fill-rule="evenodd"/><path fill="#0078e2" d="M 59.871094 19.003906 C 58.722656 18.515625 57.917969 17.375 57.917969 16.046875 C 57.917969 14.277344 59.347656 12.839844 61.113281 12.839844 C 62.875 12.839844 64.304688 14.277344 64.304688 16.046875 C 64.304688 17.367188 63.511719 18.5 62.375 18.992188 C 61.988281 19.160156 61.5625 19.253906 61.113281 19.253906 C 60.671875 19.253906 60.253906 19.164062 59.871094 19.003906 Z M 59.871094 19.003906 " fill-opacity="1" fill-rule="evenodd"/><path fill="#01d0fb" d="M 61.050781 17.039062 C 60.429688 16.773438 59.988281 16.152344 59.988281 15.433594 C 59.988281 14.472656 60.765625 13.691406 61.726562 13.691406 C 62.683594 13.691406 63.460938 14.472656 63.460938 15.433594 C 63.460938 16.148438 63.027344 16.765625 62.410156 17.035156 C 62.199219 17.125 61.96875 17.175781 61.726562 17.175781 C 61.484375 17.175781 61.257812 17.125 61.050781 17.039062 Z M 61.050781 17.039062 " fill-opacity="1" fill-rule="evenodd"/><path fill="#3cd689" d="M 58.316406 37.179688 L 66.640625 37.179688 C 66.472656 37.566406 66.382812 37.992188 66.382812 38.4375 C 66.382812 38.882812 66.472656 39.308594 66.640625 39.695312 L 58.316406 39.695312 C 58.367188 38.855469 58.367188 38.015625 58.316406 37.179688 Z M 58.316406 37.179688 " fill-opacity="1" fill-rule="evenodd"/><path fill="#4def9e" d="M 59.730469 37.550781 L 66.03125 37.550781 C 66.019531 37.675781 66.015625 37.800781 66.015625 37.929688 C 66.015625 38.054688 66.019531 38.183594 66.03125 38.308594 C 66.03125 38.308594 59.730469 38.308594 59.730469 38.308594 C 59.734375 38.054688 59.734375 37.800781 59.730469 37.550781 Z M 59.730469 37.550781 " fill-opacity="1" fill-rule="evenodd"/><path fill="#0078e2" d="M 62.375 57.347656 C 63.511719 57.839844 64.304688 58.976562 64.304688 60.292969 C 64.304688 62.066406 62.875 63.503906 61.113281 63.503906 C 59.347656 63.503906 57.917969 62.066406 57.917969 60.292969 C 57.917969 58.96875 58.722656 57.828125 59.871094 57.339844 C 60.253906 57.179688 60.671875 57.089844 61.113281 57.089844 C 61.5625 57.089844 61.988281 57.179688 62.375 57.347656 Z M 62.375 57.347656 " fill-opacity="1" fill-rule="evenodd"/><path fill="#01d0fb" d="M 62.410156 58.078125 C 63.027344 58.347656 63.460938 58.964844 63.460938 59.679688 C 63.460938 60.640625 62.683594 61.421875 61.726562 61.421875 C 60.765625 61.421875 59.988281 60.640625 59.988281 59.679688 C 59.988281 58.957031 60.429688 58.335938 61.050781 58.074219 C 61.257812 57.984375 61.484375 57.9375 61.726562 57.9375 C 61.96875 57.9375 62.199219 57.988281 62.410156 58.078125 Z M 62.410156 58.078125 " fill-opacity="1" fill-rule="evenodd"/><path fill="#0078e2" d="M 42.429688 11.242188 C 41.285156 10.753906 40.484375 9.613281 40.484375 8.289062 C 40.484375 6.519531 41.917969 5.085938 43.679688 5.085938 C 45.445312 5.085938 46.875 6.519531 46.875 8.289062 C 46.875 9.613281 46.074219 10.753906 44.933594 11.242188 C 44.546875 11.40625 44.125 11.496094 43.679688 11.496094 C 43.234375 11.496094 42.8125 11.40625 42.429688 11.242188 Z M 42.429688 11.242188 " fill-opacity="1" fill-rule="evenodd"/><path fill="#01d0fb" d="M 43.613281 9.277344 C 42.992188 9.015625 42.558594 8.394531 42.558594 7.675781 C 42.558594 6.714844 43.335938 5.933594 44.292969 5.933594 C 45.25 5.933594 46.027344 6.714844 46.027344 7.675781 C 46.027344 8.394531 45.59375 9.015625 44.972656 9.277344 C 44.761719 9.367188 44.535156 9.417969 44.292969 9.417969 C 44.050781 9.417969 43.824219 9.367188 43.613281 9.277344 Z M 43.613281 9.277344 " fill-opacity="1" fill-rule="evenodd"/><g clip-path="url(#8ab447ee0b)"><path fill="#fd8db6" d="M 7.667969 37.945312 C 7.667969 37.945312 -3.316406 16.980469 16.601562 9.832031 C 18.832031 5.316406 23.730469 -0.363281 34.121094 0.726562 C 34.121094 0.726562 35.992188 0.949219 38.132812 2.464844 L 38.132812 18.140625 C 37.15625 18.140625 36.175781 18.210938 35.207031 18.355469 L 34.5625 22.960938 C 32.863281 23.355469 31.242188 24.03125 29.761719 24.957031 L 26.058594 22.15625 C 24.484375 23.332031 23.089844 24.734375 21.917969 26.3125 L 24.707031 30.03125 C 23.839844 31.429688 23.191406 32.957031 22.792969 34.554688 C 13.71875 30.789062 7.667969 37.945312 7.667969 37.945312 Z M 7.667969 37.945312 " fill-opacity="1" fill-rule="evenodd"/></g><path fill="#f4b0ae" d="M 9.710938 32.761719 C 7.765625 27.320312 5.457031 15.765625 18.53125 11.074219 C 19.136719 10.859375 19.636719 10.414062 19.921875 9.835938 C 21.828125 5.972656 26.050781 1.183594 34.925781 2.097656 C 34.996094 2.109375 35.746094 2.246094 36.75 2.761719 C 36.75 2.761719 36.75 14.6875 36.75 14.6875 C 36.480469 14.714844 36.210938 14.75 35.945312 14.789062 C 34.855469 14.949219 34 15.8125 33.847656 16.90625 L 33.425781 19.910156 C 32.613281 20.183594 31.824219 20.511719 31.058594 20.894531 C 31.058594 20.894531 28.644531 19.070312 28.644531 19.070312 C 27.769531 18.402344 26.554688 18.402344 25.671875 19.0625 C 23.90625 20.382812 22.339844 21.953125 21.023438 23.726562 C 20.367188 24.613281 20.371094 25.828125 21.035156 26.710938 L 22.851562 29.132812 C 22.660156 29.523438 22.480469 29.917969 22.316406 30.316406 C 16.765625 28.941406 12.375 30.917969 9.710938 32.761719 Z M 9.710938 32.761719 " fill-opacity="1" fill-rule="evenodd"/><path fill="#3cd689" d="M 44.933594 52.78125 L 44.933594 64.988281 C 44.546875 64.824219 44.125 64.734375 43.679688 64.734375 C 43.234375 64.734375 42.8125 64.824219 42.429688 64.988281 L 42.429688 53.726562 C 43.289062 53.484375 44.125 53.167969 44.933594 52.78125 Z M 44.933594 52.78125 " fill-opacity="1" fill-rule="evenodd"/><path fill="#4def9e" d="M 44.5625 53.601562 L 44.5625 63.363281 C 44.441406 63.351562 44.3125 63.34375 44.1875 63.34375 C 44.058594 63.34375 43.933594 63.351562 43.808594 63.363281 C 43.808594 63.363281 43.808594 53.867188 43.808594 53.867188 C 44.0625 53.785156 44.3125 53.699219 44.5625 53.601562 Z M 44.5625 53.601562 " fill-opacity="1" fill-rule="evenodd"/><path fill="#3cd689" d="M 42.429688 23.148438 L 42.429688 11.242188 C 42.8125 11.40625 43.234375 11.496094 43.679688 11.496094 C 44.125 11.496094 44.546875 11.40625 44.933594 11.242188 L 44.933594 24.09375 C 44.125 23.707031 43.289062 23.390625 42.429688 23.148438 Z M 42.429688 23.148438 " fill-opacity="1" fill-rule="evenodd"/><path fill="#4def9e" d="M 43.808594 21.988281 L 43.808594 11.851562 C 43.933594 11.863281 44.058594 11.867188 44.1875 11.867188 C 44.3125 11.867188 44.441406 11.863281 44.5625 11.851562 C 44.5625 11.851562 44.5625 22.253906 44.5625 22.253906 C 44.3125 22.160156 44.0625 22.070312 43.808594 21.988281 Z M 43.808594 21.988281 " fill-opacity="1" fill-rule="evenodd"/><path fill="#0078e2" d="M 44.933594 64.988281 C 46.074219 65.476562 46.875 66.613281 46.875 67.9375 C 46.875 69.710938 45.445312 71.144531 43.679688 71.144531 C 41.917969 71.144531 40.484375 69.710938 40.484375 67.9375 C 40.484375 66.613281 41.285156 65.476562 42.429688 64.988281 C 42.8125 64.824219 43.234375 64.734375 43.679688 64.734375 C 44.125 64.734375 44.546875 64.824219 44.933594 64.988281 Z M 44.933594 64.988281 " fill-opacity="1" fill-rule="evenodd"/><path fill="#01d0fb" d="M 44.972656 65.71875 C 45.59375 65.984375 46.027344 66.605469 46.027344 67.324219 C 46.027344 68.285156 45.25 69.066406 44.292969 69.066406 C 43.335938 69.066406 42.558594 68.285156 42.558594 67.324219 C 42.558594 66.605469 42.992188 65.984375 43.613281 65.71875 C 43.824219 65.628906 44.050781 65.582031 44.292969 65.582031 C 44.535156 65.582031 44.761719 65.628906 44.972656 65.71875 Z M 44.972656 65.71875 " fill-opacity="1" fill-rule="evenodd"/><path fill="#004787" d="M 12.542969 54.277344 C 12.855469 54.359375 13.042969 54.679688 12.960938 54.992188 C 12.878906 55.304688 12.5625 55.492188 12.25 55.410156 C 12.25 55.410156 7.242188 54.097656 5.160156 49.976562 C 3.808594 47.296875 3.636719 43.410156 7 37.914062 C 5.726562 35.265625 -2.671875 16.128906 16.40625 9.28125 C 16.710938 9.171875 17.046875 9.332031 17.152344 9.632812 C 17.261719 9.941406 17.101562 10.277344 16.796875 10.382812 C -2.523438 17.316406 8.183594 37.671875 8.183594 37.671875 C 8.277344 37.855469 8.269531 38.082031 8.160156 38.257812 C 4.941406 43.386719 4.953125 46.972656 6.203125 49.445312 C 8.058594 53.121094 12.542969 54.277344 12.542969 54.277344 Z M 12.542969 54.277344 " fill-opacity="1" fill-rule="evenodd"/><path fill="#004787" d="M 21.195312 68.007812 C 21.515625 68.003906 21.78125 68.261719 21.789062 68.585938 C 21.792969 68.90625 21.539062 69.175781 21.214844 69.179688 C 21.214844 69.179688 18.523438 69.234375 15.851562 68.207031 C 14.011719 67.503906 12.195312 66.292969 11.203125 64.257812 C 10.164062 62.125 10.015625 59.046875 11.859375 54.617188 C 11.980469 54.320312 12.324219 54.179688 12.621094 54.304688 C 12.917969 54.429688 13.058594 54.773438 12.933594 55.070312 C 11.277344 59.058594 11.316406 61.820312 12.253906 63.742188 C 13.105469 65.492188 14.6875 66.507812 16.265625 67.113281 C 18.722656 68.054688 21.195312 68.007812 21.195312 68.007812 Z M 21.195312 68.007812 " fill-opacity="1" fill-rule="evenodd"/><g clip-path="url(#eb34028c1c)"><path fill="#004787" d="M 37.550781 58.734375 C 37.550781 58.410156 37.8125 58.148438 38.132812 58.148438 C 38.457031 58.148438 38.71875 58.410156 38.71875 58.734375 L 38.71875 66.90625 C 38.71875 69.0625 37.859375 71.132812 36.335938 72.648438 C 34.808594 74.167969 32.742188 75.011719 30.597656 74.996094 C 26.195312 74.972656 21.515625 73.652344 20.628906 68.699219 C 20.371094 67.25 20.4375 65.480469 20.957031 63.320312 C 21.035156 63.007812 21.347656 62.8125 21.660156 62.886719 C 21.976562 62.964844 22.167969 63.28125 22.09375 63.59375 C 21.621094 65.5625 21.542969 67.175781 21.78125 68.492188 C 22.554688 72.824219 26.753906 73.804688 30.601562 73.824219 L 30.605469 73.824219 C 32.441406 73.839844 34.207031 73.117188 35.511719 71.816406 C 36.816406 70.519531 37.550781 68.75 37.550781 66.90625 Z M 37.550781 2.464844 C 37.550781 2.140625 37.8125 1.878906 38.132812 1.878906 C 38.457031 1.878906 38.71875 2.140625 38.71875 2.464844 L 38.71875 18.140625 C 38.71875 18.464844 38.457031 18.726562 38.132812 18.726562 C 37.8125 18.726562 37.550781 18.464844 37.550781 18.140625 Z M 37.550781 2.464844 " fill-opacity="1" fill-rule="evenodd"/></g><g clip-path="url(#cc9a672b6b)"><path fill="#004787" d="M 15.441406 15.089844 C 15.390625 15.410156 15.09375 15.628906 14.773438 15.582031 C 14.457031 15.535156 14.238281 15.234375 14.285156 14.914062 C 14.285156 14.914062 16.757812 -1.683594 34.179688 0.144531 C 34.183594 0.144531 34.1875 0.144531 34.191406 0.144531 C 34.191406 0.144531 36.191406 0.371094 38.46875 1.984375 C 38.734375 2.171875 38.796875 2.539062 38.613281 2.800781 C 38.425781 3.066406 38.0625 3.128906 37.800781 2.945312 C 35.839844 1.558594 34.125 1.320312 34.050781 1.308594 C 17.773438 -0.394531 15.441406 15.089844 15.441406 15.089844 Z M 15.441406 15.089844 " fill-opacity="1" fill-rule="evenodd"/></g><path fill="#004787" d="M 24.0625 10.175781 C 24.03125 9.855469 24.269531 9.570312 24.589844 9.539062 C 24.910156 9.507812 25.195312 9.746094 25.222656 10.066406 C 25.222656 10.066406 25.480469 12.808594 24.632812 15.664062 C 24.050781 17.617188 22.949219 19.613281 20.941406 20.867188 C 18.828125 22.1875 15.683594 22.707031 10.996094 21.371094 C 10.6875 21.285156 10.507812 20.960938 10.59375 20.648438 C 10.683594 20.339844 11.007812 20.15625 11.316406 20.246094 C 15.558594 21.457031 18.414062 21.070312 20.324219 19.875 C 22.074219 18.78125 23.007812 17.027344 23.515625 15.328125 C 24.296875 12.703125 24.0625 10.175781 24.0625 10.175781 Z M 24.0625 10.175781 " fill-opacity="1" fill-rule="evenodd"/><path fill="#004787" d="M 8.109375 38.324219 C 7.902344 38.570312 7.535156 38.601562 7.289062 38.390625 C 7.042969 38.179688 7.011719 37.8125 7.222656 37.566406 C 7.222656 37.566406 13.539062 30.078125 23.015625 34.011719 C 23.3125 34.136719 23.453125 34.480469 23.332031 34.777344 C 23.207031 35.078125 22.867188 35.21875 22.570312 35.09375 C 13.898438 31.496094 8.109375 38.324219 8.109375 38.324219 Z M 8.109375 38.324219 " fill-opacity="1" fill-rule="evenodd"/><path fill="#004787" d="M 15.945312 43.550781 C 15.636719 43.457031 15.460938 43.128906 15.554688 42.820312 C 15.648438 42.511719 15.976562 42.335938 16.285156 42.429688 C 16.285156 42.429688 22.089844 44.203125 23.003906 49.789062 C 23.054688 50.105469 22.839844 50.40625 22.523438 50.460938 C 22.203125 50.511719 21.902344 50.296875 21.851562 49.976562 C 21.046875 45.085938 15.945312 43.550781 15.945312 43.550781 Z M 21.957031 51.351562 C 21.957031 51.03125 22.222656 50.769531 22.542969 50.769531 C 22.867188 50.773438 23.125 51.035156 23.125 51.359375 C 23.117188 52.96875 22.71875 54.851562 21.734375 57.035156 C 21.601562 57.328125 21.257812 57.460938 20.964844 57.328125 C 20.671875 57.195312 20.539062 56.847656 20.671875 56.550781 C 21.574219 54.550781 21.949219 52.828125 21.957031 51.351562 Z M 21.957031 51.351562 " fill-opacity="1" fill-rule="evenodd"/><path fill="#004787" d="M 22.25 34.328125 C 22.636719 32.832031 23.226562 31.398438 24.007812 30.066406 L 21.453125 26.667969 C 21.300781 26.460938 21.300781 26.175781 21.453125 25.964844 C 22.660156 24.339844 24.09375 22.902344 25.714844 21.691406 C 25.921875 21.535156 26.207031 21.535156 26.414062 21.691406 C 26.414062 21.691406 29.800781 24.253906 29.800781 24.253906 C 31.121094 23.46875 32.550781 22.875 34.042969 22.488281 L 34.632812 18.273438 C 34.667969 18.015625 34.867188 17.816406 35.125 17.777344 C 36.125 17.628906 37.128906 17.558594 38.136719 17.558594 C 39.144531 17.558594 40.148438 17.628906 41.148438 17.777344 C 41.40625 17.816406 41.609375 18.015625 41.644531 18.273438 C 41.644531 18.273438 42.234375 22.488281 42.234375 22.488281 C 42.351562 22.519531 42.472656 22.550781 42.589844 22.585938 C 42.898438 22.675781 43.082031 22.996094 42.992188 23.308594 C 42.90625 23.621094 42.582031 23.800781 42.273438 23.714844 C 42.042969 23.648438 41.8125 23.589844 41.578125 23.535156 C 41.34375 23.480469 41.167969 23.285156 41.132812 23.046875 C 41.132812 23.046875 40.550781 18.878906 40.550781 18.878906 C 39.746094 18.777344 38.945312 18.726562 38.136719 18.726562 C 37.332031 18.726562 36.527344 18.777344 35.726562 18.878906 L 35.144531 23.046875 C 35.109375 23.285156 34.929688 23.480469 34.699219 23.535156 C 33.0625 23.917969 31.5 24.566406 30.074219 25.457031 C 29.867188 25.585938 29.605469 25.574219 29.414062 25.429688 C 29.414062 25.429688 26.066406 22.894531 26.066406 22.894531 C 24.789062 23.890625 23.648438 25.042969 22.652344 26.316406 L 25.175781 29.679688 C 25.324219 29.875 25.332031 30.136719 25.207031 30.34375 C 24.367188 31.691406 23.746094 33.160156 23.359375 34.699219 C 23.335938 34.792969 23.3125 34.890625 23.292969 34.984375 C 23.238281 35.222656 23.042969 35.398438 22.804688 35.433594 C 22.804688 35.433594 18.652344 36.019531 18.652344 36.019531 C 18.453125 37.628906 18.453125 39.253906 18.652344 40.859375 L 22.804688 41.445312 C 23.042969 41.480469 23.238281 41.660156 23.292969 41.894531 C 23.671875 43.535156 24.320312 45.105469 25.207031 46.535156 C 25.332031 46.742188 25.324219 47.003906 25.175781 47.199219 C 25.175781 47.199219 22.652344 50.558594 22.652344 50.558594 C 22.765625 50.703125 22.878906 50.847656 22.992188 50.988281 C 23.902344 52.09375 24.933594 53.097656 26.066406 53.984375 L 29.414062 51.449219 C 29.605469 51.304688 29.867188 51.289062 30.074219 51.421875 C 31.5 52.3125 33.0625 52.964844 34.699219 53.34375 C 34.929688 53.398438 35.109375 53.59375 35.144531 53.832031 C 35.144531 53.832031 35.726562 58 35.726562 58 C 36.527344 58.101562 37.332031 58.148438 38.136719 58.148438 C 38.945312 58.148438 39.746094 58.101562 40.550781 58 L 41.132812 53.832031 C 41.167969 53.59375 41.34375 53.398438 41.578125 53.34375 C 41.8125 53.289062 42.042969 53.230469 42.273438 53.164062 C 43.101562 52.929688 43.910156 52.625 44.683594 52.253906 C 45.207031 52.007812 45.710938 51.730469 46.203125 51.421875 C 46.40625 51.289062 46.667969 51.304688 46.863281 51.449219 C 46.863281 51.449219 50.210938 53.984375 50.210938 53.984375 C 51.484375 52.984375 52.628906 51.839844 53.621094 50.558594 L 51.097656 47.199219 C 50.953125 47.003906 50.941406 46.742188 51.066406 46.535156 C 51.34375 46.089844 51.601562 45.628906 51.828125 45.160156 C 52.332031 44.121094 52.722656 43.027344 52.984375 41.894531 C 53.035156 41.660156 53.230469 41.480469 53.46875 41.445312 C 53.46875 41.445312 57.621094 40.859375 57.621094 40.859375 C 57.671875 40.460938 57.707031 40.058594 57.734375 39.660156 C 57.785156 38.847656 57.785156 38.03125 57.734375 37.21875 C 57.707031 36.816406 57.671875 36.417969 57.621094 36.019531 L 53.46875 35.433594 C 53.230469 35.398438 53.035156 35.222656 52.984375 34.984375 C 52.703125 33.777344 52.28125 32.605469 51.722656 31.503906 C 51.519531 31.105469 51.304688 30.722656 51.066406 30.34375 C 50.941406 30.136719 50.953125 29.875 51.097656 29.679688 C 51.097656 29.679688 53.621094 26.316406 53.621094 26.316406 C 52.628906 25.042969 51.484375 23.890625 50.210938 22.894531 L 46.863281 25.429688 C 46.667969 25.574219 46.40625 25.585938 46.203125 25.457031 C 45.710938 25.152344 45.207031 24.871094 44.683594 24.625 C 44.394531 24.484375 44.269531 24.136719 44.410156 23.84375 C 44.546875 23.550781 44.894531 23.425781 45.1875 23.566406 C 45.625 23.777344 46.054688 24.003906 46.476562 24.253906 L 49.863281 21.691406 C 50.070312 21.535156 50.355469 21.535156 50.5625 21.691406 C 52.179688 22.902344 53.617188 24.339844 54.820312 25.964844 C 54.976562 26.175781 54.972656 26.460938 54.820312 26.667969 C 54.820312 26.667969 52.269531 30.066406 52.269531 30.066406 C 52.441406 30.363281 52.605469 30.664062 52.761719 30.972656 C 53.300781 32.039062 53.726562 33.164062 54.023438 34.328125 L 58.226562 34.917969 C 58.480469 34.957031 58.683594 35.160156 58.71875 35.417969 C 58.804688 35.988281 58.863281 36.566406 58.898438 37.144531 C 58.953125 38.007812 58.953125 38.871094 58.898438 39.730469 C 58.863281 40.308594 58.804688 40.886719 58.71875 41.464844 C 58.683594 41.722656 58.480469 41.921875 58.226562 41.957031 C 58.226562 41.957031 54.023438 42.550781 54.023438 42.550781 C 53.746094 43.628906 53.363281 44.675781 52.875 45.675781 C 52.6875 46.0625 52.488281 46.441406 52.269531 46.808594 L 54.820312 50.210938 C 54.972656 50.417969 54.976562 50.703125 54.820312 50.910156 C 53.617188 52.539062 52.179688 53.976562 50.5625 55.1875 C 50.355469 55.34375 50.070312 55.34375 49.863281 55.1875 C 49.863281 55.1875 46.476562 52.625 46.476562 52.625 C 46.054688 52.875 45.625 53.105469 45.1875 53.3125 C 44.347656 53.710938 43.480469 54.039062 42.589844 54.289062 C 42.472656 54.324219 42.351562 54.359375 42.234375 54.390625 L 41.644531 58.601562 C 41.609375 58.859375 41.40625 59.0625 41.148438 59.101562 C 40.148438 59.25 39.144531 59.320312 38.136719 59.320312 C 37.128906 59.320312 36.125 59.25 35.125 59.101562 C 34.867188 59.0625 34.667969 58.859375 34.632812 58.601562 C 34.632812 58.601562 34.042969 54.390625 34.042969 54.390625 C 32.550781 54.003906 31.121094 53.40625 29.800781 52.625 L 26.414062 55.1875 C 26.207031 55.34375 25.921875 55.34375 25.714844 55.1875 C 24.371094 54.183594 23.15625 53.027344 22.09375 51.730469 C 21.871094 51.464844 21.660156 51.191406 21.453125 50.910156 C 21.300781 50.703125 21.300781 50.417969 21.453125 50.210938 C 21.453125 50.210938 24.007812 46.808594 24.007812 46.808594 C 23.226562 45.480469 22.632812 44.046875 22.25 42.550781 L 18.050781 41.957031 C 17.796875 41.921875 17.59375 41.722656 17.554688 41.464844 C 17.261719 39.457031 17.261719 37.421875 17.554688 35.417969 C 17.59375 35.160156 17.796875 34.957031 18.050781 34.917969 Z M 38.136719 28.082031 C 43.832031 28.082031 48.453125 32.722656 48.453125 38.441406 C 48.453125 44.152344 43.832031 48.792969 38.136719 48.792969 C 32.445312 48.792969 27.824219 44.152344 27.824219 38.441406 C 27.824219 32.722656 32.445312 28.082031 38.136719 28.082031 Z M 38.136719 29.253906 C 33.089844 29.253906 28.992188 33.371094 28.992188 38.441406 C 28.992188 43.507812 33.089844 47.621094 38.136719 47.621094 C 43.183594 47.621094 47.285156 43.507812 47.285156 38.441406 C 47.285156 33.371094 43.183594 29.253906 38.136719 29.253906 Z M 38.136719 29.253906 " fill-opacity="1" fill-rule="evenodd"/><path fill="#004787" d="M 58.3125 37.765625 C 57.992188 37.765625 57.730469 37.503906 57.730469 37.179688 C 57.730469 36.855469 57.992188 36.59375 58.3125 36.59375 L 66.640625 36.59375 C 66.960938 36.59375 67.222656 36.855469 67.222656 37.179688 C 67.222656 37.503906 66.960938 37.765625 66.640625 37.765625 Z M 66.640625 39.109375 C 66.960938 39.109375 67.222656 39.371094 67.222656 39.695312 C 67.222656 40.015625 66.960938 40.28125 66.640625 40.28125 L 58.3125 40.28125 C 57.992188 40.28125 57.730469 40.015625 57.730469 39.695312 C 57.730469 39.371094 57.992188 39.109375 58.3125 39.109375 Z M 66.640625 39.109375 " fill-opacity="1" fill-rule="evenodd"/><path fill="#004787" d="M 52.347656 46 C 52.027344 46 51.765625 45.738281 51.765625 45.417969 C 51.765625 45.09375 52.027344 44.832031 52.347656 44.832031 L 58.355469 44.832031 C 58.839844 44.832031 59.308594 45.023438 59.652344 45.371094 L 62.421875 48.152344 C 62.765625 48.496094 62.960938 48.964844 62.960938 49.457031 L 62.960938 57.351562 C 62.960938 57.675781 62.699219 57.9375 62.375 57.9375 C 62.054688 57.9375 61.792969 57.675781 61.792969 57.351562 L 61.792969 49.457031 C 61.792969 49.277344 61.722656 49.105469 61.597656 48.980469 L 58.828125 46.199219 C 58.699219 46.070312 58.53125 46 58.355469 46 Z M 60.457031 57.339844 C 60.457031 57.664062 60.195312 57.925781 59.871094 57.925781 C 59.550781 57.925781 59.289062 57.664062 59.289062 57.339844 L 59.289062 50.21875 L 57.59375 48.515625 L 52.378906 48.515625 C 52.054688 48.515625 51.792969 48.253906 51.792969 47.929688 C 51.792969 47.605469 52.054688 47.34375 52.378906 47.34375 L 57.835938 47.34375 C 57.988281 47.34375 58.136719 47.40625 58.25 47.515625 L 60.285156 49.5625 C 60.394531 49.671875 60.457031 49.820312 60.457031 49.972656 Z M 60.457031 57.339844 " fill-opacity="1" fill-rule="evenodd"/><path fill="#004787" d="M 44.351562 52.78125 C 44.351562 52.457031 44.609375 52.195312 44.933594 52.195312 C 45.257812 52.195312 45.515625 52.457031 45.515625 52.78125 L 45.515625 64.988281 C 45.515625 65.3125 45.257812 65.574219 44.933594 65.574219 C 44.609375 65.574219 44.351562 65.3125 44.351562 64.988281 Z M 43.011719 64.988281 C 43.011719 65.3125 42.75 65.574219 42.429688 65.574219 C 42.105469 65.574219 41.847656 65.3125 41.847656 64.988281 L 41.847656 53.726562 C 41.847656 53.402344 42.105469 53.140625 42.429688 53.140625 C 42.75 53.140625 43.011719 53.402344 43.011719 53.726562 Z M 43.011719 64.988281 " fill-opacity="1" fill-rule="evenodd"/><path fill="#004787" d="M 52.546875 29.304688 C 52.222656 29.304688 51.960938 29.042969 51.960938 28.71875 C 51.960938 28.394531 52.222656 28.132812 52.546875 28.132812 L 57.59375 28.132812 L 59.289062 26.433594 L 59.289062 19 C 59.289062 18.675781 59.550781 18.414062 59.871094 18.414062 C 60.195312 18.414062 60.457031 18.675781 60.457031 19 L 60.457031 26.675781 C 60.457031 26.828125 60.394531 26.980469 60.285156 27.085938 L 58.25 29.132812 C 58.136719 29.242188 57.988281 29.304688 57.835938 29.304688 Z M 61.792969 18.992188 C 61.792969 18.667969 62.054688 18.40625 62.375 18.40625 C 62.699219 18.40625 62.960938 18.667969 62.960938 18.992188 L 62.960938 27.195312 C 62.960938 27.683594 62.765625 28.152344 62.421875 28.496094 L 59.652344 31.28125 C 59.308594 31.625 58.839844 31.820312 58.355469 31.820312 L 52.238281 31.820312 C 51.917969 31.820312 51.65625 31.558594 51.65625 31.234375 C 51.65625 30.910156 51.917969 30.648438 52.238281 30.648438 L 58.355469 30.648438 C 58.53125 30.648438 58.699219 30.578125 58.828125 30.449219 L 61.597656 27.667969 C 61.722656 27.542969 61.792969 27.375 61.792969 27.195312 Z M 61.792969 18.992188 " fill-opacity="1" fill-rule="evenodd"/><path fill="#004787" d="M 44.351562 11.242188 C 44.351562 10.917969 44.609375 10.652344 44.933594 10.652344 C 45.257812 10.652344 45.515625 10.917969 45.515625 11.242188 L 45.515625 24.089844 C 45.515625 24.292969 45.414062 24.480469 45.246094 24.585938 C 45.074219 24.695312 44.863281 24.707031 44.683594 24.621094 C 43.90625 24.25 43.101562 23.945312 42.269531 23.710938 C 42.019531 23.640625 41.847656 23.410156 41.847656 23.148438 L 41.847656 11.242188 C 41.847656 10.917969 42.105469 10.652344 42.429688 10.652344 C 42.75 10.652344 43.011719 10.917969 43.011719 11.242188 C 43.011719 11.242188 43.011719 22.707031 43.011719 22.707031 C 43.464844 22.851562 43.910156 23.011719 44.351562 23.191406 Z M 44.351562 11.242188 " fill-opacity="1" fill-rule="evenodd"/><g clip-path="url(#7257cbd500)"><path fill="#004787" d="M 69.578125 34.644531 C 71.664062 34.644531 73.359375 36.34375 73.359375 38.4375 C 73.359375 40.53125 71.664062 42.230469 69.578125 42.230469 C 67.492188 42.230469 65.800781 40.53125 65.800781 38.4375 C 65.800781 36.34375 67.492188 34.644531 69.578125 34.644531 Z M 69.578125 35.816406 C 68.136719 35.816406 66.96875 36.992188 66.96875 38.4375 C 66.96875 39.882812 68.136719 41.058594 69.578125 41.058594 C 71.019531 41.058594 72.191406 39.882812 72.191406 38.4375 C 72.191406 36.992188 71.019531 35.816406 69.578125 35.816406 Z M 69.578125 35.816406 " fill-opacity="1" fill-rule="evenodd"/></g><path fill="#004787" d="M 61.113281 56.503906 C 63.199219 56.503906 64.890625 58.203125 64.890625 60.296875 C 64.890625 62.390625 63.199219 64.089844 61.113281 64.089844 C 59.027344 64.089844 57.332031 62.390625 57.332031 60.296875 C 57.332031 58.203125 59.027344 56.503906 61.113281 56.503906 Z M 61.113281 57.675781 C 59.671875 57.675781 58.5 58.851562 58.5 60.296875 C 58.5 61.742188 59.671875 62.917969 61.113281 62.917969 C 62.554688 62.917969 63.722656 61.742188 63.722656 60.296875 C 63.722656 58.851562 62.554688 57.675781 61.113281 57.675781 Z M 61.113281 57.675781 " fill-opacity="1" fill-rule="evenodd"/><path fill="#004787" d="M 43.679688 64.144531 C 45.765625 64.144531 47.460938 65.84375 47.460938 67.941406 C 47.460938 70.03125 45.765625 71.730469 43.679688 71.730469 C 41.59375 71.730469 39.902344 70.03125 39.902344 67.941406 C 39.902344 65.84375 41.59375 64.144531 43.679688 64.144531 Z M 43.679688 65.320312 C 42.238281 65.320312 41.070312 66.492188 41.070312 67.941406 C 41.070312 69.386719 42.238281 70.558594 43.679688 70.558594 C 45.121094 70.558594 46.292969 69.386719 46.292969 67.941406 C 46.292969 66.492188 45.121094 65.320312 43.679688 65.320312 Z M 43.679688 65.320312 " fill-opacity="1" fill-rule="evenodd"/><path fill="#004787" d="M 43.679688 4.5 C 45.765625 4.5 47.460938 6.199219 47.460938 8.292969 C 47.460938 10.382812 45.765625 12.085938 43.679688 12.085938 C 41.59375 12.085938 39.902344 10.382812 39.902344 8.292969 C 39.902344 6.199219 41.59375 4.5 43.679688 4.5 Z M 43.679688 5.671875 C 42.238281 5.671875 41.070312 6.847656 41.070312 8.292969 C 41.070312 9.738281 42.238281 10.914062 43.679688 10.914062 C 45.121094 10.914062 46.292969 9.738281 46.292969 8.292969 C 46.292969 6.847656 45.121094 5.671875 43.679688 5.671875 Z M 43.679688 5.671875 " fill-opacity="1" fill-rule="evenodd"/><path fill="#004787" d="M 61.113281 12.253906 C 63.199219 12.253906 64.890625 13.953125 64.890625 16.046875 C 64.890625 18.140625 63.199219 19.839844 61.113281 19.839844 C 59.027344 19.839844 57.332031 18.140625 57.332031 16.046875 C 57.332031 13.953125 59.027344 12.253906 61.113281 12.253906 Z M 61.113281 13.425781 C 59.671875 13.425781 58.5 14.601562 58.5 16.046875 C 58.5 17.492188 59.671875 18.667969 61.113281 18.667969 C 62.554688 18.667969 63.722656 17.492188 63.722656 16.046875 C 63.722656 14.601562 62.554688 13.425781 61.113281 13.425781 Z M 61.113281 13.425781 " fill-opacity="1" fill-rule="evenodd"/><path fill="#004787" d="M 30.503906 39.449219 C 29.949219 38.886719 29.949219 37.980469 30.503906 37.421875 L 33.140625 34.777344 C 33.695312 34.21875 34.597656 34.21875 35.15625 34.777344 C 35.714844 35.335938 35.714844 36.242188 35.15625 36.804688 L 33.53125 38.433594 L 35.15625 40.066406 C 35.714844 40.625 35.714844 41.53125 35.15625 42.089844 C 34.597656 42.652344 33.695312 42.652344 33.140625 42.089844 Z M 31.328125 38.617188 L 33.964844 41.261719 C 34.066406 41.363281 34.230469 41.363281 34.332031 41.261719 C 34.433594 41.160156 34.433594 40.996094 34.332031 40.894531 L 32.292969 38.847656 C 32.066406 38.621094 32.066406 38.25 32.292969 38.019531 L 34.332031 35.976562 C 34.433594 35.875 34.433594 35.707031 34.332031 35.605469 C 34.230469 35.503906 34.066406 35.503906 33.964844 35.605469 L 31.328125 38.25 C 31.230469 38.351562 31.230469 38.515625 31.328125 38.617188 Z M 31.328125 38.617188 " fill-opacity="1" fill-rule="evenodd"/><path fill="#004787" d="M 42.738281 38.4375 L 41.113281 36.804688 C 40.554688 36.246094 40.554688 35.339844 41.113281 34.78125 C 41.671875 34.21875 42.574219 34.21875 43.132812 34.78125 L 45.765625 37.425781 C 46.320312 37.984375 46.320312 38.890625 45.765625 39.449219 L 43.132812 42.09375 C 42.574219 42.652344 41.671875 42.652344 41.113281 42.09375 C 40.554688 41.535156 40.554688 40.628906 41.113281 40.066406 Z M 43.976562 38.851562 L 41.9375 40.894531 C 41.835938 40.996094 41.835938 41.164062 41.9375 41.265625 C 42.039062 41.367188 42.203125 41.367188 42.304688 41.265625 L 44.941406 38.621094 C 45.042969 38.519531 45.042969 38.355469 44.941406 38.253906 L 42.304688 35.609375 C 42.203125 35.507812 42.039062 35.507812 41.9375 35.609375 C 41.835938 35.710938 41.835938 35.875 41.9375 35.976562 L 43.976562 38.023438 C 44.203125 38.25 44.203125 38.621094 43.976562 38.851562 Z M 43.976562 38.851562 " fill-opacity="1" fill-rule="evenodd"/><path fill="#004787" d="M 37.410156 35.589844 C 37.613281 34.828125 38.394531 34.371094 39.15625 34.578125 C 39.917969 34.78125 40.367188 35.570312 40.164062 36.332031 L 38.800781 41.441406 C 38.597656 42.203125 37.816406 42.65625 37.054688 42.453125 C 36.292969 42.25 35.839844 41.460938 36.046875 40.699219 Z M 38.535156 35.894531 L 37.171875 41.003906 C 37.136719 41.140625 37.21875 41.285156 37.355469 41.320312 C 37.496094 41.359375 37.636719 41.277344 37.675781 41.136719 L 39.039062 36.03125 C 39.074219 35.890625 38.992188 35.746094 38.855469 35.710938 C 38.714844 35.671875 38.574219 35.753906 38.535156 35.894531 Z M 38.535156 35.894531 " fill-opacity="1" fill-rule="evenodd"/></svg>