<svg xmlns="http://www.w3.org/2000/svg" xmlns:xlink="http://www.w3.org/1999/xlink" width="100" zoomAndPan="magnify" viewBox="0 0 75 74.999997" height="100" preserveAspectRatio="xMidYMid meet" version="1.0"><defs><clipPath id="2fc19d4d77"><path d="M 0.984375 0 L 73.734375 0 L 73.734375 75 L 0.984375 75 Z M 0.984375 0 " clip-rule="nonzero"/></clipPath><clipPath id="56e20fea4a"><path d="M 0.984375 0 L 29 0 L 29 37 L 0.984375 37 Z M 0.984375 0 " clip-rule="nonzero"/></clipPath><clipPath id="81269ecf32"><path d="M 46 0 L 73.734375 0 L 73.734375 37 L 46 37 Z M 46 0 " clip-rule="nonzero"/></clipPath><clipPath id="dda9de4065"><path d="M 0.984375 39 L 28 39 L 28 75 L 0.984375 75 Z M 0.984375 39 " clip-rule="nonzero"/></clipPath><clipPath id="3af32dd4a9"><path d="M 46 38 L 73.734375 38 L 73.734375 75 L 46 75 Z M 46 38 " clip-rule="nonzero"/></clipPath><clipPath id="1fe5bd3137"><path d="M 47 39 L 73.734375 39 L 73.734375 75 L 47 75 Z M 47 39 " clip-rule="nonzero"/></clipPath></defs><g clip-path="url(#2fc19d4d77)"><path fill="#ffffff" d="M 73.496094 39.195312 L 73.492188 39.191406 C 73.488281 39.191406 73.488281 39.183594 73.480469 39.183594 L 72.390625 38.546875 C 72.28125 38.484375 72.128906 38.496094 71.960938 38.59375 L 59.945312 45.554688 L 57.523438 41.339844 C 57.53125 41.3125 57.542969 41.28125 57.542969 41.253906 L 57.554688 39.46875 L 61.085938 41.492188 L 64.136719 39.726562 L 64.136719 39.34375 L 63.480469 38.960938 L 60.570312 40.644531 L 58.769531 39.621094 L 61.371094 38.113281 L 61.367188 37.730469 L 60.714844 37.34375 L 57.796875 39.03125 L 57.558594 38.898438 L 57.570312 37.472656 C 57.570312 37.371094 57.523438 37.265625 57.449219 37.171875 L 58.601562 36.5 L 58.601562 36.117188 L 57.945312 35.730469 L 56.503906 36.566406 L 54.71875 35.53125 L 55.835938 34.890625 L 55.832031 34.503906 L 55.171875 34.117188 L 53.730469 34.957031 L 51.941406 33.925781 L 53.066406 33.277344 L 53.066406 32.890625 L 52.40625 32.503906 L 50.953125 33.351562 L 49.164062 32.316406 L 50.292969 31.664062 L 50.292969 31.277344 L 49.636719 30.890625 L 48.167969 31.746094 L 46.386719 30.710938 L 47.53125 30.050781 L 47.53125 29.664062 L 46.871094 29.277344 L 46.371094 29.570312 C 46.46875 29.4375 46.550781 29.3125 46.609375 29.21875 C 46.679688 29.089844 46.71875 29.015625 46.71875 29.015625 C 48.511719 28.425781 49.355469 27.425781 49.671875 26.285156 C 49.921875 25.328125 49.777344 24.277344 49.460938 23.277344 L 71.96875 36.320312 C 72.1875 36.449219 72.367188 36.40625 72.472656 36.265625 C 72.449219 36.300781 72.425781 36.34375 72.390625 36.359375 L 73.496094 35.710938 C 73.609375 35.648438 73.679688 35.519531 73.679688 35.332031 L 73.730469 15.617188 C 73.738281 15.230469 73.464844 14.761719 73.132812 14.570312 L 48.226562 0.140625 C 48.058594 0.0429688 47.914062 0.03125 47.804688 0.09375 L 46.703125 0.738281 L 46.695312 0.738281 C 46.695312 0.738281 46.695312 0.742188 46.691406 0.742188 C 46.585938 0.808594 46.515625 0.9375 46.515625 1.128906 L 46.46875 17.632812 C 46.109375 17.257812 45.714844 16.917969 45.449219 16.710938 C 45.253906 16.5625 45.140625 16.46875 45.140625 16.46875 C 45.039062 16.253906 44.875 16.042969 44.671875 15.828125 C 43.785156 14.914062 42.140625 14.074219 41.3125 13.683594 C 41.003906 13.546875 40.816406 13.464844 40.816406 13.464844 C 40.71875 13.417969 40.625 13.359375 40.519531 13.3125 C 34.867188 10.542969 31.328125 12.039062 29.722656 13.167969 C 29.058594 13.628906 28.726562 14.03125 28.726562 14.03125 C 28.726562 14.03125 28.585938 14.042969 28.371094 14.109375 C 28.332031 14.125 28.285156 14.144531 28.238281 14.160156 L 28.203125 1.128906 C 28.203125 0.9375 28.132812 0.808594 28.027344 0.746094 L 28.023438 0.746094 L 28.023438 0.738281 L 28.015625 0.738281 L 26.917969 0.09375 C 26.804688 0.03125 26.660156 0.0429688 26.484375 0.140625 L 1.582031 14.570312 C 1.257812 14.761719 0.984375 15.230469 0.988281 15.617188 L 1.039062 35.332031 C 1.039062 35.519531 1.109375 35.648438 1.222656 35.714844 L 2.328125 36.363281 C 2.292969 36.34375 2.269531 36.304688 2.238281 36.269531 C 2.351562 36.410156 2.53125 36.449219 2.753906 36.320312 L 26.316406 22.664062 C 26.96875 23.46875 27.738281 23.992188 28.15625 24.242188 L 28.117188 30.535156 L 26.945312 31.214844 L 26.386719 30.890625 L 25.730469 31.277344 L 25.730469 31.664062 L 25.957031 31.792969 L 24.179688 32.832031 L 23.621094 32.503906 L 22.964844 32.890625 L 22.964844 33.277344 L 23.191406 33.40625 L 21.410156 34.445312 L 20.851562 34.117188 L 20.191406 34.503906 L 20.191406 34.890625 L 20.417969 35.019531 L 18.644531 36.058594 L 18.085938 35.730469 L 17.425781 36.117188 L 17.425781 36.503906 L 17.65625 36.636719 L 17.078125 36.96875 C 16.851562 37.105469 16.742188 37.28125 16.734375 37.449219 L 16.734375 37.476562 L 16.730469 38.167969 L 15.316406 37.34375 L 14.65625 37.730469 L 14.65625 38.113281 L 16.71875 39.308594 L 16.710938 39.933594 L 15.460938 40.644531 L 12.550781 38.960938 L 11.890625 39.34375 L 11.886719 39.726562 L 14.9375 41.492188 L 16.710938 40.480469 L 16.699219 41.234375 C 16.699219 41.375 16.765625 41.511719 16.898438 41.632812 C 16.9375 41.675781 16.996094 41.710938 17.054688 41.746094 L 17.964844 42.269531 L 15.75 46.121094 L 2.757812 38.59375 C 2.589844 38.496094 2.4375 38.484375 2.328125 38.546875 L 1.238281 39.183594 C 1.234375 39.183594 1.234375 39.191406 1.226562 39.191406 L 1.222656 39.195312 C 1.109375 39.261719 1.046875 39.394531 1.039062 39.582031 L 0.988281 59.296875 C 0.988281 59.679688 1.257812 60.144531 1.585938 60.339844 L 26.492188 74.773438 C 26.710938 74.902344 26.898438 74.867188 27.003906 74.71875 C 26.972656 74.753906 26.957031 74.796875 26.921875 74.8125 L 28.027344 74.171875 C 28.136719 74.105469 28.203125 73.972656 28.203125 73.785156 L 28.25 57.21875 L 29.441406 56.523438 L 32.71875 50.820312 L 34.601562 51.90625 L 31.414062 57.445312 L 28.5 59.140625 L 28.5 59.527344 L 29.15625 59.90625 L 32.214844 58.136719 L 35.496094 52.425781 L 36.347656 52.917969 C 36.804688 53.179688 37.574219 53.179688 38.035156 52.917969 L 40.113281 51.707031 L 40.117188 51.707031 L 43.816406 58.136719 L 46.476562 59.679688 L 46.515625 73.785156 C 46.515625 73.972656 46.582031 74.105469 46.691406 74.171875 L 47.796875 74.8125 C 47.761719 74.796875 47.738281 74.753906 47.714844 74.71875 C 47.820312 74.867188 48.007812 74.902344 48.226562 74.773438 L 73.132812 60.339844 C 73.464844 60.144531 73.730469 59.679688 73.730469 59.296875 L 73.671875 39.582031 C 73.671875 39.394531 73.609375 39.261719 73.496094 39.195312 Z M 16.648438 46.640625 L 18.859375 42.789062 L 20.738281 43.875 L 18.523438 47.726562 Z M 19.417969 48.246094 L 21.628906 44.398438 L 23.511719 45.484375 L 21.296875 49.335938 Z M 22.1875 49.855469 L 24.40625 46.003906 L 26.28125 47.089844 L 24.070312 50.941406 Z M 26.839844 52.550781 L 24.960938 51.460938 L 27.179688 47.605469 L 29.050781 48.699219 Z M 28.652344 55.832031 L 28.25 56.066406 L 28.253906 54.070312 C 28.261719 53.710938 28.027344 53.292969 27.730469 53.082031 L 29.949219 49.210938 L 31.828125 50.300781 Z M 44.605469 57.445312 L 41.007812 51.179688 L 42.882812 50.09375 L 42.890625 50.09375 L 46.46875 56.324219 L 46.476562 58.527344 Z M 47.058594 53.023438 C 46.726562 53.214844 46.457031 53.683594 46.464844 54.070312 L 46.464844 54.242188 L 43.78125 49.570312 L 45.648438 48.476562 L 45.65625 48.480469 L 47.964844 52.496094 Z M 48.855469 51.980469 L 46.546875 47.957031 L 48.421875 46.863281 L 48.425781 46.867188 L 50.738281 50.890625 Z M 51.632812 50.375 L 49.316406 46.34375 L 51.183594 45.25 L 51.195312 45.257812 L 53.507812 49.289062 Z M 54.402344 48.769531 L 52.082031 44.730469 L 53.957031 43.636719 L 53.960938 43.644531 L 56.285156 47.679688 Z M 57.175781 47.160156 L 54.851562 43.117188 L 56.722656 42.023438 L 56.734375 42.03125 L 59.054688 46.074219 Z M 57.175781 47.160156 " fill-opacity="1" fill-rule="nonzero"/></g><g clip-path="url(#56e20fea4a)"><path fill="#9ad898" d="M 28.027344 0.742188 C 27.917969 0.679688 27.765625 0.6875 27.597656 0.78125 L 2.695312 15.21875 C 2.359375 15.410156 2.09375 15.875 2.09375 16.261719 L 2.152344 35.972656 C 2.152344 36.167969 2.21875 36.296875 2.324219 36.363281 L 1.21875 35.714844 C 1.109375 35.652344 1.042969 35.519531 1.042969 35.332031 L 0.988281 15.613281 C 0.984375 15.230469 1.253906 14.761719 1.585938 14.570312 L 26.488281 0.140625 C 26.660156 0.0390625 26.808594 0.03125 26.917969 0.0976562 Z M 28.027344 0.742188 " fill-opacity="1" fill-rule="nonzero"/></g><path fill="#75ca75" d="M 27.597656 0.785156 C 27.929688 0.589844 28.199219 0.746094 28.203125 1.128906 L 28.257812 20.84375 C 28.257812 21.226562 27.988281 21.691406 27.65625 21.886719 L 2.753906 36.320312 C 2.421875 36.511719 2.152344 36.355469 2.148438 35.976562 L 2.09375 16.261719 C 2.09375 15.878906 2.363281 15.410156 2.691406 15.21875 Z M 27.597656 0.785156 " fill-opacity="1" fill-rule="nonzero"/><path fill="#ffffff" d="M 3.714844 16.359375 C 3.71875 16.339844 3.761719 16.261719 3.792969 16.238281 L 26.558594 3.046875 L 26.605469 20.730469 C 26.601562 20.746094 26.554688 20.824219 26.523438 20.847656 L 3.761719 34.039062 Z M 3.714844 16.359375 " fill-opacity="1" fill-rule="nonzero"/><path fill="#d4dae8" d="M 11.09375 27.726562 C 11.09375 27.898438 10.972656 28.105469 10.824219 28.195312 L 6.875 30.484375 C 6.726562 30.566406 6.609375 30.5 6.609375 30.320312 L 6.570312 23.308594 C 6.570312 23.136719 6.691406 22.929688 6.839844 22.847656 L 10.78125 20.558594 C 10.9375 20.46875 11.054688 20.535156 11.054688 20.714844 Z M 11.09375 27.726562 " fill-opacity="1" fill-rule="nonzero"/><path fill="#d4dae8" d="M 18.300781 23.453125 C 18.300781 23.625 18.179688 23.835938 18.03125 23.925781 L 14.082031 26.214844 C 13.933594 26.296875 13.816406 26.226562 13.816406 26.050781 L 13.777344 19.039062 C 13.777344 18.867188 13.898438 18.65625 14.046875 18.574219 L 17.988281 16.285156 C 18.144531 16.199219 18.261719 16.265625 18.261719 16.445312 Z M 18.300781 23.453125 " fill-opacity="1" fill-rule="nonzero"/><path fill="#d4dae8" d="M 25.503906 19.183594 C 25.503906 19.355469 25.386719 19.566406 25.238281 19.652344 L 21.289062 21.941406 C 21.140625 22.023438 21.023438 21.957031 21.023438 21.777344 L 20.984375 14.765625 C 20.984375 14.597656 21.101562 14.386719 21.25 14.304688 L 25.191406 12.015625 C 25.347656 11.925781 25.46875 11.992188 25.46875 12.171875 Z M 25.503906 19.183594 " fill-opacity="1" fill-rule="nonzero"/><path fill="#4c7891" d="M 15.546875 13.5625 C 15.601562 13.617188 15.625 13.714844 15.625 13.851562 C 15.625 13.992188 15.601562 14.117188 15.546875 14.230469 C 15.496094 14.34375 15.417969 14.429688 15.3125 14.488281 C 15.210938 14.550781 15.128906 14.554688 15.082031 14.5 C 15.027344 14.449219 15 14.355469 15 14.214844 C 15 14.074219 15.027344 13.949219 15.078125 13.835938 C 15.128906 13.722656 15.207031 13.636719 15.308594 13.578125 C 15.417969 13.515625 15.492188 13.511719 15.546875 13.5625 Z M 15.453125 14.195312 C 15.484375 14.113281 15.5 14.027344 15.496094 13.925781 C 15.496094 13.824219 15.484375 13.753906 15.453125 13.710938 C 15.425781 13.667969 15.375 13.667969 15.3125 13.707031 C 15.246094 13.742188 15.199219 13.800781 15.171875 13.878906 C 15.140625 13.953125 15.125 14.046875 15.125 14.140625 C 15.125 14.242188 15.140625 14.3125 15.171875 14.351562 C 15.203125 14.394531 15.25 14.398438 15.3125 14.363281 C 15.378906 14.324219 15.425781 14.265625 15.453125 14.195312 " fill-opacity="1" fill-rule="nonzero"/><path fill="#4562ef" d="M 15.132812 11.863281 C 15.117188 11.917969 15.109375 11.976562 15.109375 12.027344 C 15.109375 12.097656 15.128906 12.15625 15.160156 12.195312 C 14.453125 12.734375 13.898438 13.703125 13.785156 14.582031 C 13.738281 14.574219 13.679688 14.585938 13.617188 14.621094 C 13.570312 14.648438 13.527344 14.683594 13.488281 14.726562 C 13.613281 13.671875 14.285156 12.503906 15.132812 11.863281 Z M 15.132812 11.863281 " fill-opacity="1" fill-rule="nonzero"/><path fill="#4c7891" d="M 14.902344 13.835938 L 14.902344 13.96875 L 14.582031 14.902344 L 14.441406 14.984375 L 14.757812 14.054688 L 14.480469 14.210938 L 14.484375 14.335938 L 14.367188 14.402344 L 14.367188 14.144531 Z M 14.902344 13.835938 " fill-opacity="1" fill-rule="nonzero"/><path fill="#4c7891" d="M 16.457031 13.484375 C 16.488281 13.507812 16.503906 13.546875 16.503906 13.597656 C 16.503906 13.65625 16.488281 13.714844 16.457031 13.769531 C 16.425781 13.828125 16.386719 13.867188 16.339844 13.894531 C 16.289062 13.925781 16.25 13.929688 16.222656 13.90625 C 16.191406 13.882812 16.171875 13.847656 16.171875 13.789062 C 16.171875 13.738281 16.191406 13.679688 16.21875 13.621094 C 16.25 13.566406 16.292969 13.519531 16.339844 13.492188 C 16.382812 13.464844 16.425781 13.464844 16.457031 13.484375 Z M 16.382812 13.738281 L 16.402344 13.660156 L 16.382812 13.609375 L 16.339844 13.609375 L 16.292969 13.664062 L 16.277344 13.734375 L 16.296875 13.789062 L 16.34375 13.789062 Z M 16.382812 13.738281 " fill-opacity="1" fill-rule="nonzero"/><path fill="#4c7891" d="M 16.324219 13.011719 L 16.464844 12.929688 L 15.90625 14.136719 L 15.765625 14.21875 Z M 16.324219 13.011719 " fill-opacity="1" fill-rule="nonzero"/><path fill="#4c7891" d="M 15.902344 13.640625 C 15.855469 13.667969 15.816406 13.667969 15.78125 13.648438 C 15.753906 13.625 15.738281 13.589844 15.738281 13.53125 C 15.738281 13.476562 15.75 13.417969 15.785156 13.359375 C 15.816406 13.300781 15.855469 13.261719 15.902344 13.234375 C 15.949219 13.207031 15.988281 13.203125 16.019531 13.222656 C 16.050781 13.246094 16.066406 13.285156 16.066406 13.339844 C 16.066406 13.394531 16.050781 13.449219 16.023438 13.507812 C 15.988281 13.566406 15.949219 13.613281 15.902344 13.640625 Z M 15.855469 13.402344 L 15.839844 13.472656 L 15.859375 13.527344 L 15.902344 13.527344 L 15.945312 13.476562 L 15.964844 13.402344 L 15.945312 13.351562 L 15.898438 13.351562 Z M 15.855469 13.402344 " fill-opacity="1" fill-rule="nonzero"/><path fill="#576cfb" d="M 15.425781 11.476562 C 16.601562 10.796875 17.5625 11.347656 17.566406 12.703125 C 17.570312 14.0625 16.613281 15.714844 15.441406 16.398438 C 14.261719 17.078125 13.304688 16.53125 13.300781 15.171875 C 13.300781 15.023438 13.378906 14.847656 13.488281 14.726562 C 13.527344 14.683594 13.570312 14.648438 13.617188 14.621094 C 13.679688 14.585938 13.738281 14.574219 13.785156 14.582031 C 13.875 14.597656 13.929688 14.679688 13.933594 14.808594 C 13.933594 15.761719 14.609375 16.148438 15.4375 15.667969 C 16.265625 15.1875 16.9375 14.023438 16.933594 13.066406 C 16.929688 12.113281 16.257812 11.730469 15.429688 12.210938 C 15.316406 12.273438 15.214844 12.265625 15.160156 12.195312 C 15.128906 12.15625 15.109375 12.097656 15.109375 12.027344 C 15.109375 11.976562 15.117188 11.917969 15.132812 11.867188 C 15.183594 11.707031 15.296875 11.554688 15.425781 11.476562 Z M 15.425781 11.476562 " fill-opacity="1" fill-rule="nonzero"/><path fill="#416e84" d="M 8.179688 17.832031 C 8.234375 17.886719 8.257812 17.980469 8.257812 18.121094 C 8.257812 18.257812 8.238281 18.382812 8.183594 18.5 C 8.128906 18.613281 8.054688 18.695312 7.949219 18.757812 C 7.84375 18.816406 7.765625 18.824219 7.714844 18.769531 C 7.664062 18.71875 7.636719 18.617188 7.636719 18.484375 C 7.636719 18.34375 7.660156 18.21875 7.714844 18.101562 C 7.761719 17.992188 7.84375 17.902344 7.945312 17.84375 C 8.050781 17.78125 8.128906 17.78125 8.179688 17.832031 Z M 8.089844 18.457031 C 8.117188 18.382812 8.132812 18.289062 8.132812 18.195312 C 8.132812 18.09375 8.117188 18.023438 8.085938 17.980469 C 8.058594 17.933594 8.011719 17.9375 7.945312 17.972656 C 7.886719 18.007812 7.835938 18.0625 7.804688 18.144531 C 7.777344 18.222656 7.761719 18.308594 7.761719 18.410156 C 7.761719 18.507812 7.777344 18.578125 7.808594 18.621094 C 7.835938 18.664062 7.886719 18.667969 7.949219 18.632812 C 8.011719 18.59375 8.0625 18.535156 8.089844 18.457031 " fill-opacity="1" fill-rule="nonzero"/><path fill="#4c7891" d="M 9.089844 17.753906 C 9.121094 17.769531 9.136719 17.808594 9.136719 17.867188 C 9.136719 17.925781 9.121094 17.976562 9.09375 18.035156 C 9.0625 18.089844 9.019531 18.136719 8.972656 18.164062 C 8.925781 18.191406 8.886719 18.195312 8.855469 18.175781 C 8.824219 18.152344 8.808594 18.117188 8.804688 18.058594 C 8.804688 18.007812 8.824219 17.945312 8.855469 17.890625 C 8.886719 17.832031 8.925781 17.785156 8.972656 17.761719 C 9.023438 17.730469 9.0625 17.730469 9.089844 17.753906 Z M 9.019531 18.003906 L 9.039062 17.929688 L 9.019531 17.878906 L 8.972656 17.878906 L 8.929688 17.929688 L 8.914062 18 L 8.933594 18.054688 L 8.976562 18.054688 Z M 9.019531 18.003906 " fill-opacity="1" fill-rule="nonzero"/><path fill="#416e84" d="M 8.960938 17.277344 L 9.101562 17.195312 L 8.542969 18.40625 L 8.402344 18.488281 Z M 8.960938 17.277344 " fill-opacity="1" fill-rule="nonzero"/><path fill="#416e84" d="M 8.539062 17.902344 C 8.492188 17.929688 8.453125 17.933594 8.421875 17.914062 C 8.386719 17.894531 8.371094 17.855469 8.371094 17.800781 C 8.371094 17.746094 8.386719 17.6875 8.421875 17.628906 C 8.449219 17.570312 8.488281 17.527344 8.539062 17.5 C 8.585938 17.472656 8.621094 17.472656 8.65625 17.492188 C 8.6875 17.511719 8.703125 17.550781 8.703125 17.605469 C 8.703125 17.664062 8.6875 17.71875 8.65625 17.777344 C 8.625 17.835938 8.585938 17.875 8.539062 17.902344 Z M 8.492188 17.664062 L 8.472656 17.742188 L 8.492188 17.792969 L 8.539062 17.792969 L 8.582031 17.742188 L 8.601562 17.667969 L 8.582031 17.613281 L 8.535156 17.613281 Z M 8.492188 17.664062 " fill-opacity="1" fill-rule="nonzero"/><path fill="#6eba6e" d="M 7.765625 16.136719 C 7.75 16.191406 7.738281 16.246094 7.738281 16.296875 C 7.738281 16.371094 7.757812 16.425781 7.789062 16.464844 C 7.082031 17.003906 6.527344 17.972656 6.414062 18.855469 C 6.363281 18.847656 6.304688 18.859375 6.242188 18.894531 C 6.199219 18.921875 6.15625 18.957031 6.117188 19 C 6.242188 17.945312 6.914062 16.773438 7.765625 16.136719 Z M 7.765625 16.136719 " fill-opacity="1" fill-rule="nonzero"/><path fill="#75ca75" d="M 8.054688 15.75 C 9.230469 15.066406 10.191406 15.613281 10.195312 16.972656 C 10.199219 18.328125 9.246094 19.988281 8.066406 20.667969 C 6.894531 21.351562 5.933594 20.800781 5.929688 19.445312 C 5.929688 19.296875 6.003906 19.121094 6.117188 19 C 6.15625 18.957031 6.199219 18.921875 6.242188 18.894531 C 6.304688 18.859375 6.363281 18.847656 6.414062 18.855469 C 6.503906 18.867188 6.5625 18.949219 6.5625 19.078125 C 6.566406 20.027344 7.238281 20.421875 8.066406 19.941406 C 8.894531 19.460938 9.566406 18.292969 9.5625 17.339844 C 9.558594 16.382812 8.882812 16 8.054688 16.476562 C 7.945312 16.542969 7.84375 16.53125 7.789062 16.464844 C 7.757812 16.425781 7.738281 16.371094 7.738281 16.296875 C 7.738281 16.246094 7.75 16.191406 7.765625 16.136719 C 7.8125 15.980469 7.925781 15.824219 8.054688 15.75 Z M 8.054688 15.75 " fill-opacity="1" fill-rule="nonzero"/><path fill="#4c7891" d="M 23.683594 8.75 C 23.714844 8.769531 23.730469 8.808594 23.730469 8.863281 C 23.730469 8.917969 23.714844 8.976562 23.683594 9.035156 C 23.652344 9.09375 23.613281 9.132812 23.5625 9.160156 C 23.519531 9.1875 23.480469 9.191406 23.445312 9.171875 C 23.414062 9.152344 23.398438 9.113281 23.398438 9.054688 C 23.398438 9 23.414062 8.945312 23.445312 8.886719 C 23.480469 8.828125 23.515625 8.785156 23.566406 8.753906 C 23.613281 8.730469 23.648438 8.730469 23.683594 8.75 Z M 23.613281 9 L 23.628906 8.925781 L 23.613281 8.875 L 23.566406 8.875 L 23.519531 8.925781 L 23.503906 9 L 23.523438 9.054688 L 23.566406 9.054688 Z M 23.613281 9 " fill-opacity="1" fill-rule="nonzero"/><path fill="#4c7891" d="M 23.550781 8.277344 L 23.691406 8.195312 L 23.132812 9.402344 L 22.992188 9.484375 Z M 23.550781 8.277344 " fill-opacity="1" fill-rule="nonzero"/><path fill="#4c7891" d="M 22.769531 8.832031 C 22.824219 8.882812 22.851562 8.976562 22.851562 9.117188 C 22.851562 9.257812 22.824219 9.382812 22.773438 9.496094 C 22.722656 9.609375 22.644531 9.695312 22.542969 9.753906 C 22.433594 9.816406 22.359375 9.820312 22.304688 9.769531 C 22.257812 9.714844 22.230469 9.617188 22.230469 9.480469 C 22.226562 9.339844 22.253906 9.214844 22.304688 9.101562 C 22.355469 8.988281 22.433594 8.902344 22.539062 8.84375 C 22.640625 8.78125 22.722656 8.777344 22.769531 8.832031 Z M 22.683594 9.457031 C 22.710938 9.378906 22.722656 9.292969 22.722656 9.191406 C 22.722656 9.089844 22.710938 9.019531 22.679688 8.976562 C 22.648438 8.9375 22.605469 8.929688 22.539062 8.96875 C 22.476562 9.007812 22.425781 9.066406 22.398438 9.144531 C 22.367188 9.21875 22.355469 9.308594 22.355469 9.40625 C 22.355469 9.507812 22.371094 9.578125 22.402344 9.617188 C 22.425781 9.660156 22.476562 9.664062 22.542969 9.625 C 22.605469 9.589844 22.652344 9.53125 22.683594 9.457031 " fill-opacity="1" fill-rule="nonzero"/><path fill="#4c7891" d="M 21.988281 9.578125 C 22.066406 9.589844 22.101562 9.644531 22.101562 9.742188 C 22.101562 9.820312 22.074219 9.898438 22.023438 9.980469 C 21.972656 10.058594 21.902344 10.125 21.816406 10.175781 C 21.730469 10.222656 21.664062 10.238281 21.609375 10.21875 C 21.558594 10.195312 21.53125 10.152344 21.53125 10.074219 C 21.53125 9.976562 21.566406 9.878906 21.640625 9.78125 C 21.585938 9.757812 21.554688 9.71875 21.554688 9.648438 C 21.554688 9.582031 21.582031 9.511719 21.628906 9.4375 C 21.679688 9.367188 21.742188 9.308594 21.8125 9.265625 C 21.890625 9.222656 21.949219 9.210938 22 9.226562 C 22.046875 9.242188 22.070312 9.285156 22.070312 9.351562 C 22.074219 9.417969 22.046875 9.492188 21.988281 9.578125 Z M 21.921875 9.945312 C 21.957031 9.90625 21.972656 9.859375 21.972656 9.808594 C 21.972656 9.765625 21.957031 9.738281 21.925781 9.734375 C 21.890625 9.726562 21.855469 9.734375 21.8125 9.757812 C 21.773438 9.78125 21.738281 9.816406 21.703125 9.863281 C 21.675781 9.902344 21.660156 9.949219 21.660156 9.992188 C 21.660156 10.042969 21.675781 10.066406 21.707031 10.070312 L 21.816406 10.046875 Z M 21.71875 9.476562 L 21.675781 9.59375 L 21.71875 9.664062 L 21.8125 9.648438 L 21.914062 9.550781 L 21.949219 9.433594 L 21.914062 9.363281 L 21.8125 9.382812 Z M 21.71875 9.476562 " fill-opacity="1" fill-rule="nonzero"/><path fill="#f9bb4a" d="M 22.613281 6.765625 C 23.792969 6.082031 24.753906 6.632812 24.757812 7.988281 C 24.761719 9.347656 23.804688 11 22.628906 11.683594 C 21.453125 12.367188 20.492188 11.820312 20.488281 10.460938 C 20.488281 10.257812 20.628906 10.011719 20.800781 9.910156 C 20.972656 9.808594 21.121094 9.890625 21.121094 10.09375 C 21.125 11.050781 21.800781 11.433594 22.625 10.957031 C 23.453125 10.476562 24.125 9.3125 24.121094 8.355469 C 24.117188 7.398438 23.445312 7.019531 22.617188 7.496094 C 22.441406 7.601562 22.300781 7.511719 22.296875 7.3125 C 22.296875 7.113281 22.4375 6.867188 22.613281 6.765625 Z M 22.613281 6.765625 " fill-opacity="1" fill-rule="nonzero"/><path fill="#efac41" d="M 22.324219 7.152344 C 22.308594 7.207031 22.296875 7.261719 22.296875 7.3125 C 22.296875 7.382812 22.316406 7.441406 22.347656 7.480469 C 21.640625 8.019531 21.085938 8.988281 20.972656 9.871094 C 20.921875 9.863281 20.863281 9.875 20.800781 9.910156 C 20.757812 9.933594 20.71875 9.96875 20.679688 10.011719 C 20.804688 8.957031 21.476562 7.789062 22.324219 7.152344 Z M 22.324219 7.152344 " fill-opacity="1" fill-rule="nonzero"/><path fill="#4c7891" d="M 23.128906 8.902344 C 23.082031 8.929688 23.042969 8.933594 23.011719 8.910156 C 22.980469 8.890625 22.964844 8.855469 22.964844 8.796875 C 22.964844 8.738281 22.980469 8.683594 23.011719 8.625 C 23.039062 8.570312 23.082031 8.527344 23.128906 8.5 C 23.175781 8.472656 23.214844 8.46875 23.246094 8.488281 C 23.277344 8.511719 23.296875 8.546875 23.296875 8.605469 C 23.296875 8.65625 23.277344 8.71875 23.246094 8.773438 C 23.214844 8.832031 23.175781 8.878906 23.128906 8.902344 Z M 23.082031 8.667969 L 23.0625 8.738281 L 23.082031 8.792969 L 23.128906 8.792969 L 23.175781 8.742188 L 23.191406 8.667969 L 23.175781 8.613281 L 23.128906 8.613281 Z M 23.082031 8.667969 " fill-opacity="1" fill-rule="nonzero"/><path fill="#416e84" d="M 7.46875 18.140625 L 7.472656 18.273438 L 7.148438 18.460938 L 7.148438 18.675781 C 7.179688 18.640625 7.214844 18.609375 7.253906 18.589844 C 7.328125 18.546875 7.386719 18.535156 7.441406 18.554688 C 7.496094 18.574219 7.519531 18.625 7.519531 18.714844 C 7.519531 18.796875 7.492188 18.882812 7.4375 18.96875 C 7.386719 19.058594 7.316406 19.125 7.242188 19.167969 C 7.140625 19.226562 7.054688 19.238281 6.992188 19.191406 L 7.0625 19.042969 L 7.085938 19.054688 L 7.144531 19.054688 L 7.25 19.019531 L 7.347656 18.925781 C 7.378906 18.882812 7.394531 18.839844 7.390625 18.789062 C 7.390625 18.742188 7.378906 18.710938 7.34375 18.703125 C 7.3125 18.695312 7.269531 18.707031 7.226562 18.734375 C 7.175781 18.761719 7.128906 18.800781 7.085938 18.855469 L 7.03125 18.820312 L 7.03125 18.394531 Z M 7.46875 18.140625 " fill-opacity="1" fill-rule="nonzero"/><g clip-path="url(#81269ecf32)"><path fill="#f9607f" d="M 46.691406 0.742188 C 46.800781 0.679688 46.953125 0.6875 47.121094 0.78125 L 72.023438 15.21875 C 72.359375 15.410156 72.625 15.875 72.625 16.261719 L 72.566406 35.972656 C 72.566406 36.167969 72.5 36.296875 72.394531 36.363281 L 73.5 35.714844 C 73.609375 35.652344 73.675781 35.519531 73.675781 35.332031 L 73.730469 15.613281 C 73.734375 15.230469 73.464844 14.761719 73.132812 14.570312 L 48.230469 0.140625 C 48.058594 0.0390625 47.910156 0.03125 47.800781 0.0976562 Z M 46.691406 0.742188 " fill-opacity="1" fill-rule="nonzero"/></g><path fill="#f34858" d="M 47.121094 0.785156 C 46.789062 0.589844 46.519531 0.746094 46.515625 1.128906 L 46.460938 20.84375 C 46.460938 21.226562 46.730469 21.691406 47.0625 21.886719 L 71.964844 36.320312 C 72.296875 36.511719 72.566406 36.355469 72.570312 35.976562 L 72.625 16.261719 C 72.625 15.878906 72.355469 15.410156 72.027344 15.21875 Z M 47.121094 0.785156 " fill-opacity="1" fill-rule="nonzero"/><path fill="#ffffff" d="M 71.003906 16.359375 C 71 16.339844 70.953125 16.261719 70.925781 16.238281 L 48.160156 3.046875 L 48.109375 20.730469 C 48.117188 20.746094 48.164062 20.824219 48.191406 20.847656 L 70.957031 34.039062 Z M 71.003906 16.359375 " fill-opacity="1" fill-rule="nonzero"/><path fill="#748bfd" d="M 54 9.632812 C 53.996094 10.25 53.609375 10.539062 53.105469 10.359375 L 53.078125 18.871094 L 53.078125 18.9375 L 52.664062 18.695312 L 52.664062 18.382812 L 52.6875 10.117188 C 52.179688 9.710938 51.796875 8.972656 51.800781 8.355469 C 51.800781 7.65625 52.296875 7.371094 52.902344 7.722656 C 53.507812 8.074219 54 8.929688 54 9.632812 Z M 52.894531 9.785156 C 53.273438 10.003906 53.582031 9.828125 53.582031 9.390625 C 53.585938 8.953125 53.277344 8.421875 52.898438 8.203125 C 52.523438 7.984375 52.214844 8.160156 52.214844 8.597656 C 52.214844 9.035156 52.519531 9.566406 52.894531 9.785156 " fill-opacity="1" fill-rule="nonzero"/><path fill="#e4e8f4" d="M 59.210938 12.652344 C 59.207031 13.269531 58.824219 13.5625 58.3125 13.378906 L 58.289062 22.1875 L 58.285156 23.636719 L 57.867188 23.398438 L 57.875 21.539062 L 57.898438 13.136719 C 57.390625 12.730469 57.007812 11.992188 57.007812 11.375 C 57.011719 10.675781 57.507812 10.390625 58.113281 10.742188 C 58.71875 11.09375 59.210938 11.949219 59.210938 12.652344 Z M 58.109375 12.804688 C 58.484375 13.023438 58.792969 12.847656 58.792969 12.410156 C 58.792969 11.972656 58.488281 11.441406 58.113281 11.222656 C 57.734375 11.003906 57.429688 11.183594 57.429688 11.617188 C 57.425781 12.054688 57.730469 12.585938 58.109375 12.804688 " fill-opacity="1" fill-rule="nonzero"/><path fill="#f9607f" d="M 64.421875 15.671875 C 64.421875 16.289062 64.035156 16.582031 63.527344 16.402344 L 63.5 26.328125 L 63.5 26.660156 L 63.082031 26.417969 L 63.085938 24.996094 L 63.109375 16.160156 C 62.605469 15.753906 62.222656 15.015625 62.222656 14.398438 C 62.226562 13.695312 62.71875 13.410156 63.324219 13.761719 C 63.933594 14.113281 64.425781 14.972656 64.421875 15.671875 Z M 63.320312 15.824219 C 63.699219 16.042969 64 15.867188 64.003906 15.429688 C 64.003906 14.992188 63.703125 14.460938 63.324219 14.242188 C 62.949219 14.023438 62.640625 14.203125 62.640625 14.636719 C 62.636719 15.074219 62.945312 15.609375 63.320312 15.824219 " fill-opacity="1" fill-rule="nonzero"/><path fill="#9ad898" d="M 69.632812 18.691406 C 69.628906 19.308594 69.242188 19.601562 68.738281 19.421875 L 68.710938 29.273438 L 68.707031 30.15625 L 68.289062 29.914062 L 68.292969 29.46875 L 68.320312 19.179688 C 67.816406 18.773438 67.429688 18.035156 67.433594 17.417969 C 67.433594 16.714844 67.929688 16.433594 68.539062 16.785156 C 69.140625 17.132812 69.632812 17.992188 69.632812 18.691406 Z M 68.53125 18.847656 C 68.90625 19.0625 69.214844 18.886719 69.214844 18.449219 C 69.21875 18.015625 68.910156 17.480469 68.535156 17.265625 C 68.15625 17.042969 67.851562 17.222656 67.847656 17.65625 C 67.847656 18.09375 68.152344 18.628906 68.53125 18.847656 " fill-opacity="1" fill-rule="nonzero"/><path fill="#9ad898" d="M 70.257812 32.449219 L 48.660156 19.933594 C 48.84375 19.410156 49.039062 17.054688 49.226562 16.527344 C 49.355469 16.167969 49.492188 15.785156 49.757812 15.578125 C 50.171875 15.253906 50.839844 15.433594 51.492188 15.816406 C 51.679688 15.921875 51.863281 16.046875 52.035156 16.175781 C 53.351562 17.148438 54.578125 18.652344 55.4375 20.308594 C 55.667969 20.777344 55.925781 21.304688 56.292969 21.554688 C 56.3125 21.570312 56.328125 21.578125 56.339844 21.589844 C 56.679688 21.785156 56.972656 21.648438 57.230469 21.511719 C 57.625 21.28125 58.027344 21.066406 58.414062 20.820312 C 58.601562 20.710938 58.792969 20.613281 59.046875 20.65625 C 59.160156 20.667969 59.277344 20.710938 59.382812 20.777344 C 59.914062 21.085938 60.421875 21.863281 60.71875 22.585938 C 61.074219 23.464844 61.253906 24.355469 61.722656 25.191406 C 61.808594 25.371094 61.921875 25.539062 62.050781 25.617188 C 62.074219 25.625 62.085938 25.636719 62.109375 25.644531 C 62.273438 25.726562 62.382812 25.609375 62.46875 25.488281 C 62.742188 25.121094 63.003906 24.746094 63.277344 24.378906 C 63.40625 24.207031 63.558594 24.019531 63.765625 23.996094 C 63.902344 23.988281 64.046875 24.039062 64.1875 24.117188 C 64.410156 24.25 64.632812 24.472656 64.820312 24.722656 C 65.136719 25.140625 65.34375 25.636719 65.558594 26.105469 C 65.882812 26.832031 66.191406 27.554688 66.527344 28.289062 C 66.664062 28.589844 66.835938 28.957031 67.109375 29.144531 C 67.410156 29.316406 67.625 29.042969 67.710938 28.75 C 67.777344 28.441406 67.789062 28.042969 68.007812 27.886719 C 68.148438 27.785156 68.351562 27.820312 68.566406 27.941406 C 68.773438 28.066406 68.988281 28.273438 69.152344 28.511719 C 69.496094 28.992188 69.683594 29.5625 69.828125 30.101562 C 69.949219 30.652344 70.042969 31.910156 70.257812 32.449219 Z M 70.257812 32.449219 " fill-opacity="1" fill-rule="nonzero"/><path fill="#e4e8f4" d="M 64.136719 39.34375 L 63.480469 38.960938 L 60.566406 40.648438 L 61.226562 41.03125 Z M 64.136719 39.34375 " fill-opacity="1" fill-rule="nonzero"/><path fill="#666970" d="M 61.226562 41.03125 L 60.566406 40.648438 L 56.84375 38.519531 L 57.5 38.902344 Z M 61.226562 41.03125 " fill-opacity="1" fill-rule="nonzero"/><path fill="#9ca0ab" d="M 55.910156 39.824219 L 55.253906 39.441406 L 55.253906 39.824219 L 55.914062 40.207031 Z M 55.910156 39.824219 " fill-opacity="1" fill-rule="nonzero"/><path fill="#e4e8f4" d="M 57.5 38.902344 L 56.84375 38.519531 L 55.253906 39.441406 L 55.910156 39.824219 Z M 57.5 38.902344 " fill-opacity="1" fill-rule="nonzero"/><path fill="#cad0dd" d="M 55.910156 39.824219 L 55.914062 40.207031 L 57.367188 39.367188 L 61.089844 41.496094 L 64.140625 39.726562 L 64.136719 39.34375 L 61.226562 41.03125 L 57.5 38.902344 Z M 55.910156 39.824219 " fill-opacity="1" fill-rule="nonzero"/><path fill="#e4e8f4" d="M 61.371094 37.730469 L 60.710938 37.347656 L 57.800781 39.035156 L 58.457031 39.417969 Z M 61.371094 37.730469 " fill-opacity="1" fill-rule="nonzero"/><path fill="#666970" d="M 58.457031 39.417969 L 57.800781 39.035156 L 54.074219 36.90625 L 54.734375 37.289062 Z M 58.457031 39.417969 " fill-opacity="1" fill-rule="nonzero"/><path fill="#9ca0ab" d="M 53.144531 38.210938 L 52.484375 37.828125 L 52.488281 38.210938 L 53.144531 38.59375 Z M 53.144531 38.210938 " fill-opacity="1" fill-rule="nonzero"/><path fill="#e4e8f4" d="M 54.734375 37.289062 L 54.074219 36.90625 L 52.484375 37.828125 L 53.144531 38.210938 Z M 54.734375 37.289062 " fill-opacity="1" fill-rule="nonzero"/><path fill="#cad0dd" d="M 53.144531 38.210938 L 53.144531 38.59375 L 54.597656 37.753906 L 58.320312 39.882812 L 61.371094 38.113281 L 61.367188 37.730469 L 58.457031 39.417969 L 54.734375 37.289062 Z M 53.144531 38.210938 " fill-opacity="1" fill-rule="nonzero"/><path fill="#e4e8f4" d="M 58.601562 36.117188 L 57.941406 35.734375 L 55.03125 37.421875 L 55.6875 37.804688 Z M 58.601562 36.117188 " fill-opacity="1" fill-rule="nonzero"/><path fill="#666970" d="M 55.6875 37.804688 L 55.03125 37.421875 L 51.308594 35.292969 L 51.964844 35.675781 Z M 55.6875 37.804688 " fill-opacity="1" fill-rule="nonzero"/><path fill="#9ca0ab" d="M 50.375 36.597656 L 49.71875 36.214844 L 49.71875 36.597656 L 50.375 36.980469 Z M 50.375 36.597656 " fill-opacity="1" fill-rule="nonzero"/><path fill="#e4e8f4" d="M 51.964844 35.675781 L 51.308594 35.292969 L 49.71875 36.214844 L 50.375 36.597656 Z M 51.964844 35.675781 " fill-opacity="1" fill-rule="nonzero"/><path fill="#cad0dd" d="M 50.375 36.597656 L 50.375 36.980469 L 51.828125 36.140625 L 55.550781 38.269531 L 58.601562 36.5 L 58.601562 36.117188 L 55.6875 37.804688 L 51.964844 35.675781 Z M 50.375 36.597656 " fill-opacity="1" fill-rule="nonzero"/><path fill="#e4e8f4" d="M 55.832031 34.503906 L 55.175781 34.121094 L 52.261719 35.808594 L 52.917969 36.191406 Z M 55.832031 34.503906 " fill-opacity="1" fill-rule="nonzero"/><path fill="#666970" d="M 52.917969 36.191406 L 52.261719 35.808594 L 48.539062 33.679688 L 49.195312 34.0625 Z M 52.917969 36.191406 " fill-opacity="1" fill-rule="nonzero"/><path fill="#9ca0ab" d="M 47.605469 34.984375 L 46.949219 34.601562 L 46.949219 34.984375 L 47.605469 35.367188 Z M 47.605469 34.984375 " fill-opacity="1" fill-rule="nonzero"/><path fill="#e4e8f4" d="M 49.195312 34.0625 L 48.539062 33.679688 L 46.949219 34.601562 L 47.605469 34.984375 Z M 49.195312 34.0625 " fill-opacity="1" fill-rule="nonzero"/><path fill="#cad0dd" d="M 47.605469 34.984375 L 47.605469 35.367188 L 49.058594 34.527344 L 52.785156 36.65625 L 55.832031 34.886719 L 55.832031 34.503906 L 52.917969 36.191406 L 49.195312 34.0625 Z M 47.605469 34.984375 " fill-opacity="1" fill-rule="nonzero"/><path fill="#e4e8f4" d="M 53.0625 32.890625 L 52.40625 32.507812 L 49.492188 34.195312 L 50.152344 34.578125 Z M 53.0625 32.890625 " fill-opacity="1" fill-rule="nonzero"/><path fill="#666970" d="M 50.152344 34.578125 L 49.492188 34.195312 L 45.769531 32.066406 L 46.429688 32.449219 Z M 50.152344 34.578125 " fill-opacity="1" fill-rule="nonzero"/><path fill="#9ca0ab" d="M 44.835938 33.371094 L 44.179688 32.988281 L 44.179688 33.371094 L 44.839844 33.753906 Z M 44.835938 33.371094 " fill-opacity="1" fill-rule="nonzero"/><path fill="#e4e8f4" d="M 46.429688 32.449219 L 45.769531 32.066406 L 44.179688 32.988281 L 44.835938 33.371094 Z M 46.429688 32.449219 " fill-opacity="1" fill-rule="nonzero"/><path fill="#cad0dd" d="M 44.835938 33.371094 L 44.839844 33.753906 L 46.292969 32.914062 L 50.015625 35.042969 L 53.066406 33.273438 L 53.0625 32.890625 L 50.152344 34.578125 L 46.429688 32.449219 Z M 44.835938 33.371094 " fill-opacity="1" fill-rule="nonzero"/><path fill="#e4e8f4" d="M 50.296875 31.277344 L 49.636719 30.894531 L 46.726562 32.582031 L 47.382812 32.964844 Z M 50.296875 31.277344 " fill-opacity="1" fill-rule="nonzero"/><path fill="#666970" d="M 47.382812 32.964844 L 46.726562 32.582031 L 43.003906 30.453125 L 43.660156 30.835938 Z M 47.382812 32.964844 " fill-opacity="1" fill-rule="nonzero"/><path fill="#9ca0ab" d="M 42.070312 31.757812 L 41.410156 31.375 L 41.414062 31.757812 L 42.070312 32.140625 Z M 42.070312 31.757812 " fill-opacity="1" fill-rule="nonzero"/><path fill="#e4e8f4" d="M 43.660156 30.835938 L 43.003906 30.453125 L 41.410156 31.375 L 42.070312 31.757812 Z M 43.660156 30.835938 " fill-opacity="1" fill-rule="nonzero"/><path fill="#cad0dd" d="M 42.070312 31.757812 L 42.070312 32.140625 L 43.523438 31.300781 L 47.246094 33.429688 L 50.296875 31.660156 L 50.296875 31.277344 L 47.382812 32.964844 L 43.660156 30.835938 Z M 42.070312 31.757812 " fill-opacity="1" fill-rule="nonzero"/><path fill="#e4e8f4" d="M 47.527344 29.664062 L 46.871094 29.28125 L 43.957031 30.96875 L 44.613281 31.351562 Z M 47.527344 29.664062 " fill-opacity="1" fill-rule="nonzero"/><path fill="#666970" d="M 44.613281 31.351562 L 43.957031 30.96875 L 40.234375 28.839844 L 40.890625 29.222656 Z M 44.613281 31.351562 " fill-opacity="1" fill-rule="nonzero"/><path fill="#9ca0ab" d="M 39.300781 30.144531 L 38.644531 29.757812 L 38.644531 30.144531 L 39.300781 30.527344 Z M 39.300781 30.144531 " fill-opacity="1" fill-rule="nonzero"/><path fill="#e4e8f4" d="M 40.890625 29.222656 L 40.234375 28.839844 L 38.644531 29.761719 L 39.300781 30.144531 Z M 40.890625 29.222656 " fill-opacity="1" fill-rule="nonzero"/><path fill="#cad0dd" d="M 39.300781 30.144531 L 39.300781 30.527344 L 40.753906 29.6875 L 44.476562 31.816406 L 47.527344 30.046875 L 47.527344 29.664062 L 44.613281 31.351562 L 40.890625 29.222656 Z M 39.300781 30.144531 " fill-opacity="1" fill-rule="nonzero"/><path fill="#416e84" d="M 57.570312 37.464844 L 57.539062 41.25 C 57.539062 41.4375 57.433594 41.605469 57.203125 41.742188 L 38.035156 52.917969 C 37.574219 53.179688 36.804688 53.179688 36.347656 52.917969 L 17.054688 41.742188 C 16.808594 41.605469 16.703125 41.421875 16.703125 41.234375 L 16.734375 37.453125 C 16.734375 37.636719 16.839844 37.820312 17.085938 37.945312 L 57.234375 37.945312 C 57.460938 37.820312 57.570312 37.636719 57.570312 37.464844 Z M 57.570312 37.464844 " fill-opacity="1" fill-rule="nonzero"/><path fill="#e4e8f4" d="M 38.667969 50.480469 L 39.324219 50.097656 L 40.917969 51.019531 L 40.257812 51.402344 Z M 38.667969 50.480469 " fill-opacity="1" fill-rule="nonzero"/><path fill="#d4dae8" d="M 40.257812 51.402344 L 40.917969 51.019531 L 44.609375 57.449219 L 43.953125 57.832031 Z M 40.257812 51.402344 " fill-opacity="1" fill-rule="nonzero"/><path fill="#9ca0ab" d="M 46.871094 59.523438 L 47.527344 59.140625 L 47.527344 59.523438 L 46.871094 59.910156 Z M 46.871094 59.523438 " fill-opacity="1" fill-rule="nonzero"/><path fill="#e4e8f4" d="M 43.953125 57.832031 L 44.609375 57.449219 L 47.527344 59.140625 L 46.871094 59.523438 Z M 43.953125 57.832031 " fill-opacity="1" fill-rule="nonzero"/><path fill="#cad0dd" d="M 40.257812 51.402344 L 43.953125 57.832031 L 46.871094 59.523438 L 46.867188 59.910156 L 43.8125 58.136719 L 40.121094 51.710938 L 38.667969 50.867188 L 38.667969 50.480469 Z M 40.257812 51.402344 " fill-opacity="1" fill-rule="nonzero"/><path fill="#e4e8f4" d="M 11.890625 39.34375 L 12.546875 38.960938 L 15.460938 40.648438 L 14.800781 41.03125 Z M 11.890625 39.34375 " fill-opacity="1" fill-rule="nonzero"/><path fill="#666970" d="M 14.800781 41.03125 L 15.460938 40.648438 L 19.183594 38.519531 L 18.523438 38.902344 Z M 14.800781 41.03125 " fill-opacity="1" fill-rule="nonzero"/><path fill="#9ca0ab" d="M 20.113281 39.824219 L 20.773438 39.441406 L 20.773438 39.824219 L 20.113281 40.207031 Z M 20.113281 39.824219 " fill-opacity="1" fill-rule="nonzero"/><path fill="#e4e8f4" d="M 18.523438 38.902344 L 19.183594 38.519531 L 20.773438 39.441406 L 20.117188 39.824219 Z M 18.523438 38.902344 " fill-opacity="1" fill-rule="nonzero"/><path fill="#cad0dd" d="M 20.113281 39.824219 L 20.113281 40.207031 L 18.660156 39.367188 L 14.9375 41.496094 L 11.886719 39.726562 L 11.890625 39.34375 L 14.800781 41.03125 L 18.523438 38.902344 Z M 20.113281 39.824219 " fill-opacity="1" fill-rule="nonzero"/><path fill="#e4e8f4" d="M 41.4375 48.871094 L 42.09375 48.484375 L 43.683594 49.40625 L 43.027344 49.789062 Z M 41.4375 48.871094 " fill-opacity="1" fill-rule="nonzero"/><path fill="#d4dae8" d="M 43.027344 49.789062 L 43.683594 49.40625 L 47.378906 55.835938 L 46.71875 56.21875 Z M 43.027344 49.789062 " fill-opacity="1" fill-rule="nonzero"/><path fill="#9ca0ab" d="M 49.640625 57.910156 L 50.296875 57.527344 L 50.296875 57.910156 L 49.636719 58.296875 Z M 49.640625 57.910156 " fill-opacity="1" fill-rule="nonzero"/><path fill="#e4e8f4" d="M 46.71875 56.21875 L 47.378906 55.835938 L 50.296875 57.527344 L 49.640625 57.910156 Z M 46.71875 56.21875 " fill-opacity="1" fill-rule="nonzero"/><path fill="#cad0dd" d="M 43.027344 49.789062 L 46.71875 56.21875 L 49.640625 57.910156 L 49.636719 58.296875 L 46.582031 56.523438 L 42.890625 50.097656 L 41.4375 49.253906 L 41.4375 48.867188 Z M 43.027344 49.789062 " fill-opacity="1" fill-rule="nonzero"/><path fill="#e4e8f4" d="M 14.65625 37.730469 L 15.316406 37.347656 L 18.226562 39.035156 L 17.570312 39.417969 Z M 14.65625 37.730469 " fill-opacity="1" fill-rule="nonzero"/><path fill="#666970" d="M 17.570312 39.417969 L 18.226562 39.035156 L 21.949219 36.90625 L 21.292969 37.289062 Z M 17.570312 39.417969 " fill-opacity="1" fill-rule="nonzero"/><path fill="#9ca0ab" d="M 22.882812 38.210938 L 23.542969 37.828125 L 23.539062 38.210938 L 22.882812 38.59375 Z M 22.882812 38.210938 " fill-opacity="1" fill-rule="nonzero"/><path fill="#e4e8f4" d="M 21.292969 37.289062 L 21.949219 36.90625 L 23.542969 37.828125 L 22.882812 38.210938 Z M 21.292969 37.289062 " fill-opacity="1" fill-rule="nonzero"/><path fill="#cad0dd" d="M 22.882812 38.210938 L 22.882812 38.59375 L 21.429688 37.753906 L 17.707031 39.882812 L 14.65625 38.113281 L 14.65625 37.730469 L 17.570312 39.417969 L 21.292969 37.289062 Z M 22.882812 38.210938 " fill-opacity="1" fill-rule="nonzero"/><path fill="#e4e8f4" d="M 44.207031 47.257812 L 44.863281 46.871094 L 46.453125 47.792969 L 45.796875 48.175781 Z M 44.207031 47.257812 " fill-opacity="1" fill-rule="nonzero"/><path fill="#d4dae8" d="M 45.796875 48.175781 L 46.453125 47.792969 L 50.144531 54.222656 L 49.488281 54.605469 Z M 45.796875 48.175781 " fill-opacity="1" fill-rule="nonzero"/><path fill="#9ca0ab" d="M 52.40625 56.296875 L 53.066406 55.914062 L 53.0625 56.296875 L 52.40625 56.683594 Z M 52.40625 56.296875 " fill-opacity="1" fill-rule="nonzero"/><path fill="#e4e8f4" d="M 49.488281 54.605469 L 50.144531 54.222656 L 53.066406 55.914062 L 52.40625 56.296875 Z M 49.488281 54.605469 " fill-opacity="1" fill-rule="nonzero"/><path fill="#cad0dd" d="M 45.796875 48.175781 L 49.488281 54.605469 L 52.40625 56.296875 L 52.40625 56.683594 L 49.351562 54.910156 L 45.65625 48.484375 L 44.203125 47.640625 L 44.207031 47.253906 Z M 45.796875 48.175781 " fill-opacity="1" fill-rule="nonzero"/><path fill="#e4e8f4" d="M 17.425781 36.117188 L 18.082031 35.734375 L 20.996094 37.421875 L 20.339844 37.804688 Z M 17.425781 36.117188 " fill-opacity="1" fill-rule="nonzero"/><path fill="#666970" d="M 20.339844 37.804688 L 20.996094 37.421875 L 24.71875 35.292969 L 24.0625 35.675781 Z M 20.339844 37.804688 " fill-opacity="1" fill-rule="nonzero"/><path fill="#9ca0ab" d="M 25.652344 36.597656 L 26.308594 36.214844 L 26.308594 36.597656 L 25.652344 36.980469 Z M 25.652344 36.597656 " fill-opacity="1" fill-rule="nonzero"/><path fill="#e4e8f4" d="M 24.0625 35.675781 L 24.71875 35.292969 L 26.308594 36.214844 L 25.652344 36.597656 Z M 24.0625 35.675781 " fill-opacity="1" fill-rule="nonzero"/><path fill="#cad0dd" d="M 25.652344 36.597656 L 25.652344 36.980469 L 24.199219 36.140625 L 20.476562 38.269531 L 17.425781 36.5 L 17.425781 36.117188 L 20.339844 37.804688 L 24.0625 35.675781 Z M 25.652344 36.597656 " fill-opacity="1" fill-rule="nonzero"/><path fill="#e4e8f4" d="M 46.972656 45.640625 L 47.632812 45.257812 L 49.222656 46.179688 L 48.5625 46.5625 Z M 46.972656 45.640625 " fill-opacity="1" fill-rule="nonzero"/><path fill="#d4dae8" d="M 48.5625 46.5625 L 49.222656 46.179688 L 52.914062 52.609375 L 52.257812 52.992188 Z M 48.5625 46.5625 " fill-opacity="1" fill-rule="nonzero"/><path fill="#9ca0ab" d="M 55.175781 54.683594 L 55.832031 54.300781 L 55.832031 54.683594 L 55.175781 55.070312 Z M 55.175781 54.683594 " fill-opacity="1" fill-rule="nonzero"/><path fill="#e4e8f4" d="M 52.257812 52.992188 L 52.914062 52.609375 L 55.832031 54.300781 L 55.175781 54.683594 Z M 52.257812 52.992188 " fill-opacity="1" fill-rule="nonzero"/><path fill="#cad0dd" d="M 48.5625 46.5625 L 52.257812 52.992188 L 55.175781 54.683594 L 55.175781 55.070312 L 52.117188 53.296875 L 48.425781 46.871094 L 46.972656 46.027344 L 46.972656 45.640625 Z M 48.5625 46.5625 " fill-opacity="1" fill-rule="nonzero"/><path fill="#e4e8f4" d="M 20.195312 34.503906 L 20.851562 34.121094 L 23.765625 35.808594 L 23.105469 36.191406 Z M 20.195312 34.503906 " fill-opacity="1" fill-rule="nonzero"/><path fill="#666970" d="M 23.105469 36.191406 L 23.765625 35.808594 L 27.488281 33.679688 L 26.832031 34.0625 Z M 23.105469 36.191406 " fill-opacity="1" fill-rule="nonzero"/><path fill="#9ca0ab" d="M 28.421875 34.984375 L 29.078125 34.601562 L 29.078125 34.984375 L 28.417969 35.367188 Z M 28.421875 34.984375 " fill-opacity="1" fill-rule="nonzero"/><path fill="#e4e8f4" d="M 26.832031 34.0625 L 27.488281 33.679688 L 29.078125 34.601562 L 28.421875 34.984375 Z M 26.832031 34.0625 " fill-opacity="1" fill-rule="nonzero"/><path fill="#cad0dd" d="M 28.421875 34.984375 L 28.417969 35.367188 L 26.964844 34.527344 L 23.242188 36.65625 L 20.191406 34.886719 L 20.195312 34.503906 L 23.105469 36.191406 L 26.832031 34.0625 Z M 28.421875 34.984375 " fill-opacity="1" fill-rule="nonzero"/><path fill="#e4e8f4" d="M 49.742188 44.027344 L 50.398438 43.644531 L 51.988281 44.566406 L 51.332031 44.949219 Z M 49.742188 44.027344 " fill-opacity="1" fill-rule="nonzero"/><path fill="#d4dae8" d="M 51.332031 44.949219 L 51.988281 44.566406 L 55.683594 50.996094 L 55.027344 51.378906 Z M 51.332031 44.949219 " fill-opacity="1" fill-rule="nonzero"/><path fill="#9ca0ab" d="M 57.945312 53.070312 L 58.601562 52.6875 L 58.601562 53.070312 L 57.941406 53.457031 Z M 57.945312 53.070312 " fill-opacity="1" fill-rule="nonzero"/><path fill="#e4e8f4" d="M 55.027344 51.378906 L 55.683594 50.996094 L 58.601562 52.6875 L 57.945312 53.070312 Z M 55.027344 51.378906 " fill-opacity="1" fill-rule="nonzero"/><path fill="#cad0dd" d="M 51.332031 44.949219 L 55.027344 51.378906 L 57.945312 53.070312 L 57.941406 53.457031 L 54.886719 51.683594 L 51.195312 45.257812 L 49.742188 44.414062 L 49.742188 44.027344 Z M 51.332031 44.949219 " fill-opacity="1" fill-rule="nonzero"/><path fill="#e4e8f4" d="M 22.964844 32.890625 L 23.621094 32.507812 L 26.53125 34.195312 L 25.875 34.578125 Z M 22.964844 32.890625 " fill-opacity="1" fill-rule="nonzero"/><path fill="#666970" d="M 25.875 34.578125 L 26.53125 34.195312 L 30.257812 32.066406 L 29.597656 32.449219 Z M 25.875 34.578125 " fill-opacity="1" fill-rule="nonzero"/><path fill="#9ca0ab" d="M 31.1875 33.371094 L 31.847656 32.988281 L 31.84375 33.371094 L 31.1875 33.753906 Z M 31.1875 33.371094 " fill-opacity="1" fill-rule="nonzero"/><path fill="#e4e8f4" d="M 29.597656 32.449219 L 30.257812 32.066406 L 31.847656 32.988281 L 31.1875 33.371094 Z M 29.597656 32.449219 " fill-opacity="1" fill-rule="nonzero"/><path fill="#cad0dd" d="M 31.1875 33.371094 L 31.1875 33.753906 L 29.734375 32.914062 L 26.011719 35.042969 L 22.960938 33.273438 L 22.964844 32.890625 L 25.875 34.578125 L 29.597656 32.449219 Z M 31.1875 33.371094 " fill-opacity="1" fill-rule="nonzero"/><path fill="#e4e8f4" d="M 52.511719 42.414062 L 53.167969 42.03125 L 54.757812 42.953125 L 54.101562 43.335938 Z M 52.511719 42.414062 " fill-opacity="1" fill-rule="nonzero"/><path fill="#d4dae8" d="M 54.101562 43.335938 L 54.757812 42.953125 L 58.453125 49.382812 L 57.792969 49.765625 Z M 54.101562 43.335938 " fill-opacity="1" fill-rule="nonzero"/><path fill="#9ca0ab" d="M 60.710938 51.457031 L 61.371094 51.074219 L 61.367188 51.457031 L 60.710938 51.84375 Z M 60.710938 51.457031 " fill-opacity="1" fill-rule="nonzero"/><path fill="#e4e8f4" d="M 57.792969 49.765625 L 58.453125 49.382812 L 61.371094 51.074219 L 60.710938 51.457031 Z M 57.792969 49.765625 " fill-opacity="1" fill-rule="nonzero"/><path fill="#cad0dd" d="M 54.101562 43.335938 L 57.792969 49.765625 L 60.710938 51.457031 L 60.710938 51.84375 L 57.65625 50.070312 L 53.964844 43.644531 L 52.507812 42.800781 L 52.511719 42.414062 Z M 54.101562 43.335938 " fill-opacity="1" fill-rule="nonzero"/><path fill="#e4e8f4" d="M 25.730469 31.277344 L 26.390625 30.894531 L 29.300781 32.582031 L 28.644531 32.964844 Z M 25.730469 31.277344 " fill-opacity="1" fill-rule="nonzero"/><path fill="#666970" d="M 28.644531 32.964844 L 29.300781 32.582031 L 33.023438 30.453125 L 32.367188 30.835938 Z M 28.644531 32.964844 " fill-opacity="1" fill-rule="nonzero"/><path fill="#9ca0ab" d="M 33.957031 31.757812 L 34.613281 31.375 L 34.613281 31.757812 L 33.957031 32.140625 Z M 33.957031 31.757812 " fill-opacity="1" fill-rule="nonzero"/><path fill="#e4e8f4" d="M 32.367188 30.835938 L 33.023438 30.453125 L 34.613281 31.375 L 33.957031 31.757812 Z M 32.367188 30.835938 " fill-opacity="1" fill-rule="nonzero"/><path fill="#cad0dd" d="M 33.957031 31.757812 L 33.957031 32.140625 L 32.503906 31.300781 L 28.78125 33.429688 L 25.730469 31.660156 L 25.730469 31.277344 L 28.644531 32.964844 L 32.367188 30.835938 Z M 33.957031 31.757812 " fill-opacity="1" fill-rule="nonzero"/><path fill="#e4e8f4" d="M 55.28125 40.800781 L 55.9375 40.417969 L 57.527344 41.339844 L 56.871094 41.722656 Z M 55.28125 40.800781 " fill-opacity="1" fill-rule="nonzero"/><path fill="#d4dae8" d="M 56.871094 41.722656 L 57.527344 41.339844 L 61.21875 47.769531 L 60.5625 48.152344 Z M 56.871094 41.722656 " fill-opacity="1" fill-rule="nonzero"/><path fill="#9ca0ab" d="M 63.480469 49.84375 L 64.140625 49.460938 L 64.136719 49.84375 L 63.480469 50.230469 Z M 63.480469 49.84375 " fill-opacity="1" fill-rule="nonzero"/><path fill="#e4e8f4" d="M 60.5625 48.152344 L 61.21875 47.769531 L 64.140625 49.460938 L 63.480469 49.84375 Z M 60.5625 48.152344 " fill-opacity="1" fill-rule="nonzero"/><path fill="#cad0dd" d="M 56.871094 41.722656 L 60.5625 48.152344 L 63.480469 49.84375 L 63.480469 50.230469 L 60.425781 48.457031 L 56.730469 42.03125 L 55.277344 41.1875 L 55.277344 40.800781 Z M 56.871094 41.722656 " fill-opacity="1" fill-rule="nonzero"/><path fill="#e4e8f4" d="M 28.5 29.664062 L 29.15625 29.28125 L 32.070312 30.96875 L 31.414062 31.351562 Z M 28.5 29.664062 " fill-opacity="1" fill-rule="nonzero"/><path fill="#666970" d="M 31.414062 31.351562 L 32.070312 30.96875 L 35.792969 28.839844 L 35.136719 29.222656 Z M 31.414062 31.351562 " fill-opacity="1" fill-rule="nonzero"/><path fill="#9ca0ab" d="M 36.726562 30.144531 L 37.382812 29.757812 L 37.382812 30.144531 L 36.726562 30.527344 Z M 36.726562 30.144531 " fill-opacity="1" fill-rule="nonzero"/><path fill="#e4e8f4" d="M 35.136719 29.222656 L 35.792969 28.839844 L 37.382812 29.761719 L 36.726562 30.144531 Z M 35.136719 29.222656 " fill-opacity="1" fill-rule="nonzero"/><path fill="#cad0dd" d="M 36.726562 30.144531 L 36.726562 30.527344 L 35.273438 29.6875 L 31.546875 31.816406 L 28.5 30.046875 L 28.5 29.664062 L 31.414062 31.351562 L 35.136719 29.222656 Z M 36.726562 30.144531 " fill-opacity="1" fill-rule="nonzero"/><path fill="#4c7891" d="M 57.21875 37.964844 L 38.058594 49.136719 C 37.585938 49.398438 36.832031 49.398438 36.371094 49.136719 L 17.078125 37.964844 C 16.617188 37.683594 16.617188 37.242188 17.078125 36.972656 L 36.246094 25.789062 C 36.707031 25.519531 37.453125 25.519531 37.925781 25.8125 L 57.207031 36.972656 C 57.691406 37.253906 57.691406 37.683594 57.21875 37.964844 Z M 57.21875 37.964844 " fill-opacity="1" fill-rule="nonzero"/><path fill="#416e84" d="M 29.605469 45.210938 L 17.085938 37.945312 C 16.839844 37.820312 16.734375 37.636719 16.734375 37.453125 L 16.703125 41.234375 C 16.703125 41.421875 16.808594 41.605469 17.054688 41.742188 L 29.605469 49.015625 Z M 29.605469 45.210938 " fill-opacity="1" fill-rule="nonzero"/><path fill="#e4e8f4" d="M 37.359375 50.480469 L 36.699219 50.097656 L 35.109375 51.019531 L 35.769531 51.402344 Z M 37.359375 50.480469 " fill-opacity="1" fill-rule="nonzero"/><path fill="#d4dae8" d="M 35.769531 51.402344 L 35.109375 51.019531 L 31.417969 57.449219 L 32.074219 57.832031 Z M 35.769531 51.402344 " fill-opacity="1" fill-rule="nonzero"/><path fill="#9ca0ab" d="M 29.15625 59.523438 L 28.5 59.140625 L 28.5 59.523438 L 29.15625 59.910156 Z M 29.15625 59.523438 " fill-opacity="1" fill-rule="nonzero"/><path fill="#e4e8f4" d="M 32.074219 57.832031 L 31.417969 57.449219 L 28.5 59.140625 L 29.15625 59.523438 Z M 32.074219 57.832031 " fill-opacity="1" fill-rule="nonzero"/><path fill="#cad0dd" d="M 35.769531 51.402344 L 32.074219 57.832031 L 29.15625 59.523438 L 29.15625 59.910156 L 32.214844 58.136719 L 35.90625 51.710938 L 37.359375 50.867188 L 37.359375 50.480469 Z M 35.769531 51.402344 " fill-opacity="1" fill-rule="nonzero"/><path fill="#e4e8f4" d="M 34.589844 48.871094 L 33.933594 48.484375 L 32.34375 49.40625 L 33 49.789062 Z M 34.589844 48.871094 " fill-opacity="1" fill-rule="nonzero"/><path fill="#d4dae8" d="M 33 49.789062 L 32.34375 49.40625 L 28.648438 55.835938 L 29.304688 56.21875 Z M 33 49.789062 " fill-opacity="1" fill-rule="nonzero"/><path fill="#9ca0ab" d="M 26.386719 57.910156 L 25.730469 57.527344 L 25.730469 57.910156 L 26.390625 58.296875 Z M 26.386719 57.910156 " fill-opacity="1" fill-rule="nonzero"/><path fill="#e4e8f4" d="M 29.304688 56.21875 L 28.648438 55.835938 L 25.730469 57.527344 L 26.386719 57.910156 Z M 29.304688 56.21875 " fill-opacity="1" fill-rule="nonzero"/><path fill="#cad0dd" d="M 33 49.789062 L 29.304688 56.21875 L 26.386719 57.910156 L 26.390625 58.296875 L 29.445312 56.523438 L 33.136719 50.097656 L 34.589844 49.253906 L 34.589844 48.867188 Z M 33 49.789062 " fill-opacity="1" fill-rule="nonzero"/><path fill="#e4e8f4" d="M 31.820312 47.257812 L 31.164062 46.871094 L 29.574219 47.792969 L 30.230469 48.175781 Z M 31.820312 47.257812 " fill-opacity="1" fill-rule="nonzero"/><path fill="#d4dae8" d="M 30.230469 48.175781 L 29.574219 47.792969 L 25.878906 54.222656 L 26.539062 54.605469 Z M 30.230469 48.175781 " fill-opacity="1" fill-rule="nonzero"/><path fill="#9ca0ab" d="M 23.621094 56.296875 L 22.960938 55.914062 L 22.964844 56.296875 L 23.621094 56.683594 Z M 23.621094 56.296875 " fill-opacity="1" fill-rule="nonzero"/><path fill="#e4e8f4" d="M 26.539062 54.605469 L 25.878906 54.222656 L 22.960938 55.914062 L 23.621094 56.296875 Z M 26.539062 54.605469 " fill-opacity="1" fill-rule="nonzero"/><path fill="#cad0dd" d="M 30.230469 48.175781 L 26.539062 54.605469 L 23.621094 56.296875 L 23.621094 56.683594 L 26.675781 54.910156 L 30.371094 48.484375 L 31.824219 47.640625 L 31.820312 47.253906 Z M 30.230469 48.175781 " fill-opacity="1" fill-rule="nonzero"/><path fill="#e4e8f4" d="M 29.054688 45.640625 L 28.394531 45.257812 L 26.804688 46.179688 L 27.460938 46.5625 Z M 29.054688 45.640625 " fill-opacity="1" fill-rule="nonzero"/><path fill="#d4dae8" d="M 27.460938 46.5625 L 26.804688 46.179688 L 23.113281 52.609375 L 23.769531 52.992188 Z M 27.460938 46.5625 " fill-opacity="1" fill-rule="nonzero"/><path fill="#9ca0ab" d="M 20.851562 54.683594 L 20.191406 54.300781 L 20.195312 54.683594 L 20.851562 55.070312 Z M 20.851562 54.683594 " fill-opacity="1" fill-rule="nonzero"/><path fill="#e4e8f4" d="M 23.769531 52.992188 L 23.113281 52.609375 L 20.195312 54.300781 L 20.851562 54.683594 Z M 23.769531 52.992188 " fill-opacity="1" fill-rule="nonzero"/><path fill="#cad0dd" d="M 27.460938 46.5625 L 23.769531 52.992188 L 20.851562 54.683594 L 20.851562 55.070312 L 23.90625 53.296875 L 27.601562 46.871094 L 29.054688 46.027344 L 29.054688 45.640625 Z M 27.460938 46.5625 " fill-opacity="1" fill-rule="nonzero"/><path fill="#e4e8f4" d="M 26.285156 44.027344 L 25.628906 43.644531 L 24.035156 44.566406 L 24.695312 44.949219 Z M 26.285156 44.027344 " fill-opacity="1" fill-rule="nonzero"/><path fill="#d4dae8" d="M 24.695312 44.949219 L 24.035156 44.566406 L 20.34375 50.996094 L 21 51.378906 Z M 24.695312 44.949219 " fill-opacity="1" fill-rule="nonzero"/><path fill="#9ca0ab" d="M 18.082031 53.070312 L 17.425781 52.6875 L 17.425781 53.070312 L 18.082031 53.457031 Z M 18.082031 53.070312 " fill-opacity="1" fill-rule="nonzero"/><path fill="#e4e8f4" d="M 21 51.378906 L 20.34375 50.996094 L 17.425781 52.6875 L 18.082031 53.070312 Z M 21 51.378906 " fill-opacity="1" fill-rule="nonzero"/><path fill="#cad0dd" d="M 24.695312 44.949219 L 21 51.378906 L 18.082031 53.070312 L 18.082031 53.457031 L 21.140625 51.683594 L 24.832031 45.257812 L 26.285156 44.414062 L 26.285156 44.027344 Z M 24.695312 44.949219 " fill-opacity="1" fill-rule="nonzero"/><path fill="#e4e8f4" d="M 23.515625 42.414062 L 22.859375 42.03125 L 21.269531 42.953125 L 21.925781 43.335938 Z M 23.515625 42.414062 " fill-opacity="1" fill-rule="nonzero"/><path fill="#d4dae8" d="M 21.925781 43.335938 L 21.269531 42.953125 L 17.574219 49.382812 L 18.234375 49.765625 Z M 21.925781 43.335938 " fill-opacity="1" fill-rule="nonzero"/><path fill="#9ca0ab" d="M 15.3125 51.457031 L 14.65625 51.074219 L 14.65625 51.457031 L 15.316406 51.84375 Z M 15.3125 51.457031 " fill-opacity="1" fill-rule="nonzero"/><path fill="#e4e8f4" d="M 18.234375 49.765625 L 17.574219 49.382812 L 14.65625 51.074219 L 15.3125 51.457031 Z M 18.234375 49.765625 " fill-opacity="1" fill-rule="nonzero"/><path fill="#cad0dd" d="M 21.925781 43.335938 L 18.234375 49.765625 L 15.3125 51.457031 L 15.316406 51.84375 L 18.371094 50.070312 L 22.0625 43.644531 L 23.515625 42.800781 L 23.515625 42.414062 Z M 21.925781 43.335938 " fill-opacity="1" fill-rule="nonzero"/><path fill="#e4e8f4" d="M 20.746094 40.800781 L 20.089844 40.417969 L 18.5 41.339844 L 19.15625 41.722656 Z M 20.746094 40.800781 " fill-opacity="1" fill-rule="nonzero"/><path fill="#d4dae8" d="M 19.15625 41.722656 L 18.5 41.339844 L 14.808594 47.769531 L 15.464844 48.152344 Z M 19.15625 41.722656 " fill-opacity="1" fill-rule="nonzero"/><path fill="#9ca0ab" d="M 12.546875 49.84375 L 11.886719 49.460938 L 11.890625 49.84375 L 12.546875 50.230469 Z M 12.546875 49.84375 " fill-opacity="1" fill-rule="nonzero"/><path fill="#e4e8f4" d="M 15.464844 48.152344 L 14.804688 47.769531 L 11.886719 49.460938 L 12.546875 49.84375 Z M 15.464844 48.152344 " fill-opacity="1" fill-rule="nonzero"/><path fill="#cad0dd" d="M 19.15625 41.722656 L 15.464844 48.152344 L 12.546875 49.84375 L 12.546875 50.230469 L 15.601562 48.457031 L 19.296875 42.03125 L 20.75 41.1875 L 20.746094 40.800781 Z M 19.15625 41.722656 " fill-opacity="1" fill-rule="nonzero"/><path fill="#31323d" d="M 43.554688 33.765625 C 39.960938 31.675781 34.222656 31.710938 30.714844 33.765625 C 28.789062 34.886719 27.929688 36.386719 28.152344 37.851562 C 28.359375 36.714844 29.21875 35.59375 30.714844 34.714844 C 34.222656 32.660156 39.960938 32.625 43.554688 34.714844 C 45.082031 35.609375 45.941406 36.730469 46.148438 37.90625 C 46.371094 36.421875 45.511719 34.886719 43.554688 33.765625 Z M 43.554688 33.765625 " fill-opacity="1" fill-rule="nonzero"/><path fill="#464957" d="M 43.554688 34.714844 C 39.960938 32.625 34.222656 32.660156 30.714844 34.714844 C 29.21875 35.59375 28.359375 36.714844 28.152344 37.851562 L 28.152344 37.871094 C 28.1875 38.027344 28.222656 38.164062 28.257812 38.300781 C 28.550781 39.355469 29.410156 40.355469 30.835938 41.183594 C 34.359375 43.21875 40.03125 43.21875 43.535156 41.183594 C 44.894531 40.390625 45.734375 39.386719 46.046875 38.351562 C 46.097656 38.214844 46.132812 38.058594 46.148438 37.90625 C 45.941406 36.730469 45.082031 35.609375 43.554688 34.714844 Z M 43.554688 34.714844 " fill-opacity="1" fill-rule="nonzero"/><path fill="#d4dae8" d="M 43.609375 18.714844 C 47.132812 20.757812 47.085938 24.097656 43.585938 26.140625 C 40.082031 28.183594 34.40625 28.183594 30.882812 26.140625 C 27.289062 24.058594 27.273438 20.757812 30.773438 18.714844 C 34.277344 16.671875 40.019531 16.632812 43.609375 18.714844 Z M 43.609375 18.714844 " fill-opacity="1" fill-rule="nonzero"/><path fill="#cad0dd" d="M 46.234375 22.417969 L 46.136719 37.457031 C 46.128906 38.800781 45.246094 40.15625 43.480469 41.183594 C 39.988281 43.214844 34.304688 43.214844 30.789062 41.183594 C 28.972656 40.121094 28.066406 38.757812 28.066406 37.402344 L 28.164062 22.363281 C 28.164062 23.71875 29.070312 25.085938 30.886719 26.136719 C 34.402344 28.179688 40.085938 28.179688 43.578125 26.136719 C 45.34375 25.117188 46.226562 23.765625 46.234375 22.417969 Z M 46.234375 22.417969 " fill-opacity="0.4" fill-rule="nonzero"/><path fill="#fed57a" d="M 28.460938 24.410156 C 29.640625 27.804688 35.410156 29.175781 35.410156 29.175781 C 37.105469 31.902344 40.714844 30.832031 40.714844 30.832031 C 42.597656 31.785156 44.027344 31.453125 45.027344 30.832031 C 45.863281 30.300781 46.390625 29.578125 46.609375 29.21875 C 46.675781 29.09375 46.722656 29.011719 46.722656 29.011719 C 48.511719 28.425781 49.359375 27.425781 49.667969 26.285156 C 50.402344 23.523438 47.835938 19.933594 47.386719 19.335938 C 47.339844 19.277344 47.320312 19.242188 47.320312 19.242188 C 47.339844 19.128906 47.328125 19 47.296875 18.863281 C 47.078125 18.09375 45.988281 17.136719 45.449219 16.710938 C 45.253906 16.5625 45.140625 16.46875 45.140625 16.46875 C 45.039062 16.25 44.878906 16.042969 44.671875 15.824219 C 43.789062 14.917969 42.136719 14.074219 41.3125 13.683594 C 41.003906 13.546875 40.820312 13.464844 40.820312 13.464844 C 40.714844 13.421875 40.625 13.363281 40.519531 13.316406 C 34.871094 10.542969 31.328125 12.039062 29.722656 13.167969 C 29.058594 13.628906 28.726562 14.03125 28.726562 14.03125 C 28.726562 14.03125 28.585938 14.042969 28.371094 14.109375 C 28.027344 14.226562 27.464844 14.511719 26.902344 15.179688 C 26.351562 15.800781 25.800781 16.769531 25.390625 18.277344 C 24.253906 22.394531 28.460938 24.410156 28.460938 24.410156 Z M 28.460938 24.410156 " fill-opacity="1" fill-rule="nonzero"/><path fill="#f9bb4a" d="M 32.117188 14.421875 C 33.390625 13.660156 35.40625 15.066406 36.105469 15.410156 C 36.816406 15.757812 38.734375 17.4375 39.089844 17.828125 C 39.433594 18.21875 39.316406 19.277344 39.203125 19.53125 C 39.085938 19.785156 37.539062 20.234375 37.449219 20.417969 C 37.34375 20.613281 37.574219 21.820312 38.023438 21.914062 C 38.457031 22.003906 37.757812 21.097656 37.757812 20.507812 C 37.757812 19.921875 39.15625 20.152344 39.613281 19.980469 C 40.0625 19.808594 39.613281 20.257812 40.140625 20.429688 C 40.660156 20.601562 40.691406 20.714844 41.140625 20.683594 C 41.597656 20.636719 40.589844 20.234375 40.121094 19.703125 C 39.660156 19.164062 40.085938 17.953125 40.085938 17.953125 C 41.082031 18.378906 43.972656 22.1875 44.109375 22.269531 C 44.210938 22.339844 44.28125 22.730469 44.292969 22.820312 C 44.292969 22.730469 42.800781 23.109375 42.871094 23.488281 C 42.941406 23.859375 43.167969 23.238281 43.558594 23.339844 C 43.960938 23.445312 44.875 23.386719 44.875 23.386719 C 45.691406 23.984375 46.550781 26.976562 46.550781 26.976562 C 46.550781 26.976562 45.929688 26.816406 45.78125 26.699219 C 45.632812 26.574219 45.027344 25.320312 44.867188 25.539062 C 44.714844 25.746094 45.324219 26.941406 45.324219 26.941406 C 45.324219 26.941406 44.707031 27.667969 44.660156 28.082031 C 44.625 28.496094 45.359375 27.402344 45.359375 27.402344 C 47.054688 26.503906 46.480469 29.128906 46.480469 29.128906 L 46.609375 29.21875 C 46.675781 29.09375 46.722656 29.011719 46.722656 29.011719 C 48.511719 28.425781 49.359375 27.425781 49.667969 26.285156 L 49.441406 26.839844 C 49.441406 26.425781 47.882812 23.546875 48.945312 26.21875 C 49.015625 26.390625 48.523438 26.125 48.085938 26.113281 C 47.664062 26.101562 48.429688 26.527344 48.429688 26.527344 C 48.429688 26.527344 49.222656 26.480469 49.039062 27.113281 C 48.84375 27.757812 47.398438 28.347656 47.398438 28.347656 C 47.398438 28.347656 46.285156 25.089844 46.285156 24.539062 C 46.285156 23.996094 46.574219 23.476562 46.871094 23.203125 C 47.15625 22.914062 47.765625 23.675781 48.132812 23.433594 C 48.511719 23.191406 47.238281 22.835938 47.46875 22.59375 C 47.707031 22.351562 47.410156 21.394531 47.261719 21.164062 C 47.113281 20.933594 46.953125 21.003906 46.996094 21.121094 C 47.054688 21.246094 47.332031 22.199219 46.976562 22.464844 C 46.609375 22.730469 45.804688 23.6875 45.804688 23.6875 L 43.800781 20.488281 C 43.800781 20.488281 43.824219 19.992188 43.960938 19.425781 C 44.085938 18.863281 43.628906 18.761719 43.652344 18.171875 C 43.683594 17.574219 44.648438 18.425781 44.726562 17.933594 C 44.808594 17.425781 43.617188 17.515625 43.617188 17.515625 L 43.59375 17.621094 C 43.535156 17.578125 43.835938 17.550781 42.492188 16.816406 C 43.652344 17.980469 42.90625 18.164062 43.363281 20.058594 L 40.164062 16.894531 C 40.234375 16.769531 40.050781 16.238281 40.074219 15.800781 C 40.085938 15.367188 41.242188 16.160156 41.460938 15.539062 C 41.679688 14.917969 40.097656 15.378906 40.097656 15.308594 C 40.097656 15.226562 40.464844 14.730469 40.566406 14.605469 C 40.671875 14.492188 40.648438 14.46875 40.648438 14.46875 C 39.683594 14.316406 39.582031 16.480469 39.582031 16.480469 C 39.582031 16.480469 36.542969 14.699219 36.371094 14.535156 C 36.1875 14.386719 36.199219 14.132812 36.234375 13.617188 C 36.28125 13.109375 37.289062 13.5 37.953125 13.292969 C 38.628906 13.074219 36.269531 12.832031 36.269531 12.832031 C 36.199219 12.523438 35.59375 12.375 35.59375 12.375 C 35.59375 12.375 35.488281 12.1875 35.292969 12.316406 C 35.085938 12.453125 35.765625 12.996094 35.765625 12.996094 C 35.613281 13.328125 35.625 14.179688 35.625 14.179688 C 33.160156 12.832031 29.78125 13.179688 29.78125 13.179688 L 29.722656 13.167969 C 29.058594 13.628906 28.726562 14.03125 28.726562 14.03125 C 28.726562 14.03125 28.585938 14.042969 28.371094 14.109375 L 28.394531 14.15625 C 28.394531 14.15625 31.246094 13.765625 31.75 13.742188 C 32.625 13.703125 29.132812 16.191406 32.117188 14.421875 Z M 32.117188 14.421875 " fill-opacity="1" fill-rule="nonzero"/><path fill="#f9bb4a" d="M 28.460938 24.410156 C 29.640625 27.804688 35.40625 29.175781 35.40625 29.175781 C 37.105469 31.902344 40.714844 30.832031 40.714844 30.832031 C 42.597656 31.785156 44.027344 31.453125 45.027344 30.832031 C 44.050781 30.761719 41.402344 30.269531 40.980469 29.519531 C 40.554688 28.761719 40.601562 28.414062 40.910156 27.207031 C 41.21875 26.011719 42.308594 26.746094 43.144531 26.148438 C 43.984375 25.550781 42.285156 25.859375 41.667969 25.78125 C 41.058594 25.6875 40.796875 24.984375 40.476562 24.410156 C 40.152344 23.824219 40.832031 22.625 40.832031 22.625 C 38.847656 22.523438 39.855469 25.859375 39.855469 25.859375 C 39.453125 27.136719 37.871094 25.066406 37.871094 25.066406 C 37.242188 25.410156 38.332031 26.828125 39.214844 26.976562 C 40.109375 27.125 40.015625 27.277344 39.625 27.953125 C 39.238281 28.632812 40.097656 30.1875 40.097656 30.1875 C 35.636719 30.371094 35.316406 26.863281 35.328125 25.8125 C 35.328125 24.777344 35.902344 24.882812 36.601562 24.503906 C 37.300781 24.121094 36.785156 22.730469 36.542969 22.441406 C 36.3125 22.144531 36.269531 22.855469 36.519531 23.269531 C 36.773438 23.683594 36.65625 23.972656 36.140625 24.054688 C 35.625 24.144531 34.835938 25.042969 34.535156 25.042969 C 34.25 25.042969 34.261719 23.859375 33.964844 23.546875 C 33.652344 23.226562 33.964844 22.855469 33.894531 22.453125 C 33.835938 22.039062 33.011719 23.269531 32.964844 23.695312 C 32.910156 24.121094 31.292969 24.238281 31.222656 24.546875 C 31.15625 24.871094 32.597656 24.421875 33.289062 24.109375 C 33.988281 23.800781 34.859375 27.964844 34.859375 27.964844 C 34.859375 27.964844 32.210938 26.621094 30.855469 26.285156 C 29.492188 25.953125 28.804688 24.144531 28.90625 23.007812 C 29.023438 21.855469 30.925781 22.730469 30.925781 22.523438 C 30.925781 22.304688 29.113281 21.878906 28.875 21.730469 C 28.632812 21.589844 29.207031 20.601562 29.652344 20.234375 C 30.113281 19.875 29.984375 18.425781 30.339844 18.148438 C 30.683594 17.886719 31.210938 18.105469 31.542969 17.699219 C 31.878906 17.296875 32.941406 17.195312 32.941406 17.378906 C 32.941406 17.5625 33.277344 18.21875 33.277344 18.964844 C 33.277344 19.714844 33.757812 20.460938 34.101562 20.519531 C 34.445312 20.566406 34.546875 20.253906 34.125 19.980469 C 33.699219 19.714844 33.699219 18.921875 33.882812 18.519531 C 34.210938 17.835938 32.214844 17.25 34.433594 17.460938 C 35.40625 17.550781 35.578125 18.34375 36.3125 18.136719 C 37.035156 17.941406 33.757812 16.664062 32.609375 16.664062 C 31.464844 16.664062 30.488281 17.46875 30.339844 17.574219 C 30.191406 17.6875 29.628906 16.480469 29.070312 16.171875 C 28.507812 15.859375 28.976562 14.640625 28.449219 14.640625 C 27.921875 14.640625 28.792969 16.480469 29.480469 17.332031 C 30.179688 18.195312 29.070312 19.566406 28.851562 20.222656 C 28.632812 20.875 28.378906 20.441406 27.980469 20.75 C 27.578125 21.050781 28.230469 23.441406 27.832031 23.535156 C 27.429688 23.628906 26.214844 20.785156 26.054688 19.242188 C 25.894531 17.710938 26.753906 17.976562 27.199219 17.273438 C 27.648438 16.585938 26.054688 17.414062 26.054688 17.414062 L 26.902344 15.179688 C 26.351562 15.800781 25.800781 16.769531 25.390625 18.277344 C 24.253906 22.394531 28.460938 24.410156 28.460938 24.410156 Z M 28.460938 24.410156 " fill-opacity="1" fill-rule="nonzero"/><path fill="#f9bb4a" d="M 45.828125 20.613281 C 45.929688 20.699219 46.171875 20.71875 46.265625 20.671875 C 46.449219 20.546875 46.351562 19.878906 46.414062 19.726562 C 46.472656 19.566406 46.863281 19.328125 47.078125 19.3125 C 47.179688 19.300781 47.285156 19.335938 47.386719 19.335938 C 47.339844 19.277344 47.320312 19.242188 47.320312 19.242188 C 47.339844 19.128906 47.332031 19 47.296875 18.863281 C 47.273438 18.875 47.25 18.886719 47.238281 18.898438 C 46.15625 19.378906 46.339844 18.933594 45.910156 19.425781 C 45.828125 19.519531 45.75 19.621094 45.703125 19.738281 C 45.644531 19.886719 45.613281 20.445312 45.828125 20.613281 Z M 45.828125 20.613281 " fill-opacity="1" fill-rule="nonzero"/><path fill="#f9bb4a" d="M 42.847656 15.628906 C 42.871094 15.617188 42.894531 15.617188 42.917969 15.605469 C 43.269531 15.589844 44.746094 16.8125 45.449219 16.710938 C 45.253906 16.5625 45.140625 16.46875 45.140625 16.46875 C 45.039062 16.25 44.878906 16.042969 44.671875 15.824219 C 44.058594 15.679688 43.355469 14.605469 42.710938 15.25 C 42.457031 15.503906 42.757812 15.808594 42.847656 15.628906 Z M 42.847656 15.628906 " fill-opacity="1" fill-rule="nonzero"/><path fill="#f9bb4a" d="M 39.121094 13.800781 C 39.203125 13.824219 39.273438 13.742188 39.351562 13.71875 C 39.417969 13.691406 39.792969 13.71875 39.9375 13.835938 C 40.050781 13.910156 40.035156 13.9375 40.210938 13.9375 C 40.710938 13.9375 41.183594 13.941406 41.3125 13.683594 C 40.382812 13.269531 40.753906 13.417969 40.519531 13.316406 C 40.507812 13.339844 40.496094 13.375 40.476562 13.398438 C 40.1875 13.363281 39.238281 13.332031 39.078125 13.558594 C 39.007812 13.640625 39.03125 13.777344 39.121094 13.800781 Z M 39.121094 13.800781 " fill-opacity="1" fill-rule="nonzero"/><path fill="#748bfd" d="M 1.21875 39.195312 C 1.328125 39.132812 1.480469 39.140625 1.648438 39.234375 L 26.550781 53.671875 C 26.886719 53.863281 27.152344 54.328125 27.152344 54.714844 L 27.09375 74.425781 C 27.09375 74.621094 27.027344 74.75 26.921875 74.816406 L 28.027344 74.167969 C 28.136719 74.105469 28.203125 73.972656 28.203125 73.785156 L 28.257812 54.070312 C 28.261719 53.683594 27.992188 53.214844 27.660156 53.023438 L 2.757812 38.59375 C 2.585938 38.492188 2.4375 38.484375 2.328125 38.550781 Z M 1.21875 39.195312 " fill-opacity="1" fill-rule="nonzero"/><g clip-path="url(#dda9de4065)"><path fill="#4562ef" d="M 1.648438 39.238281 C 1.316406 39.042969 1.042969 39.199219 1.042969 39.582031 L 0.988281 59.296875 C 0.988281 59.679688 1.253906 60.144531 1.589844 60.339844 L 26.492188 74.773438 C 26.824219 74.964844 27.09375 74.808594 27.09375 74.429688 L 27.152344 54.714844 C 27.152344 54.332031 26.882812 53.863281 26.550781 53.671875 Z M 1.648438 39.238281 " fill-opacity="1" fill-rule="nonzero"/></g><path fill="#ffffff" d="M 25.53125 54.8125 C 25.527344 54.792969 25.480469 54.714844 25.449219 54.691406 L 2.6875 41.5 L 2.636719 59.183594 C 2.644531 59.199219 2.6875 59.277344 2.71875 59.300781 L 25.480469 72.492188 Z M 25.53125 54.8125 " fill-opacity="1" fill-rule="nonzero"/><path fill="#5b5e71" d="M 5.898438 46.714844 L 5.871094 59.097656 L 4.328125 58.207031 L 4.359375 45.824219 Z M 5.898438 46.714844 " fill-opacity="1" fill-rule="nonzero"/><path fill="#3e60dd" d="M 9.472656 51.761719 L 9.453125 61.175781 L 7.914062 60.285156 L 7.933594 50.867188 Z M 9.472656 51.761719 " fill-opacity="1" fill-rule="nonzero"/><path fill="#75ca75" d="M 13.066406 50.871094 L 13.039062 63.253906 L 11.496094 62.363281 L 11.527344 49.976562 Z M 13.066406 50.871094 " fill-opacity="1" fill-rule="nonzero"/><path fill="#f9607f" d="M 16.632812 58.878906 L 16.621094 65.332031 L 15.082031 64.4375 L 15.09375 57.988281 Z M 16.632812 58.878906 " fill-opacity="1" fill-rule="nonzero"/><path fill="#efac41" d="M 20.234375 55.023438 L 20.207031 67.410156 L 18.664062 66.515625 L 18.695312 54.132812 Z M 20.234375 55.023438 " fill-opacity="1" fill-rule="nonzero"/><path fill="#afb5bf" d="M 23.808594 60.070312 L 23.789062 69.484375 L 22.25 68.59375 L 22.269531 59.179688 Z M 23.808594 60.070312 " fill-opacity="1" fill-rule="nonzero"/><g clip-path="url(#3af32dd4a9)"><path fill="#5b5e71" d="M 73.5 39.195312 C 73.390625 39.132812 73.238281 39.140625 73.070312 39.234375 L 48.167969 53.671875 C 47.832031 53.863281 47.566406 54.328125 47.566406 54.714844 L 47.625 74.425781 C 47.625 74.621094 47.691406 74.75 47.796875 74.816406 L 46.691406 74.167969 C 46.582031 74.105469 46.515625 73.972656 46.515625 73.785156 L 46.460938 54.070312 C 46.457031 53.683594 46.726562 53.214844 47.058594 53.023438 L 71.960938 38.59375 C 72.132812 38.492188 72.28125 38.484375 72.390625 38.550781 Z M 73.5 39.195312 " fill-opacity="1" fill-rule="nonzero"/></g><g clip-path="url(#1fe5bd3137)"><path fill="#474b59" d="M 73.070312 39.238281 C 73.402344 39.042969 73.671875 39.199219 73.675781 39.582031 L 73.730469 59.296875 C 73.730469 59.679688 73.460938 60.144531 73.128906 60.339844 L 48.226562 74.773438 C 47.894531 74.964844 47.625 74.808594 47.621094 74.429688 L 47.566406 54.714844 C 47.566406 54.332031 47.835938 53.863281 48.164062 53.671875 Z M 73.070312 39.238281 " fill-opacity="1" fill-rule="nonzero"/></g><path fill="#ffffff" d="M 49.1875 54.8125 C 49.191406 54.792969 49.238281 54.714844 49.269531 54.691406 L 72.03125 41.5 L 72.082031 59.183594 C 72.074219 59.199219 72.027344 59.277344 72 59.300781 L 49.234375 72.492188 Z M 49.1875 54.8125 " fill-opacity="1" fill-rule="nonzero"/><path fill="#f9bb4a" d="M 65.265625 47.808594 C 68.164062 46.128906 70.523438 47.480469 70.535156 50.824219 L 65.285156 53.867188 Z M 65.265625 47.808594 " fill-opacity="1" fill-rule="nonzero"/><path fill="#6eba6e" d="M 64.359375 49.390625 L 64.378906 55.441406 L 69.628906 52.398438 C 69.636719 55.742188 67.292969 59.816406 64.394531 61.496094 C 61.496094 63.175781 59.136719 61.828125 59.128906 58.484375 C 59.117188 55.140625 61.460938 51.070312 64.359375 49.390625 Z M 64.359375 49.390625 " fill-opacity="1" fill-rule="nonzero"/><path fill="#748bfd" d="M 56.789062 65.554688 C 56.789062 65.726562 56.671875 65.9375 56.523438 66.027344 L 51.070312 69.1875 C 50.921875 69.269531 50.804688 69.203125 50.804688 69.023438 L 50.765625 56.175781 C 50.765625 56.003906 50.882812 55.796875 51.035156 55.714844 L 56.476562 52.550781 C 56.632812 52.460938 56.753906 52.53125 56.753906 52.707031 Z M 56.789062 65.554688 " fill-opacity="1" fill-rule="nonzero"/><path fill="#ffffff" d="M 55.933594 62.789062 L 55.933594 63.0625 L 51.636719 65.554688 L 51.636719 65.277344 Z M 55.933594 62.789062 " fill-opacity="1" fill-rule="nonzero"/><path fill="#ffffff" d="M 55.925781 60.582031 L 55.925781 60.863281 L 51.628906 63.355469 L 51.628906 63.074219 Z M 55.925781 60.582031 " fill-opacity="1" fill-rule="nonzero"/><path fill="#ffffff" d="M 55.917969 57.277344 L 55.917969 57.558594 L 51.621094 60.050781 L 51.621094 59.769531 Z M 55.917969 57.277344 " fill-opacity="1" fill-rule="nonzero"/><path fill="#ffffff" d="M 55.910156 55.078125 L 55.910156 55.355469 L 51.617188 57.847656 L 51.613281 57.570312 Z M 55.910156 55.078125 " fill-opacity="1" fill-rule="nonzero"/><path fill="#ffffff" d="M 55.90625 53.972656 L 55.910156 54.257812 L 51.613281 56.746094 L 51.609375 56.464844 Z M 55.90625 53.972656 " fill-opacity="1" fill-rule="nonzero"/><path fill="#ffffff" d="M 55.9375 64.988281 L 55.941406 65.269531 L 51.644531 67.757812 L 51.640625 67.476562 Z M 55.9375 64.988281 " fill-opacity="1" fill-rule="nonzero"/><path fill="#ffffff" d="M 55.9375 63.886719 L 55.9375 64.167969 L 51.640625 66.660156 L 51.640625 66.378906 Z M 55.9375 63.886719 " fill-opacity="1" fill-rule="nonzero"/><path fill="#ffffff" d="M 55.929688 61.683594 L 55.929688 61.964844 L 51.632812 64.453125 L 51.632812 64.171875 Z M 55.929688 61.683594 " fill-opacity="1" fill-rule="nonzero"/><path fill="#ffffff" d="M 55.921875 59.484375 L 55.925781 59.765625 L 51.628906 62.253906 L 51.625 61.972656 Z M 55.921875 59.484375 " fill-opacity="1" fill-rule="nonzero"/><path fill="#ffffff" d="M 55.921875 58.378906 L 55.921875 58.660156 L 51.625 61.148438 L 51.625 60.867188 Z M 55.921875 58.378906 " fill-opacity="1" fill-rule="nonzero"/><path fill="#ffffff" d="M 55.914062 56.179688 L 55.914062 56.460938 L 51.617188 58.949219 L 51.617188 58.667969 Z M 55.914062 56.179688 " fill-opacity="1" fill-rule="nonzero"/></svg>