<svg xmlns="http://www.w3.org/2000/svg" xmlns:xlink="http://www.w3.org/1999/xlink" width="150" zoomAndPan="magnify" viewBox="0 0 112.5 112.499997" height="150" preserveAspectRatio="xMidYMid meet" version="1.0"><defs><clipPath id="5e722d689f"><path d="M 20 4 L 93.21875 4 L 93.21875 112 L 20 112 Z M 20 4 " clip-rule="nonzero"/></clipPath><clipPath id="84947d6ae0"><path d="M 18.550781 0 L 93.21875 0 L 93.21875 112 L 18.550781 112 Z M 18.550781 0 " clip-rule="nonzero"/></clipPath></defs><g clip-path="url(#5e722d689f)"><path fill="#f0d0b4" d="M 24.847656 78.695312 C 26.769531 77.527344 27.160156 77.671875 29.347656 77.28125 C 29.191406 77.203125 27.617188 74.433594 33 74.941406 C 37.980469 75.410156 38.472656 75.140625 39.769531 75.175781 C 41.082031 75.210938 41.410156 76.527344 42.722656 76.421875 C 43.800781 76.335938 44.953125 75.84375 45.960938 75.429688 C 46.871094 75.054688 47.699219 74.449219 48.179688 73.5625 C 48.722656 72.566406 48.796875 71.382812 48.820312 70.269531 C 48.882812 67.589844 48.75 64.898438 48.457031 62.234375 C 48.246094 62.105469 48.046875 61.984375 47.863281 61.871094 C 46.300781 65.96875 40.753906 70.414062 34.789062 70.414062 C 27.058594 70.414062 21.023438 64.519531 21.023438 56.761719 C 21.023438 49.480469 27.324219 43.5 33.394531 42.867188 C 33.191406 42.59375 32.714844 41.882812 32.304688 41.007812 C 31.519531 39.332031 31.878906 36.824219 33.820312 34.976562 C 35.621094 33.539062 37.175781 34.578125 37.175781 34.578125 C 37.175781 34.578125 37.679688 25.304688 38.003906 24.800781 C 40.03125 21.652344 42.972656 17.820312 46.371094 16.203125 C 47.089844 15.859375 47.84375 15.570312 48.617188 15.335938 C 48.617188 15.335938 52.117188 15.265625 55.839844 15.191406 C 56.320312 15.179688 57.1875 4.101562 57.1875 4.101562 C 57.1875 4.101562 58.195312 15.144531 58.636719 15.132812 C 61.804688 15.070312 64.511719 15.019531 64.550781 15.023438 C 68.125 15.292969 71.101562 17.652344 73.328125 20.457031 C 74.269531 21.648438 75.796875 23.15625 76.375 24.59375 C 76.71875 25.460938 76.890625 33.746094 76.890625 33.746094 C 76.890625 33.746094 78.113281 33.617188 79.375 34.078125 C 80.378906 34.441406 81.410156 35.179688 81.871094 36.65625 C 83.21875 39.988281 81.238281 42.050781 79.898438 43.835938 C 78.609375 45.558594 78.03125 47.476562 78.03125 47.476562 L 76.789062 47.476562 C 76.789062 47.476562 73.269531 55.265625 72.570312 56.589844 C 72.550781 56.585938 72.53125 56.582031 72.511719 56.578125 C 72.261719 56.902344 72.023438 57.179688 71.792969 57.410156 C 70.6875 58.527344 69.460938 59.515625 68.179688 60.414062 L 68.179688 60.3125 C 66.65625 61.453125 65.402344 62.265625 65.207031 62.390625 C 64.921875 65.023438 64.792969 67.679688 64.855469 70.328125 C 64.878906 71.441406 64.953125 72.621094 65.496094 73.617188 C 65.976562 74.503906 66.804688 75.113281 67.714844 75.484375 C 68.722656 75.902344 69.8125 76.070312 70.894531 76.15625 C 72.207031 76.261719 73.523438 76.238281 74.835938 76.203125 C 76.132812 76.167969 77.429688 76.125 78.726562 76.179688 C 79.984375 76.234375 81.242188 76.375 82.484375 76.597656 C 84.667969 76.984375 86.910156 77.585938 88.828125 78.75 C 90.632812 79.84375 91.980469 81.476562 92.589844 83.535156 C 93.21875 85.664062 93.109375 87.949219 92.894531 90.132812 C 92.640625 92.726562 92.328125 95.316406 92.039062 97.90625 C 91.519531 102.601562 91 107.296875 90.480469 111.996094 L 23.203125 111.996094 C 22.683594 107.277344 22.160156 102.5625 21.636719 97.847656 C 21.351562 95.257812 21.035156 92.667969 20.78125 90.078125 C 20.566406 87.890625 20.457031 85.609375 21.085938 83.480469 C 21.695312 81.417969 23.042969 79.789062 24.847656 78.695312 Z M 24.847656 78.695312 " fill-opacity="1" fill-rule="nonzero"/></g><path fill="#d89c73" d="M 31.421875 64.007812 C 31.410156 63.976562 31.390625 63.941406 31.367188 63.914062 C 31.492188 63.445312 31.628906 62.980469 31.777344 62.515625 C 32.546875 62.1875 33.296875 61.8125 34.019531 61.378906 C 34.027344 61.375 34.035156 61.371094 34.042969 61.363281 C 34.371094 61.601562 34.996094 62.042969 35.371094 62.304688 C 34.839844 63.109375 34.324219 63.929688 33.824219 64.757812 C 33.789062 64.730469 33.746094 64.710938 33.691406 64.707031 C 33.5625 64.695312 33.4375 64.683594 33.308594 64.667969 C 32.667969 64.480469 32.007812 64.335938 31.421875 64.007812 Z M 32.480469 56.832031 C 32.636719 56.308594 32.984375 55.148438 33.171875 54.648438 C 32.816406 53.976562 32.429688 53.320312 32.023438 52.679688 L 29.894531 53.753906 C 29.789062 54.273438 29.6875 54.789062 29.582031 55.308594 C 29.847656 55.960938 30.140625 56.601562 30.449219 57.230469 C 31.09375 57.105469 31.730469 56.976562 32.371094 56.835938 C 32.410156 56.824219 32.445312 56.824219 32.480469 56.832031 Z M 29.355469 59.433594 C 30.089844 60.3125 30.851562 61.164062 31.636719 61.992188 C 32.367188 61.683594 33.074219 61.320312 33.761719 60.910156 C 33.777344 60.898438 33.796875 60.890625 33.816406 60.882812 C 33.804688 60.386719 33.785156 59.425781 33.796875 58.839844 C 33.617188 58.621094 32.917969 57.75 32.582031 57.328125 C 32.5625 57.339844 32.535156 57.351562 32.507812 57.359375 C 31.691406 57.539062 30.878906 57.703125 30.058594 57.855469 C 29.835938 58.355469 29.609375 58.851562 29.386719 59.351562 C 29.382812 59.378906 29.371094 59.410156 29.355469 59.433594 Z M 34.308594 58.839844 C 34.277344 59.527344 34.269531 60.21875 34.285156 60.910156 C 34.535156 61.132812 35.539062 61.988281 35.609375 61.953125 C 35.683594 61.914062 37.539062 60.679688 37.753906 60.511719 C 37.703125 60.292969 36.710938 58.105469 36.566406 58.128906 C 36.402344 58.15625 34.925781 58.671875 34.308594 58.839844 Z M 38.296875 60.324219 C 38.894531 60.511719 39.488281 60.699219 40.082031 60.886719 C 40.308594 60.167969 40.523438 59.445312 40.734375 58.722656 C 40.246094 58.136719 39.722656 57.582031 39.167969 57.066406 C 38.492188 57.378906 37.8125 57.667969 37.121094 57.929688 Z M 39.105469 63.40625 C 39.132812 63.402344 39.15625 63.398438 39.179688 63.398438 C 39.394531 62.722656 39.609375 62.046875 39.832031 61.375 C 39.269531 61.199219 38.707031 61.019531 38.148438 60.84375 C 38.132812 60.839844 38.121094 60.835938 38.109375 60.828125 L 36 62.289062 C 36.003906 62.300781 36.007812 62.308594 36.011719 62.320312 C 36.203125 62.902344 36.441406 63.464844 36.714844 64.007812 C 37.511719 63.808594 38.308594 63.609375 39.105469 63.40625 Z M 40.933594 62.9375 C 40.683594 62.609375 40.433594 62.28125 40.183594 61.949219 C 40.011719 62.480469 39.84375 63.011719 39.679688 63.542969 C 39.964844 63.652344 40.242188 63.785156 40.507812 63.941406 C 40.648438 63.609375 40.792969 63.273438 40.933594 62.9375 Z M 36.355469 64.445312 C 36.082031 63.925781 35.847656 63.390625 35.644531 62.835938 C 35.164062 63.574219 34.695312 64.320312 34.242188 65.078125 C 34.292969 65.113281 34.332031 65.164062 34.355469 65.238281 C 34.382812 65.324219 34.414062 65.410156 34.445312 65.496094 L 34.804688 66.222656 C 34.828125 66.277344 34.835938 66.328125 34.832031 66.375 C 34.976562 66.640625 35.140625 66.890625 35.320312 67.125 C 35.644531 66.796875 35.96875 66.46875 36.289062 66.140625 C 36.3125 66.117188 36.335938 66.101562 36.359375 66.089844 C 36.351562 65.566406 36.371094 65.042969 36.414062 64.519531 C 36.390625 64.5 36.371094 64.476562 36.355469 64.445312 Z M 79.996094 37.8125 C 79.304688 37.402344 78.34375 37.78125 77.769531 38.320312 C 77.46875 38.601562 77.210938 38.949219 77.042969 39.347656 C 77.039062 39.355469 77.035156 39.367188 77.03125 39.378906 L 76.902344 40.128906 C 78 40.425781 77.554688 42.003906 77.292969 42.300781 C 77.238281 42.382812 77.050781 42.675781 77.011719 42.734375 C 77 42.753906 76.988281 42.769531 76.980469 42.785156 L 76.726562 44.261719 C 76.933594 43.945312 77.203125 43.5 77.238281 43.484375 C 78.230469 43.015625 79.042969 42.113281 79.273438 40.949219 C 79.433594 40.160156 79.253906 38.941406 78.597656 38.535156 C 78.75 38.457031 78.910156 38.398438 79.078125 38.367188 C 79.269531 38.332031 79.488281 38.320312 79.664062 38.417969 C 79.84375 38.515625 79.894531 38.71875 79.914062 38.925781 C 79.964844 39.4375 79.789062 41.199219 80.027344 40.832031 C 80.355469 40.335938 80.539062 39.769531 80.554688 39.164062 C 80.566406 38.632812 80.4375 38.078125 79.996094 37.8125 Z M 28.464844 51.726562 C 28.488281 51.71875 28.507812 51.714844 28.527344 51.710938 C 28.726562 51.277344 28.933594 50.847656 29.152344 50.421875 C 29.15625 50.394531 29.164062 50.363281 29.175781 50.339844 C 29.027344 49.910156 28.878906 49.484375 28.726562 49.058594 C 28.609375 48.730469 29.109375 48.585938 29.222656 48.914062 C 29.375 49.34375 29.523438 49.773438 29.675781 50.203125 C 30.085938 50.207031 30.496094 50.210938 30.902344 50.214844 C 31.039062 49.820312 31.203125 49.4375 31.394531 49.070312 C 31.386719 49.035156 31.386719 48.996094 31.398438 48.953125 C 31.480469 48.566406 31.566406 48.179688 31.648438 47.792969 C 31.726562 47.453125 32.21875 47.597656 32.144531 47.9375 C 32.070312 48.292969 31.992188 48.644531 31.914062 48.996094 C 31.925781 49.003906 31.933594 49.015625 31.941406 49.027344 C 32.359375 49.558594 32.816406 50.054688 33.308594 50.515625 C 33.355469 50.5625 33.378906 50.609375 33.386719 50.660156 L 35.179688 51.070312 C 34.980469 50.394531 34.773438 49.722656 34.542969 49.058594 C 34.429688 48.726562 34.925781 48.585938 35.039062 48.914062 C 35.289062 49.640625 35.519531 50.378906 35.730469 51.121094 C 35.734375 51.128906 35.734375 51.136719 35.734375 51.144531 C 36.246094 51.207031 36.761719 51.246094 37.277344 51.257812 C 37.488281 50.589844 37.695312 49.917969 37.90625 49.25 C 37.652344 48.773438 37.375 48.308594 37.074219 47.863281 C 36.882812 47.578125 37.328125 47.304688 37.515625 47.585938 C 37.796875 48.003906 38.058594 48.433594 38.300781 48.878906 C 38.34375 48.875 38.390625 48.882812 38.4375 48.910156 C 38.960938 49.179688 39.476562 49.460938 39.988281 49.75 C 40.351562 49.234375 40.683594 48.699219 40.992188 48.148438 C 41.160156 47.84375 41.601562 48.121094 41.433594 48.421875 C 41.113281 48.996094 40.765625 49.554688 40.390625 50.089844 C 40.398438 50.117188 40.40625 50.148438 40.410156 50.183594 C 40.449219 50.617188 40.492188 51.054688 40.535156 51.488281 C 40.972656 51.570312 41.410156 51.640625 41.847656 51.695312 C 41.851562 51.695312 41.855469 51.695312 41.859375 51.699219 C 42.460938 51.207031 43.085938 50.75 43.730469 50.328125 C 44.015625 50.144531 44.273438 50.613281 43.992188 50.796875 C 43.351562 51.214844 42.734375 51.664062 42.140625 52.152344 L 42.140625 53.964844 C 42.652344 53.8125 43.171875 53.679688 43.699219 53.570312 C 43.710938 53.566406 43.726562 53.566406 43.738281 53.566406 C 43.867188 53.246094 43.992188 52.925781 44.121094 52.609375 C 44.175781 52.472656 44.367188 52.441406 44.472656 52.507812 C 44.601562 52.59375 44.621094 52.746094 44.566406 52.882812 L 44.242188 53.6875 C 44.347656 53.710938 44.453125 53.730469 44.558594 53.746094 C 44.695312 53.765625 44.773438 53.957031 44.738281 54.082031 C 44.695312 54.238281 44.558594 54.292969 44.421875 54.273438 C 44.21875 54.242188 44.019531 54.199219 43.824219 54.140625 C 43.800781 54.132812 43.777344 54.125 43.757812 54.113281 C 43.242188 54.222656 42.730469 54.351562 42.222656 54.507812 C 42.476562 55.148438 42.71875 55.796875 42.949219 56.449219 C 43.414062 56.734375 43.878906 57.015625 44.34375 57.300781 C 44.742188 56.789062 45.136719 56.277344 45.53125 55.765625 C 45.621094 55.652344 45.804688 55.667969 45.894531 55.765625 C 46 55.878906 45.984375 56.039062 45.894531 56.152344 C 45.488281 56.675781 45.085938 57.199219 44.679688 57.722656 C 44.707031 58.214844 44.730469 58.710938 44.757812 59.207031 C 45.226562 59.347656 45.699219 59.460938 46.179688 59.550781 C 46.1875 59.546875 46.199219 59.539062 46.207031 59.535156 L 47.359375 58.824219 C 47.644531 58.648438 47.902344 59.121094 47.617188 59.296875 C 47.289062 59.5 46.957031 59.703125 46.628906 59.90625 L 47.140625 60.875 C 47.304688 61.179688 46.859375 61.457031 46.699219 61.148438 L 46.140625 60.09375 C 45.546875 59.988281 44.964844 59.84375 44.390625 59.65625 C 44.375 59.652344 44.363281 59.648438 44.351562 59.640625 C 43.953125 59.914062 43.558594 60.183594 43.164062 60.453125 L 43.164062 62.367188 C 43.699219 62.863281 44.257812 63.328125 44.832031 63.769531 C 45.269531 63.59375 45.707031 63.414062 46.144531 63.238281 C 46.453125 63.113281 46.589844 63.640625 46.28125 63.761719 C 45.875 63.925781 45.472656 64.089844 45.066406 64.253906 C 45.183594 64.558594 45.320312 64.851562 45.476562 65.132812 C 45.644531 65.4375 45.199219 65.710938 45.035156 65.410156 C 44.820312 65.019531 44.640625 64.609375 44.488281 64.183594 C 44.488281 64.179688 44.488281 64.175781 44.484375 64.171875 C 43.921875 63.738281 43.375 63.28125 42.851562 62.800781 C 42.835938 62.796875 42.824219 62.792969 42.8125 62.789062 C 42.347656 62.867188 41.886719 62.96875 41.425781 63.09375 L 40.828125 64.507812 C 40.929688 65.007812 41.03125 65.507812 41.128906 66.007812 C 41.132812 66.011719 41.132812 66.011719 41.132812 66.011719 C 41.773438 66.191406 42.421875 66.347656 43.074219 66.472656 C 43.398438 66.535156 43.261719 67.0625 42.9375 67 C 42.316406 66.878906 41.699219 66.734375 41.085938 66.5625 C 40.917969 66.917969 40.753906 67.269531 40.589844 67.621094 C 40.441406 67.9375 40 67.660156 40.144531 67.347656 C 40.320312 66.976562 40.492188 66.609375 40.664062 66.238281 C 40.652344 66.214844 40.640625 66.1875 40.632812 66.15625 C 40.527344 65.617188 40.417969 65.078125 40.308594 64.542969 C 40.304688 64.507812 40.300781 64.476562 40.304688 64.449219 C 39.996094 64.261719 39.675781 64.109375 39.335938 63.992188 C 39.296875 63.976562 39.265625 63.957031 39.242188 63.933594 C 38.46875 64.128906 37.699219 64.320312 36.925781 64.515625 C 36.878906 65.082031 36.863281 65.652344 36.875 66.222656 C 36.875 66.222656 36.875 66.226562 36.875 66.230469 C 37.230469 66.496094 37.601562 66.738281 37.988281 66.953125 C 38.28125 67.113281 38.019531 67.585938 37.730469 67.421875 C 37.316406 67.191406 36.917969 66.933594 36.539062 66.640625 C 36.1875 67 35.839844 67.351562 35.488281 67.707031 C 35.476562 67.722656 35.460938 67.734375 35.449219 67.742188 C 35.375 68 35.320312 68.265625 35.238281 68.519531 C 35.117188 68.890625 34.535156 68.730469 34.652344 68.359375 C 34.742188 68.089844 34.796875 67.808594 34.878906 67.535156 C 34.398438 66.921875 34.035156 66.210938 33.796875 65.472656 C 33.527344 65.355469 33.246094 65.265625 32.964844 65.183594 C 32.71875 65.160156 32.472656 65.140625 32.222656 65.121094 C 31.988281 66.105469 31.699219 67.074219 31.386719 68.035156 C 33.125 69.007812 35.101562 69.558594 37.203125 69.558594 C 43.214844 69.558594 48.234375 65.050781 49.445312 59.042969 L 50.925781 59.179688 C 51.457031 57.71875 51.742188 56.144531 51.742188 54.5 C 51.742188 47.152344 45.988281 41.152344 38.753906 40.789062 C 38.789062 36.59375 38.824219 32.59375 38.824219 32.496094 C 38.753906 28.375 40.71875 25.550781 42.6875 23.253906 C 44.492188 21.152344 46.824219 19.730469 49.089844 18.84375 C 50.316406 18.363281 53.066406 17.796875 56.246094 18.769531 C 56.800781 18.9375 57.390625 18.953125 57.957031 18.828125 C 61.660156 18.007812 65.597656 18.640625 67.652344 19.78125 C 70.511719 21.367188 72.867188 23.800781 74.0625 27.839844 C 74.589844 29.632812 75.128906 30.625 75.144531 33.121094 C 75.148438 33.984375 75.171875 40.214844 75.066406 44.746094 C 75.046875 45.589844 76.042969 47.0625 76.042969 47.0625 L 76.671875 29.765625 C 76.671875 28.292969 75.84375 24.417969 73.351562 21.109375 C 71.445312 18.574219 68.144531 15.457031 63.914062 14.914062 C 63.871094 14.910156 61.402344 14.554688 58.417969 15.9375 C 58.015625 16.125 56.96875 4.90625 56.96875 4.90625 C 56.96875 4.90625 56.390625 15.675781 55.945312 15.488281 C 52.96875 14.265625 49.628906 14.769531 49.628906 14.769531 C 48.855469 15.003906 40.792969 18.53125 37.785156 25.917969 C 37.765625 25.96875 37.722656 30.636719 37.679688 35.71875 C 37.089844 35.136719 36.351562 34.789062 35.546875 34.789062 C 34.792969 34.789062 34.675781 35.597656 34.582031 36.53125 C 34.441406 37.953125 34.34375 39.648438 32.09375 39.148438 C 32.09375 40.222656 32.398438 41.207031 32.910156 41.964844 L 37.199219 41.964844 L 37.199219 42.328125 C 37.199219 42.328125 37.257812 42.519531 37.359375 42.859375 C 37.449219 42.871094 37.535156 42.890625 37.621094 42.90625 C 37.621094 42.917969 37.621094 42.925781 37.621094 42.9375 C 37.480469 42.929688 37.34375 42.925781 37.203125 42.925781 C 32.097656 42.925781 27.710938 46.175781 25.757812 50.832031 L 26.839844 52.320312 C 27.382812 52.125 27.921875 51.925781 28.464844 51.726562 Z M 56.191406 44.238281 C 56.0625 44.15625 55.835938 44.191406 55.769531 44.355469 C 55.457031 45.140625 55.152344 45.9375 54.832031 46.722656 C 54.597656 47.292969 54.625 47.792969 54.753906 48.179688 C 54.855469 48.484375 55.128906 48.6875 55.433594 48.6875 L 55.679688 48.6875 C 56.007812 48.6875 56.332031 48.78125 56.613281 48.964844 L 56.644531 48.96875 L 58.144531 48.96875 C 58.378906 48.785156 58.664062 48.6875 58.953125 48.6875 L 59.195312 48.6875 C 59.578125 48.6875 59.917969 48.417969 60.015625 48.023438 C 60.101562 47.664062 60.097656 47.21875 59.894531 46.722656 C 59.570312 45.9375 59.265625 45.140625 58.953125 44.355469 C 58.890625 44.191406 58.660156 44.15625 58.53125 44.238281 C 58.375 44.335938 58.355469 44.519531 58.421875 44.683594 C 58.550781 45.011719 58.863281 46.464844 58.835938 46.765625 C 58.808594 47.121094 58.527344 47.390625 58.195312 47.390625 L 56.53125 47.390625 C 56.195312 47.390625 55.914062 47.121094 55.886719 46.765625 C 55.863281 46.464844 56.171875 45.011719 56.304688 44.683594 C 56.367188 44.519531 56.347656 44.335938 56.191406 44.238281 Z M 42.648438 62.269531 L 42.648438 60.433594 L 41.164062 59.09375 C 40.9375 59.863281 40.707031 60.632812 40.464844 61.394531 C 40.460938 61.410156 40.453125 61.421875 40.449219 61.433594 C 40.734375 61.808594 41.019531 62.1875 41.304688 62.566406 C 41.75 62.445312 42.199219 62.347656 42.648438 62.269531 Z M 85.136719 97.878906 C 84.796875 96.808594 81.820312 76.605469 81.820312 76.605469 L 81.714844 91.167969 C 81.714844 91.167969 83.375 96.679688 83.789062 98.867188 C 84.203125 101.050781 83.890625 105.523438 83.890625 107.292969 C 83.890625 107.882812 83.570312 109.84375 83.136719 111.996094 L 90.230469 111.996094 L 91.203125 103.183594 C 91.203125 103.183594 87.46875 105.210938 85.136719 97.878906 Z M 58.84375 41.335938 C 58.878906 39.289062 59.394531 37.273438 60.339844 35.492188 C 60.535156 35.121094 60.003906 34.785156 59.808594 35.15625 C 58.808594 37.039062 58.265625 39.171875 58.230469 41.335938 C 58.222656 41.765625 58.839844 41.765625 58.84375 41.335938 Z M 44.730469 32.554688 C 44.527344 32.628906 44.386719 32.824219 44.449219 33.050781 C 44.503906 33.25 44.742188 33.410156 44.945312 33.332031 C 46.101562 32.90625 47.347656 32.855469 48.53125 33.199219 C 49.03125 33.34375 49.246094 32.5625 48.746094 32.417969 C 47.4375 32.039062 46.011719 32.082031 44.730469 32.554688 Z M 42.683594 76.5 L 42.121094 76.5 L 48.789062 91.792969 C 48.789062 91.792969 58.429688 97.777344 59.609375 98.65625 L 65.132812 98.65625 C 66.875 98.179688 68.488281 97.546875 69.960938 96.789062 C 74.027344 94.699219 76.582031 90.5 76.582031 85.917969 L 76.582031 76.542969 C 76.378906 76.3125 74.4375 76.675781 74.300781 76.707031 C 74.25 76.722656 75.660156 87.21875 73.054688 91.324219 C 71.046875 94.492188 67.777344 96.300781 64.183594 96.496094 C 59.988281 96.722656 55.355469 94.761719 51.765625 90.214844 C 50.277344 88.328125 48.683594 85.847656 47.246094 83.558594 C 47.648438 83.625 49.480469 84.066406 51.042969 84.417969 C 53.769531 85.03125 51.890625 83.890625 50.863281 83.367188 C 48.617188 82.214844 45.703125 80.71875 45.058594 80.089844 C 43.796875 78.863281 43.304688 77.414062 42.683594 76.5 Z M 65.863281 33.1875 C 67.019531 32.757812 68.265625 32.707031 69.449219 33.050781 C 69.949219 33.199219 70.160156 32.417969 69.664062 32.273438 C 68.351562 31.890625 66.929688 31.933594 65.648438 32.40625 C 65.441406 32.480469 65.304688 32.679688 65.367188 32.902344 C 65.421875 33.101562 65.65625 33.261719 65.863281 33.1875 Z M 49.203125 71.539062 C 49.203125 71.539062 51.632812 71.644531 56.703125 69.523438 C 58.769531 68.660156 60.523438 67.265625 61.871094 65.917969 C 63.828125 63.964844 64.9375 62.109375 64.9375 62.109375 C 64.9375 62.109375 62.207031 64.050781 59.765625 64.96875 C 58.71875 65.363281 56.996094 65.710938 56.171875 65.710938 C 54.0625 65.710938 48.78125 62.320312 48.78125 62.320312 Z M 38.351562 53.726562 C 38.335938 53.75 38.3125 53.773438 38.285156 53.789062 C 37.703125 54.191406 37.097656 54.558594 36.46875 54.878906 C 36.457031 54.886719 36.441406 54.890625 36.429688 54.898438 L 36.964844 57.410156 C 37.648438 57.152344 38.316406 56.875 38.976562 56.5625 C 39.003906 56.550781 39.035156 56.542969 39.0625 56.535156 C 39.25 55.921875 39.4375 55.308594 39.628906 54.695312 C 39.191406 54.390625 38.765625 54.066406 38.351562 53.726562 Z M 29.066406 63.738281 C 29.664062 63.664062 30.269531 63.679688 30.867188 63.777344 C 30.992188 63.308594 31.128906 62.84375 31.277344 62.382812 C 30.476562 61.539062 29.703125 60.671875 28.957031 59.777344 C 28.566406 60.078125 28.152344 60.347656 27.71875 60.574219 C 27.542969 61.09375 27.363281 61.613281 27.1875 62.132812 C 27.21875 62.144531 27.25 62.164062 27.277344 62.191406 C 27.832031 62.695312 28.382812 63.199219 28.980469 63.652344 C 29.011719 63.675781 29.042969 63.707031 29.066406 63.738281 Z M 28.53125 64.066406 C 27.949219 63.609375 27.398438 63.117188 26.851562 62.621094 C 26.847656 62.617188 26.84375 62.613281 26.839844 62.609375 L 26.402344 62.980469 C 26.890625 63.863281 27.472656 64.683594 28.136719 65.425781 C 28.273438 64.972656 28.433594 64.527344 28.53125 64.066406 Z M 26.996094 52.839844 C 27.082031 53.621094 27.1875 54.402344 27.3125 55.179688 C 27.832031 55.128906 28.347656 55.0625 28.863281 54.984375 C 28.957031 54.96875 29.046875 54.988281 29.109375 55.050781 C 29.214844 54.53125 29.320312 54.007812 29.421875 53.488281 C 29.121094 53.089844 28.824219 52.683594 28.53125 52.277344 C 28.019531 52.464844 27.507812 52.652344 26.996094 52.839844 Z M 26.273438 58.382812 C 26.675781 58.953125 27.078125 59.523438 27.480469 60.089844 C 27.992188 59.824219 28.476562 59.5 28.921875 59.125 C 29.222656 58.457031 29.519531 57.789062 29.820312 57.121094 C 29.566406 56.589844 29.328125 56.050781 29.105469 55.5 C 29.101562 55.488281 29.097656 55.476562 29.09375 55.460938 C 29.066406 55.484375 29.035156 55.503906 29 55.507812 C 28.414062 55.601562 27.828125 55.675781 27.238281 55.730469 C 26.875 56.582031 26.527344 57.441406 26.199219 58.308594 C 26.226562 58.328125 26.253906 58.355469 26.273438 58.382812 Z M 25.664062 58.75 C 25.414062 58.773438 25.167969 58.808594 24.921875 58.847656 C 25.164062 60.144531 25.582031 61.371094 26.148438 62.5 C 26.320312 62.359375 26.492188 62.214844 26.660156 62.070312 C 26.835938 61.5625 27.007812 61.054688 27.183594 60.546875 C 27.179688 60.539062 27.179688 60.535156 27.175781 60.527344 C 27.144531 60.503906 27.117188 60.476562 27.089844 60.441406 L 25.832031 58.664062 C 25.792969 58.710938 25.734375 58.742188 25.664062 58.75 Z M 25.664062 58.203125 C 25.671875 58.203125 25.679688 58.203125 25.691406 58.203125 C 26.03125 57.304688 26.390625 56.410156 26.765625 55.527344 C 26.074219 55.5625 25.386719 55.601562 24.695312 55.640625 C 24.6875 55.839844 24.683594 56.039062 24.683594 56.242188 C 24.683594 56.945312 24.734375 57.636719 24.832031 58.3125 C 25.109375 58.269531 25.386719 58.230469 25.664062 58.203125 Z M 31.683594 64.792969 C 31.464844 64.707031 31.25 64.609375 31.042969 64.488281 C 30.96875 64.492188 30.890625 64.464844 30.835938 64.410156 C 30.285156 64.390625 29.738281 64.425781 29.191406 64.425781 C 29.144531 64.425781 29.105469 64.417969 29.074219 64.402344 C 28.957031 64.878906 28.785156 65.34375 28.652344 65.816406 C 28.640625 65.855469 28.625 65.890625 28.605469 65.917969 C 29.285156 66.605469 30.042969 67.210938 30.855469 67.71875 C 31.167969 66.753906 31.453125 65.78125 31.683594 64.792969 Z M 48.636719 97.570312 C 49.328125 97.15625 50.023438 96.746094 50.714844 96.332031 C 50.972656 96.179688 50.863281 95.769531 50.5625 95.769531 C 48.535156 95.773438 46.261719 95.773438 44.445312 94.75 C 40.289062 90.210938 38.695312 84.601562 38.597656 84.53125 L 33.066406 82.941406 L 33.140625 82.375 C 33.191406 81.960938 33.570312 81.667969 33.984375 81.726562 C 35.457031 81.929688 38.609375 82.367188 38.902344 82.414062 C 39.417969 82.5 39.492188 81.300781 38.980469 81.214844 C 38.882812 81.199219 34.515625 80.71875 32.9375 80.542969 C 32.652344 80.511719 32.464844 80.21875 32.558594 79.945312 L 32.660156 79.632812 C 32.660156 79.632812 39.214844 79.867188 39.601562 79.921875 C 40.117188 79.996094 40.429688 79.425781 39.914062 79.351562 C 39.828125 79.339844 34.167969 78.628906 32.195312 78.378906 C 31.742188 78.324219 31.566406 77.75 31.914062 77.457031 C 32.105469 77.296875 32.347656 77.203125 32.613281 77.203125 L 38.460938 77.203125 C 37.554688 76.964844 34.15625 76.648438 31.945312 76.128906 C 30.445312 75.777344 30.410156 75 30.269531 75.074219 C 29.894531 75.269531 29.125 75.285156 29.070312 76.128906 C 29.007812 77.132812 29.085938 79.21875 28.957031 81.339844 C 28.945312 81.550781 30.4375 87.285156 30.40625 87.496094 C 29.636719 92.570312 28.839844 97.664062 28.671875 98.191406 C 26.339844 105.523438 22.605469 103.496094 22.605469 103.496094 L 23.570312 111.992188 L 30.914062 111.992188 C 30.367188 110.078125 29.917969 108.292969 29.917969 107.605469 C 29.917969 105.835938 29.605469 101.363281 30.019531 99.179688 C 30.4375 96.992188 32.09375 91.480469 32.09375 91.480469 L 32.71875 89.46875 C 33.820312 89.910156 36.367188 90.839844 36.546875 90.734375 C 36.992188 90.472656 36.617188 88.671875 36.617188 88.671875 C 36.617188 88.671875 37.898438 89.554688 38.445312 90.503906 C 39.019531 91.496094 39.804688 92.558594 40.460938 93.496094 C 41.484375 94.953125 42.304688 96.554688 43.863281 97.53125 C 44.273438 97.789062 45.496094 98.246094 45.605469 98.21875 L 60.644531 111.992188 L 79.734375 111.992188 C 79.734375 111.992188 76.097656 111.867188 71.203125 110.59375 C 68.917969 110 66.363281 109.15625 63.769531 107.960938 C 56.367188 104.546875 48.5625 97.613281 48.636719 97.570312 Z M 26.46875 52.691406 C 26.15625 52.265625 25.84375 51.835938 25.535156 51.40625 C 25.109375 52.566406 24.832031 53.804688 24.730469 55.09375 C 25.40625 55.058594 26.085938 55.019531 26.765625 54.980469 C 26.648438 54.222656 26.550781 53.457031 26.46875 52.691406 Z M 32.417969 52.328125 C 32.855469 53.007812 33.261719 53.703125 33.640625 54.417969 C 33.957031 54.421875 34.4375 54.425781 34.90625 54.433594 C 34.960938 53.492188 35.035156 52.554688 35.125 51.617188 C 34.519531 51.476562 33.910156 51.335938 33.304688 51.195312 C 33.007812 51.574219 32.714844 51.953125 32.417969 52.328125 Z M 40.339844 51.996094 C 40.320312 52.023438 40.296875 52.050781 40.269531 52.070312 C 39.746094 52.496094 39.214844 52.910156 38.679688 53.316406 C 38.683594 53.316406 38.6875 53.320312 38.6875 53.320312 C 39.101562 53.660156 39.53125 53.980469 39.96875 54.28125 C 40.519531 54.136719 41.074219 53.992188 41.625 53.847656 L 41.625 52.210938 C 41.214844 52.15625 40.804688 52.089844 40.394531 52.015625 C 40.375 52.011719 40.355469 52.003906 40.339844 51.996094 Z M 38.375 49.480469 C 38.175781 50.117188 37.976562 50.75 37.777344 51.386719 C 37.789062 51.402344 37.796875 51.421875 37.804688 51.4375 C 37.992188 51.917969 38.183594 52.398438 38.371094 52.878906 C 38.925781 52.464844 39.472656 52.039062 40.007812 51.601562 C 40.015625 51.597656 40.023438 51.589844 40.03125 51.585938 C 39.988281 51.164062 39.949219 50.742188 39.910156 50.320312 C 39.402344 50.03125 38.890625 49.753906 38.375 49.480469 Z M 35.632812 51.679688 C 35.546875 52.597656 35.476562 53.519531 35.421875 54.441406 C 35.722656 54.445312 35.988281 54.449219 36.152344 54.449219 L 38 53.335938 C 37.800781 52.828125 37.597656 52.316406 37.394531 51.804688 C 36.804688 51.792969 36.21875 51.753906 35.632812 51.679688 Z M 40.136719 54.796875 L 39.550781 56.703125 C 40.082031 57.191406 40.578125 57.71875 41.046875 58.273438 C 41.480469 57.714844 41.921875 57.160156 42.371094 56.617188 C 42.394531 56.589844 42.417969 56.570312 42.441406 56.558594 C 42.1875 55.832031 41.917969 55.117188 41.628906 54.40625 C 41.132812 54.539062 40.632812 54.667969 40.136719 54.796875 Z M 31.082031 50.761719 C 30.578125 50.757812 30.074219 50.753906 29.570312 50.75 C 29.359375 51.160156 29.160156 51.574219 28.96875 51.992188 C 29.253906 52.390625 29.546875 52.785156 29.839844 53.175781 C 29.839844 53.175781 29.839844 53.175781 29.84375 53.179688 C 30.515625 52.839844 31.183594 52.5 31.855469 52.160156 C 31.609375 51.683594 31.351562 51.21875 31.082031 50.757812 C 31.082031 50.761719 31.082031 50.761719 31.082031 50.761719 Z M 32.921875 56.941406 C 33.101562 57.230469 33.851562 58.347656 33.925781 58.332031 C 34.007812 58.316406 36.566406 57.53125 36.597656 57.503906 C 36.574219 57.519531 36.03125 55.046875 35.882812 55.03125 C 35.722656 55.007812 34.117188 54.976562 33.476562 54.960938 C 33.269531 55.613281 33.085938 56.273438 32.921875 56.941406 Z M 31.71875 49.585938 C 31.605469 49.816406 31.507812 50.054688 31.417969 50.300781 C 31.699219 50.769531 31.964844 51.246094 32.222656 51.730469 C 32.449219 51.441406 32.675781 51.152344 32.902344 50.863281 C 32.480469 50.464844 32.085938 50.039062 31.71875 49.585938 Z M 44.203125 59.09375 C 44.214844 59.085938 44.226562 59.082031 44.238281 59.074219 C 44.214844 58.65625 44.191406 58.238281 44.171875 57.820312 C 43.703125 57.535156 43.230469 57.25 42.761719 56.964844 C 42.753906 56.976562 42.746094 56.988281 42.734375 57.003906 C 42.292969 57.535156 41.859375 58.078125 41.4375 58.625 C 41.933594 59.074219 42.429688 59.519531 42.925781 59.96875 C 43.351562 59.675781 43.777344 59.386719 44.203125 59.09375 Z M 44.203125 59.09375 " fill-opacity="1" fill-rule="nonzero"/><path fill="#e06f69" d="M 71.398438 45.257812 C 71.398438 46.269531 69.804688 45.589844 68.027344 45.589844 C 66.253906 45.589844 64.96875 46.269531 64.96875 45.257812 C 64.96875 44.242188 66.40625 43.421875 68.183594 43.421875 C 69.957031 43.421875 71.398438 44.242188 71.398438 45.257812 Z M 62.242188 54.171875 C 62.242188 55.851562 60.285156 56.484375 57.835938 56.484375 C 56.257812 56.484375 54.863281 56.222656 54.070312 55.585938 L 57.421875 55.585938 C 58.070312 55.585938 58.070312 54.574219 57.421875 54.574219 L 53.417969 54.574219 C 53.390625 54.449219 53.375 54.3125 53.375 54.171875 C 53.375 52.492188 55.359375 51.128906 57.808594 51.128906 C 60.257812 51.128906 62.242188 52.492188 62.242188 54.171875 Z M 59.910156 54.472656 C 59.261719 54.472656 59.257812 55.484375 59.910156 55.484375 C 60.558594 55.484375 60.558594 54.472656 59.910156 54.472656 Z M 47.128906 43.316406 C 46.699219 43.316406 46.289062 43.367188 45.914062 43.453125 C 46.75 44.152344 47.589844 44.84375 48.378906 45.59375 C 49.511719 45.734375 50.34375 45.886719 50.34375 45.152344 C 50.34375 44.140625 48.90625 43.316406 47.128906 43.316406 Z M 87.742188 40.121094 L 87.742188 30.769531 C 87.742188 29.988281 86.457031 29.988281 86.457031 30.769531 L 86.457031 40.121094 C 86.457031 40.898438 87.742188 40.902344 87.742188 40.121094 Z M 87.191406 42.441406 C 86.796875 42.441406 86.476562 42.746094 86.476562 43.117188 C 86.476562 43.492188 86.796875 43.792969 87.191406 43.792969 C 87.589844 43.792969 87.910156 43.492188 87.910156 43.117188 C 87.910156 42.746094 87.589844 42.441406 87.191406 42.441406 Z M 92.035156 40.121094 L 92.035156 30.769531 C 92.035156 29.988281 90.75 29.988281 90.75 30.769531 L 90.75 40.121094 C 90.75 40.898438 92.035156 40.902344 92.035156 40.121094 Z M 91.488281 42.441406 C 91.089844 42.441406 90.769531 42.746094 90.769531 43.117188 C 90.769531 43.492188 91.089844 43.792969 91.488281 43.792969 C 91.882812 43.792969 92.203125 43.492188 92.203125 43.117188 C 92.203125 42.746094 91.882812 42.441406 91.488281 42.441406 Z M 91.488281 42.441406 " fill-opacity="1" fill-rule="nonzero"/><path fill="#e4eff4" d="M 64.085938 37.933594 C 64.085938 36.078125 65.800781 34.578125 67.917969 34.578125 C 70.035156 34.578125 71.75 36.078125 71.75 37.933594 C 71.75 39.785156 70.035156 41.289062 67.917969 41.289062 C 65.800781 41.285156 64.085938 39.785156 64.085938 37.933594 Z M 55.003906 53.796875 L 60.230469 53.796875 C 60.460938 53.796875 60.542969 53.382812 60.34375 53.226562 C 59.777344 52.777344 58.769531 52.480469 57.617188 52.480469 C 56.464844 52.480469 55.457031 52.777344 54.890625 53.226562 C 54.691406 53.382812 54.773438 53.796875 55.003906 53.796875 Z M 82.046875 76.410156 C 80.917969 76.207031 75.605469 75.988281 75.605469 75.988281 L 75.710938 85.203125 C 75.710938 92.050781 70.179688 97.597656 63.355469 97.597656 L 57.890625 97.597656 L 79.058594 111.996094 L 83.0625 111.996094 C 83.6875 106.855469 84.023438 98.589844 82.011719 92.832031 C 82.125 84.335938 82.140625 76.429688 82.046875 76.410156 Z M 45.601562 97.722656 C 41.117188 96.59375 37.28125 88.308594 37.28125 88.308594 L 36.191406 88.28125 L 36.578125 90.542969 L 32.691406 89.0625 C 32.691406 89.0625 31.921875 91.316406 31.925781 92.832031 C 29.039062 99.503906 29.835938 107.207031 30.820312 111.996094 L 61.191406 111.996094 L 48.945312 100.609375 Z M 46.6875 41.40625 C 48.800781 41.40625 50.515625 39.902344 50.515625 38.050781 C 50.515625 36.195312 48.800781 34.695312 46.6875 34.695312 C 44.570312 34.695312 42.855469 36.195312 42.855469 38.050781 C 42.855469 39.902344 44.570312 41.40625 46.6875 41.40625 Z M 46.6875 41.40625 " fill-opacity="1" fill-rule="nonzero"/><g clip-path="url(#84947d6ae0)"><path fill="#493831" d="M 20.710938 65.484375 C 21.734375 67.367188 23.101562 69.015625 24.765625 70.382812 C 26.429688 71.746094 28.308594 72.761719 30.355469 73.398438 C 32.273438 73.992188 34.265625 74.230469 36.277344 74.101562 L 36.335938 74.710938 C 33.75 74.601562 31.003906 74.492188 30.90625 74.503906 C 30.304688 74.574219 29.609375 74.675781 29.144531 75.109375 C 28.589844 75.628906 28.621094 76.359375 28.703125 77.058594 C 28.707031 77.105469 28.710938 77.148438 28.71875 77.195312 C 27.363281 77.566406 26.042969 78.074219 24.847656 78.796875 C 23.042969 79.890625 21.695312 81.523438 21.085938 83.582031 C 20.457031 85.710938 20.570312 87.996094 20.78125 90.179688 C 21.035156 92.773438 21.351562 95.363281 21.636719 97.953125 C 22.15625 102.632812 22.675781 107.3125 23.191406 111.992188 L 23.808594 111.992188 C 23.363281 107.988281 22.921875 103.984375 22.476562 99.980469 C 22.175781 97.277344 21.878906 94.570312 21.578125 91.867188 C 21.332031 89.65625 21.042969 87.386719 21.371094 85.164062 C 21.53125 84.097656 21.835938 83.046875 22.371094 82.109375 C 22.894531 81.191406 23.625 80.410156 24.472656 79.792969 C 25.761719 78.855469 27.253906 78.257812 28.785156 77.832031 C 28.832031 78.332031 28.867188 78.835938 28.878906 79.335938 C 28.882812 79.378906 28.882812 79.445312 28.890625 79.527344 C 28.890625 80.007812 28.890625 80.492188 28.890625 80.972656 C 28.890625 81.53125 28.859375 82.101562 29.09375 82.621094 C 29.144531 82.730469 29.207031 82.839844 29.269531 82.945312 C 29.40625 83.332031 29.5625 83.714844 29.738281 84.085938 C 29.742188 84.722656 29.75 85.359375 29.757812 85.996094 C 29.753906 86.003906 29.753906 86.007812 29.75 86.015625 C 29.730469 86.066406 29.730469 86.117188 29.746094 86.167969 C 29.734375 86.238281 29.75 86.320312 29.8125 86.402344 C 30.09375 86.878906 30.710938 87.917969 30.742188 87.949219 C 30.765625 87.992188 31.332031 88.347656 31.570312 88.488281 C 31.566406 89.472656 31.5625 90.515625 31.5625 91.597656 C 31.351562 92.167969 31.148438 92.738281 30.953125 93.3125 C 30.824219 93.683594 31.40625 93.839844 31.535156 93.472656 C 31.679688 93.050781 32.664062 90.378906 33.074219 89.324219 C 34.105469 89.875 35.15625 90.386719 36.222656 90.863281 C 36.230469 90.863281 36.234375 90.863281 36.238281 90.867188 C 36.460938 91.171875 36.972656 90.871094 36.753906 90.550781 C 36.726562 90.511719 36.699219 90.472656 36.671875 90.433594 C 36.640625 89.804688 36.5625 89.183594 36.4375 88.570312 C 36.449219 88.539062 36.457031 88.511719 36.457031 88.480469 C 36.777344 88.492188 37.097656 88.503906 37.414062 88.511719 C 38.59375 91.5625 40.292969 94.402344 42.964844 96.375 C 43.878906 97.050781 44.886719 97.585938 45.960938 97.953125 C 46.003906 97.96875 46.042969 97.972656 46.078125 97.972656 C 46.527344 98.40625 46.980469 98.839844 47.429688 99.273438 C 46.195312 99.011719 44.980469 98.683594 43.777344 98.292969 C 43.40625 98.171875 43.25 98.757812 43.617188 98.875 C 45.015625 99.332031 48.054688 99.984375 48.117188 99.941406 C 50.183594 101.933594 52.246094 103.929688 54.3125 105.921875 C 56.40625 107.945312 58.503906 109.96875 60.601562 111.992188 L 61.472656 111.992188 C 60.757812 111.304688 60.042969 110.613281 59.328125 109.921875 C 56.597656 107.289062 53.867188 104.652344 51.140625 102.015625 C 49.640625 100.570312 48.144531 99.121094 46.644531 97.675781 C 46.972656 97.546875 47.300781 97.417969 47.625 97.289062 C 47.777344 97.230469 47.886719 97.085938 47.839844 96.917969 C 47.796875 96.773438 47.621094 96.644531 47.464844 96.703125 C 47.019531 96.882812 46.570312 97.058594 46.121094 97.234375 C 46.070312 97.253906 46.023438 97.285156 45.988281 97.320312 C 42.148438 95.941406 39.609375 92.394531 38.136719 88.726562 C 37.695312 87.625 37.328125 86.492188 37 85.351562 C 37.648438 85.449219 38.300781 85.546875 38.949219 85.644531 C 39.113281 85.671875 39.273438 85.605469 39.320312 85.433594 C 39.363281 85.292969 39.269531 85.085938 39.109375 85.0625 C 37.53125 84.820312 35.949219 84.582031 34.371094 84.34375 C 34.3125 84.308594 34.242188 84.296875 34.175781 84.316406 C 33.953125 84.28125 33.730469 84.246094 33.507812 84.214844 C 33.34375 84.1875 33.183594 84.253906 33.136719 84.425781 C 33.09375 84.566406 33.1875 84.773438 33.347656 84.796875 L 33.671875 84.847656 C 33.386719 85.1875 33.097656 85.53125 32.8125 85.871094 C 32.570312 86.160156 32.96875 86.578125 33.222656 86.320312 C 34.171875 86.984375 35.050781 87.742188 35.851562 88.578125 C 35.839844 88.621094 35.839844 88.667969 35.851562 88.714844 C 35.910156 89.011719 35.960938 89.308594 35.996094 89.605469 C 35.578125 89.164062 35.109375 88.773438 34.59375 88.441406 C 34.265625 88.226562 33.960938 88.753906 34.289062 88.964844 C 34.648438 89.195312 34.988281 89.464844 35.296875 89.757812 C 34.03125 89.121094 32.378906 88.203125 32.378906 88.203125 C 32.378906 88.203125 32.28125 88.152344 32.140625 88.078125 C 31.539062 87.765625 31.039062 87.289062 30.691406 86.703125 C 30.582031 86.519531 30.472656 86.335938 30.363281 86.152344 C 30.363281 86.148438 30.363281 86.140625 30.363281 86.136719 C 30.363281 86.125 30.363281 86.113281 30.363281 86.101562 C 30.933594 84.636719 31.621094 83.21875 32.417969 81.867188 C 32.496094 81.734375 32.566406 81.582031 32.671875 81.472656 C 32.796875 81.347656 32.957031 81.371094 33.121094 81.386719 C 33.527344 81.429688 33.929688 81.480469 34.335938 81.53125 C 35.171875 81.636719 36.007812 81.753906 36.84375 81.890625 C 37.78125 82.039062 38.71875 82.207031 39.652344 82.386719 C 40.03125 82.464844 40.195312 81.878906 39.8125 81.804688 C 38.050781 81.457031 36.273438 81.171875 34.492188 80.945312 C 34.046875 80.886719 33.601562 80.832031 33.152344 80.785156 C 32.765625 80.742188 32.425781 80.816406 32.167969 81.132812 C 31.910156 81.457031 31.722656 81.855469 31.523438 82.214844 C 31.316406 82.589844 31.117188 82.96875 30.925781 83.351562 C 30.789062 83.625 30.65625 83.898438 30.53125 84.171875 C 30.558594 83.503906 30.632812 82.832031 30.757812 82.171875 C 30.878906 81.527344 30.988281 80.679688 31.507812 80.21875 C 31.777344 79.976562 32.144531 79.917969 32.496094 79.90625 C 32.902344 79.894531 33.316406 79.917969 33.726562 79.929688 C 34.621094 79.953125 35.515625 79.976562 36.410156 80.003906 C 37.425781 80.03125 38.441406 80.058594 39.457031 80.085938 C 39.847656 80.09375 39.847656 79.488281 39.457031 79.476562 L 33.6875 79.320312 C 32.898438 79.300781 31.9375 79.15625 31.253906 79.648438 C 30.699219 80.050781 30.464844 80.707031 30.3125 81.355469 C 30.3125 81.355469 30.3125 81.351562 30.3125 81.351562 C 30.378906 80.578125 30.425781 79.941406 30.417969 79.789062 C 30.394531 79.464844 30.363281 79.140625 30.347656 78.816406 C 30.339844 78.589844 30.347656 78.324219 30.46875 78.121094 C 30.734375 77.683594 31.421875 77.65625 31.871094 77.617188 C 32.210938 77.585938 38.035156 78.269531 38.421875 78.324219 C 38.9375 78.398438 39.273438 77.191406 38.757812 77.117188 C 38.570312 77.09375 32.054688 76.789062 31.875 76.804688 C 31.265625 76.851562 30.570312 76.925781 30.089844 77.34375 C 29.515625 77.84375 29.519531 78.574219 29.574219 79.277344 C 29.632812 80.035156 29.675781 80.796875 29.667969 81.558594 C 29.667969 81.664062 29.671875 81.921875 29.683594 82.253906 C 29.683594 82.253906 29.683594 82.25 29.679688 82.25 C 29.65625 82.164062 29.605469 82.109375 29.546875 82.074219 C 29.460938 81.695312 29.496094 81.277344 29.496094 80.894531 L 29.496094 79.554688 C 29.546875 78.589844 29.582031 77.722656 29.5625 77.542969 C 29.53125 77.21875 29.484375 76.898438 29.460938 76.574219 C 29.441406 76.34375 29.4375 76.078125 29.554688 75.875 C 29.804688 75.425781 30.488281 75.371094 30.933594 75.3125 C 31.136719 75.289062 34 75.394531 36.417969 75.496094 L 36.417969 75.511719 L 36.839844 75.511719 C 38.335938 75.574219 39.574219 75.632812 39.757812 75.644531 C 40.597656 75.699219 41.339844 76.210938 41.695312 76.976562 C 43.445312 80.738281 48.484375 91.742188 48.484375 91.742188 C 48.484375 91.742188 50.558594 93.160156 53.816406 95.375 C 54.808594 96.070312 55.800781 96.761719 56.792969 97.453125 C 59.433594 99.289062 62.074219 101.121094 64.71875 102.949219 C 67.363281 104.773438 70.011719 106.59375 72.664062 108.410156 C 74.414062 109.605469 76.167969 110.800781 77.921875 111.996094 L 79.417969 111.996094 C 74.257812 108.457031 68.3125 104.351562 63.234375 100.945312 C 64.660156 100.953125 66.085938 100.910156 67.507812 100.820312 C 67.089844 101.023438 66.664062 101.203125 66.230469 101.367188 C 65.867188 101.5 66.023438 102.085938 66.390625 101.953125 C 67.308594 101.609375 68.195312 101.183594 69.03125 100.675781 C 69.269531 100.527344 69.191406 100.082031 68.878906 100.109375 C 66.714844 100.296875 64.546875 100.367188 62.375 100.328125 C 62.355469 100.324219 62.335938 100.328125 62.320312 100.328125 C 61.238281 99.605469 60.191406 98.902344 59.195312 98.234375 L 63.207031 98.234375 C 66.976562 98.234375 70.578125 96.601562 73.011719 93.714844 C 74.941406 91.421875 75.996094 88.550781 75.996094 85.511719 L 75.894531 76.675781 C 75.894531 76.65625 75.910156 76.640625 75.929688 76.640625 C 77.0625 76.691406 80.441406 76.847656 81.683594 77.003906 C 81.699219 77.003906 81.714844 77.019531 81.714844 77.039062 C 81.761719 78.257812 81.757812 83.703125 81.683594 90.464844 C 81.613281 90.269531 81.539062 90.074219 81.46875 89.875 C 81.4375 89.792969 81.082031 89.132812 80.957031 88.847656 C 80.890625 88.695312 80.671875 88.664062 80.542969 88.738281 C 80.386719 88.828125 80.367188 89.003906 80.433594 89.152344 C 80.515625 89.335938 81.542969 91.953125 82.3125 95.148438 C 83.09375 98.398438 83.609375 102.234375 83.632812 103.496094 C 83.6875 106.488281 83.320312 109.820312 83 111.996094 L 83.652344 111.996094 C 84.019531 108.847656 84.320312 104.363281 84.273438 103.019531 C 84.152344 99.59375 82.316406 91.636719 82.316406 91.636719 C 82.359375 88.101562 82.386719 84.570312 82.390625 81.757812 C 82.394531 80.226562 82.390625 78.964844 82.378906 78.101562 C 82.378906 77.789062 82.371094 77.527344 82.367188 77.316406 C 82.648438 77.367188 82.933594 77.421875 83.214844 77.480469 C 85.3125 77.925781 87.445312 78.574219 89.207031 79.851562 C 90.054688 80.46875 90.785156 81.246094 91.308594 82.167969 C 91.839844 83.105469 92.148438 84.15625 92.304688 85.222656 C 92.632812 87.441406 92.34375 89.714844 92.097656 91.925781 C 91.800781 94.628906 91.5 97.332031 91.199219 100.039062 C 90.757812 104.023438 90.316406 108.007812 89.875 111.996094 L 90.492188 111.996094 C 91.007812 107.332031 91.523438 102.671875 92.039062 98.011719 C 92.328125 95.417969 92.644531 92.832031 92.894531 90.238281 C 93.109375 88.054688 93.21875 85.769531 92.589844 83.640625 C 91.980469 81.578125 90.632812 79.949219 88.832031 78.855469 C 86.910156 77.691406 84.667969 77.089844 82.484375 76.699219 C 82.429688 76.691406 82.378906 76.683594 82.328125 76.675781 C 82.304688 76.570312 82.238281 76.4375 82.066406 76.40625 C 80.929688 76.199219 75.796875 75.988281 75.578125 75.976562 L 75.277344 75.964844 C 75.257812 75.964844 75.238281 75.980469 75.238281 76 L 75.242188 76.296875 C 75.105469 76.300781 74.972656 76.304688 74.835938 76.308594 C 73.523438 76.34375 72.207031 76.367188 70.894531 76.261719 C 69.8125 76.175781 68.722656 76.003906 67.714844 75.589844 C 66.804688 75.214844 65.976562 74.609375 65.496094 73.722656 C 64.953125 72.726562 64.878906 71.546875 64.855469 70.433594 C 64.792969 67.78125 64.921875 65.128906 65.207031 62.496094 C 65.402344 62.371094 68.855469 60.039062 69.183594 59.789062 C 70.101562 59.089844 70.980469 58.335938 71.792969 57.515625 C 72.023438 57.285156 72.261719 57.007812 72.511719 56.683594 C 74.582031 57.125 76.757812 56.90625 78.707031 56.089844 C 78.054688 56.566406 77.417969 57.097656 77.042969 57.824219 C 75.949219 59.9375 77.238281 61.234375 77.121094 60.855469 C 76.824219 59.902344 77.089844 58.902344 77.609375 58.078125 C 78.160156 57.207031 79.003906 56.578125 79.875 56.058594 C 81.652344 55 83.71875 54.277344 85.011719 52.566406 C 86.199219 50.996094 86.417969 48.929688 86.273438 47.023438 C 86.121094 45.007812 85.660156 42.980469 84.960938 41.089844 C 84.960938 41.085938 84.957031 41.085938 84.957031 41.085938 C 84.453125 39.328125 83.625 37.664062 82.519531 36.207031 C 82.085938 35.636719 81.621094 35.101562 81.113281 34.601562 C 83.398438 32.828125 84.578125 29.914062 84.496094 27.042969 C 84.40625 23.75 82.828125 20.6875 80.660156 18.277344 C 80.199219 17.765625 79.710938 17.28125 79.203125 16.816406 C 78.46875 14.5625 77.402344 12.414062 76.035156 10.472656 C 73.949219 7.511719 67.09375 2.464844 62.988281 1.078125 C 61.203125 0.476562 58.929688 0.421875 57.128906 2.449219 C 56.652344 1.171875 55.335938 0.351562 53.984375 0.210938 C 52.050781 0.00390625 50.164062 1.003906 48.53125 1.917969 C 46.121094 3.261719 43.902344 4.953125 41.957031 6.910156 C 41.414062 7.398438 40.890625 7.914062 40.390625 8.449219 C 39.011719 9.933594 37.808594 11.589844 36.832031 13.367188 C 35.898438 15.066406 35.164062 16.882812 34.675781 18.757812 C 34.289062 19.386719 33.527344 20.683594 32.789062 22.078125 C 32.117188 23.160156 31.425781 24.242188 30.839844 25.367188 C 30.527344 25.960938 30.273438 26.585938 30.164062 27.25 C 30.054688 27.933594 30.070312 28.621094 30.183594 29.300781 C 30.375 30.453125 30.84375 31.5625 31.503906 32.519531 C 32.167969 33.480469 33.019531 34.296875 34.007812 34.910156 C 31.902344 36.769531 31.496094 39.386719 32.304688 41.113281 C 32.316406 41.132812 32.324219 41.15625 32.335938 41.175781 C 30.570312 41.488281 28.886719 42.082031 27.3125 42.941406 C 25.433594 43.972656 23.792969 45.339844 22.429688 47.011719 C 21.070312 48.679688 20.058594 50.566406 19.425781 52.617188 C 18.769531 54.742188 18.550781 56.949219 18.773438 59.179688 C 18.996094 61.410156 19.648438 63.53125 20.710938 65.484375 Z M 34.324219 86.371094 L 36.695312 86.636719 C 36.71875 86.636719 36.738281 86.632812 36.753906 86.628906 C 36.890625 87.054688 37.035156 87.480469 37.1875 87.898438 C 36.855469 87.886719 36.074219 87.875 36.035156 87.898438 C 35.589844 87.453125 34.8125 86.765625 34.324219 86.371094 Z M 30.847656 29.542969 C 30.703125 28.914062 30.652344 28.265625 30.71875 27.625 C 30.753906 27.300781 30.824219 26.984375 30.925781 26.679688 C 30.753906 29.628906 31.933594 31.972656 33.125 33.476562 C 32 32.429688 31.1875 31.054688 30.847656 29.542969 Z M 42.246094 76.082031 C 42.003906 75.585938 41.15625 74.929688 40.878906 74.910156 C 40.695312 74.898438 39.648438 74.851562 38.300781 74.792969 L 38.207031 73.867188 C 39.953125 73.550781 41.621094 72.964844 43.179688 72.109375 C 45.058594 71.078125 46.703125 69.710938 48.0625 68.042969 C 48.324219 67.722656 48.570312 67.398438 48.800781 67.066406 C 48.839844 68.167969 48.847656 69.269531 48.820312 70.375 C 48.796875 71.488281 48.722656 72.671875 48.179688 73.664062 C 47.699219 74.550781 46.871094 75.160156 45.964844 75.53125 C 44.953125 75.949219 43.863281 76.117188 42.78125 76.203125 C 42.628906 76.214844 42.476562 76.226562 42.320312 76.234375 C 42.296875 76.183594 42.269531 76.128906 42.246094 76.082031 Z M 65.660156 74.980469 C 66.359375 75.695312 67.28125 76.148438 68.226562 76.433594 C 70.480469 77.113281 72.921875 76.988281 75.25 76.921875 L 75.347656 85.515625 C 75.347656 92.171875 69.949219 97.585938 63.316406 97.585938 L 58.277344 97.585938 C 58.277344 97.597656 58.28125 97.609375 58.28125 97.621094 C 56.441406 96.386719 54.789062 95.28125 53.421875 94.363281 C 52.34375 93.609375 51.265625 92.855469 50.1875 92.101562 C 49.859375 91.871094 49.535156 91.640625 49.207031 91.414062 C 48.488281 90.015625 44.4375 80.722656 42.621094 76.867188 C 43.582031 76.796875 44.53125 76.652344 45.449219 76.375 C 46.394531 76.089844 47.316406 75.640625 48.015625 74.921875 C 48.789062 74.132812 49.171875 73.085938 49.320312 72 C 49.488281 70.789062 49.460938 69.546875 49.445312 68.328125 C 49.4375 67.613281 49.414062 66.898438 49.378906 66.179688 C 49.875 65.371094 50.296875 64.519531 50.648438 63.632812 C 52.421875 64.660156 54.195312 65.644531 54.464844 65.753906 C 55.367188 66.121094 56.628906 66.0625 57.441406 66.027344 C 58.539062 65.984375 61.867188 64.5 64.546875 62.898438 C 64.496094 63.398438 64.453125 63.894531 64.414062 64.390625 C 64.308594 65.71875 64.25 67.050781 64.230469 68.386719 C 64.214844 69.601562 64.1875 70.84375 64.355469 72.054688 C 64.507812 73.140625 64.886719 74.191406 65.660156 74.980469 Z M 76.140625 56.179688 C 75.089844 56.347656 74.003906 56.332031 72.957031 56.140625 C 73.167969 55.90625 73.316406 55.734375 73.359375 55.660156 C 75.035156 55.964844 76.542969 55.976562 77.878906 55.746094 C 77.316406 55.941406 76.734375 56.089844 76.140625 56.179688 Z M 85.425781 45.6875 C 85.425781 45.5 85.421875 45.3125 85.414062 45.128906 C 85.5 45.605469 85.566406 46.085938 85.617188 46.5625 C 85.816406 48.445312 85.722656 50.5 84.59375 52.097656 C 83.707031 53.359375 82.320312 54.070312 80.960938 54.769531 C 81.226562 54.5625 81.484375 54.339844 81.730469 54.109375 C 84.164062 52.257812 85.425781 49.164062 85.425781 45.6875 Z M 82.484375 21.910156 C 82.734375 22.390625 82.957031 22.882812 83.144531 23.390625 C 82.390625 22.066406 81.261719 20.539062 79.714844 18.625 C 79.664062 18.414062 79.609375 18.199219 79.554688 17.988281 C 80.707031 19.152344 81.71875 20.449219 82.484375 21.910156 Z M 50.042969 1.804688 C 50.886719 1.382812 51.769531 1.015625 52.703125 0.859375 C 53.59375 0.707031 54.511719 0.800781 55.304688 1.25 C 55.707031 1.476562 56.078125 1.796875 56.335938 2.183594 C 54.296875 1.015625 51.75 1.296875 50.011719 1.816406 C 50.023438 1.8125 50.03125 1.808594 50.042969 1.804688 Z M 38.273438 29.851562 C 38.273438 27.421875 39.828125 23.023438 43.585938 19.917969 C 46.246094 17.722656 49.648438 16.824219 50.84375 16.769531 C 51.238281 16.753906 50.335938 16.1875 50.085938 16.222656 C 52.292969 15.402344 55.507812 16.15625 56.789062 16.519531 C 56.789062 16.519531 57.214844 6.570312 57.214844 7.222656 L 57.683594 16.351562 C 59.125 15.972656 62.128906 15.207031 64.164062 15.960938 C 63.914062 15.929688 63.007812 16.492188 63.402344 16.511719 C 64.601562 16.5625 68 17.460938 70.664062 19.660156 C 74.421875 22.765625 75.976562 27.164062 75.976562 29.589844 L 76.039062 41.316406 C 76.230469 40.871094 76.640625 36.539062 76.910156 36.136719 C 77.277344 35.59375 77.761719 34.933594 78.445312 34.886719 C 79.242188 34.832031 79.890625 35.203125 80.394531 35.746094 C 81.304688 36.726562 81.746094 38.273438 81.753906 38.902344 C 81.761719 39.542969 81.664062 40.175781 81.4375 40.773438 C 81.226562 41.339844 80.878906 41.816406 80.464844 42.246094 C 79.648438 43.082031 78.703125 43.792969 78.328125 44.960938 C 78.152344 45.5 78.121094 46.230469 77.703125 46.640625 C 77.1875 47.152344 76.535156 46.824219 76.316406 46.695312 C 76.296875 46.558594 76.25 46.222656 76.1875 45.902344 C 76.117188 45.5625 76.03125 45.246094 75.945312 45.214844 C 75.847656 45 75.738281 45.058594 75.640625 45.804688 C 75.34375 48.128906 74.730469 51.144531 73.46875 53.71875 C 72.492188 55.703125 71.003906 57.339844 69.5625 58.609375 C 67.984375 59.917969 66.265625 61.035156 65.410156 61.566406 C 64.523438 62.121094 63.621094 62.648438 62.714844 63.167969 C 61.792969 63.699219 60.875 64.238281 59.929688 64.726562 C 59.46875 64.964844 58.191406 65.382812 56.964844 65.394531 C 55.648438 65.40625 54.378906 64.988281 53.890625 64.738281 C 52.945312 64.25 52.027344 63.710938 51.105469 63.179688 C 51.023438 63.136719 50.945312 63.089844 50.867188 63.042969 C 50.9375 62.84375 51.007812 62.640625 51.070312 62.433594 C 51.726562 60.308594 51.945312 58.101562 51.722656 55.871094 C 51.5 53.640625 50.847656 51.519531 49.785156 49.566406 C 48.757812 47.683594 47.394531 46.035156 45.730469 44.667969 C 44.066406 43.304688 42.1875 42.289062 40.140625 41.652344 C 39.492188 41.453125 38.832031 41.289062 38.167969 41.171875 Z M 33.851562 36.007812 C 34.359375 35.460938 35.007812 35.089844 35.804688 35.148438 C 36.488281 35.195312 36.96875 35.855469 37.339844 36.398438 C 37.554688 36.71875 37.824219 39.71875 38.023438 41.148438 C 36.570312 40.898438 35.089844 40.847656 33.597656 41 C 33.339844 41.023438 33.085938 41.058594 32.832031 41.09375 C 32.824219 41.074219 32.816406 41.054688 32.808594 41.035156 C 32.585938 40.4375 32.488281 39.800781 32.492188 39.164062 C 32.5 38.53125 32.945312 36.988281 33.851562 36.007812 Z M 33.839844 43.414062 C 41.59375 42.636719 48.539062 48.332031 49.3125 56.113281 C 50.089844 63.894531 44.414062 70.855469 36.65625 71.636719 C 28.898438 72.414062 21.957031 66.71875 21.179688 58.9375 C 20.402344 51.15625 26.082031 44.191406 33.839844 43.414062 Z M 54.058594 54.148438 L 61.265625 54.148438 C 61.476562 54.148438 61.574219 53.96875 61.554688 53.804688 C 61.582031 53.710938 61.5625 53.609375 61.476562 53.523438 C 60.488281 52.546875 59.152344 51.960938 57.773438 51.933594 C 56.371094 51.90625 54.992188 52.460938 53.964844 53.425781 C 53.910156 53.476562 53.878906 53.539062 53.875 53.597656 C 53.6875 53.753906 53.746094 54.148438 54.058594 54.148438 Z M 55.242188 53.523438 L 55.242188 53.226562 C 56.003906 52.773438 56.886719 52.53125 57.773438 52.550781 C 58.546875 52.566406 59.304688 52.78125 59.980469 53.15625 L 59.980469 53.523438 C 59.980469 53.527344 59.980469 53.53125 59.980469 53.535156 L 55.242188 53.535156 C 55.242188 53.53125 55.242188 53.527344 55.242188 53.523438 Z M 30.320312 111.761719 C 29.660156 108.949219 29.355469 106.046875 29.414062 103.15625 C 29.476562 100.253906 29.902344 97.355469 30.695312 94.566406 C 30.808594 94.175781 31.402344 94.34375 31.289062 94.734375 C 30.851562 96.28125 30.519531 97.863281 30.308594 99.460938 C 29.9375 102.28125 29.929688 105.160156 30.273438 107.988281 C 30.4375 109.335938 30.683594 110.675781 31.011719 111.996094 L 30.378906 111.996094 C 30.359375 111.917969 30.339844 111.839844 30.320312 111.761719 Z M 49.4375 40.382812 C 48.433594 41.101562 47.140625 41.328125 45.957031 41.046875 C 46.035156 41.054688 46.113281 41.058594 46.195312 41.058594 C 47.191406 41.058594 48.039062 40.441406 48.351562 39.582031 L 47.050781 39.582031 C 46.414062 39.582031 46.414062 38.625 47.050781 38.625 L 48.46875 38.625 C 48.355469 37.507812 47.378906 36.632812 46.195312 36.632812 C 44.929688 36.632812 43.90625 37.625 43.90625 38.847656 C 43.90625 39.515625 44.214844 40.113281 44.699219 40.519531 C 44.378906 40.324219 44.085938 40.824219 44.402344 41.027344 C 45.996094 42.035156 48.203125 41.984375 49.738281 40.886719 C 49.867188 40.792969 49.929688 40.632812 49.84375 40.488281 C 49.769531 40.359375 49.566406 40.289062 49.4375 40.382812 Z M 45.476562 39.484375 C 44.839844 39.484375 44.839844 38.527344 45.476562 38.527344 C 46.113281 38.527344 46.113281 39.484375 45.476562 39.484375 Z M 40.53125 36.242188 C 40.40625 35.894531 40.980469 35.742188 41.101562 36.089844 C 41.21875 36.417969 41.582031 36.609375 41.925781 36.570312 C 42.035156 36.40625 42.148438 36.25 42.265625 36.101562 C 42.089844 36.042969 41.925781 35.933594 41.78125 35.820312 C 41.507812 35.597656 41.316406 35.285156 41.230469 34.949219 C 41.140625 34.589844 41.710938 34.4375 41.804688 34.796875 C 41.851562 34.988281 41.9375 35.15625 42.074219 35.300781 C 42.144531 35.371094 42.21875 35.429688 42.304688 35.480469 C 42.347656 35.503906 42.386719 35.53125 42.433594 35.546875 C 42.445312 35.554688 42.546875 35.578125 42.507812 35.59375 C 42.585938 35.5625 42.667969 35.550781 42.742188 35.570312 C 42.929688 35.382812 43.125 35.210938 43.332031 35.050781 C 44.101562 34.460938 44.996094 34.089844 45.914062 33.984375 C 46.902344 33.867188 47.878906 34.066406 48.738281 34.5625 L 48.75 34.570312 C 49.832031 35.28125 50.398438 36.390625 50.847656 37.285156 C 51.011719 37.605469 50.835938 37.929688 50.570312 38.054688 C 50.484375 38.09375 50.398438 38.113281 50.316406 38.113281 C 50.117188 38.113281 49.9375 38.007812 49.839844 37.816406 L 49.816406 37.765625 C 49.488281 37.125 49.152344 36.460938 48.65625 35.953125 C 47.863281 35.144531 46.574219 34.859375 45.371094 35.226562 C 44.304688 35.550781 43.347656 36.363281 42.671875 37.515625 C 42.570312 37.691406 42.398438 37.792969 42.203125 37.792969 C 41.992188 37.796875 41.789062 37.683594 41.679688 37.507812 C 41.609375 37.390625 41.585938 37.261719 41.613281 37.132812 C 41.125 37.054688 40.695312 36.714844 40.53125 36.242188 Z M 40.742188 29.242188 C 40.742188 29.242188 42.558594 27.605469 45.199219 27.289062 C 47.84375 26.96875 50.074219 27.867188 50.074219 27.867188 C 50.074219 27.867188 51.578125 28.449219 51.527344 28.976562 C 51.476562 29.503906 50.851562 29.824219 50.851562 29.824219 C 50.851562 29.824219 48.882812 28.554688 46.652344 28.292969 C 44.222656 28.003906 40.742188 29.242188 40.742188 29.242188 Z M 70.359375 40.128906 C 69.464844 40.773438 68.332031 41.023438 67.253906 40.867188 C 68.121094 40.761719 68.835938 40.183594 69.117188 39.410156 L 67.820312 39.410156 C 67.183594 39.410156 67.183594 38.453125 67.820312 38.453125 L 69.234375 38.453125 C 69.121094 37.335938 68.144531 36.460938 66.960938 36.460938 C 65.695312 36.460938 64.671875 37.453125 64.671875 38.675781 C 64.671875 39.292969 64.933594 39.851562 65.355469 40.253906 C 65.179688 40.34375 65.101562 40.632812 65.324219 40.773438 C 66.917969 41.785156 69.125 41.734375 70.660156 40.632812 C 70.789062 40.539062 70.851562 40.382812 70.765625 40.234375 C 70.691406 40.109375 70.488281 40.039062 70.359375 40.128906 Z M 66.242188 39.3125 C 65.609375 39.3125 65.605469 38.355469 66.242188 38.355469 C 66.878906 38.355469 66.878906 39.3125 66.242188 39.3125 Z M 74.027344 36.070312 C 73.859375 36.542969 73.429688 36.882812 72.945312 36.960938 C 72.96875 37.089844 72.949219 37.21875 72.875 37.335938 C 72.769531 37.511719 72.5625 37.625 72.355469 37.621094 C 72.15625 37.621094 71.984375 37.519531 71.882812 37.34375 C 71.210938 36.191406 70.253906 35.375 69.1875 35.054688 C 67.980469 34.6875 66.691406 34.972656 65.902344 35.777344 C 65.402344 36.285156 65.066406 36.953125 64.742188 37.59375 L 64.714844 37.640625 C 64.621094 37.835938 64.4375 37.941406 64.242188 37.941406 C 64.160156 37.941406 64.070312 37.921875 63.988281 37.882812 C 63.722656 37.757812 63.542969 37.433594 63.707031 37.113281 C 64.160156 36.21875 64.722656 35.105469 65.804688 34.398438 L 65.820312 34.386719 C 66.675781 33.894531 67.652344 33.695312 68.640625 33.808594 C 69.5625 33.917969 70.453125 34.285156 71.226562 34.878906 C 71.429688 35.039062 71.625 35.210938 71.8125 35.394531 C 71.886719 35.378906 71.972656 35.386719 72.046875 35.421875 C 72.007812 35.402344 72.113281 35.378906 72.125 35.375 C 72.167969 35.355469 72.210938 35.332031 72.25 35.308594 C 72.335938 35.257812 72.410156 35.199219 72.480469 35.128906 C 72.621094 34.984375 72.707031 34.8125 72.753906 34.625 C 72.84375 34.265625 73.417969 34.417969 73.324219 34.777344 C 73.242188 35.113281 73.046875 35.425781 72.773438 35.648438 C 72.628906 35.761719 72.464844 35.871094 72.289062 35.929688 C 72.410156 36.078125 72.523438 36.234375 72.632812 36.398438 C 72.976562 36.4375 73.339844 36.246094 73.453125 35.917969 C 73.574219 35.570312 74.148438 35.722656 74.027344 36.070312 Z M 62.964844 28.886719 C 62.914062 28.355469 64.417969 27.777344 64.417969 27.777344 C 64.417969 27.777344 66.648438 26.878906 69.292969 27.195312 C 71.9375 27.511719 73.75 29.148438 73.75 29.148438 C 73.75 29.148438 70.269531 27.910156 67.839844 28.199219 C 65.609375 28.460938 63.640625 29.730469 63.640625 29.730469 C 63.640625 29.730469 63.019531 29.414062 62.964844 28.886719 Z M 59.824219 56.320312 C 59.824219 56.496094 59.683594 56.636719 59.515625 56.636719 L 56.085938 56.636719 C 55.917969 56.636719 55.777344 56.496094 55.777344 56.320312 C 55.777344 56.148438 55.917969 56.007812 56.085938 56.007812 L 59.515625 56.007812 C 59.683594 56.007812 59.824219 56.148438 59.824219 56.320312 Z M 59.824219 56.320312 " fill-opacity="1" fill-rule="nonzero"/></g><path fill="#736357" d="M 55.648438 14.566406 C 53.558594 13.871094 51.300781 13.734375 49.144531 14.179688 C 47.351562 14.550781 45.703125 15.320312 44.207031 16.367188 C 42.847656 17.320312 41.464844 18.300781 40.429688 19.59375 C 39.34375 20.945312 38.226562 21.964844 37.183594 22.726562 C 34.347656 24.796875 32.042969 24.988281 32.308594 24.890625 C 34.042969 24.238281 35.578125 23.160156 36.976562 21.960938 C 39.539062 19.773438 41.757812 17.15625 44.632812 15.359375 C 47.953125 13.285156 52.085938 12.742188 55.808594 13.980469 C 56.175781 14.101562 56.019531 14.6875 55.648438 14.566406 Z M 41.777344 15.355469 C 44.359375 13.15625 47.714844 11.921875 51.09375 11.855469 C 52.046875 11.835938 53 11.910156 53.941406 12.078125 C 54.253906 12.136719 54.503906 11.6875 54.171875 11.523438 C 52.421875 10.667969 50.496094 10.238281 48.5625 10.257812 C 50.261719 9.726562 52.078125 9.578125 53.851562 9.480469 C 54.179688 9.464844 54.277344 8.96875 53.929688 8.886719 C 52.179688 8.453125 50.371094 8.3125 48.582031 8.457031 C 50.175781 7.917969 51.925781 7.847656 53.597656 7.789062 C 53.886719 7.78125 54.023438 7.375 53.75 7.226562 C 52.832031 6.722656 51.816406 6.414062 50.777344 6.316406 C 51.511719 6.128906 52.28125 6.09375 53.03125 6.222656 C 53.414062 6.289062 53.578125 5.703125 53.195312 5.636719 C 51.765625 5.390625 50.292969 5.648438 49.035156 6.382812 C 48.796875 6.523438 48.878906 6.988281 49.191406 6.949219 C 50.230469 6.820312 51.28125 6.917969 52.269531 7.242188 C 50.273438 7.355469 48.25 7.640625 46.558594 8.757812 C 46.265625 8.949219 46.453125 9.378906 46.789062 9.3125 C 48.304688 9.007812 49.859375 8.929688 51.394531 9.070312 C 49.6875 9.273438 48.003906 9.65625 46.472656 10.476562 C 46.148438 10.648438 46.382812 11.089844 46.703125 11.03125 C 48.375 10.738281 50.105469 10.820312 51.742188 11.253906 C 49.710938 11.207031 47.714844 11.679688 45.78125 12.292969 C 43.320312 13.074219 41.480469 15.605469 41.777344 15.355469 Z M 52.761719 4.59375 C 53.289062 4.644531 53.808594 4.6875 54.332031 4.582031 C 54.507812 4.542969 54.625 4.289062 54.511719 4.132812 C 54.222656 3.742188 53.847656 3.445312 53.421875 3.261719 C 53.828125 3.1875 54.285156 3.253906 54.667969 3.316406 C 54.832031 3.34375 54.992188 3.273438 55.039062 3.105469 C 55.082031 2.960938 54.992188 2.757812 54.828125 2.730469 C 53.984375 2.59375 53.019531 2.5 52.34375 3.140625 C 52.144531 3.332031 52.3125 3.640625 52.558594 3.660156 C 52.933594 3.6875 53.300781 3.824219 53.601562 4.050781 C 52.761719 4.0625 51.460938 4.207031 50.632812 4.492188 C 50.265625 4.617188 52.253906 4.546875 52.761719 4.59375 Z M 37.105469 23.925781 C 36.046875 25.257812 34.589844 26.214844 32.945312 26.640625 C 32.664062 26.714844 32.648438 27.164062 32.945312 27.226562 C 33.855469 27.421875 34.800781 27.375 35.679688 27.101562 C 35.59375 27.148438 35.503906 27.191406 35.414062 27.230469 C 34.796875 27.503906 33.0625 28.230469 33.449219 28.234375 C 34.277344 28.242188 35.09375 28.054688 35.839844 27.699219 C 36.207031 27.523438 36.546875 27.300781 36.863281 27.046875 C 37.167969 26.800781 37.449219 26.457031 37.40625 26.046875 C 37.386719 25.84375 37.15625 25.632812 36.953125 25.78125 C 36.238281 26.3125 35.390625 26.636719 34.519531 26.71875 C 35.6875 26.179688 36.730469 25.367188 37.53125 24.355469 C 37.636719 24.226562 37.65625 24.054688 37.53125 23.925781 C 37.429688 23.820312 37.207031 23.800781 37.105469 23.925781 Z M 35.546875 29.257812 C 35.105469 29.308594 33.921875 29.535156 33.921875 29.710938 C 33.921875 29.859375 35.105469 29.914062 35.546875 29.867188 C 35.707031 29.847656 35.847656 29.738281 35.847656 29.5625 C 35.847656 29.414062 35.710938 29.242188 35.546875 29.257812 Z M 82.285156 24.578125 C 80.550781 23.925781 79.015625 22.847656 77.613281 21.652344 C 75.054688 19.464844 72.835938 16.84375 69.960938 15.046875 C 66.640625 12.972656 62.507812 12.429688 58.785156 13.667969 C 58.414062 13.789062 58.574219 14.375 58.945312 14.253906 C 61.035156 13.558594 63.292969 13.425781 65.449219 13.867188 C 67.242188 14.238281 68.886719 15.007812 70.382812 16.054688 C 71.742188 17.007812 73.128906 17.988281 74.164062 19.28125 C 75.25 20.636719 76.367188 21.652344 77.410156 22.417969 C 80.242188 24.488281 82.550781 24.675781 82.285156 24.578125 Z M 61.398438 5.324219 C 61.015625 5.390625 61.179688 5.976562 61.558594 5.910156 C 62.3125 5.78125 63.082031 5.820312 63.8125 6.003906 C 62.777344 6.101562 61.761719 6.410156 60.84375 6.914062 C 60.570312 7.0625 60.707031 7.46875 60.996094 7.476562 C 62.664062 7.535156 64.417969 7.609375 66.011719 8.144531 C 64.222656 8 62.414062 8.140625 60.660156 8.574219 C 60.316406 8.660156 60.414062 9.152344 60.742188 9.167969 C 62.515625 9.265625 64.332031 9.414062 66.03125 9.949219 C 64.097656 9.925781 62.171875 10.355469 60.417969 11.210938 C 60.089844 11.375 60.339844 11.824219 60.652344 11.765625 C 61.589844 11.597656 62.546875 11.523438 63.5 11.542969 C 66.878906 11.609375 70.234375 12.84375 72.816406 15.042969 C 73.109375 15.292969 71.273438 12.761719 68.8125 11.980469 C 66.875 11.367188 64.882812 10.898438 62.851562 10.941406 C 64.488281 10.507812 66.21875 10.425781 67.886719 10.722656 C 68.207031 10.777344 68.441406 10.339844 68.121094 10.167969 C 66.589844 9.34375 64.90625 8.964844 63.195312 8.761719 C 64.730469 8.617188 66.285156 8.699219 67.804688 9 C 68.140625 9.070312 68.328125 8.636719 68.035156 8.445312 C 66.34375 7.328125 64.316406 7.042969 62.324219 6.929688 C 63.308594 6.605469 64.363281 6.507812 65.402344 6.636719 C 65.714844 6.675781 65.796875 6.210938 65.554688 6.070312 C 64.300781 5.335938 62.828125 5.082031 61.398438 5.324219 Z M 59.925781 3.003906 C 60.308594 2.941406 60.765625 2.875 61.171875 2.949219 C 60.742188 3.132812 60.371094 3.429688 60.082031 3.824219 C 59.96875 3.976562 60.082031 4.230469 60.261719 4.269531 C 60.785156 4.375 61.304688 4.332031 61.828125 4.285156 C 62.339844 4.234375 64.328125 4.304688 63.960938 4.179688 C 63.132812 3.898438 61.832031 3.75 60.992188 3.738281 C 61.292969 3.515625 61.660156 3.375 62.035156 3.347656 C 62.28125 3.332031 62.449219 3.023438 62.246094 2.828125 C 61.574219 2.191406 60.609375 2.285156 59.761719 2.421875 C 59.601562 2.445312 59.511719 2.648438 59.550781 2.792969 C 59.601562 2.960938 59.761719 3.03125 59.925781 3.003906 Z M 81.648438 26.328125 C 80.003906 25.902344 78.542969 24.945312 77.488281 23.613281 C 77.386719 23.488281 77.164062 23.507812 77.058594 23.613281 C 76.9375 23.742188 76.957031 23.914062 77.058594 24.042969 C 77.863281 25.058594 78.90625 25.867188 80.074219 26.410156 C 79.203125 26.324219 78.355469 26 77.640625 25.472656 C 77.4375 25.320312 77.207031 25.53125 77.1875 25.734375 C 77.144531 26.148438 77.425781 26.488281 77.726562 26.734375 C 78.042969 26.988281 78.386719 27.210938 78.753906 27.386719 C 79.5 27.746094 80.3125 27.929688 81.140625 27.921875 C 81.53125 27.917969 79.796875 27.191406 79.179688 26.917969 C 79.089844 26.878906 79 26.835938 78.914062 26.789062 C 79.792969 27.0625 80.738281 27.109375 81.648438 26.914062 C 81.945312 26.851562 81.929688 26.402344 81.648438 26.328125 Z M 79.046875 29.554688 C 79.488281 29.605469 80.671875 29.550781 80.671875 29.398438 C 80.671875 29.222656 79.488281 28.996094 79.046875 28.949219 C 78.882812 28.929688 78.746094 29.101562 78.746094 29.25 C 78.746094 29.429688 78.882812 29.535156 79.046875 29.554688 Z M 82.984375 49.820312 C 82.09375 51.058594 80.863281 52.121094 79.792969 52.671875 C 80.417969 52.214844 80.984375 51.664062 81.46875 51.050781 C 82.992188 49.113281 83.621094 46.675781 83.628906 44.234375 C 83.636719 42.753906 82.429688 39.617188 82.515625 39.996094 C 83.0625 42.398438 83.273438 44.949219 82.632812 47.355469 C 82.09375 49.382812 80.894531 51.238281 79.128906 52.398438 C 78.195312 53.011719 77.128906 53.40625 76.011719 53.46875 C 75.621094 53.492188 75.621094 54.054688 76.011719 54.074219 C 79.132812 54.238281 82.136719 52.515625 83.570312 49.726562 C 83.957031 48.972656 84.230469 48.164062 84.363281 47.324219 C 84.378906 47.246094 83.84375 48.625 82.984375 49.820312 Z M 76.886719 51.449219 C 76.550781 51.640625 76.851562 52.160156 77.191406 51.972656 C 79.308594 50.8125 80.425781 49.398438 80.996094 48.101562 C 81.949219 45.945312 81.378906 44.117188 81.363281 44.359375 C 81.203125 46.628906 80.113281 48.792969 78.441406 50.324219 C 77.964844 50.757812 77.445312 51.128906 76.886719 51.449219 Z M 76.886719 51.449219 " fill-opacity="1" fill-rule="nonzero"/></svg>